<svg xmlns="http://www.w3.org/2000/svg" xmlns:xlink="http://www.w3.org/1999/xlink" version="1.2" viewBox="0 0 149.862 54.626" height="72.835" width="199.816"><defs><symbol id="h" overflow="visible"><path d="M.688-5.938V0h1.546v-3.156c0-.906.454-1.36 1.36-1.36.156 0 .265.016.469.047V-6.03H3.89c-.72 0-1.329.453-1.657 1.25v-1.157zm0 0"/></symbol><symbol id="n" overflow="visible"><path d="M3.328-2.984s0-.079-.062-.22l-2.094-5.5c-.063-.14-.094-.265-.266-.265-.125 0-.234.11-.234.25 0 0 0 .063.062.203l2.094 5.532L.734 2.53c-.062.14-.062.219-.062.219 0 .125.11.234.234.234.156 0 .203-.109.25-.234l2.11-5.516c.062-.156.062-.218.062-.218zm0 0"/></symbol><symbol id="e" overflow="visible"><path d="M3.313-5.813h-.86v-1.593H.906v1.593h-.75v1.016h.75v3.656c0 .938.5 1.391 1.516 1.391.344 0 .61-.031.89-.125V-.953c-.156.031-.25.047-.359.047-.406 0-.5-.125-.5-.656v-3.235h.86zm0 0"/></symbol><symbol id="d" overflow="visible"><path d="M5.766-.188c-.282-.25-.36-.421-.36-.718V-4.22c0-1.203-.812-1.812-2.422-1.812-1.609 0-2.453.672-2.546 2.047h1.484c.078-.61.328-.813 1.094-.813.593 0 .89.203.89.594a.514.514 0 01-.265.469c-.204.109-.204.109-.97.218l-.608.11c-1.188.203-1.75.812-1.75 1.875 0 .515.14.922.406 1.218.344.36.86.563 1.39.563.657 0 1.266-.281 1.813-.844 0 .313.031.422.172.594h1.672zM3.906-2.39c0 .891-.437 1.407-1.219 1.407-.515 0-.843-.282-.843-.72 0-.468.25-.687.89-.812l.516-.109c.406-.063.484-.094.656-.188zm0 0"/></symbol><symbol id="a" overflow="visible"><path d="M5.516-1.61L6.03 0h1.703L4.97-8.016H3.14L.28 0h1.69l.547-1.61zm-.454-1.374H2.97l1.047-3.141zm0 0"/></symbol><symbol id="b" overflow="visible"><path d="M2.281-8.016H.734V0h1.547zm0 0"/></symbol><symbol id="c" overflow="visible"><path d="M7.828-4.313H4.61v1.375h1.829c-.047.454-.157.72-.407 1.016a2.1 2.1 0 01-1.625.766c-1.343 0-2.297-1.172-2.297-2.813 0-1.734.844-2.781 2.25-2.781.563 0 1.047.172 1.422.484.219.204.344.391.485.813h1.562C7.625-7.11 6.281-8.156 4.344-8.156 2.03-8.156.469-6.453.469-3.953.469-1.516 2.047.25 4.219.25c1.078 0 1.797-.375 2.422-1.281L6.828.016h1zm0 0"/></symbol><symbol id="f" overflow="visible"><path d="M.734-8.016V0h1.547v-3.563c0-.687.485-1.171 1.188-1.171.328 0 .594.125.765.375.125.187.172.343.172.734V0h1.547v-3.984c0-.735-.203-1.266-.61-1.61C5-5.875 4.517-6.03 4.017-6.03c-.766 0-1.313.297-1.735.953v-2.938zm0 0"/></symbol><symbol id="i" overflow="visible"><path d="M3.172-8.969C1.39-7.359.937-4.938.937-2.984c0 2.093.516 4.437 2.235 5.984h.719C3.437 2.562 2.703 1.64 2.28.281c-.328-1.062-.437-2.172-.437-3.25 0-3.531 1.25-5.25 2.047-6zm0 0"/></symbol><symbol id="j" overflow="visible"><path d="M1.36 3c1.796-1.594 2.25-4.031 2.25-5.969 0-2.11-.516-4.453-2.25-6H.64c.47.438 1.204 1.36 1.626 2.719.312 1.063.437 2.172.437 3.266C2.703.53 1.453 2.266.641 3zm0 0"/></symbol><symbol id="k" overflow="visible"><path d="M2.11-5.313h-.97v.97h.97zM1.14-.968V0h.97v-.969zm0 0"/></symbol><symbol id="A" overflow="visible"><path d="M3.125 2.984v-.718H2.031V-8.25h1.094v-.719H1.187V2.984zm0 0"/></symbol><symbol id="C" overflow="visible"><path d="M2.188-8.969H.25v.719h1.094V2.266H.25v.718h1.938zm0 0"/></symbol><symbol id="l" overflow="visible"><path d="M3.969 2.75s0-.078-.063-.219L1.812-2.984l2.094-5.532c.063-.14.063-.203.063-.203 0-.14-.11-.25-.235-.25-.156 0-.203.11-.25.25L1.375-3.203c-.063.14-.063.219-.063.219s0 .062.063.218L3.469 2.72c.062.156.094.265.265.265a.24.24 0 00.235-.234zm0 0"/></symbol><symbol id="g" overflow="visible"><path d="M5.766-2.484c.015-.141.015-.188.015-.266a5.06 5.06 0 00-.234-1.563C5.14-5.39 4.187-6.03 2.984-6.03c-1.703 0-2.75 1.218-2.75 3.218C.234-.905 1.281.25 2.954.25c1.343 0 2.421-.75 2.75-1.922H4.187c-.188.469-.61.75-1.172.75-.438 0-.797-.187-1.016-.515-.14-.22-.203-.485-.219-1.047zm-3.97-1.032c.11-.89.485-1.343 1.173-1.343.39 0 .734.187.953.5.14.218.219.437.25.843zm0 0"/></symbol><symbol id="o" overflow="visible"><path d="M11.266-2.984a.136.136 0 00-.094-.125A3.744 3.744 0 018.719-6c0-.063-.063-.11-.125-.11h-.219c-.063 0-.125.063-.125.157a4.259 4.259 0 001.703 2.719H.906c-.172 0-.25.125-.25.25 0 .109.078.234.25.234h9.047A4.259 4.259 0 008.25-.031c0 .11.063.156.125.156h.219c.062 0 .125-.047.125-.094a3.766 3.766 0 012.453-2.906c.047 0 .094-.047.094-.11zm0 0"/></symbol><symbol id="m" overflow="visible"><path d="M5.766-2.406L6.062 0h1.125L6.079-8.016H4.75L.187 0h1.094l1.344-2.406zm-.11-.86H3.11l2.11-3.671zm0 0"/></symbol><symbol id="s" overflow="visible"><path d="M4.031-5.766h-.984l.344-1.578h-.922l-.344 1.578h-.781l-.157.735h.782L1.094-.953a2.5 2.5 0 00-.032.344c0 .53.375.859.985.859.219 0 .562-.031.719-.078l.171-.797c-.343.078-.39.094-.53.094-.235 0-.391-.125-.391-.313 0-.031.015-.078.015-.14l.86-4.047h.984zm0 0"/></symbol><symbol id="p" overflow="visible"><path d="M3.156 0l3.422-5.766h-1L2.891-1.125l-.532-4.64H1.344L2.156 0zm0 0"/></symbol><symbol id="t" overflow="visible"><path d="M4.219-5.922c-1.016 0-1.922.453-2.485 1.266-.484.703-.859 1.922-.859 2.86C.875-.579 1.735.25 2.953.25c1.063 0 1.89-.422 2.516-1.266.5-.703.875-1.906.875-2.859 0-.578-.235-1.14-.61-1.516-.375-.359-.875-.53-1.515-.53zm-.14.844c.812 0 1.296.531 1.296 1.422 0 .64-.188 1.36-.484 1.906-.422.766-1.016 1.156-1.782 1.156-.78 0-1.265-.547-1.265-1.437 0-.625.187-1.344.484-1.89.406-.75 1.031-1.157 1.75-1.157zm0 0"/></symbol><symbol id="u" overflow="visible"><path d="M1.984-5.766L.766 0h.921l.641-2.984C2.61-4.328 3.391-5 4.594-4.97l.203-.922c-.14-.03-.234-.03-.36-.03-.625 0-1.125.28-1.812 1.062l.188-.907zm0 0"/></symbol><symbol id="v" overflow="visible"><path d="M6.078-.563c-.11.032-.156.032-.187.032-.297 0-.422-.11-.422-.328 0-.047 0-.079.015-.11l.704-3.312c.062-.297.062-.297.062-.407 0-.75-.766-1.234-1.922-1.234-1.516 0-2.453.64-2.672 1.86h.922c.11-.297.188-.454.344-.61.234-.25.703-.406 1.172-.406.656 0 1.172.297 1.172.703 0 .047-.016.125-.032.203l-.03.203c-.095.453-.313.563-1.11.64-1.469.142-1.938.25-2.485.595-.562.359-.89.937-.89 1.578C.719-.281 1.313.25 2.297.25c.39 0 .844-.078 1.25-.219.344-.125.515-.234.969-.625v.125c0 .453.296.719.828.719.125 0 .156 0 .437-.063.016-.015.078-.015.14-.03zM4.734-1.796C4.594-1.125 3.625-.53 2.656-.53c-.625 0-.969-.266-.969-.735 0-.359.204-.718.532-.921.265-.172.594-.25 1.14-.329 1.032-.14 1.125-.156 1.61-.328zm0 0"/></symbol><symbol id="q" overflow="visible"><path d="M6.188-2.578l.03-.188a6.66 6.66 0 00.157-1.28c0-1.063-.906-1.876-2.094-1.876-.953 0-1.89.438-2.437 1.188-.516.687-.922 1.937-.922 2.828 0 .593.25 1.203.687 1.61.375.374.86.546 1.5.546 1.313 0 2.454-.813 2.782-2h-.922C4.579-.984 4-.594 3.25-.594c-.86 0-1.36-.547-1.36-1.469 0-.234.016-.343.063-.515zM2.14-3.36c.296-1.016 1.109-1.72 2-1.72.78 0 1.265.532 1.265 1.345 0 .109 0 .187-.031.375zm0 0"/></symbol><symbol id="r" overflow="visible"><path d="M6.063-3.828L6.077-4c0-.156.016-.281.016-.313 0-.359-.203-.796-.485-1.093-.343-.36-.796-.516-1.421-.516-.985 0-1.875.406-2.454 1.172-.53.672-.89 1.875-.89 2.875 0 .516.172 1.063.469 1.453.375.469.875.672 1.578.672.906 0 1.656-.313 2.171-.906.282-.328.454-.703.641-1.328H4.78c-.343.906-.937 1.39-1.734 1.39-.766 0-1.25-.547-1.25-1.39 0-.704.234-1.547.594-2.125.421-.641.968-.97 1.64-.97.688 0 1.11.376 1.11 1.016v.235zm0 0"/></symbol><symbol id="w" overflow="visible"><path d="M2.016-5.203c-.485 0-.922.219-1.188.578-.344.453-.515 1.156-.515 2.11C.313-.766.905.171 2.016.171c1.093 0 1.703-.938 1.703-2.64 0-1.016-.172-1.688-.516-2.157a1.466 1.466 0 00-1.187-.578zm0 .578c.703 0 1.046.703 1.046 2.094C3.063-1.062 2.72-.36 2-.36 1.312-.36.969-1.08.969-2.5c0-1.422.344-2.125 1.047-2.125zm0 0"/></symbol><symbol id="x" overflow="visible"><path d="M1.89-3.703V0h.657v-5.203h-.422c-.234.812-.375.922-1.375 1.047v.453zm0 0"/></symbol><symbol id="y" overflow="visible"><path d="M3.703-.64H.97c.078-.422.312-.688.937-1.063l.735-.406C3.375-2.5 3.75-3.031 3.75-3.672c0-.437-.188-.828-.484-1.11-.313-.28-.688-.421-1.188-.421-.656 0-1.14.234-1.437.687-.172.266-.266.594-.282 1.125h.657c.015-.359.062-.562.156-.734.156-.313.5-.5.89-.5.579 0 1.016.406 1.016.969 0 .406-.234.765-.703 1.031l-.672.375C.625-1.64.313-1.14.25 0h3.453zm0 0"/></symbol><symbol id="z" overflow="visible"><path d="M1.625-2.375h.078l.266-.016c.718 0 1.078.329 1.078.954 0 .64-.406 1.03-1.078 1.03C1.266-.406.922-.75.875-1.515h-.64c.03.422.109.688.234.922.25.5.765.766 1.484.766 1.063 0 1.75-.64 1.75-1.625 0-.656-.25-1.031-.875-1.234.485-.188.719-.563.719-1.079 0-.89-.594-1.437-1.578-1.437-1.047 0-1.61.578-1.625 1.687h.64c.016-.312.047-.5.125-.656.141-.281.47-.453.875-.453.563 0 .907.328.907.875 0 .375-.125.594-.407.703-.187.078-.406.11-.859.11zm0 0"/></symbol><symbol id="B" overflow="visible"><path d="M2.328.047c0-.688-.219-1.203-.719-1.203-.375 0-.562.312-.562.578 0 .25.172.578.578.578a.518.518 0 00.39-.156c.032-.016.047-.016.047-.016s.032.156.032.219c0 .39-.078 1.172-.766 1.953-.14.14-.14.188-.14.188 0 .062.062.124.125.124.093 0 1.015-.89 1.015-2.265zm0 0"/></symbol></defs><g transform="translate(-166.701 -3.664)"><use xlink:href="#a" x="166.42" y="12.633" width="100%" height="100%"/><use xlink:href="#b" x="174.361" y="12.633" width="100%" height="100%"/><use xlink:href="#b" x="177.419" y="12.633" width="100%" height="100%"/><use xlink:href="#c" x="180.476" y="12.633" width="100%" height="100%"/><use xlink:href="#d" x="189.033" y="12.633" width="100%" height="100%"/><use xlink:href="#e" x="195.149" y="12.633" width="100%" height="100%"/><use xlink:href="#f" x="198.811" y="12.633" width="100%" height="100%"/><use xlink:href="#g" x="205.531" y="12.633" width="100%" height="100%"/><use xlink:href="#h" x="211.647" y="12.633" width="100%" height="100%"/></g><g transform="translate(-166.701 -3.664)"><use xlink:href="#i" x="215.925" y="12.633" width="100%" height="100%"/><use xlink:href="#j" x="220.478" y="12.633" width="100%" height="100%"/></g><use xlink:href="#k" x="228.354" y="12.633" width="100%" height="100%" transform="translate(-166.701 -3.664)"/><use xlink:href="#l" x="234.923" y="12.633" width="100%" height="100%" transform="translate(-166.701 -3.664)"/><use xlink:href="#m" x="239.572" y="12.633" width="100%" height="100%" transform="translate(-166.701 -3.664)" fill="#283acc"/><use xlink:href="#n" x="246.908" y="12.633" width="100%" height="100%" transform="translate(-166.701 -3.664)"/><use xlink:href="#o" x="254.881" y="12.633" width="100%" height="100%" transform="translate(-166.701 -3.664)"/><use xlink:href="#p" x="270.154" y="12.633" width="100%" height="100%" transform="translate(-166.701 -3.664)"/><g transform="translate(-166.701 -3.664)"><use xlink:href="#q" x="275.378" y="12.633" width="100%" height="100%"/><use xlink:href="#r" x="281.494" y="12.633" width="100%" height="100%"/><use xlink:href="#s" x="286.993" y="12.633" width="100%" height="100%"/><use xlink:href="#t" x="290.051" y="12.633" width="100%" height="100%"/><use xlink:href="#u" x="296.166" y="12.633" width="100%" height="100%"/></g><use xlink:href="#i" x="301.066" y="12.633" width="100%" height="100%" transform="translate(-166.701 -3.664)"/><use xlink:href="#m" x="305.618" y="12.633" width="100%" height="100%" transform="translate(-166.701 -3.664)" fill="#283acc"/><use xlink:href="#j" x="312.954" y="12.633" width="100%" height="100%" transform="translate(-166.701 -3.664)"/><path d="M55.42 18.89H35.58v19.84h19.84zm0 0" fill="#d4d7f5" stroke="#000" stroke-width=".598" stroke-miterlimit="10"/><use xlink:href="#v" x="206.854" y="34.44" width="100%" height="100%" transform="translate(-166.701 -3.664)"/><use xlink:href="#w" x="212.97" y="36.233" width="100%" height="100%" transform="translate(-166.701 -3.664)"/><path d="M75.264 18.89H55.42v19.84h19.844zm0 0" fill="#d4d7f5" stroke="#000" stroke-width=".598" stroke-miterlimit="10"/><use xlink:href="#v" x="226.697" y="34.515" width="100%" height="100%" transform="translate(-166.701 -3.664)"/><use xlink:href="#x" x="232.812" y="36.308" width="100%" height="100%" transform="translate(-166.701 -3.664)"/><path d="M95.107 18.89H75.264v19.84h19.843zm0 0" fill="#d4d7f5" stroke="#000" stroke-width=".598" stroke-miterlimit="10"/><use xlink:href="#v" x="246.54" y="34.515" width="100%" height="100%" transform="translate(-166.701 -3.664)"/><use xlink:href="#y" x="252.655" y="36.308" width="100%" height="100%" transform="translate(-166.701 -3.664)"/><path d="M114.951 18.89H95.107v19.84h19.844zm0 0" fill="#d4d7f5" stroke="#000" stroke-width=".598" stroke-miterlimit="10"/><use xlink:href="#v" x="266.383" y="34.44" width="100%" height="100%" transform="translate(-166.701 -3.664)"/><use xlink:href="#z" x="272.498" y="36.233" width="100%" height="100%" transform="translate(-166.701 -3.664)"/><use xlink:href="#A" x="237.105" y="55.306" width="100%" height="100%" transform="translate(-166.701 -3.664)"/><use xlink:href="#v" x="242.48" y="55.306" width="100%" height="100%" transform="translate(-166.701 -3.664)"/><use xlink:href="#w" x="248.595" y="57.1" width="100%" height="100%" transform="translate(-166.701 -3.664)"/><use xlink:href="#B" x="253.17" y="55.306" width="100%" height="100%" transform="translate(-166.701 -3.664)"/><use xlink:href="#v" x="258.415" y="55.306" width="100%" height="100%" transform="translate(-166.701 -3.664)"/><use xlink:href="#x" x="264.53" y="57.1" width="100%" height="100%" transform="translate(-166.701 -3.664)"/><use xlink:href="#B" x="269.105" y="55.306" width="100%" height="100%" transform="translate(-166.701 -3.664)"/><use xlink:href="#v" x="274.349" y="55.306" width="100%" height="100%" transform="translate(-166.701 -3.664)"/><use xlink:href="#y" x="280.464" y="57.1" width="100%" height="100%" transform="translate(-166.701 -3.664)"/><use xlink:href="#B" x="285.039" y="55.306" width="100%" height="100%" transform="translate(-166.701 -3.664)"/><use xlink:href="#v" x="290.283" y="55.306" width="100%" height="100%" transform="translate(-166.701 -3.664)"/><use xlink:href="#z" x="296.398" y="57.1" width="100%" height="100%" transform="translate(-166.701 -3.664)"/><use xlink:href="#C" x="302.966" y="55.306" width="100%" height="100%" transform="translate(-166.701 -3.664)"/><path d="M59.678 48.652H48.4" fill="none" stroke="#000" stroke-width="1.196" stroke-linecap="round" stroke-miterlimit="10"/><path d="M57.244 44.824c.555 2.297 1.79 3.383 3.031 3.828-1.242.45-2.476 1.535-3.03 3.832" fill="none" stroke="#000" stroke-width="1.196" stroke-linecap="round" stroke-linejoin="round" stroke-miterlimit="10"/></svg>