<svg xmlns="http://www.w3.org/2000/svg" xmlns:xlink="http://www.w3.org/1999/xlink" version="1.2" viewBox="0 0 160.761 69.088" height="92.117" width="214.348"><defs><symbol id="i" overflow="visible"><path d="M5.656-4.156a2.14 2.14 0 00.063-.469c0-.781-.735-1.297-1.797-1.297-.781 0-1.453.219-1.906.656a2.094 2.094 0 00-.657 1.47c0 .671.375.983 1.516 1.28l.813.22c.359.093.53.155.624.28.079.11.141.266.141.36 0 .203-.172.547-.344.687-.28.235-.75.375-1.234.375-.75 0-1.188-.297-1.188-.844 0-.062.016-.171.032-.28H.734a2.84 2.84 0 00-.062.562C.672-.281 1.437.25 2.719.25c1.64 0 2.703-.844 2.703-2.156 0-.672-.36-1.016-1.328-1.266l-.844-.203c-.61-.156-.922-.375-.922-.656 0-.219.125-.5.328-.688.266-.25.594-.36 1.078-.36.641 0 1 .25 1 .673v.25zm0 0"/></symbol><symbol id="d" overflow="visible"><path d="M5.766-2.484c.015-.141.015-.188.015-.266a5.06 5.06 0 00-.234-1.563C5.14-5.39 4.187-6.03 2.984-6.03c-1.703 0-2.75 1.218-2.75 3.218C.234-.905 1.281.25 2.954.25c1.343 0 2.421-.75 2.75-1.922H4.187c-.188.469-.61.75-1.172.75-.438 0-.797-.187-1.016-.515-.14-.22-.203-.485-.219-1.047zm-3.97-1.032c.11-.89.485-1.343 1.173-1.343.39 0 .734.187.953.5.14.218.219.437.25.843zm0 0"/></symbol><symbol id="a" overflow="visible"><path d="M5.516-1.61L6.03 0h1.703L4.97-8.016H3.14L.28 0h1.69l.547-1.61zm-.454-1.374H2.97l1.047-3.141zm0 0"/></symbol><symbol id="b" overflow="visible"><path d="M2.281-8.016H.734V0h1.547zm0 0"/></symbol><symbol id="c" overflow="visible"><path d="M2.531-3.172h1.89c.72 0 1.016.281 1.016.953v.313c-.015.218-.015.406-.015.531 0 .75.047.984.25 1.375h1.781v-.297c-.266-.14-.36-.312-.36-.656C7.048-3.328 7-3.438 5.985-3.875c.907-.344 1.36-1 1.36-1.984 0-.625-.235-1.22-.61-1.61-.359-.375-.875-.547-1.546-.547H.875V0h1.656zm0-1.375V-6.64h1.985c.484 0 .671.047.875.204.203.171.296.437.296.812 0 .39-.109.703-.296.86-.172.156-.391.218-.875.218zm0 0"/></symbol><symbol id="e" overflow="visible"><path d="M4.453 0H6v-8.016H4.453v2.844c-.39-.594-.906-.86-1.64-.86-1.422 0-2.5 1.36-2.5 3.157 0 .797.25 1.61.64 2.188.406.562 1.14.937 1.86.937.734 0 1.25-.266 1.64-.86zM3.156-4.75c.781 0 1.297.75 1.297 1.89 0 1.079-.531 1.829-1.297 1.829-.765 0-1.297-.766-1.297-1.844 0-1.11.532-1.875 1.297-1.875zm0 0"/></symbol><symbol id="g" overflow="visible"><path d="M5.734-3.719C5.625-5.172 4.656-6.03 3.172-6.03 1.406-6.031.375-4.875.375-2.844.375-.89 1.391.25 3.156.25c1.438 0 2.438-.89 2.578-2.313H4.266c-.204.782-.5 1.079-1.094 1.079-.781 0-1.266-.704-1.266-1.86 0-.562.125-1.094.313-1.453.172-.328.515-.5.953-.5.625 0 .922.297 1.094 1.078zm0 0"/></symbol><symbol id="h" overflow="visible"><path d="M3.172-8.969C1.39-7.359.937-4.938.937-2.984c0 2.093.516 4.437 2.235 5.984h.719C3.437 2.562 2.703 1.64 2.28.281c-.328-1.062-.437-2.172-.437-3.25 0-3.531 1.25-5.25 2.047-6zm0 0"/></symbol><symbol id="j" overflow="visible"><path d="M1.36 3c1.796-1.594 2.25-4.031 2.25-5.969 0-2.11-.516-4.453-2.25-6H.64c.47.438 1.204 1.36 1.626 2.719.312 1.063.437 2.172.437 3.266C2.703.53 1.453 2.266.641 3zm0 0"/></symbol><symbol id="k" overflow="visible"><path d="M2.11-5.313h-.97v.97h.97zM1.14-.968V0h.97v-.969zm0 0"/></symbol><symbol id="l" overflow="visible"><path d="M3.969 2.75s0-.078-.063-.219L1.812-2.984l2.094-5.532c.063-.14.063-.203.063-.203 0-.14-.11-.25-.235-.25-.156 0-.203.11-.25.25L1.375-3.203c-.063.14-.063.219-.063.219s0 .062.063.218L3.469 2.72c.062.156.094.265.265.265a.24.24 0 00.235-.234zm0 0"/></symbol><symbol id="n" overflow="visible"><path d="M3.328-2.984s0-.079-.062-.22l-2.094-5.5c-.063-.14-.094-.265-.266-.265-.125 0-.234.11-.234.25 0 0 0 .063.062.203l2.094 5.532L.734 2.53c-.062.14-.062.219-.062.219 0 .125.11.234.234.234.156 0 .203-.109.25-.234l2.11-5.516c.062-.156.062-.218.062-.218zm0 0"/></symbol><symbol id="o" overflow="visible"><path d="M11.266-2.984a.136.136 0 00-.094-.125A3.744 3.744 0 018.719-6c0-.063-.063-.11-.125-.11h-.219c-.063 0-.125.063-.125.157a4.259 4.259 0 001.703 2.719H.906c-.172 0-.25.125-.25.25 0 .109.078.234.25.234h9.047A4.259 4.259 0 008.25-.031c0 .11.063.156.125.156h.219c.062 0 .125-.047.125-.094a3.766 3.766 0 012.453-2.906c.047 0 .094-.047.094-.11zm0 0"/></symbol><symbol id="v" overflow="visible"><path d="M7.531-.344c0-.094-.031-.125-.156-.25L5-2.984l2.375-2.391c.125-.14.156-.156.156-.25 0-.14-.11-.25-.234-.25-.094 0-.156.047-.25.156l-2.39 2.39-2.407-2.39c-.14-.125-.156-.156-.25-.156-.125 0-.25.11-.25.25 0 .094.063.14.156.25l2.39 2.39-2.39 2.376c-.11.125-.156.187-.156.265 0 .125.125.235.25.235.094 0 .11-.016.25-.157l2.39-2.39 2.391 2.39c.11.125.188.157.266.157a.23.23 0 00.234-.235zm0 0"/></symbol><symbol id="m" overflow="visible"><path d="M5.766-2.406L6.062 0h1.125L6.079-8.016H4.75L.187 0h1.094l1.344-2.406zm-.11-.86H3.11l2.11-3.671zm0 0"/></symbol><symbol id="s" overflow="visible"><path d="M4.031-5.766h-.984l.344-1.578h-.922l-.344 1.578h-.781l-.157.735h.782L1.094-.953a2.5 2.5 0 00-.032.344c0 .53.375.859.985.859.219 0 .562-.031.719-.078l.171-.797c-.343.078-.39.094-.53.094-.235 0-.391-.125-.391-.313 0-.031.015-.078.015-.14l.86-4.047h.984zm0 0"/></symbol><symbol id="p" overflow="visible"><path d="M3.156 0l3.422-5.766h-1L2.891-1.125l-.532-4.64H1.344L2.156 0zm0 0"/></symbol><symbol id="t" overflow="visible"><path d="M4.219-5.922c-1.016 0-1.922.453-2.485 1.266-.484.703-.859 1.922-.859 2.86C.875-.579 1.735.25 2.953.25c1.063 0 1.89-.422 2.516-1.266.5-.703.875-1.906.875-2.859 0-.578-.235-1.14-.61-1.516-.375-.359-.875-.53-1.515-.53zm-.14.844c.812 0 1.296.531 1.296 1.422 0 .64-.188 1.36-.484 1.906-.422.766-1.016 1.156-1.782 1.156-.78 0-1.265-.547-1.265-1.437 0-.625.187-1.344.484-1.89.406-.75 1.031-1.157 1.75-1.157zm0 0"/></symbol><symbol id="f" overflow="visible"><path d="M5.953 0v-5.938H4.406v3.72c0 .702-.484 1.155-1.234 1.155-.656 0-1-.343-1-1.062v-3.813H.64v4.141C.64-.5 1.359.25 2.625.25c.813 0 1.344-.297 1.781-.953V0zm0 0"/></symbol><symbol id="u" overflow="visible"><path d="M1.984-5.766L.766 0h.921l.641-2.984C2.61-4.328 3.391-5 4.594-4.97l.203-.922c-.14-.03-.234-.03-.36-.03-.625 0-1.125.28-1.812 1.062l.188-.907zm0 0"/></symbol><symbol id="F" overflow="visible"><path d="M6.078-.563c-.11.032-.156.032-.187.032-.297 0-.422-.11-.422-.328 0-.047 0-.079.015-.11l.704-3.312c.062-.297.062-.297.062-.407 0-.75-.766-1.234-1.922-1.234-1.516 0-2.453.64-2.672 1.86h.922c.11-.297.188-.454.344-.61.234-.25.703-.406 1.172-.406.656 0 1.172.297 1.172.703 0 .047-.016.125-.032.203l-.03.203c-.095.453-.313.563-1.11.64-1.469.142-1.938.25-2.485.595-.562.359-.89.937-.89 1.578C.719-.281 1.313.25 2.297.25c.39 0 .844-.078 1.25-.219.344-.125.515-.234.969-.625v.125c0 .453.296.719.828.719.125 0 .156 0 .437-.063.016-.015.078-.015.14-.03zM4.734-1.796C4.594-1.125 3.625-.53 2.656-.53c-.625 0-.969-.266-.969-.735 0-.359.204-.718.532-.921.265-.172.594-.25 1.14-.329 1.032-.14 1.125-.156 1.61-.328zm0 0"/></symbol><symbol id="q" overflow="visible"><path d="M6.188-2.578l.03-.188a6.66 6.66 0 00.157-1.28c0-1.063-.906-1.876-2.094-1.876-.953 0-1.89.438-2.437 1.188-.516.687-.922 1.937-.922 2.828 0 .593.25 1.203.687 1.61.375.374.86.546 1.5.546 1.313 0 2.454-.813 2.782-2h-.922C4.579-.984 4-.594 3.25-.594c-.86 0-1.36-.547-1.36-1.469 0-.234.016-.343.063-.515zM2.14-3.36c.296-1.016 1.109-1.72 2-1.72.78 0 1.265.532 1.265 1.345 0 .109 0 .187-.031.375zm0 0"/></symbol><symbol id="r" overflow="visible"><path d="M6.063-3.828L6.077-4c0-.156.016-.281.016-.313 0-.359-.203-.796-.485-1.093-.343-.36-.796-.516-1.421-.516-.985 0-1.875.406-2.454 1.172-.53.672-.89 1.875-.89 2.875 0 .516.172 1.063.469 1.453.375.469.875.672 1.578.672.906 0 1.656-.313 2.171-.906.282-.328.454-.703.641-1.328H4.78c-.343.906-.937 1.39-1.734 1.39-.766 0-1.25-.547-1.25-1.39 0-.704.234-1.547.594-2.125.421-.641.968-.97 1.64-.97.688 0 1.11.376 1.11 1.016v.235zm0 0"/></symbol><symbol id="G" overflow="visible"><path d="M2.016-5.203c-.485 0-.922.219-1.188.578-.344.453-.515 1.156-.515 2.11C.313-.766.905.171 2.016.171c1.093 0 1.703-.938 1.703-2.64 0-1.016-.172-1.688-.516-2.157a1.466 1.466 0 00-1.187-.578zm0 .578c.703 0 1.046.703 1.046 2.094C3.063-1.062 2.72-.36 2-.36 1.312-.36.969-1.08.969-2.5c0-1.422.344-2.125 1.047-2.125zm0 0"/></symbol><symbol id="H" overflow="visible"><path d="M1.89-3.703V0h.657v-5.203h-.422c-.234.812-.375.922-1.375 1.047v.453zm0 0"/></symbol><symbol id="I" overflow="visible"><path d="M3.703-.64H.97c.078-.422.312-.688.937-1.063l.735-.406C3.375-2.5 3.75-3.031 3.75-3.672c0-.437-.188-.828-.484-1.11-.313-.28-.688-.421-1.188-.421-.656 0-1.14.234-1.437.687-.172.266-.266.594-.282 1.125h.657c.015-.359.062-.562.156-.734.156-.313.5-.5.89-.5.579 0 1.016.406 1.016.969 0 .406-.234.765-.703 1.031l-.672.375C.625-1.64.313-1.14.25 0h3.453zm0 0"/></symbol><symbol id="J" overflow="visible"><path d="M1.625-2.375h.078l.266-.016c.718 0 1.078.329 1.078.954 0 .64-.406 1.03-1.078 1.03C1.266-.406.922-.75.875-1.515h-.64c.03.422.109.688.234.922.25.5.765.766 1.484.766 1.063 0 1.75-.64 1.75-1.625 0-.656-.25-1.031-.875-1.234.485-.188.719-.563.719-1.079 0-.89-.594-1.437-1.578-1.437-1.047 0-1.61.578-1.625 1.687h.64c.016-.312.047-.5.125-.656.141-.281.47-.453.875-.453.563 0 .907.328.907.875 0 .375-.125.594-.407.703-.187.078-.406.11-.859.11zm0 0"/></symbol><symbol id="D" overflow="visible"><path d="M1.656-5.766H.734V0h.922zm0-2.25H.72v1.157h.937zm0 0"/></symbol><symbol id="A" overflow="visible"><path d="M.766-5.766V0h.921v-3.172c0-1.187.625-1.953 1.563-1.953.734 0 1.188.438 1.188 1.125v4h.921v-4.36c0-.952-.718-1.562-1.828-1.562-.86 0-1.406.328-1.922 1.125v-.969zm0 0"/></symbol><symbol id="y" overflow="visible"><path d="M.766-5.766V0h.921v-3.625c0-.828.61-1.5 1.36-1.5.687 0 1.062.422 1.062 1.156V0h.922v-3.625c0-.828.61-1.5 1.36-1.5.671 0 1.062.422 1.062 1.156V0h.922v-4.328c0-1.031-.594-1.594-1.672-1.594-.766 0-1.219.219-1.766.875-.343-.625-.796-.875-1.546-.875-.766 0-1.282.281-1.782.969v-.813zm0 0"/></symbol><symbol id="w" overflow="visible"><path d="M4.813-4.156c0-1.14-.75-1.766-2.079-1.766-1.343 0-2.218.688-2.218 1.75 0 .906.468 1.328 1.828 1.656l.86.22c.64.155.89.39.89.796 0 .547-.547.906-1.344.906-.5 0-.906-.14-1.14-.39-.141-.157-.22-.329-.266-.735H.375C.422-.39 1.172.25 2.672.25c1.453 0 2.375-.719 2.375-1.828 0-.86-.484-1.328-1.625-1.594l-.875-.219c-.75-.171-1.078-.421-1.078-.828 0-.515.484-.86 1.218-.86.75 0 1.141.313 1.157.923zm0 0"/></symbol><symbol id="x" overflow="visible"><path d="M5.297 0v-5.766H4.39V-2.5c0 1.188-.625 1.953-1.579 1.953-.718 0-1.187-.437-1.187-1.14v-4.079H.719v4.454C.719-.36 1.438.25 2.547.25c.86 0 1.39-.297 1.937-1.047V0zm0 0"/></symbol><symbol id="z" overflow="visible"><path d="M2.844-5.766h-.969v-.906c0-.375.219-.578.64-.578.079 0 .11 0 .329.016V-8c-.219-.047-.328-.047-.516-.047-.86 0-1.36.485-1.36 1.297v.984H.204v.75H.97V0h.906v-5.016h.969zm0 0"/></symbol><symbol id="B" overflow="visible"><path d="M5.188-3.828c-.047-.563-.172-.922-.391-1.25-.39-.531-1.094-.844-1.89-.844-1.548 0-2.563 1.219-2.563 3.14C.344-.921 1.328.25 2.89.25c1.375 0 2.25-.828 2.359-2.234h-.922c-.156.921-.625 1.39-1.406 1.39-1.016 0-1.625-.828-1.625-2.187 0-1.438.594-2.297 1.594-2.297.765 0 1.25.453 1.359 1.25zm0 0"/></symbol><symbol id="C" overflow="visible"><path d="M2.797-5.766h-.953v-1.578H.937v1.578h-.78v.75h.78v4.36c0 .578.391.906 1.11.906.219 0 .437-.016.75-.078v-.766a1.786 1.786 0 01-.438.047c-.406 0-.515-.11-.515-.515v-3.954h.953zm0 0"/></symbol><symbol id="E" overflow="visible"><path d="M2.984-5.922c-1.609 0-2.593 1.14-2.593 3.078S1.359.25 3 .25c1.625 0 2.61-1.156 2.61-3.047 0-1.984-.954-3.125-2.626-3.125zM3-5.078c1.031 0 1.656.844 1.656 2.266 0 1.359-.64 2.218-1.656 2.218s-1.64-.844-1.64-2.25c0-1.375.624-2.234 1.64-2.234zm0 0"/></symbol><symbol id="K" overflow="visible"><path d="M2.328.047c0-.688-.219-1.203-.719-1.203-.375 0-.562.312-.562.578 0 .25.172.578.578.578a.518.518 0 00.39-.156c.032-.016.047-.016.047-.016s.032.156.032.219c0 .39-.078 1.172-.766 1.953-.14.14-.14.188-.14.188 0 .062.062.124.125.124.093 0 1.015-.89 1.015-2.265zm0 0"/></symbol></defs><g transform="translate(-161.653 -128.115)"><use xlink:href="#a" x="161.372" y="137.084" width="100%" height="100%"/><use xlink:href="#b" x="169.313" y="137.084" width="100%" height="100%"/><use xlink:href="#b" x="172.371" y="137.084" width="100%" height="100%"/><use xlink:href="#c" x="175.428" y="137.084" width="100%" height="100%"/><use xlink:href="#d" x="183.369" y="137.084" width="100%" height="100%"/><use xlink:href="#e" x="189.485" y="137.084" width="100%" height="100%"/><use xlink:href="#f" x="196.205" y="137.084" width="100%" height="100%"/><use xlink:href="#g" x="202.925" y="137.084" width="100%" height="100%"/><use xlink:href="#d" x="209.04" y="137.084" width="100%" height="100%"/></g><use xlink:href="#h" x="215.155" y="137.084" width="100%" height="100%" transform="translate(-161.653 -128.115)"/><use xlink:href="#i" x="219.707" y="137.084" width="100%" height="100%" transform="translate(-161.653 -128.115)"/><use xlink:href="#j" x="225.525" y="137.084" width="100%" height="100%" transform="translate(-161.653 -128.115)"/><use xlink:href="#k" x="233.401" y="137.084" width="100%" height="100%" transform="translate(-161.653 -128.115)"/><use xlink:href="#l" x="239.971" y="137.084" width="100%" height="100%" transform="translate(-161.653 -128.115)"/><use xlink:href="#m" x="244.62" y="137.084" width="100%" height="100%" transform="translate(-161.653 -128.115)" fill="#283acc"/><use xlink:href="#n" x="251.956" y="137.084" width="100%" height="100%" transform="translate(-161.653 -128.115)"/><use xlink:href="#o" x="259.929" y="137.084" width="100%" height="100%" transform="translate(-161.653 -128.115)"/><use xlink:href="#p" x="275.202" y="137.084" width="100%" height="100%" transform="translate(-161.653 -128.115)"/><g transform="translate(-161.653 -128.115)"><use xlink:href="#q" x="280.426" y="137.084" width="100%" height="100%"/><use xlink:href="#r" x="286.542" y="137.084" width="100%" height="100%"/><use xlink:href="#s" x="292.041" y="137.084" width="100%" height="100%"/><use xlink:href="#t" x="295.099" y="137.084" width="100%" height="100%"/><use xlink:href="#u" x="301.214" y="137.084" width="100%" height="100%"/></g><use xlink:href="#h" x="306.114" y="137.084" width="100%" height="100%" transform="translate(-161.653 -128.115)"/><use xlink:href="#m" x="310.666" y="137.084" width="100%" height="100%" transform="translate(-161.653 -128.115)" fill="#283acc"/><use xlink:href="#j" x="318.002" y="137.084" width="100%" height="100%" transform="translate(-161.653 -128.115)"/><use xlink:href="#i" x="170.342" y="151.43" width="100%" height="100%" transform="translate(-161.653 -128.115)"/><use xlink:href="#k" x="179.481" y="151.43" width="100%" height="100%" transform="translate(-161.653 -128.115)"/><use xlink:href="#m" x="186.054" y="151.43" width="100%" height="100%" transform="translate(-161.653 -128.115)" fill="#283acc"/><use xlink:href="#v" x="196.046" y="151.43" width="100%" height="100%" transform="translate(-161.653 -128.115)"/><use xlink:href="#m" x="208.002" y="151.43" width="100%" height="100%" transform="translate(-161.653 -128.115)" fill="#283acc"/><use xlink:href="#o" x="218.658" y="151.43" width="100%" height="100%" transform="translate(-161.653 -128.115)"/><use xlink:href="#m" x="233.934" y="151.43" width="100%" height="100%" transform="translate(-161.653 -128.115)" fill="#283acc"/><g transform="translate(-161.653 -128.115)"><use xlink:href="#w" x="251.233" y="151.43" width="100%" height="100%"/><use xlink:href="#x" x="256.732" y="151.43" width="100%" height="100%"/><use xlink:href="#y" x="262.848" y="151.43" width="100%" height="100%"/></g><g transform="translate(-161.653 -128.115)"><use xlink:href="#z" x="275.067" y="151.43" width="100%" height="100%"/><use xlink:href="#x" x="278.125" y="151.43" width="100%" height="100%"/><use xlink:href="#A" x="284.24" y="151.43" width="100%" height="100%"/><use xlink:href="#B" x="290.355" y="151.43" width="100%" height="100%"/><use xlink:href="#C" x="295.855" y="151.43" width="100%" height="100%"/><use xlink:href="#D" x="298.912" y="151.43" width="100%" height="100%"/><use xlink:href="#E" x="301.354" y="151.43" width="100%" height="100%"/><use xlink:href="#A" x="307.469" y="151.43" width="100%" height="100%"/></g><path d="M60.468 33.338h-19.84v19.844h19.84zm0 0" fill="#d4d7f5" stroke="#000" stroke-width=".598" stroke-miterlimit="10"/><use xlink:href="#F" x="206.854" y="173.337" width="100%" height="100%" transform="translate(-161.653 -128.115)"/><use xlink:href="#G" x="212.97" y="175.13" width="100%" height="100%" transform="translate(-161.653 -128.115)"/><path d="M80.312 33.338H60.468v19.844h19.844zm0 0" fill="#d4d7f5" stroke="#000" stroke-width=".598" stroke-miterlimit="10"/><use xlink:href="#F" x="226.697" y="173.412" width="100%" height="100%" transform="translate(-161.653 -128.115)"/><use xlink:href="#H" x="232.812" y="175.205" width="100%" height="100%" transform="translate(-161.653 -128.115)"/><path d="M100.155 33.338H80.312v19.844h19.843zm0 0" fill="#d4d7f5" stroke="#000" stroke-width=".598" stroke-miterlimit="10"/><use xlink:href="#F" x="246.54" y="173.412" width="100%" height="100%" transform="translate(-161.653 -128.115)"/><use xlink:href="#I" x="252.655" y="175.205" width="100%" height="100%" transform="translate(-161.653 -128.115)"/><path d="M120 33.338h-19.845v19.844H120zm0 0" fill="#d4d7f5" stroke="#000" stroke-width=".598" stroke-miterlimit="10"/><use xlink:href="#F" x="266.383" y="173.337" width="100%" height="100%" transform="translate(-161.653 -128.115)"/><use xlink:href="#J" x="272.498" y="175.13" width="100%" height="100%" transform="translate(-161.653 -128.115)"/><use xlink:href="#i" x="220.096" y="194.203" width="100%" height="100%" transform="translate(-161.653 -128.115)"/><use xlink:href="#h" x="225.914" y="194.203" width="100%" height="100%" transform="translate(-161.653 -128.115)"/><use xlink:href="#i" x="230.466" y="194.203" width="100%" height="100%" transform="translate(-161.653 -128.115)"/><use xlink:href="#h" x="236.285" y="194.203" width="100%" height="100%" transform="translate(-161.653 -128.115)"/><use xlink:href="#i" x="240.837" y="194.203" width="100%" height="100%" transform="translate(-161.653 -128.115)"/><use xlink:href="#h" x="246.655" y="194.203" width="100%" height="100%" transform="translate(-161.653 -128.115)"/><use xlink:href="#F" x="251.208" y="194.203" width="100%" height="100%" transform="translate(-161.653 -128.115)"/><use xlink:href="#G" x="257.323" y="195.996" width="100%" height="100%" transform="translate(-161.653 -128.115)"/><use xlink:href="#K" x="261.898" y="194.203" width="100%" height="100%" transform="translate(-161.653 -128.115)"/><use xlink:href="#F" x="267.142" y="194.203" width="100%" height="100%" transform="translate(-161.653 -128.115)"/><use xlink:href="#H" x="273.257" y="195.996" width="100%" height="100%" transform="translate(-161.653 -128.115)"/><use xlink:href="#j" x="277.832" y="194.203" width="100%" height="100%" transform="translate(-161.653 -128.115)"/><use xlink:href="#K" x="282.384" y="194.203" width="100%" height="100%" transform="translate(-161.653 -128.115)"/><use xlink:href="#F" x="287.629" y="194.203" width="100%" height="100%" transform="translate(-161.653 -128.115)"/><use xlink:href="#I" x="293.744" y="195.996" width="100%" height="100%" transform="translate(-161.653 -128.115)"/><use xlink:href="#j" x="298.319" y="194.203" width="100%" height="100%" transform="translate(-161.653 -128.115)"/><use xlink:href="#K" x="302.871" y="194.203" width="100%" height="100%" transform="translate(-161.653 -128.115)"/><use xlink:href="#F" x="308.115" y="194.203" width="100%" height="100%" transform="translate(-161.653 -128.115)"/><use xlink:href="#J" x="314.23" y="195.996" width="100%" height="100%" transform="translate(-161.653 -128.115)"/><use xlink:href="#j" x="318.805" y="194.203" width="100%" height="100%" transform="translate(-161.653 -128.115)"/><path d="M47.714 63.103H36.437" fill="none" stroke="#000" stroke-width="1.196" stroke-linecap="round" stroke-miterlimit="10"/><path d="M45.284 59.271c.555 2.297 1.785 3.383 3.028 3.833-1.243.445-2.473 1.53-3.028 3.828" fill="none" stroke="#000" stroke-width="1.196" stroke-linecap="round" stroke-linejoin="round" stroke-miterlimit="10"/></svg>