<svg xmlns="http://www.w3.org/2000/svg" xmlns:xlink="http://www.w3.org/1999/xlink" version="1.2" viewBox="0 0 127.789 71.032" height="94.709" width="170.386"><defs><symbol id="o" overflow="visible"><path d="M3.969 2.75s0-.078-.063-.219L1.812-2.984l2.094-5.532c.063-.14.063-.203.063-.203 0-.14-.11-.25-.235-.25-.156 0-.203.11-.25.25L1.375-3.203c-.063.14-.063.219-.063.219s0 .062.063.218L3.469 2.72c.062.156.094.265.265.265a.24.24 0 00.235-.234zm0 0"/></symbol><symbol id="c" overflow="visible"><path d="M.688-5.938V0h1.546v-3.563c0-.703.5-1.171 1.235-1.171.672 0 1 .375 1 1.078V0H6v-3.984c0-1.313-.719-2.047-1.984-2.047-.797 0-1.344.297-1.782.953v-.86zm0 0"/></symbol><symbol id="f" overflow="visible"><path d="M3.313-5.813h-.86v-1.593H.906v1.593h-.75v1.016h.75v3.656c0 .938.5 1.391 1.516 1.391.344 0 .61-.031.89-.125V-.953c-.156.031-.25.047-.359.047-.406 0-.5-.125-.5-.656v-3.235h.86zm0 0"/></symbol><symbol id="a" overflow="visible"><path d="M7.5-5.297C7.453-6 7.297-6.437 6.969-6.89c-.625-.812-1.61-1.265-2.813-1.265C1.891-8.155.484-6.53.484-3.936.484-1.36 1.875.25 4.11.25c2 0 3.329-1.156 3.422-2.984h-1.61c-.093 1.015-.734 1.593-1.765 1.593-1.281 0-2.015-1.03-2.015-2.78 0-1.767.78-2.829 2.078-2.829.562 0 1.047.203 1.343.594.172.218.266.422.36.86zm0 0"/></symbol><symbol id="b" overflow="visible"><path d="M3.313-6.031C1.5-6.031.39-4.844.39-2.891.39-.937 1.5.25 3.328.25c1.797 0 2.938-1.203 2.938-3.094 0-2.015-1.094-3.187-2.954-3.187zm.015 1.234c.844 0 1.39.766 1.39 1.922 0 1.11-.577 1.89-1.39 1.89-.844 0-1.406-.78-1.406-1.906 0-1.14.562-1.906 1.406-1.906zm0 0"/></symbol><symbol id="d" overflow="visible"><path d="M5.734-3.719C5.625-5.172 4.656-6.03 3.172-6.03 1.406-6.031.375-4.875.375-2.844.375-.89 1.391.25 3.156.25c1.438 0 2.438-.89 2.578-2.313H4.266c-.204.782-.5 1.079-1.094 1.079-.781 0-1.266-.704-1.266-1.86 0-.562.125-1.094.313-1.453.172-.328.515-.5.953-.5.625 0 .922.297 1.094 1.078zm0 0"/></symbol><symbol id="g" overflow="visible"><path d="M4.234-6.64h2.344v-1.376H.156v1.375h2.422V0h1.656zm0 0"/></symbol><symbol id="h" overflow="visible"><path d="M.844 0h3.14c1.22 0 1.985-.281 2.532-.938.64-.75.968-1.828.968-3.078 0-1.234-.328-2.328-.968-3.078-.547-.656-1.297-.922-2.532-.922H.844zM2.5-1.375v-5.266h1.484c1.235 0 1.86.86 1.86 2.641 0 1.75-.625 2.625-1.86 2.625zm0 0"/></symbol><symbol id="i" overflow="visible"><path d="M2.344-8.016H.688V0h1.656zm0 0"/></symbol><symbol id="j" overflow="visible"><path d="M5.516-1.61L6.03 0h1.703L4.97-8.016H3.14L.28 0h1.69l.547-1.61zm-.454-1.374H2.97l1.047-3.141zm0 0"/></symbol><symbol id="k" overflow="visible"><path d="M3.172-8.969C1.39-7.359.937-4.938.937-2.984c0 2.093.516 4.437 2.235 5.984h.719C3.437 2.562 2.703 1.64 2.28.281c-.328-1.062-.437-2.172-.437-3.25 0-3.531 1.25-5.25 2.047-6zm0 0"/></symbol><symbol id="m" overflow="visible"><path d="M1.36 3c1.796-1.594 2.25-4.031 2.25-5.969 0-2.11-.516-4.453-2.25-6H.64c.47.438 1.204 1.36 1.626 2.719.312 1.063.437 2.172.437 3.266C2.703.53 1.453 2.266.641 3zm0 0"/></symbol><symbol id="n" overflow="visible"><path d="M2.11-5.313h-.97v.97h.97zM1.14-.968V0h.97v-.969zm0 0"/></symbol><symbol id="p" overflow="visible"><path d="M5.766-2.406L6.062 0h1.125L6.079-8.016H4.75L.187 0h1.094l1.344-2.406zm-.11-.86H3.11l2.11-3.671zm0 0"/></symbol><symbol id="l" overflow="visible"><path d="M3.156 0l3.422-5.766h-1L2.891-1.125l-.532-4.64H1.344L2.156 0zm0 0"/></symbol><symbol id="r" overflow="visible"><path d="M6.188-2.578l.03-.188a6.66 6.66 0 00.157-1.28c0-1.063-.906-1.876-2.094-1.876-.953 0-1.89.438-2.437 1.188-.516.687-.922 1.937-.922 2.828 0 .593.25 1.203.687 1.61.375.374.86.546 1.5.546 1.313 0 2.454-.813 2.782-2h-.922C4.579-.984 4-.594 3.25-.594c-.86 0-1.36-.547-1.36-1.469 0-.234.016-.343.063-.515zM2.14-3.36c.296-1.016 1.109-1.72 2-1.72.78 0 1.265.532 1.265 1.345 0 .109 0 .187-.031.375zm0 0"/></symbol><symbol id="s" overflow="visible"><path d="M6.063-3.828L6.077-4c0-.156.016-.281.016-.313 0-.359-.203-.796-.485-1.093-.343-.36-.796-.516-1.421-.516-.985 0-1.875.406-2.454 1.172-.53.672-.89 1.875-.89 2.875 0 .516.172 1.063.469 1.453.375.469.875.672 1.578.672.906 0 1.656-.313 2.171-.906.282-.328.454-.703.641-1.328H4.78c-.343.906-.937 1.39-1.734 1.39-.766 0-1.25-.547-1.25-1.39 0-.704.234-1.547.594-2.125.421-.641.968-.97 1.64-.97.688 0 1.11.376 1.11 1.016v.235zm0 0"/></symbol><symbol id="t" overflow="visible"><path d="M4.031-5.766h-.984l.344-1.578h-.922l-.344 1.578h-.781l-.157.735h.782L1.094-.953a2.5 2.5 0 00-.032.344c0 .53.375.859.985.859.219 0 .562-.031.719-.078l.171-.797c-.343.078-.39.094-.53.094-.235 0-.391-.125-.391-.313 0-.031.015-.078.015-.14l.86-4.047h.984zm0 0"/></symbol><symbol id="u" overflow="visible"><path d="M4.219-5.922c-1.016 0-1.922.453-2.485 1.266-.484.703-.859 1.922-.859 2.86C.875-.579 1.735.25 2.953.25c1.063 0 1.89-.422 2.516-1.266.5-.703.875-1.906.875-2.859 0-.578-.235-1.14-.61-1.516-.375-.359-.875-.53-1.515-.53zm-.14.844c.812 0 1.296.531 1.296 1.422 0 .64-.188 1.36-.484 1.906-.422.766-1.016 1.156-1.782 1.156-.78 0-1.265-.547-1.265-1.437 0-.625.187-1.344.484-1.89.406-.75 1.031-1.157 1.75-1.157zm0 0"/></symbol><symbol id="v" overflow="visible"><path d="M1.984-5.766L.766 0h.921l.641-2.984C2.61-4.328 3.391-5 4.594-4.97l.203-.922c-.14-.03-.234-.03-.36-.03-.625 0-1.125.28-1.812 1.062l.188-.907zm0 0"/></symbol><symbol id="e" overflow="visible"><path d="M5.766-.188c-.282-.25-.36-.421-.36-.718V-4.22c0-1.203-.812-1.812-2.422-1.812-1.609 0-2.453.672-2.546 2.047h1.484c.078-.61.328-.813 1.094-.813.593 0 .89.203.89.594a.514.514 0 01-.265.469c-.204.109-.204.109-.97.218l-.608.11c-1.188.203-1.75.812-1.75 1.875 0 .515.14.922.406 1.218.344.36.86.563 1.39.563.657 0 1.266-.281 1.813-.844 0 .313.031.422.172.594h1.672zM3.906-2.39c0 .891-.437 1.407-1.219 1.407-.515 0-.843-.282-.843-.72 0-.468.25-.687.89-.812l.516-.109c.406-.063.484-.094.656-.188zm0 0"/></symbol><symbol id="q" overflow="visible"><path d="M3.328-2.984s0-.079-.062-.22l-2.094-5.5c-.063-.14-.094-.265-.266-.265-.125 0-.234.11-.234.25 0 0 0 .063.062.203l2.094 5.532L.734 2.53c-.062.14-.062.219-.062.219 0 .125.11.234.234.234.156 0 .203-.109.25-.234l2.11-5.516c.062-.156.062-.218.062-.218zm0 0"/></symbol><symbol id="z" overflow="visible"><path d="M5.297 0v-5.766H4.39V-2.5c0 1.188-.625 1.953-1.579 1.953-.718 0-1.187-.437-1.187-1.14v-4.079H.719v4.454C.719-.36 1.438.25 2.547.25c.86 0 1.39-.297 1.937-1.047V0zm0 0"/></symbol><symbol id="A" overflow="visible"><path d="M2.797-5.766h-.953v-1.578H.937v1.578h-.78v.75h.78v4.36c0 .578.391.906 1.11.906.219 0 .437-.016.75-.078v-.766a1.786 1.786 0 01-.438.047c-.406 0-.515-.11-.515-.515v-3.954h.953zm0 0"/></symbol><symbol id="w" overflow="visible"><path d="M1.656-5.766H.734V0h.922zm0-2.25H.72v1.157h.937zm0 0"/></symbol><symbol id="L" overflow="visible"><path d="M3.031-7.797c-.734 0-1.39.313-1.797.86C.72-6.266.47-5.22.47-3.767.469-1.14 1.359.25 3.03.25c1.64 0 2.547-1.39 2.547-3.953 0-1.516-.25-2.531-.766-3.235-.406-.546-1.046-.859-1.78-.859zm0 .86c1.031 0 1.563 1.046 1.563 3.14 0 2.219-.516 3.25-1.594 3.25-1.016 0-1.531-1.078-1.531-3.219 0-2.125.515-3.171 1.562-3.171zm0 0"/></symbol><symbol id="M" overflow="visible"><path d="M2.844-5.563V0h.969v-7.797h-.641c-.328 1.203-.547 1.36-2.047 1.547v.688zm0 0"/></symbol><symbol id="x" overflow="visible"><path d="M.766-5.766V0h.921v-3.172c0-1.187.625-1.953 1.563-1.953.734 0 1.188.438 1.188 1.125v4h.921v-4.36c0-.952-.718-1.562-1.828-1.562-.86 0-1.406.328-1.922 1.125v-.969zm0 0"/></symbol><symbol id="C" overflow="visible"><path d="M5.89-.531c-.109.015-.156.015-.202.015-.313 0-.5-.171-.5-.453v-3.39c0-1.016-.75-1.563-2.157-1.563-.844 0-1.531.234-1.922.656-.265.297-.375.641-.39 1.204h.922c.078-.704.5-1.016 1.343-1.016.829 0 1.297.297 1.297.86v.234c0 .39-.234.546-.953.64-1.297.172-1.5.203-1.86.36-.671.265-1 .78-1 1.53C.469-.405 1.189.25 2.36.25c.72 0 1.297-.25 1.954-.844.062.578.343.844.953.844.171 0 .328-.016.625-.094zM4.282-1.812c0 .312-.093.5-.36.75-.374.343-.827.515-1.374.515-.703 0-1.125-.344-1.125-.922 0-.61.406-.922 1.39-1.062.954-.125 1.157-.172 1.47-.313zm0 0"/></symbol><symbol id="N" overflow="visible"><path d="M5.563-.953H1.468c.093-.64.437-1.047 1.406-1.61l1.094-.593c1.094-.594 1.656-1.39 1.656-2.36 0-.64-.266-1.25-.734-1.671-.454-.407-1.032-.61-1.766-.61-.984 0-1.734.344-2.156 1.016-.281.406-.39.89-.422 1.687h.969c.03-.531.093-.843.234-1.093.25-.485.766-.766 1.344-.766.875 0 1.531.625 1.531 1.469 0 .609-.36 1.14-1.047 1.53l-1.015.579C.937-2.453.469-1.719.374 0h5.188zm0 0"/></symbol><symbol id="y" overflow="visible"><path d="M.594 2.39h.922v-3C2-.015 2.546.25 3.28.25c1.5 0 2.469-1.203 2.469-3.031 0-1.938-.938-3.14-2.469-3.14-.781 0-1.406.343-1.844 1.03v-.875H.595zm2.531-7.468c1.016 0 1.672.89 1.672 2.266C4.797-1.5 4.125-.61 3.125-.61c-.969 0-1.61-.875-1.61-2.235 0-1.344.641-2.234 1.61-2.234zm0 0"/></symbol><symbol id="B" overflow="visible"><path d="M5.438-8.016H4.53v2.985c-.39-.594-1-.89-1.765-.89-1.5 0-2.485 1.187-2.485 3.03C.281-.953 1.25.25 2.797.25c.797 0 1.344-.297 1.828-1.016V0h.813zM2.921-5.078c.984 0 1.61.89 1.61 2.266 0 1.328-.641 2.203-1.61 2.203C1.906-.61 1.25-1.5 1.25-2.844c0-1.344.656-2.234 1.672-2.234zm0 0"/></symbol><symbol id="J" overflow="visible"><path d="M2.031-3.406h2.516c.625 0 1.125-.188 1.547-.563.484-.437.687-.953.687-1.703 0-1.5-.89-2.344-2.468-2.344H1V0h1.031zm0-.89V-7.11h2.125c.985 0 1.563.515 1.563 1.406 0 .875-.578 1.406-1.563 1.406zm0 0"/></symbol><symbol id="K" overflow="visible"><path d="M2.016-3.656h4.359v-.89h-4.36V-7.11h4.532v-.907H.984V0H6.75v-.906H2.016zm0 0"/></symbol><symbol id="D" overflow="visible"><path d="M2.203 0L4.61-4.031h-.703L2.031-.781l-.375-3.25H.938L1.515 0zm0 0"/></symbol><symbol id="E" overflow="visible"><path d="M2.188 2.094v-.5h-.766v-7.375h.766v-.5H.827v8.375zm0 0"/></symbol><symbol id="G" overflow="visible"><path d="M1.531-6.281H.171v.5h.766v7.375H.172v.5h1.36zm0 0"/></symbol><symbol id="F" overflow="visible"><path d="M2.125-5.469a1.58 1.58 0 00-1.266.61c-.343.468-.53 1.203-.53 2.218C.328-.797.952.172 2.124.172c1.156 0 1.781-.969 1.781-2.766 0-1.062-.172-1.781-.531-2.265-.281-.391-.734-.61-1.25-.61zm0 .61c.719 0 1.094.734 1.094 2.203 0 1.547-.36 2.265-1.11 2.265-.718 0-1.078-.75-1.078-2.25 0-1.484.36-2.218 1.094-2.218zm0 0"/></symbol><symbol id="H" overflow="visible"><path d="M2-3.89V0h.672v-5.469h-.453c-.235.844-.39.969-1.438 1.094v.484zm0 0"/></symbol><symbol id="I" overflow="visible"><path d="M3.89-.672H1.032c.063-.437.313-.734.985-1.125l.765-.406c.766-.422 1.156-.985 1.156-1.656 0-.454-.187-.875-.515-1.172-.313-.297-.719-.438-1.235-.438-.687 0-1.203.25-1.515.719-.188.297-.266.625-.281 1.188h.671c.032-.376.063-.594.157-.782.187-.328.531-.531.953-.531.61 0 1.078.453 1.078 1.031 0 .438-.266.797-.75 1.078l-.703.407C.657-1.72.328-1.203.266 0H3.89zm0 0"/></symbol></defs><use transform="translate(-185.152 -4.178)" height="100%" width="100%" y="13.147" x="193.525" xlink:href="#a"/><use transform="translate(-185.152 -4.178)" height="100%" width="100%" y="13.147" x="201.466" xlink:href="#b"/><use transform="translate(-185.152 -4.178)" height="100%" width="100%" y="13.147" x="208.186" xlink:href="#c"/><use transform="translate(-185.152 -4.178)" height="100%" width="100%" y="13.147" x="214.906" xlink:href="#d"/><use transform="translate(-185.152 -4.178)" height="100%" width="100%" y="13.147" x="221.022" xlink:href="#e"/><use transform="translate(-185.152 -4.178)" height="100%" width="100%" y="13.147" x="227.137" xlink:href="#f"/><use transform="translate(-185.152 -4.178)" height="100%" width="100%" y="13.147" x="230.8" xlink:href="#g"/><use transform="translate(-185.152 -4.178)" height="100%" width="100%" y="13.147" x="236.64" xlink:href="#b"/><use transform="translate(-185.152 -4.178)" height="100%" width="100%" y="13.147" x="243.36" xlink:href="#h"/><use transform="translate(-185.152 -4.178)" height="100%" width="100%" y="13.147" x="251.301" xlink:href="#i"/><use transform="translate(-185.152 -4.178)" height="100%" width="100%" y="13.147" x="254.359" xlink:href="#j"/><use transform="translate(-185.152 -4.178)" height="100%" width="100%" y="13.147" x="262.299" xlink:href="#k"/><use transform="translate(-185.152 -4.178)" height="100%" width="100%" y="13.147" x="266.851" xlink:href="#l"/><use transform="translate(-185.152 -4.178)" height="100%" width="100%" y="13.147" x="273.484" xlink:href="#m"/><use transform="translate(-185.152 -4.178)" height="100%" width="100%" y="13.147" x="281.36" xlink:href="#n"/><use transform="translate(-185.152 -4.178)" height="100%" width="100%" y="13.147" x="287.929" xlink:href="#o"/><use transform="translate(-185.152 -4.178)" height="100%" width="100%" y="13.147" x="292.578" xlink:href="#p" fill="#283acc"/><use transform="translate(-185.152 -4.178)" height="100%" width="100%" y="13.147" x="299.915" xlink:href="#q"/><use transform="translate(-185.152 -4.178)" height="100%" width="100%" y="27.493" x="187.971" xlink:href="#l"/><use transform="translate(-185.152 -4.178)" height="100%" width="100%" y="27.493" x="197.924" xlink:href="#n"/><use transform="translate(-185.152 -4.178)" height="100%" width="100%" y="27.493" x="204.497" xlink:href="#l"/><use transform="translate(-185.152 -4.178)" height="100%" width="100%" y="27.493" x="209.721" xlink:href="#r"/><use transform="translate(-185.152 -4.178)" height="100%" width="100%" y="27.493" x="215.837" xlink:href="#s"/><use transform="translate(-185.152 -4.178)" height="100%" width="100%" y="27.493" x="221.336" xlink:href="#t"/><use transform="translate(-185.152 -4.178)" height="100%" width="100%" y="27.493" x="224.394" xlink:href="#u"/><use transform="translate(-185.152 -4.178)" height="100%" width="100%" y="27.493" x="230.509" xlink:href="#v"/><use transform="translate(-185.152 -4.178)" height="100%" width="100%" y="27.493" x="235.408" xlink:href="#k"/><use transform="translate(-185.152 -4.178)" height="100%" width="100%" y="27.493" x="239.96" xlink:href="#p" fill="#283acc"/><use transform="translate(-185.152 -4.178)" height="100%" width="100%" y="27.493" x="247.297" xlink:href="#m"/><use transform="translate(-185.152 -4.178)" height="100%" width="100%" y="27.493" x="261.812" xlink:href="#w"/><use transform="translate(-185.152 -4.178)" height="100%" width="100%" y="27.493" x="264.254" xlink:href="#x"/><use transform="translate(-185.152 -4.178)" height="100%" width="100%" y="27.493" x="270.369" xlink:href="#y"/><use transform="translate(-185.152 -4.178)" height="100%" width="100%" y="27.493" x="276.484" xlink:href="#z"/><use transform="translate(-185.152 -4.178)" height="100%" width="100%" y="27.493" x="282.6" xlink:href="#A"/><use transform="translate(-185.152 -4.178)" height="100%" width="100%" y="27.493" x="288.715" xlink:href="#B"/><use transform="translate(-185.152 -4.178)" height="100%" width="100%" y="27.493" x="294.83" xlink:href="#C"/><use transform="translate(-185.152 -4.178)" height="100%" width="100%" y="27.493" x="300.945" xlink:href="#A"/><use transform="translate(-185.152 -4.178)" height="100%" width="100%" y="27.493" x="304.003" xlink:href="#C"/><path d="M24.211 33.333H4.367v19.844h19.844zm0 0" fill="#d4d7f5" stroke="#000" stroke-width=".598" stroke-miterlimit="10"/><use transform="translate(-185.152 -4.178)" height="100%" width="100%" y="49.527" x="192.608" xlink:href="#D"/><use transform="translate(-185.152 -4.178)" height="100%" width="100%" y="49.527" x="197.25" xlink:href="#E"/><use transform="translate(-185.152 -4.178)" height="100%" width="100%" y="49.527" x="199.619" xlink:href="#F"/><use transform="translate(-185.152 -4.178)" height="100%" width="100%" y="49.527" x="203.9" xlink:href="#G"/><path d="M44.05 33.333H24.212v19.844h19.84zm0 0" fill="#d4d7f5" stroke="#000" stroke-width=".598" stroke-miterlimit="10"/><use transform="translate(-185.152 -4.178)" height="100%" width="100%" y="49.527" x="212.451" xlink:href="#D"/><use transform="translate(-185.152 -4.178)" height="100%" width="100%" y="49.527" x="217.093" xlink:href="#E"/><use transform="translate(-185.152 -4.178)" height="100%" width="100%" y="49.527" x="219.462" xlink:href="#H"/><use transform="translate(-185.152 -4.178)" height="100%" width="100%" y="49.527" x="223.742" xlink:href="#G"/><path d="M63.895 33.333H44.05v19.844h19.844zm0 0" fill="#cae8e6" stroke="#000" stroke-width=".598" stroke-miterlimit="10"/><use transform="translate(-185.152 -4.178)" height="100%" width="100%" y="49.527" x="232.293" xlink:href="#D"/><use transform="translate(-185.152 -4.178)" height="100%" width="100%" y="49.527" x="236.935" xlink:href="#E"/><use transform="translate(-185.152 -4.178)" height="100%" width="100%" y="49.527" x="239.304" xlink:href="#F"/><use transform="translate(-185.152 -4.178)" height="100%" width="100%" y="49.527" x="243.585" xlink:href="#G"/><path d="M83.738 33.333H63.895v19.844h19.843zm0 0" fill="#cae8e6" stroke="#000" stroke-width=".598" stroke-miterlimit="10"/><use transform="translate(-185.152 -4.178)" height="100%" width="100%" y="49.527" x="252.136" xlink:href="#D"/><use transform="translate(-185.152 -4.178)" height="100%" width="100%" y="49.527" x="256.778" xlink:href="#E"/><use transform="translate(-185.152 -4.178)" height="100%" width="100%" y="49.527" x="259.147" xlink:href="#H"/><use transform="translate(-185.152 -4.178)" height="100%" width="100%" y="49.527" x="263.427" xlink:href="#G"/><path d="M103.582 33.333H83.738v19.844h19.844zm0 0" fill="#cae8e6" stroke="#000" stroke-width=".598" stroke-miterlimit="10"/><use transform="translate(-185.152 -4.178)" height="100%" width="100%" y="49.527" x="271.978" xlink:href="#D"/><use transform="translate(-185.152 -4.178)" height="100%" width="100%" y="49.527" x="276.62" xlink:href="#E"/><use transform="translate(-185.152 -4.178)" height="100%" width="100%" y="49.527" x="278.988" xlink:href="#I"/><use transform="translate(-185.152 -4.178)" height="100%" width="100%" y="49.527" x="283.27" xlink:href="#G"/><path d="M123.422 33.333h-19.84v19.844h19.84zm0 0" fill="#f3cfcf" stroke="#000" stroke-width=".598" stroke-miterlimit="10"/><use transform="translate(-185.152 -4.178)" height="100%" width="100%" y="49.527" x="291.82" xlink:href="#D"/><use transform="translate(-185.152 -4.178)" height="100%" width="100%" y="49.527" x="296.463" xlink:href="#E"/><use transform="translate(-185.152 -4.178)" height="100%" width="100%" y="49.527" x="298.831" xlink:href="#F"/><use transform="translate(-185.152 -4.178)" height="100%" width="100%" y="49.527" x="303.112" xlink:href="#G"/><path d="M.399 49.208v7.938h47.62v-7.938" fill="none" stroke="#c51117" stroke-width=".797" stroke-miterlimit="10"/><use transform="translate(-185.152 -4.178)" height="100%" width="100%" y="73.226" x="198.966" xlink:href="#J" fill="#c51117"/><use transform="translate(-185.152 -4.178)" height="100%" width="100%" y="73.226" x="206.302" xlink:href="#K" fill="#c51117"/><use transform="translate(-185.152 -4.178)" height="100%" width="100%" y="73.226" x="213.638" xlink:href="#L" fill="#c51117"/><path d="M40.082 51.193v7.937h67.465v-7.937" fill="none" stroke="#c51117" stroke-width=".797" stroke-miterlimit="10"/><use transform="translate(-185.152 -4.178)" height="100%" width="100%" y="75.21" x="248.572" xlink:href="#J" fill="#c51117"/><use transform="translate(-185.152 -4.178)" height="100%" width="100%" y="75.21" x="255.908" xlink:href="#K" fill="#c51117"/><use transform="translate(-185.152 -4.178)" height="100%" width="100%" y="75.21" x="263.244" xlink:href="#M" fill="#c51117"/><path d="M99.613 49.208v7.938h27.778v-7.938" fill="none" stroke="#c51117" stroke-width=".797" stroke-miterlimit="10"/><use transform="translate(-185.152 -4.178)" height="100%" width="100%" y="73.226" x="288.257" xlink:href="#J" fill="#c51117"/><use transform="translate(-185.152 -4.178)" height="100%" width="100%" y="73.226" x="295.593" xlink:href="#K" fill="#c51117"/><use transform="translate(-185.152 -4.178)" height="100%" width="100%" y="73.226" x="302.929" xlink:href="#N" fill="#c51117"/></svg>