<svg xmlns="http://www.w3.org/2000/svg" xmlns:xlink="http://www.w3.org/1999/xlink" version="1.2" viewBox="0 0 154.213 165.118" height="220.157" width="205.618"><defs><symbol id="w" overflow="visible"><path d="M.766-5.766V0h.921v-3.625c0-.828.61-1.5 1.36-1.5.687 0 1.062.422 1.062 1.156V0h.922v-3.625c0-.828.61-1.5 1.36-1.5.671 0 1.062.422 1.062 1.156V0h.922v-4.328c0-1.031-.594-1.594-1.672-1.594-.766 0-1.219.219-1.766.875-.343-.625-.796-.875-1.546-.875-.766 0-1.282.281-1.782.969v-.813zm0 0"/></symbol><symbol id="c" overflow="visible"><path d="M2.484-2.86h2.063c1.469 0 2.422-1.046 2.422-2.671 0-1.61-.922-2.485-2.594-2.485H.844V0h1.64zm0-1.374v-2.407h1.547c.875 0 1.282.375 1.282 1.204 0 .812-.407 1.203-1.282 1.203zm0 0"/></symbol><symbol id="e" overflow="visible"><path d="M5.766-2.484c.015-.141.015-.188.015-.266a5.06 5.06 0 00-.234-1.563C5.14-5.39 4.187-6.03 2.984-6.03c-1.703 0-2.75 1.218-2.75 3.218C.234-.905 1.281.25 2.954.25c1.343 0 2.421-.75 2.75-1.922H4.187c-.188.469-.61.75-1.172.75-.438 0-.797-.187-1.016-.515-.14-.22-.203-.485-.219-1.047zm-3.97-1.032c.11-.89.485-1.343 1.173-1.343.39 0 .734.187.953.5.14.218.219.437.25.843zm0 0"/></symbol><symbol id="f" overflow="visible"><path d="M6.031-5.938H4.484V0h1.547zm0-2.078H4.484v1.375h1.547zm-2.64 2.204h-.922v-.594c0-.297.14-.453.422-.453.14 0 .312 0 .437.03v-1.155c-.281-.032-.672-.032-.875-.032-1.015 0-1.515.485-1.515 1.485v.718H.094v1.016h.844V0h1.53v-4.797h.923zm0 0"/></symbol><symbol id="b" overflow="visible"><path d="M3.906-2.984l1.938-2.954H4L3.031-4.14l-.969-1.796H.22l1.937 2.953L.172 0h1.86l1-1.844 1 1.844H5.89zm0 0"/></symbol><symbol id="g" overflow="visible"><path d="M6.672-5.578c0-.734-.156-1.219-.563-1.656-.53-.594-1.421-.922-2.578-.922C1.61-8.156.5-7.25.5-5.687c0 1.25.625 1.843 2.25 2.156l1.125.219c1.094.203 1.5.515 1.5 1.171 0 .672-.61 1.079-1.61 1.079-1.124 0-1.75-.485-1.812-1.329H.36C.453-.687 1.625.25 3.672.25c2.062 0 3.297-.969 3.297-2.594 0-1.265-.64-1.922-2.125-2.203l-1.25-.25c-1.188-.234-1.531-.469-1.531-1.047 0-.61.546-.984 1.39-.984 1.047 0 1.625.437 1.688 1.25zm0 0"/></symbol><symbol id="h" overflow="visible"><path d="M5.953 0v-5.938H4.406v3.72c0 .702-.484 1.155-1.234 1.155-.656 0-1-.343-1-1.062v-3.813H.64v4.141C.64-.5 1.359.25 2.625.25c.813 0 1.344-.297 1.781-.953V0zm0 0"/></symbol><symbol id="i" overflow="visible"><path d="M.656-5.938V0h1.547v-3.563c0-.734.39-1.171 1.047-1.171.516 0 .844.296.844.78V0h1.531v-3.563c0-.734.406-1.171 1.063-1.171.515 0 .843.296.843.78V0h1.532v-4.203c0-1.156-.704-1.828-1.891-1.828-.75 0-1.281.25-1.734.875-.297-.563-.891-.875-1.625-.875-.672 0-1.126.218-1.626.828v-.734zm0 0"/></symbol><symbol id="a" overflow="visible"><path d="M2.516-3.453h3.843v-1.375H2.516v-1.813h4.156v-1.375H.875V0h5.984v-1.375H2.516zm0 0"/></symbol><symbol id="j" overflow="visible"><path d="M3.172-8.969C1.39-7.359.937-4.938.937-2.984c0 2.093.516 4.437 2.235 5.984h.719C3.437 2.562 2.703 1.64 2.28.281c-.328-1.062-.437-2.172-.437-3.25 0-3.531 1.25-5.25 2.047-6zm0 0"/></symbol><symbol id="n" overflow="visible"><path d="M1.36 3c1.796-1.594 2.25-4.031 2.25-5.969 0-2.11-.516-4.453-2.25-6H.64c.47.438 1.204 1.36 1.626 2.719.312 1.063.437 2.172.437 3.266C2.703.53 1.453 2.266.641 3zm0 0"/></symbol><symbol id="o" overflow="visible"><path d="M2.11-5.313h-.97v.97h.97zM1.14-.968V0h.97v-.969zm0 0"/></symbol><symbol id="k" overflow="visible"><path d="M5.656-4.156a2.14 2.14 0 00.063-.469c0-.781-.735-1.297-1.797-1.297-.781 0-1.453.219-1.906.656a2.094 2.094 0 00-.657 1.47c0 .671.375.983 1.516 1.28l.813.22c.359.093.53.155.624.28.079.11.141.266.141.36 0 .203-.172.547-.344.687-.28.235-.75.375-1.234.375-.75 0-1.188-.297-1.188-.844 0-.062.016-.171.032-.28H.734a2.84 2.84 0 00-.062.562C.672-.281 1.437.25 2.719.25c1.64 0 2.703-.844 2.703-2.156 0-.672-.36-1.016-1.328-1.266l-.844-.203c-.61-.156-.922-.375-.922-.656 0-.219.125-.5.328-.688.266-.25.594-.36 1.078-.36.641 0 1 .25 1 .673v.25zm0 0"/></symbol><symbol id="m" overflow="visible"><path d="M3.156 0l3.422-5.766h-1L2.891-1.125l-.532-4.64H1.344L2.156 0zm0 0"/></symbol><symbol id="q" overflow="visible"><path d="M5.766-2.406L6.062 0h1.125L6.079-8.016H4.75L.187 0h1.094l1.344-2.406zm-.11-.86H3.11l2.11-3.671zm0 0"/></symbol><symbol id="H" overflow="visible"><path d="M6.078-.563c-.11.032-.156.032-.187.032-.297 0-.422-.11-.422-.328 0-.047 0-.079.015-.11l.704-3.312c.062-.297.062-.297.062-.407 0-.75-.766-1.234-1.922-1.234-1.516 0-2.453.64-2.672 1.86h.922c.11-.297.188-.454.344-.61.234-.25.703-.406 1.172-.406.656 0 1.172.297 1.172.703 0 .047-.016.125-.032.203l-.03.203c-.095.453-.313.563-1.11.64-1.469.142-1.938.25-2.485.595-.562.359-.89.937-.89 1.578C.719-.281 1.313.25 2.297.25c.39 0 .844-.078 1.25-.219.344-.125.515-.234.969-.625v.125c0 .453.296.719.828.719.125 0 .156 0 .437-.063.016-.015.078-.015.14-.03zM4.734-1.796C4.594-1.125 3.625-.53 2.656-.53c-.625 0-.969-.266-.969-.735 0-.359.204-.718.532-.921.265-.172.594-.25 1.14-.329 1.032-.14 1.125-.156 1.61-.328zm0 0"/></symbol><symbol id="l" overflow="visible"><path d="M2.328.047c0-.688-.219-1.203-.719-1.203-.375 0-.562.312-.562.578 0 .25.172.578.578.578a.518.518 0 00.39-.156c.032-.016.047-.016.047-.016s.032.156.032.219c0 .39-.078 1.172-.766 1.953-.14.14-.14.188-.14.188 0 .062.062.124.125.124.093 0 1.015-.89 1.015-2.265zm0 0"/></symbol><symbol id="p" overflow="visible"><path d="M3.969 2.75s0-.078-.063-.219L1.812-2.984l2.094-5.532c.063-.14.063-.203.063-.203 0-.14-.11-.25-.235-.25-.156 0-.203.11-.25.25L1.375-3.203c-.063.14-.063.219-.063.219s0 .062.063.218L3.469 2.72c.062.156.094.265.265.265a.24.24 0 00.235-.234zm0 0"/></symbol><symbol id="r" overflow="visible"><path d="M3.328-2.984s0-.079-.062-.22l-2.094-5.5c-.063-.14-.094-.265-.266-.265-.125 0-.234.11-.234.25 0 0 0 .063.062.203l2.094 5.532L.734 2.53c-.062.14-.062.219-.062.219 0 .125.11.234.234.234.156 0 .203-.109.25-.234l2.11-5.516c.062-.156.062-.218.062-.218zm0 0"/></symbol><symbol id="s" overflow="visible"><path d="M11.266-2.984a.136.136 0 00-.094-.125A3.744 3.744 0 018.719-6c0-.063-.063-.11-.125-.11h-.219c-.063 0-.125.063-.125.157a4.259 4.259 0 001.703 2.719H.906c-.172 0-.25.125-.25.25 0 .109.078.234.25.234h9.047A4.259 4.259 0 008.25-.031c0 .11.063.156.125.156h.219c.062 0 .125-.047.125-.094a3.766 3.766 0 012.453-2.906c.047 0 .094-.047.094-.11zm0 0"/></symbol><symbol id="t" overflow="visible"><path d="M7.531-.344c0-.094-.031-.125-.156-.25L5-2.984l2.375-2.391c.125-.14.156-.156.156-.25 0-.14-.11-.25-.234-.25-.094 0-.156.047-.25.156l-2.39 2.39-2.407-2.39c-.14-.125-.156-.156-.25-.156-.125 0-.25.11-.25.25 0 .094.063.14.156.25l2.39 2.39-2.39 2.376c-.11.125-.156.187-.156.265 0 .125.125.235.25.235.094 0 .11-.016.25-.157l2.39-2.39 2.391 2.39c.11.125.188.157.266.157a.23.23 0 00.234-.235zm0 0"/></symbol><symbol id="u" overflow="visible"><path d="M4.813-4.156c0-1.14-.75-1.766-2.079-1.766-1.343 0-2.218.688-2.218 1.75 0 .906.468 1.328 1.828 1.656l.86.22c.64.155.89.39.89.796 0 .547-.547.906-1.344.906-.5 0-.906-.14-1.14-.39-.141-.157-.22-.329-.266-.735H.375C.422-.39 1.172.25 2.672.25c1.453 0 2.375-.719 2.375-1.828 0-.86-.484-1.328-1.625-1.594l-.875-.219c-.75-.171-1.078-.421-1.078-.828 0-.515.484-.86 1.218-.86.75 0 1.141.313 1.157.923zm0 0"/></symbol><symbol id="v" overflow="visible"><path d="M5.297 0v-5.766H4.39V-2.5c0 1.188-.625 1.953-1.579 1.953-.718 0-1.187-.437-1.187-1.14v-4.079H.719v4.454C.719-.36 1.438.25 2.547.25c.86 0 1.39-.297 1.937-1.047V0zm0 0"/></symbol><symbol id="d" overflow="visible"><path d="M.688-5.938V0h1.546v-3.156c0-.906.454-1.36 1.36-1.36.156 0 .265.016.469.047V-6.03H3.89c-.72 0-1.329.453-1.657 1.25v-1.157zm0 0"/></symbol><symbol id="x" overflow="visible"><path d="M2.844-5.766h-.969v-.906c0-.375.219-.578.64-.578.079 0 .11 0 .329.016V-8c-.219-.047-.328-.047-.516-.047-.86 0-1.36.485-1.36 1.297v.984H.204v.75H.97V0h.906v-5.016h.969zm0 0"/></symbol><symbol id="y" overflow="visible"><path d="M.766-5.766V0h.921v-3.172c0-1.187.625-1.953 1.563-1.953.734 0 1.188.438 1.188 1.125v4h.921v-4.36c0-.952-.718-1.562-1.828-1.562-.86 0-1.406.328-1.922 1.125v-.969zm0 0"/></symbol><symbol id="z" overflow="visible"><path d="M5.188-3.828c-.047-.563-.172-.922-.391-1.25-.39-.531-1.094-.844-1.89-.844-1.548 0-2.563 1.219-2.563 3.14C.344-.921 1.328.25 2.89.25c1.375 0 2.25-.828 2.359-2.234h-.922c-.156.921-.625 1.39-1.406 1.39-1.016 0-1.625-.828-1.625-2.187 0-1.438.594-2.297 1.594-2.297.765 0 1.25.453 1.359 1.25zm0 0"/></symbol><symbol id="A" overflow="visible"><path d="M2.797-5.766h-.953v-1.578H.937v1.578h-.78v.75h.78v4.36c0 .578.391.906 1.11.906.219 0 .437-.016.75-.078v-.766a1.786 1.786 0 01-.438.047c-.406 0-.515-.11-.515-.515v-3.954h.953zm0 0"/></symbol><symbol id="B" overflow="visible"><path d="M1.656-5.766H.734V0h.922zm0-2.25H.72v1.157h.937zm0 0"/></symbol><symbol id="C" overflow="visible"><path d="M2.984-5.922c-1.609 0-2.593 1.14-2.593 3.078S1.359.25 3 .25c1.625 0 2.61-1.156 2.61-3.047 0-1.984-.954-3.125-2.626-3.125zM3-5.078c1.031 0 1.656.844 1.656 2.266 0 1.359-.64 2.218-1.656 2.218s-1.64-.844-1.64-2.25c0-1.375.624-2.234 1.64-2.234zm0 0"/></symbol><symbol id="D" overflow="visible"><path d="M5.89-.531c-.109.015-.156.015-.202.015-.313 0-.5-.171-.5-.453v-3.39c0-1.016-.75-1.563-2.157-1.563-.844 0-1.531.234-1.922.656-.265.297-.375.641-.39 1.204h.922c.078-.704.5-1.016 1.343-1.016.829 0 1.297.297 1.297.86v.234c0 .39-.234.546-.953.64-1.297.172-1.5.203-1.86.36-.671.265-1 .78-1 1.53C.469-.405 1.189.25 2.36.25c.72 0 1.297-.25 1.954-.844.062.578.343.844.953.844.171 0 .328-.016.625-.094zM4.282-1.812c0 .312-.093.5-.36.75-.374.343-.827.515-1.374.515-.703 0-1.125-.344-1.125-.922 0-.61.406-.922 1.39-1.062.954-.125 1.157-.172 1.47-.313zm0 0"/></symbol><symbol id="E" overflow="visible"><path d="M1.672-8.016H.75V0h.922zm0 0"/></symbol><symbol id="F" overflow="visible"><path d="M3.14 0l2.204-5.766H4.312L2.688-1.094 1.141-5.766H.109L2.141 0zm0 0"/></symbol><symbol id="G" overflow="visible"><path d="M5.64-2.578c0-.875-.062-1.406-.234-1.828-.375-.953-1.25-1.516-2.328-1.516-1.61 0-2.64 1.219-2.64 3.11 0 1.906 1 3.062 2.624 3.062 1.313 0 2.235-.75 2.454-2h-.922c-.25.766-.766 1.156-1.5 1.156a1.61 1.61 0 01-1.39-.75c-.22-.328-.298-.656-.313-1.234zm-4.218-.75c.078-1.063.719-1.75 1.64-1.75.907 0 1.594.75 1.594 1.687v.063zm0 0"/></symbol><symbol id="I" overflow="visible"><path d="M2.016-5.203c-.485 0-.922.219-1.188.578-.344.453-.515 1.156-.515 2.11C.313-.766.905.171 2.016.171c1.093 0 1.703-.938 1.703-2.64 0-1.016-.172-1.688-.516-2.157a1.466 1.466 0 00-1.187-.578zm0 .578c.703 0 1.046.703 1.046 2.094C3.063-1.062 2.72-.36 2-.36 1.312-.36.969-1.08.969-2.5c0-1.422.344-2.125 1.047-2.125zm0 0"/></symbol><symbol id="J" overflow="visible"><path d="M1.89-3.703V0h.657v-5.203h-.422c-.234.812-.375.922-1.375 1.047v.453zm0 0"/></symbol><symbol id="K" overflow="visible"><path d="M3.703-.64H.97c.078-.422.312-.688.937-1.063l.735-.406C3.375-2.5 3.75-3.031 3.75-3.672c0-.437-.188-.828-.484-1.11-.313-.28-.688-.421-1.188-.421-.656 0-1.14.234-1.437.687-.172.266-.266.594-.282 1.125h.657c.015-.359.062-.562.156-.734.156-.313.5-.5.89-.5.579 0 1.016.406 1.016.969 0 .406-.234.765-.703 1.031l-.672.375C.625-1.64.313-1.14.25 0h3.453zm0 0"/></symbol><symbol id="L" overflow="visible"><path d="M1.625-2.375h.078l.266-.016c.718 0 1.078.329 1.078.954 0 .64-.406 1.03-1.078 1.03C1.266-.406.922-.75.875-1.515h-.64c.03.422.109.688.234.922.25.5.765.766 1.484.766 1.063 0 1.75-.64 1.75-1.625 0-.656-.25-1.031-.875-1.234.485-.188.719-.563.719-1.079 0-.89-.594-1.437-1.578-1.437-1.047 0-1.61.578-1.625 1.687h.64c.016-.312.047-.5.125-.656.141-.281.47-.453.875-.453.563 0 .907.328.907.875 0 .375-.125.594-.407.703-.187.078-.406.11-.859.11zm0 0"/></symbol><symbol id="M" overflow="visible"><path d="M2.39-1.25V0h.657v-1.25h.765v-.578h-.765v-3.375h-.485L.204-1.922v.672zm0-.578H.767L2.39-4.094zm0 0"/></symbol><clipPath id="N"><path d="M194 148h21v20.781h-21zm0 0"/></clipPath><clipPath id="O"><path d="M214 148h21v20.781h-21zm0 0"/></clipPath><clipPath id="P"><path d="M234 148h21v20.781h-21zm0 0"/></clipPath><clipPath id="Q"><path d="M254 148h21v20.781h-21zm0 0"/></clipPath><clipPath id="R"><path d="M253 148h22v20.781h-22zm0 0"/></clipPath><clipPath id="S"><path d="M274 148h20v20.781h-20zm0 0"/></clipPath><clipPath id="T"><path d="M273 148h22v20.781h-22zm0 0"/></clipPath></defs><g transform="translate(-167.025 -3.663)"><use xlink:href="#a" x="166.15" y="12.632" width="100%" height="100%"/><use xlink:href="#b" x="173.486" y="12.632" width="100%" height="100%"/><use xlink:href="#c" x="179.601" y="12.632" width="100%" height="100%"/><use xlink:href="#d" x="186.938" y="12.632" width="100%" height="100%"/><use xlink:href="#e" x="191.216" y="12.632" width="100%" height="100%"/><use xlink:href="#f" x="197.331" y="12.632" width="100%" height="100%"/><use xlink:href="#b" x="204.052" y="12.632" width="100%" height="100%"/><use xlink:href="#g" x="210.167" y="12.632" width="100%" height="100%"/><use xlink:href="#h" x="217.503" y="12.632" width="100%" height="100%"/><use xlink:href="#i" x="224.223" y="12.632" width="100%" height="100%"/></g><use xlink:href="#j" x="234" y="12.632" width="100%" height="100%" transform="translate(-167.025 -3.663)"/><use xlink:href="#k" x="238.553" y="12.632" width="100%" height="100%" transform="translate(-167.025 -3.663)"/><use xlink:href="#l" x="244.371" y="12.632" width="100%" height="100%" transform="translate(-167.025 -3.663)"/><use xlink:href="#m" x="249.615" y="12.632" width="100%" height="100%" transform="translate(-167.025 -3.663)"/><use xlink:href="#n" x="256.247" y="12.632" width="100%" height="100%" transform="translate(-167.025 -3.663)"/><use xlink:href="#o" x="264.123" y="12.632" width="100%" height="100%" transform="translate(-167.025 -3.663)"/><use xlink:href="#p" x="270.693" y="12.632" width="100%" height="100%" transform="translate(-167.025 -3.663)"/><use xlink:href="#q" x="275.342" y="12.632" width="100%" height="100%" transform="translate(-167.025 -3.663)" fill="#283acc"/><use xlink:href="#r" x="282.678" y="12.632" width="100%" height="100%" transform="translate(-167.025 -3.663)"/><use xlink:href="#s" x="290.651" y="12.632" width="100%" height="100%" transform="translate(-167.025 -3.663)"/><use xlink:href="#p" x="305.93" y="12.632" width="100%" height="100%" transform="translate(-167.025 -3.663)"/><use xlink:href="#q" x="310.574" y="12.632" width="100%" height="100%" transform="translate(-167.025 -3.663)" fill="#283acc"/><use xlink:href="#r" x="317.91" y="12.632" width="100%" height="100%" transform="translate(-167.025 -3.663)"/><use xlink:href="#k" x="173.14" y="26.729" width="100%" height="100%" transform="translate(-167.025 -3.663)"/><use xlink:href="#o" x="182.279" y="26.729" width="100%" height="100%" transform="translate(-167.025 -3.663)"/><use xlink:href="#q" x="188.852" y="26.729" width="100%" height="100%" transform="translate(-167.025 -3.663)" fill="#283acc"/><use xlink:href="#t" x="198.845" y="26.729" width="100%" height="100%" transform="translate(-167.025 -3.663)"/><use xlink:href="#q" x="210.8" y="26.729" width="100%" height="100%" transform="translate(-167.025 -3.663)" fill="#283acc"/><use xlink:href="#s" x="221.457" y="26.729" width="100%" height="100%" transform="translate(-167.025 -3.663)"/><use xlink:href="#q" x="236.733" y="26.729" width="100%" height="100%" transform="translate(-167.025 -3.663)" fill="#283acc"/><g transform="translate(-167.025 -3.663)"><use xlink:href="#u" x="254.031" y="26.729" width="100%" height="100%"/><use xlink:href="#v" x="259.53" y="26.729" width="100%" height="100%"/><use xlink:href="#w" x="265.646" y="26.729" width="100%" height="100%"/></g><g transform="translate(-167.025 -3.663)"><use xlink:href="#x" x="277.865" y="26.729" width="100%" height="100%"/><use xlink:href="#v" x="280.923" y="26.729" width="100%" height="100%"/><use xlink:href="#y" x="287.038" y="26.729" width="100%" height="100%"/><use xlink:href="#z" x="293.153" y="26.729" width="100%" height="100%"/><use xlink:href="#A" x="298.653" y="26.729" width="100%" height="100%"/><use xlink:href="#B" x="301.71" y="26.729" width="100%" height="100%"/><use xlink:href="#C" x="304.152" y="26.729" width="100%" height="100%"/><use xlink:href="#y" x="310.267" y="26.729" width="100%" height="100%"/></g><use xlink:href="#m" x="172.327" y="40.179" width="100%" height="100%" transform="translate(-167.025 -3.663)"/><use xlink:href="#o" x="182.279" y="40.179" width="100%" height="100%" transform="translate(-167.025 -3.663)"/><use xlink:href="#q" x="188.852" y="40.179" width="100%" height="100%" transform="translate(-167.025 -3.663)"/><g transform="translate(-167.025 -3.663)"><use xlink:href="#B" x="254.031" y="40.179" width="100%" height="100%"/><use xlink:href="#y" x="256.473" y="40.179" width="100%" height="100%"/><use xlink:href="#B" x="262.588" y="40.179" width="100%" height="100%"/><use xlink:href="#A" x="265.03" y="40.179" width="100%" height="100%"/><use xlink:href="#B" x="268.087" y="40.179" width="100%" height="100%"/><use xlink:href="#D" x="270.529" y="40.179" width="100%" height="100%"/><use xlink:href="#E" x="276.644" y="40.179" width="100%" height="100%"/></g><use xlink:href="#F" x="282.144" y="40.179" width="100%" height="100%" transform="translate(-167.025 -3.663)"/><g transform="translate(-167.025 -3.663)"><use xlink:href="#D" x="287.368" y="40.179" width="100%" height="100%"/><use xlink:href="#E" x="293.483" y="40.179" width="100%" height="100%"/><use xlink:href="#v" x="295.925" y="40.179" width="100%" height="100%"/><use xlink:href="#G" x="302.04" y="40.179" width="100%" height="100%"/></g><use xlink:href="#m" x="181.511" y="66.254" width="100%" height="100%" transform="translate(-167.025 -3.663)"/><path d="M47.569 49.731H27.725v19.844h19.844zm0 0" fill="#d4d7f5" stroke="#000" stroke-width=".598" stroke-miterlimit="10"/><use xlink:href="#H" x="199.325" y="65.282" width="100%" height="100%" transform="translate(-167.025 -3.663)"/><use xlink:href="#I" x="205.44" y="67.075" width="100%" height="100%" transform="translate(-167.025 -3.663)"/><path d="M67.413 49.731H47.569v19.844h19.844zm0 0" fill="#d4d7f5" stroke="#000" stroke-width=".598" stroke-miterlimit="10"/><use xlink:href="#H" x="219.167" y="65.357" width="100%" height="100%" transform="translate(-167.025 -3.663)"/><use xlink:href="#J" x="225.283" y="67.15" width="100%" height="100%" transform="translate(-167.025 -3.663)"/><path d="M87.252 49.731h-19.84v19.844h19.84zm0 0" fill="#d4d7f5" stroke="#000" stroke-width=".598" stroke-miterlimit="10"/><use xlink:href="#H" x="239.01" y="65.357" width="100%" height="100%" transform="translate(-167.025 -3.663)"/><use xlink:href="#K" x="245.125" y="67.15" width="100%" height="100%" transform="translate(-167.025 -3.663)"/><path d="M107.096 49.731H87.252v19.844h19.844zm0 0" fill="#d4d7f5" stroke="#000" stroke-width=".598" stroke-miterlimit="10"/><use xlink:href="#H" x="258.853" y="65.282" width="100%" height="100%" transform="translate(-167.025 -3.663)"/><use xlink:href="#L" x="264.968" y="67.075" width="100%" height="100%" transform="translate(-167.025 -3.663)"/><path d="M126.94 49.731h-19.844v19.844h19.844zm0 0" fill="#d4d7f5" stroke="#000" stroke-width=".598" stroke-miterlimit="10"/><use xlink:href="#H" x="278.696" y="65.357" width="100%" height="100%" transform="translate(-167.025 -3.663)"/><use xlink:href="#M" x="284.811" y="67.15" width="100%" height="100%" transform="translate(-167.025 -3.663)"/><g transform="translate(-167.025 -3.663)" clip-path="url(#N)"><path d="M214.594 148.64H194.75v19.844h19.844zm0 0" fill="#d4d7f5" stroke="#000" stroke-width=".598" stroke-miterlimit="10"/></g><g transform="translate(-167.025 -3.663)" clip-path="url(#O)"><path d="M234.438 148.64h-19.844v19.844h19.844zm0 0" fill="#d4d7f5" stroke="#000" stroke-width=".598" stroke-miterlimit="10"/></g><g transform="translate(-167.025 -3.663)" clip-path="url(#P)"><path d="M254.277 148.64h-19.84v19.844h19.84zm0 0" fill="#d4d7f5" stroke="#000" stroke-width=".598" stroke-miterlimit="10"/></g><g transform="translate(-167.025 -3.663)" clip-path="url(#Q)"><path d="M274.121 148.64h-19.844v19.844h19.844zm0 0" fill="#d4d7f5"/></g><g transform="translate(-167.025 -3.663)" clip-path="url(#R)"><path d="M274.121 148.64h-19.844v19.844h19.844zm0 0" fill="none" stroke="#000" stroke-width=".598" stroke-miterlimit="10"/></g><g transform="translate(-167.025 -3.663)" clip-path="url(#S)"><path d="M293.965 148.64H274.12v19.844h19.844zm0 0" fill="#d4d7f5"/></g><g transform="translate(-167.025 -3.663)" clip-path="url(#T)"><path d="M293.965 148.64H274.12v19.844h19.844zm0 0" fill="none" stroke="#000" stroke-width=".598" stroke-miterlimit="10"/></g><path d="M42.514 83.466a4.868 4.868 0 10-9.736.001 4.868 4.868 0 009.736-.001zm0 0" fill="#fff" stroke="#000" stroke-width=".399" stroke-miterlimit="10"/><use xlink:href="#k" x="201.761" y="90.001" width="100%" height="100%" transform="translate(-167.025 -3.663)"/><path d="M62.358 95.372a4.868 4.868 0 10-9.736.001 4.868 4.868 0 009.736-.001zm0 0" fill="#fff" stroke="#000" stroke-width=".399" stroke-miterlimit="10"/><use xlink:href="#k" x="221.603" y="101.907" width="100%" height="100%" transform="translate(-167.025 -3.663)"/><path d="M82.198 107.274a4.862 4.862 0 00-4.868-4.863 4.861 4.861 0 00-4.863 4.863 4.862 4.862 0 004.863 4.867 4.863 4.863 0 004.868-4.867zm0 0" fill="#fff" stroke="#000" stroke-width=".399" stroke-miterlimit="10"/><use xlink:href="#k" x="241.445" y="113.812" width="100%" height="100%" transform="translate(-167.025 -3.663)"/><path d="M102.041 119.18a4.868 4.868 0 10-9.735.002 4.868 4.868 0 009.735-.002zm0 0" fill="#fff" stroke="#000" stroke-width=".399" stroke-miterlimit="10"/><use xlink:href="#k" x="261.288" y="125.718" width="100%" height="100%" transform="translate(-167.025 -3.663)"/><path d="M17.803 66.454v17.012h13.98" fill="none" stroke="#000" stroke-width=".797" stroke-miterlimit="10"/><path d="M29.631 80.356c.465 1.864 1.504 2.746 2.551 3.11-1.047.363-2.086 1.242-2.55 3.109" fill="none" stroke="#000" stroke-width=".797" stroke-linecap="round" stroke-linejoin="round" stroke-miterlimit="10"/><path d="M37.647 69.786v7.816" fill="none" stroke="#000" stroke-width=".797" stroke-miterlimit="10"/><path d="M40.756 75.45c-1.863.465-2.746 1.504-3.11 2.55-.362-1.046-1.245-2.085-3.108-2.55" fill="none" stroke="#000" stroke-width=".797" stroke-linecap="round" stroke-linejoin="round" stroke-miterlimit="10"/><path d="M57.49 69.786v19.723" fill="none" stroke="#000" stroke-width=".797" stroke-miterlimit="10"/><path d="M60.6 87.356c-1.867.465-2.746 1.504-3.11 2.551-.363-1.047-1.245-2.086-3.113-2.55" fill="none" stroke="#000" stroke-width=".797" stroke-linecap="round" stroke-linejoin="round" stroke-miterlimit="10"/><path d="M77.334 69.786v31.629" fill="none" stroke="#000" stroke-width=".797" stroke-miterlimit="10"/><path d="M80.444 99.263c-1.867.464-2.746 1.503-3.11 2.55-.363-1.047-1.246-2.086-3.113-2.55" fill="none" stroke="#000" stroke-width=".797" stroke-linecap="round" stroke-linejoin="round" stroke-miterlimit="10"/><path d="M97.174 69.786v43.535" fill="none" stroke="#000" stroke-width=".797" stroke-miterlimit="10"/><path d="M100.288 111.169c-1.868.465-2.75 1.504-3.114 2.55-.36-1.046-1.242-2.085-3.11-2.55" fill="none" stroke="#000" stroke-width=".797" stroke-linecap="round" stroke-linejoin="round" stroke-miterlimit="10"/><path d="M41.99 86.071l10.473 6.285" fill="none" stroke="#000" stroke-width=".797" stroke-miterlimit="10"/><path d="M52.217 88.579c-.558 1.84-.125 3.133.586 3.98-1.082-.226-2.426-.003-3.785 1.356" fill="none" stroke="#000" stroke-width=".797" stroke-linecap="round" stroke-linejoin="round" stroke-miterlimit="10"/><path d="M61.834 97.977l10.473 6.282" fill="none" stroke="#000" stroke-width=".797" stroke-miterlimit="10"/><path d="M72.06 100.485c-.562 1.84-.124 3.133.587 3.98-1.082-.226-2.426-.003-3.785 1.356" fill="none" stroke="#000" stroke-width=".797" stroke-linecap="round" stroke-linejoin="round" stroke-miterlimit="10"/><path d="M81.678 109.884l10.469 6.28" fill="none" stroke="#000" stroke-width=".797" stroke-miterlimit="10"/><path d="M91.905 112.391c-.563 1.84-.125 3.13.586 3.98-1.086-.226-2.43-.007-3.79 1.356" fill="none" stroke="#000" stroke-width=".797" stroke-linecap="round" stroke-linejoin="round" stroke-miterlimit="10"/><path d="M17.803 83.466l19.598 60.547" fill="none" stroke="#000" stroke-width=".797" stroke-miterlimit="10"/><path d="M39.698 141.005c-1.633 1.02-2.149 2.277-2.172 3.386-.668-.882-1.828-1.601-3.746-1.468" fill="none" stroke="#000" stroke-width=".797" stroke-linecap="round" stroke-linejoin="round" stroke-miterlimit="10"/><path d="M39.205 88.286l18.04 55.727" fill="none" stroke="#000" stroke-width=".797" stroke-miterlimit="10"/><path d="M59.541 141.005c-1.632 1.02-2.152 2.277-2.175 3.386-.664-.882-1.825-1.601-3.743-1.468" fill="none" stroke="#000" stroke-width=".797" stroke-linecap="round" stroke-linejoin="round" stroke-miterlimit="10"/><path d="M59.377 100.071l17.66 43.961" fill="none" stroke="#000" stroke-width=".797" stroke-miterlimit="10"/><path d="M79.12 140.872c-1.56 1.129-1.989 2.422-1.934 3.527-.727-.836-1.934-1.468-3.84-1.207" fill="none" stroke="#000" stroke-width=".797" stroke-linecap="round" stroke-linejoin="round" stroke-miterlimit="10"/><path d="M79.702 111.755l17.101 32.308" fill="none" stroke="#000" stroke-width=".797" stroke-miterlimit="10"/><path d="M98.545 140.708c-1.43 1.285-1.722 2.617-1.554 3.71-.813-.757-2.075-1.26-3.946-.8" fill="none" stroke="#000" stroke-width=".797" stroke-linecap="round" stroke-linejoin="round" stroke-miterlimit="10"/><path d="M100.28 123.184l16.25 20.957" fill="none" stroke="#000" stroke-width=".797" stroke-miterlimit="10"/><path d="M117.67 140.532c-1.191 1.512-1.25 2.875-.894 3.922-.93-.602-2.262-.883-4.024-.11" fill="none" stroke="#000" stroke-width=".797" stroke-linecap="round" stroke-linejoin="round" stroke-miterlimit="10"/></svg>