<svg xmlns="http://www.w3.org/2000/svg" xmlns:xlink="http://www.w3.org/1999/xlink" version="1.2" viewBox="0 0 100.197 103.182" height="137.576" width="133.595"><defs><symbol id="r" overflow="visible"><path d="M5.656-4.156a2.14 2.14 0 00.063-.469c0-.781-.735-1.297-1.797-1.297-.781 0-1.453.219-1.906.656a2.094 2.094 0 00-.657 1.47c0 .671.375.983 1.516 1.28l.813.22c.359.093.53.155.624.28.079.11.141.266.141.36 0 .203-.172.547-.344.687-.28.235-.75.375-1.234.375-.75 0-1.188-.297-1.188-.844 0-.062.016-.171.032-.28H.734a2.84 2.84 0 00-.062.562C.672-.281 1.437.25 2.719.25c1.64 0 2.703-.844 2.703-2.156 0-.672-.36-1.016-1.328-1.266l-.844-.203c-.61-.156-.922-.375-.922-.656 0-.219.125-.5.328-.688.266-.25.594-.36 1.078-.36.641 0 1 .25 1 .673v.25zm0 0"/></symbol><symbol id="a" overflow="visible"><path d="M2.469-3.453h3.5v-1.375h-3.5v-1.813h3.984v-1.375H.813V0h1.656zm0 0"/></symbol><symbol id="c" overflow="visible"><path d="M2.281-8.016H.734V0h1.547zm0 0"/></symbol><symbol id="d" overflow="visible"><path d="M3.313-5.813h-.86v-1.593H.906v1.593h-.75v1.016h.75v3.656c0 .938.5 1.391 1.516 1.391.344 0 .61-.031.89-.125V-.953c-.156.031-.25.047-.359.047-.406 0-.5-.125-.5-.656v-3.235h.86zm0 0"/></symbol><symbol id="e" overflow="visible"><path d="M5.766-2.484c.015-.141.015-.188.015-.266a5.06 5.06 0 00-.234-1.563C5.14-5.39 4.187-6.03 2.984-6.03c-1.703 0-2.75 1.218-2.75 3.218C.234-.905 1.281.25 2.954.25c1.343 0 2.421-.75 2.75-1.922H4.187c-.188.469-.61.75-1.172.75-.438 0-.797-.187-1.016-.515-.14-.22-.203-.485-.219-1.047zm-3.97-1.032c.11-.89.485-1.343 1.173-1.343.39 0 .734.187.953.5.14.218.219.437.25.843zm0 0"/></symbol><symbol id="f" overflow="visible"><path d="M.688-5.938V0h1.546v-3.156c0-.906.454-1.36 1.36-1.36.156 0 .265.016.469.047V-6.03H3.89c-.72 0-1.329.453-1.657 1.25v-1.157zm0 0"/></symbol><symbol id="g" overflow="visible"><path d="M3.172-8.969C1.39-7.359.937-4.938.937-2.984c0 2.093.516 4.437 2.235 5.984h.719C3.437 2.562 2.703 1.64 2.28.281c-.328-1.062-.437-2.172-.437-3.25 0-3.531 1.25-5.25 2.047-6zm0 0"/></symbol><symbol id="i" overflow="visible"><path d="M1.36 3c1.796-1.594 2.25-4.031 2.25-5.969 0-2.11-.516-4.453-2.25-6H.64c.47.438 1.204 1.36 1.626 2.719.312 1.063.437 2.172.437 3.266C2.703.53 1.453 2.266.641 3zm0 0"/></symbol><symbol id="j" overflow="visible"><path d="M2.11-5.313h-.97v.97h.97zM1.14-.968V0h.97v-.969zm0 0"/></symbol><symbol id="h" overflow="visible"><path d="M4.063-5.766h-.938l.156-.75c.125-.562.328-.75.797-.75.078 0 .14 0 .297.032L4.547-8c-.203-.047-.328-.047-.5-.047-.844 0-1.469.485-1.64 1.297l-.204.984h-.765l-.157.735h.766L.984 0h.922L2.97-5.031h.953zm0 0"/></symbol><symbol id="l" overflow="visible"><path d="M5.766-2.406L6.062 0h1.125L6.079-8.016H4.75L.187 0h1.094l1.344-2.406zm-.11-.86H3.11l2.11-3.671zm0 0"/></symbol><symbol id="p" overflow="visible"><path d="M6.078-.563c-.11.032-.156.032-.187.032-.297 0-.422-.11-.422-.328 0-.047 0-.079.015-.11l.704-3.312c.062-.297.062-.297.062-.407 0-.75-.766-1.234-1.922-1.234-1.516 0-2.453.64-2.672 1.86h.922c.11-.297.188-.454.344-.61.234-.25.703-.406 1.172-.406.656 0 1.172.297 1.172.703 0 .047-.016.125-.032.203l-.03.203c-.095.453-.313.563-1.11.64-1.469.142-1.938.25-2.485.595-.562.359-.89.937-.89 1.578C.719-.281 1.313.25 2.297.25c.39 0 .844-.078 1.25-.219.344-.125.515-.234.969-.625v.125c0 .453.296.719.828.719.125 0 .156 0 .437-.063.016-.015.078-.015.14-.03zM4.734-1.796C4.594-1.125 3.625-.53 2.656-.53c-.625 0-.969-.266-.969-.735 0-.359.204-.718.532-.921.265-.172.594-.25 1.14-.329 1.032-.14 1.125-.156 1.61-.328zm0 0"/></symbol><symbol id="q" overflow="visible"><path d="M3.375-8.016h-.922L.75 0h.922zm0 0"/></symbol><symbol id="b" overflow="visible"><path d="M2.281-5.938H.734V0h1.547zm0-2.078H.734v1.375h1.547zm0 0"/></symbol><symbol id="s" overflow="visible"><path d="M6.188-2.578l.03-.188a6.66 6.66 0 00.157-1.28c0-1.063-.906-1.876-2.094-1.876-.953 0-1.89.438-2.437 1.188-.516.687-.922 1.937-.922 2.828 0 .593.25 1.203.687 1.61.375.374.86.546 1.5.546 1.313 0 2.454-.813 2.782-2h-.922C4.579-.984 4-.594 3.25-.594c-.86 0-1.36-.547-1.36-1.469 0-.234.016-.343.063-.515zM2.14-3.36c.296-1.016 1.109-1.72 2-1.72.78 0 1.265.532 1.265 1.345 0 .109 0 .187-.031.375zm0 0"/></symbol><symbol id="u" overflow="visible"><path d="M4.031-5.766h-.984l.344-1.578h-.922l-.344 1.578h-.781l-.157.735h.782L1.094-.953a2.5 2.5 0 00-.032.344c0 .53.375.859.985.859.219 0 .562-.031.719-.078l.171-.797c-.343.078-.39.094-.53.094-.235 0-.391-.125-.391-.313 0-.031.015-.078.015-.14l.86-4.047h.984zm0 0"/></symbol><symbol id="v" overflow="visible"><path d="M1.984-5.766L.766 0h.921l.641-2.984C2.61-4.328 3.391-5 4.594-4.97l.203-.922c-.14-.03-.234-.03-.36-.03-.625 0-1.125.28-1.812 1.062l.188-.907zm0 0"/></symbol><symbol id="w" overflow="visible"><path d="M5.313 0L6.53-5.766h-.92L4.922-2.5C4.656-1.312 3.89-.531 2.953-.531c-.594 0-.984-.344-.984-.86 0-.078.015-.187.031-.296l.875-4.079h-.922L1-1.312a2.31 2.31 0 00-.031.359c0 .75.578 1.203 1.515 1.203.86 0 1.485-.266 2.125-.875L4.484 0zm0 0"/></symbol><symbol id="k" overflow="visible"><path d="M3.969 2.75s0-.078-.063-.219L1.812-2.984l2.094-5.532c.063-.14.063-.203.063-.203 0-.14-.11-.25-.235-.25-.156 0-.203.11-.25.25L1.375-3.203c-.063.14-.063.219-.063.219s0 .062.063.218L3.469 2.72c.062.156.094.265.265.265a.24.24 0 00.235-.234zm0 0"/></symbol><symbol id="m" overflow="visible"><path d="M3.328-2.984s0-.079-.062-.22l-2.094-5.5c-.063-.14-.094-.265-.266-.265-.125 0-.234.11-.234.25 0 0 0 .063.062.203l2.094 5.532L.734 2.53c-.062.14-.062.219-.062.219 0 .125.11.234.234.234.156 0 .203-.109.25-.234l2.11-5.516c.062-.156.062-.218.062-.218zm0 0"/></symbol><symbol id="n" overflow="visible"><path d="M11.266-2.984a.136.136 0 00-.094-.125A3.744 3.744 0 018.719-6c0-.063-.063-.11-.125-.11h-.219c-.063 0-.125.063-.125.157a4.259 4.259 0 001.703 2.719H.906c-.172 0-.25.125-.25.25 0 .109.078.234.25.234h9.047A4.259 4.259 0 008.25-.031c0 .11.063.156.125.156h.219c.062 0 .125-.047.125-.094a3.766 3.766 0 012.453-2.906c.047 0 .094-.047.094-.11zm0 0"/></symbol><symbol id="o" overflow="visible"><path d="M5.11 2.86c0-.126-.079-.126-.204-.141-.937-.047-1.375-.594-1.484-1.016-.047-.14-.047-.156-.047-.578V-.672c0-.36 0-.969-.016-1.078-.156-.797-.921-1.11-1.39-1.234 1.406-.407 1.406-1.266 1.406-1.594v-2.156c0-.86 0-1.125.297-1.422.219-.203.484-.5 1.328-.547.063-.016.11-.063.11-.125 0-.14-.094-.14-.25-.14-1.188 0-2.25.609-2.282 1.468v2.188c0 1.125 0 1.312-.312 1.656-.157.172-.485.484-1.235.531-.093 0-.172.016-.172.14 0 .11.079.11.188.126.516.03 1.531.296 1.531 1.484v2.36c0 .703 0 1.109.625 1.546.516.36 1.297.453 1.656.453.157 0 .25 0 .25-.125zm0 0"/></symbol><symbol id="x" overflow="visible"><path d="M5.11-2.984c0-.125-.079-.125-.204-.141-.5-.031-1.531-.281-1.531-1.484v-2.36c0-.687 0-1.093-.61-1.547-.515-.343-1.28-.453-1.671-.453-.11 0-.235 0-.235.14 0 .11.079.11.188.126.953.062 1.39.594 1.5 1.031.031.125.031.156.031.578v1.782c0 .359 0 .968.031 1.093.157.782.922 1.094 1.391 1.235-1.422.406-1.422 1.25-1.422 1.578V.75c0 .86 0 1.125-.281 1.422-.219.219-.485.5-1.328.547a.137.137 0 00-.11.14c0 .125.125.125.235.125 1.203 0 2.265-.609 2.281-1.468V-.672c0-1.125 0-1.312.313-1.64.171-.172.5-.5 1.25-.547.078 0 .171-.016.171-.125zm0 0"/></symbol><symbol id="t" overflow="visible"><path d="M2.328.047c0-.688-.219-1.203-.719-1.203-.375 0-.562.312-.562.578 0 .25.172.578.578.578a.518.518 0 00.39-.156c.032-.016.047-.016.047-.016s.032.156.032.219c0 .39-.078 1.172-.766 1.953-.14.14-.14.188-.14.188 0 .062.062.124.125.124.093 0 1.015-.89 1.015-2.265zm0 0"/></symbol><clipPath id="y"><path d="M123 141h18v18.824h-18zm0 0"/></clipPath><clipPath id="z"><path d="M122 141h20v18.824h-20zm0 0"/></clipPath><clipPath id="A"><path d="M140 141h19v18.824h-19zm0 0"/></clipPath></defs><g transform="translate(-108.233 -56.642)"><use xlink:href="#a" x="107.42" y="65.611" width="100%" height="100%"/><use xlink:href="#b" x="114.14" y="65.611" width="100%" height="100%"/><use xlink:href="#c" x="117.198" y="65.611" width="100%" height="100%"/><use xlink:href="#d" x="120.255" y="65.611" width="100%" height="100%"/><use xlink:href="#e" x="123.918" y="65.611" width="100%" height="100%"/><use xlink:href="#f" x="130.033" y="65.611" width="100%" height="100%"/></g><use xlink:href="#g" x="134.312" y="65.611" width="100%" height="100%" transform="translate(-108.233 -56.642)"/><use xlink:href="#h" x="138.864" y="65.611" width="100%" height="100%" transform="translate(-108.233 -56.642)"/><use xlink:href="#i" x="143.439" y="65.611" width="100%" height="100%" transform="translate(-108.233 -56.642)"/><use xlink:href="#j" x="151.315" y="65.611" width="100%" height="100%" transform="translate(-108.233 -56.642)"/><use xlink:href="#k" x="157.885" y="65.611" width="100%" height="100%" transform="translate(-108.233 -56.642)"/><use xlink:href="#l" x="162.534" y="65.611" width="100%" height="100%" transform="translate(-108.233 -56.642)" fill="#283acc"/><use xlink:href="#m" x="169.87" y="65.611" width="100%" height="100%" transform="translate(-108.233 -56.642)"/><use xlink:href="#n" x="177.843" y="65.611" width="100%" height="100%" transform="translate(-108.233 -56.642)"/><use xlink:href="#k" x="193.122" y="65.611" width="100%" height="100%" transform="translate(-108.233 -56.642)"/><use xlink:href="#l" x="197.765" y="65.611" width="100%" height="100%" transform="translate(-108.233 -56.642)" fill="#283acc"/><use xlink:href="#m" x="205.101" y="65.611" width="100%" height="100%" transform="translate(-108.233 -56.642)"/><use xlink:href="#h" x="108.778" y="80.057" width="100%" height="100%" transform="translate(-108.233 -56.642)"/><use xlink:href="#j" x="116.674" y="80.057" width="100%" height="100%" transform="translate(-108.233 -56.642)"/><use xlink:href="#l" x="123.246" y="80.057" width="100%" height="100%" transform="translate(-108.233 -56.642)" fill="#283acc"/><use xlink:href="#n" x="133.903" y="80.057" width="100%" height="100%" transform="translate(-108.233 -56.642)"/><use xlink:href="#o" x="149.182" y="80.057" width="100%" height="100%" transform="translate(-108.233 -56.642)"/><use xlink:href="#h" x="155.157" y="80.057" width="100%" height="100%" transform="translate(-108.233 -56.642)"/><g transform="translate(-108.233 -56.642)"><use xlink:href="#p" x="157.885" y="80.057" width="100%" height="100%"/><use xlink:href="#q" x="164" y="80.057" width="100%" height="100%"/><use xlink:href="#r" x="166.442" y="80.057" width="100%" height="100%"/><use xlink:href="#s" x="171.941" y="80.057" width="100%" height="100%"/></g><use xlink:href="#t" x="178.056" y="80.057" width="100%" height="100%" transform="translate(-108.233 -56.642)"/><g transform="translate(-108.233 -56.642)"><use xlink:href="#u" x="183.3" y="80.057" width="100%" height="100%"/><use xlink:href="#v" x="186.358" y="80.057" width="100%" height="100%"/></g><g transform="translate(-108.233 -56.642)"><use xlink:href="#w" x="190.185" y="80.057" width="100%" height="100%"/><use xlink:href="#s" x="196.3" y="80.057" width="100%" height="100%"/></g><use xlink:href="#x" x="202.415" y="80.057" width="100%" height="100%" transform="translate(-108.233 -56.642)"/><path d="M32.697 32.244h-17.66v17.66h17.66zm17.656 0H32.697v17.66h17.656zm17.661 0h-17.66v17.66h17.66zm17.66 0h-17.66v17.66h17.66zm0 0" fill="#d4d7f5" stroke="#000" stroke-width=".598" stroke-miterlimit="10"/><g transform="translate(-108.233 -56.642)" clip-path="url(#y)"><path d="M140.93 141.867h-17.66v17.66h17.66zm0 0" fill="#d4d7f5"/></g><g transform="translate(-108.233 -56.642)" clip-path="url(#z)"><path d="M140.93 141.867h-17.66v17.66h17.66zm0 0" fill="none" stroke="#000" stroke-width=".598" stroke-miterlimit="10"/></g><g transform="translate(-108.233 -56.642)" clip-path="url(#A)"><path d="M158.586 141.867H140.93v17.66h17.656zm0 0" fill="#d4d7f5" stroke="#000" stroke-width=".598" stroke-miterlimit="10"/></g><path d="M23.865 50.092v34.149" fill="none" stroke="#000" stroke-width=".797" stroke-miterlimit="10"/><path d="M26.975 82.092c-1.864.465-2.747 1.504-3.11 2.55-.363-1.046-1.242-2.085-3.11-2.55" fill="none" stroke="#000" stroke-width=".797" stroke-linecap="round" stroke-linejoin="round" stroke-miterlimit="10"/><path d="M29.178 67.565a5.31 5.31 0 10-10.621 0 5.306 5.306 0 005.308 5.308 5.31 5.31 0 005.313-5.308zm0 0" fill="#fff" stroke="#000" stroke-width=".399" stroke-miterlimit="10"/><use xlink:href="#h" x="129.809" y="128.25" width="100%" height="100%" transform="translate(-108.233 -56.642)"/><path d="M41.525 50.092v16.676" fill="none" stroke="#000" stroke-width=".797" stroke-miterlimit="10"/><path d="M44.639 64.616c-1.868.464-2.75 1.503-3.114 2.55-.363-1.047-1.242-2.086-3.11-2.55" fill="none" stroke="#000" stroke-width=".797" stroke-linecap="round" stroke-linejoin="round" stroke-miterlimit="10"/><path d="M46.838 67.565a5.31 5.31 0 10-10.621 0 5.306 5.306 0 005.308 5.308 5.31 5.31 0 005.313-5.308zm0 0" fill="#fff" stroke="#000" stroke-width=".399" stroke-miterlimit="10"/><use xlink:href="#h" x="147.469" y="128.25" width="100%" height="100%" transform="translate(-108.233 -56.642)"/><path d="M59.185 50.092v17.473L42.092 84.479" fill="none" stroke="#000" stroke-width=".797" stroke-miterlimit="10"/><path d="M45.81 85.178c-1.644-1-3.003-.898-4-.418.489-.996.606-2.351-.375-4.008" fill="none" stroke="#000" stroke-width=".797" stroke-linecap="round" stroke-linejoin="round" stroke-miterlimit="10"/><path d="M64.498 67.565a5.31 5.31 0 10-10.621 0 5.306 5.306 0 005.308 5.308 5.31 5.31 0 005.313-5.308zm0 0" fill="#fff" stroke="#000" stroke-width=".399" stroke-miterlimit="10"/><use xlink:href="#h" x="165.129" y="128.25" width="100%" height="100%" transform="translate(-108.233 -56.642)"/><path d="M76.846 50.092v16.676" fill="none" stroke="#000" stroke-width=".797" stroke-miterlimit="10"/><path d="M79.959 64.616c-1.867.464-2.75 1.503-3.113 2.55-.364-1.047-1.243-2.086-3.11-2.55" fill="none" stroke="#000" stroke-width=".797" stroke-linecap="round" stroke-linejoin="round" stroke-miterlimit="10"/><path d="M82.158 67.565a5.31 5.31 0 10-10.621 0 5.306 5.306 0 005.309 5.308 5.31 5.31 0 005.312-5.308zm0 0" fill="#fff" stroke="#000" stroke-width=".399" stroke-miterlimit="10"/><use xlink:href="#h" x="182.789" y="128.25" width="100%" height="100%" transform="translate(-108.233 -56.642)"/></svg>