<svg xmlns="http://www.w3.org/2000/svg" xmlns:xlink="http://www.w3.org/1999/xlink" version="1.2" viewBox="0 0 152.945 67.882" height="90.509" width="203.926"><defs><symbol id="r" overflow="visible"><path d="M2.016-5.203c-.485 0-.922.219-1.188.578-.344.453-.515 1.156-.515 2.11C.313-.766.905.171 2.016.171c1.093 0 1.703-.938 1.703-2.64 0-1.016-.172-1.688-.516-2.157a1.466 1.466 0 00-1.187-.578zm0 .578c.703 0 1.046.703 1.046 2.094C3.063-1.062 2.72-.36 2-.36 1.312-.36.969-1.08.969-2.5c0-1.422.344-2.125 1.047-2.125zm0 0"/></symbol><symbol id="a" overflow="visible"><path d="M7.828-4.313H4.61v1.375h1.829c-.047.454-.157.72-.407 1.016a2.1 2.1 0 01-1.625.766c-1.343 0-2.297-1.172-2.297-2.813 0-1.734.844-2.781 2.25-2.781.563 0 1.047.172 1.422.484.219.204.344.391.485.813h1.562C7.625-7.11 6.281-8.156 4.344-8.156 2.03-8.156.469-6.453.469-3.953.469-1.516 2.047.25 4.219.25c1.078 0 1.797-.375 2.422-1.281L6.828.016h1zm0 0"/></symbol><symbol id="c" overflow="visible"><path d="M.688-5.938V0h1.546v-3.563c0-.703.5-1.171 1.235-1.171.672 0 1 .375 1 1.078V0H6v-3.984c0-1.313-.719-2.047-1.984-2.047-.797 0-1.344.297-1.782.953v-.86zm0 0"/></symbol><symbol id="d" overflow="visible"><path d="M.688-5.938V0h1.546v-3.156c0-.906.454-1.36 1.36-1.36.156 0 .265.016.469.047V-6.03H3.89c-.72 0-1.329.453-1.657 1.25v-1.157zm0 0"/></symbol><symbol id="e" overflow="visible"><path d="M5.766-.188c-.282-.25-.36-.421-.36-.718V-4.22c0-1.203-.812-1.812-2.422-1.812-1.609 0-2.453.672-2.546 2.047h1.484c.078-.61.328-.813 1.094-.813.593 0 .89.203.89.594a.514.514 0 01-.265.469c-.204.109-.204.109-.97.218l-.608.11c-1.188.203-1.75.812-1.75 1.875 0 .515.14.922.406 1.218.344.36.86.563 1.39.563.657 0 1.266-.281 1.813-.844 0 .313.031.422.172.594h1.672zM3.906-2.39c0 .891-.437 1.407-1.219 1.407-.515 0-.843-.282-.843-.72 0-.468.25-.687.89-.812l.516-.109c.406-.063.484-.094.656-.188zm0 0"/></symbol><symbol id="f" overflow="visible"><path d="M3.313-5.813h-.86v-1.593H.906v1.593h-.75v1.016h.75v3.656c0 .938.5 1.391 1.516 1.391.344 0 .61-.031.89-.125V-.953c-.156.031-.25.047-.359.047-.406 0-.5-.125-.5-.656v-3.235h.86zm0 0"/></symbol><symbol id="g" overflow="visible"><path d="M3.172-8.969C1.39-7.359.937-4.938.937-2.984c0 2.093.516 4.437 2.235 5.984h.719C3.437 2.562 2.703 1.64 2.28.281c-.328-1.062-.437-2.172-.437-3.25 0-3.531 1.25-5.25 2.047-6zm0 0"/></symbol><symbol id="k" overflow="visible"><path d="M1.36 3c1.796-1.594 2.25-4.031 2.25-5.969 0-2.11-.516-4.453-2.25-6H.64c.47.438 1.204 1.36 1.626 2.719.312 1.063.437 2.172.437 3.266C2.703.53 1.453 2.266.641 3zm0 0"/></symbol><symbol id="l" overflow="visible"><path d="M2.11-5.313h-.97v.97h.97zM1.14-.968V0h.97v-.969zm0 0"/></symbol><symbol id="h" overflow="visible"><path d="M1.984-5.766L.766 0h.921l.672-3.172C2.625-4.39 3.406-5.14 4.391-5.14c.546 0 .953.391.953.891 0 .063-.016.234-.063.406L4.47 0h.922l.875-4.14c.03-.141.046-.266.046-.407 0-.844-.578-1.375-1.5-1.375-.828 0-1.562.297-2.125.875l.141-.719zm0 0"/></symbol><symbol id="j" overflow="visible"><path d="M5.781-5.766l-.187.86c-.172-.36-.282-.516-.516-.688a1.679 1.679 0 00-1.016-.328c-.843 0-1.703.406-2.25 1.094-.578.719-1 1.969-1 2.984C.813-.656 1.595.188 2.72.188c.687 0 1.344-.297 1.89-.875l-.046.203c-.313 1.5-.907 2.093-2.079 2.093-.75 0-1.187-.296-1.187-.796V.655H.375l-.016.14V1c0 .844.766 1.39 1.938 1.39.875 0 1.656-.25 2.14-.734C5 1.141 5.298.47 5.595-.937L6.61-5.766zM4-5.078c.703 0 1.156.531 1.156 1.344 0 .687-.187 1.5-.5 2.046-.36.672-1.015 1.079-1.672 1.079-.734 0-1.203-.547-1.203-1.422 0-.656.188-1.36.5-1.922C2.687-4.672 3.297-5.078 4-5.078zm0 0"/></symbol><symbol id="n" overflow="visible"><path d="M5.766-2.406L6.062 0h1.125L6.079-8.016H4.75L.187 0h1.094l1.344-2.406zm-.11-.86H3.11l2.11-3.671zm0 0"/></symbol><symbol id="i" overflow="visible"><path d="M2.328.047c0-.688-.219-1.203-.719-1.203-.375 0-.562.312-.562.578 0 .25.172.578.578.578a.518.518 0 00.39-.156c.032-.016.047-.016.047-.016s.032.156.032.219c0 .39-.078 1.172-.766 1.953-.14.14-.14.188-.14.188 0 .062.062.124.125.124.093 0 1.015-.89 1.015-2.265zm0 0"/></symbol><symbol id="C" overflow="visible"><path d="M2.203-.578a.586.586 0 00-.578-.578.576.576 0 00-.578.578c0 .344.281.578.562.578a.59.59 0 00.594-.578zm0 0"/></symbol><symbol id="m" overflow="visible"><path d="M3.969 2.75s0-.078-.063-.219L1.812-2.984l2.094-5.532c.063-.14.063-.203.063-.203 0-.14-.11-.25-.235-.25-.156 0-.203.11-.25.25L1.375-3.203c-.063.14-.063.219-.063.219s0 .062.063.218L3.469 2.72c.062.156.094.265.265.265a.24.24 0 00.235-.234zm0 0"/></symbol><symbol id="o" overflow="visible"><path d="M3.328-2.984s0-.079-.062-.22l-2.094-5.5c-.063-.14-.094-.265-.266-.265-.125 0-.234.11-.234.25 0 0 0 .063.062.203l2.094 5.532L.734 2.53c-.062.14-.062.219-.062.219 0 .125.11.234.234.234.156 0 .203-.109.25-.234l2.11-5.516c.062-.156.062-.218.062-.218zm0 0"/></symbol><symbol id="p" overflow="visible"><path d="M6.969.234C6.969 0 6.734 0 6.579 0H4.671C3 0 1.625-1.14 1.484-2.75h5.094c.156 0 .39 0 .39-.234 0-.25-.234-.25-.39-.25H1.484C1.625-4.86 3.031-5.97 4.656-5.97h1.922c.156 0 .39 0 .39-.25 0-.234-.234-.234-.39-.234H4.625C2.719-6.453.985-5 .985-2.984.984-1 2.687.484 4.64.484h1.937c.156 0 .39 0 .39-.25zm0 0"/></symbol><symbol id="A" overflow="visible"><path d="M5.11 2.86c0-.126-.079-.126-.204-.141-.937-.047-1.375-.594-1.484-1.016-.047-.14-.047-.156-.047-.578V-.672c0-.36 0-.969-.016-1.078-.156-.797-.921-1.11-1.39-1.234 1.406-.407 1.406-1.266 1.406-1.594v-2.156c0-.86 0-1.125.297-1.422.219-.203.484-.5 1.328-.547.063-.016.11-.063.11-.125 0-.14-.094-.14-.25-.14-1.188 0-2.25.609-2.282 1.468v2.188c0 1.125 0 1.312-.312 1.656-.157.172-.485.484-1.235.531-.093 0-.172.016-.172.14 0 .11.079.11.188.126.516.03 1.531.296 1.531 1.484v2.36c0 .703 0 1.109.625 1.546.516.36 1.297.453 1.656.453.157 0 .25 0 .25-.125zm0 0"/></symbol><symbol id="D" overflow="visible"><path d="M8.297-2.984c0-.25-.235-.25-.39-.25H1.39c-.172 0-.407 0-.407.25 0 .234.235.234.407.234h6.515c.157 0 .39 0 .39-.234zm0 0"/></symbol><symbol id="F" overflow="visible"><path d="M5.11-2.984c0-.125-.079-.125-.204-.141-.5-.031-1.531-.281-1.531-1.484v-2.36c0-.687 0-1.093-.61-1.547-.515-.343-1.28-.453-1.671-.453-.11 0-.235 0-.235.14 0 .11.079.11.188.126.953.062 1.39.594 1.5 1.031.031.125.031.156.031.578v1.782c0 .359 0 .968.031 1.093.157.782.922 1.094 1.391 1.235-1.422.406-1.422 1.25-1.422 1.578V.75c0 .86 0 1.125-.281 1.422-.219.219-.485.5-1.328.547a.137.137 0 00-.11.14c0 .125.125.125.235.125 1.203 0 2.265-.609 2.281-1.468V-.672c0-1.125 0-1.312.313-1.64.171-.172.5-.5 1.25-.547.078 0 .171-.016.171-.125zm0 0"/></symbol><symbol id="G" overflow="visible"><path d="M11.266-2.984a.136.136 0 00-.094-.125A3.744 3.744 0 018.719-6c0-.063-.063-.11-.125-.11h-.219c-.063 0-.125.063-.125.157a4.259 4.259 0 001.703 2.719H.906c-.172 0-.25.125-.25.25 0 .109.078.234.25.234h9.047A4.259 4.259 0 008.25-.031c0 .11.063.156.125.156h.219c.062 0 .125-.047.125-.094a3.766 3.766 0 012.453-2.906c.047 0 .094-.047.094-.11zm0 0"/></symbol><symbol id="q" overflow="visible"><path d="M1.344-7.11v5.829c0 .64-.094.843-.703.86-.141 0-.344.015-.344.202C.297 0 .484 0 .703 0h1.86c.203 0 .39 0 .39-.219 0-.187-.187-.203-.36-.203-.655-.016-.75-.266-.75-.875V-6.78L7 .047c.11.14.172.187.25.187.203 0 .203-.203.203-.406v-6.75c0-.672.11-.828.656-.844.079 0 .282-.015.282-.203 0-.218-.172-.218-.391-.218H6.25c-.219 0-.406 0-.406.218 0 .203.218.203.343.203.672.016.766.25.766.875v3.75l-3.61-4.875c-.109-.171-.155-.171-.421-.171H.844c-.219 0-.406 0-.406.218 0 .172.187.203.25.203a.99.99 0 01.671.36c-.015.11-.015.125-.015.297zm5.703 6.5L1.844-7.483c-.125-.141-.125-.172-.25-.282h1.422l4.03 5.438zm0 0"/></symbol><symbol id="b" overflow="visible"><path d="M5.766-2.484c.015-.141.015-.188.015-.266a5.06 5.06 0 00-.234-1.563C5.14-5.39 4.187-6.03 2.984-6.03c-1.703 0-2.75 1.218-2.75 3.218C.234-.905 1.281.25 2.954.25c1.343 0 2.421-.75 2.75-1.922H4.187c-.188.469-.61.75-1.172.75-.438 0-.797-.187-1.016-.515-.14-.22-.203-.485-.219-1.047zm-3.97-1.032c.11-.89.485-1.343 1.173-1.343.39 0 .734.187.953.5.14.218.219.437.25.843zm0 0"/></symbol><symbol id="s" overflow="visible"><path d="M.766-5.766V0h.921v-2.984c0-.829.204-1.375.641-1.688.297-.219.563-.281 1.203-.297v-.922c-.156-.03-.234-.03-.36-.03-.593 0-1.03.343-1.562 1.202v-1.047zm0 0"/></symbol><symbol id="t" overflow="visible"><path d="M5.64-2.578c0-.875-.062-1.406-.234-1.828-.375-.953-1.25-1.516-2.328-1.516-1.61 0-2.64 1.219-2.64 3.11 0 1.906 1 3.062 2.624 3.062 1.313 0 2.235-.75 2.454-2h-.922c-.25.766-.766 1.156-1.5 1.156a1.61 1.61 0 01-1.39-.75c-.22-.328-.298-.656-.313-1.234zm-4.218-.75c.078-1.063.719-1.75 1.64-1.75.907 0 1.594.75 1.594 1.687v.063zm0 0"/></symbol><symbol id="u" overflow="visible"><path d="M4.813-4.156c0-1.14-.75-1.766-2.079-1.766-1.343 0-2.218.688-2.218 1.75 0 .906.468 1.328 1.828 1.656l.86.22c.64.155.89.39.89.796 0 .547-.547.906-1.344.906-.5 0-.906-.14-1.14-.39-.141-.157-.22-.329-.266-.735H.375C.422-.39 1.172.25 2.672.25c1.453 0 2.375-.719 2.375-1.828 0-.86-.484-1.328-1.625-1.594l-.875-.219c-.75-.171-1.078-.421-1.078-.828 0-.515.484-.86 1.218-.86.75 0 1.141.313 1.157.923zm0 0"/></symbol><symbol id="v" overflow="visible"><path d="M5.297 0v-5.766H4.39V-2.5c0 1.188-.625 1.953-1.579 1.953-.718 0-1.187-.437-1.187-1.14v-4.079H.719v4.454C.719-.36 1.438.25 2.547.25c.86 0 1.39-.297 1.937-1.047V0zm0 0"/></symbol><symbol id="w" overflow="visible"><path d="M1.672-8.016H.75V0h.922zm0 0"/></symbol><symbol id="x" overflow="visible"><path d="M2.797-5.766h-.953v-1.578H.937v1.578h-.78v.75h.78v4.36c0 .578.391.906 1.11.906.219 0 .437-.016.75-.078v-.766a1.786 1.786 0 01-.438.047c-.406 0-.515-.11-.515-.515v-3.954h.953zm0 0"/></symbol><symbol id="y" overflow="visible"><path d="M1.656-5.766H.734V0h.922zm0-2.25H.72v1.157h.937zm0 0"/></symbol><symbol id="z" overflow="visible"><path d="M4.875-5.766H.578v.797h3.203L.344-.829V0H5.03v-.797H1.453l3.422-4.156zm0 0"/></symbol><symbol id="B" overflow="visible"><path d="M3.031-7.797c-.734 0-1.39.313-1.797.86C.72-6.266.47-5.22.47-3.767.469-1.14 1.359.25 3.03.25c1.64 0 2.547-1.39 2.547-3.953 0-1.516-.25-2.531-.766-3.235-.406-.546-1.046-.859-1.78-.859zm0 .86c1.031 0 1.563 1.046 1.563 3.14 0 2.219-.516 3.25-1.594 3.25-1.016 0-1.531-1.078-1.531-3.219 0-2.125.515-3.171 1.562-3.171zm0 0"/></symbol><symbol id="E" overflow="visible"><path d="M2.844-5.563V0h.969v-7.797h-.641c-.328 1.203-.547 1.36-2.047 1.547v.688zm0 0"/></symbol><symbol id="H" overflow="visible"><path d="M4.531-5.766v.844c-.468-.687-1.015-1-1.765-1-1.454 0-2.454 1.266-2.454 3.14 0 .938.266 1.72.735 2.266a2.23 2.23 0 001.64.766c.735 0 1.235-.313 1.75-1.031v.297c0 .78-.093 1.25-.328 1.578-.234.343-.703.531-1.265.531-.422 0-.797-.11-1.047-.313C1.578 1.157 1.5 1 1.437.656H.5c.11 1.094.953 1.735 2.313 1.735.843 0 1.593-.266 1.968-.735.438-.515.594-1.25.594-2.61v-4.812zm-1.656.688c.984 0 1.563.828 1.563 2.266 0 1.374-.594 2.218-1.563 2.218-1 0-1.594-.844-1.594-2.25 0-1.375.61-2.234 1.594-2.234zm0 0"/></symbol><symbol id="I" overflow="visible"><path d="M.766-5.766V0h.921v-3.172c0-1.187.625-1.953 1.563-1.953.734 0 1.188.438 1.188 1.125v4h.921v-4.36c0-.952-.718-1.562-1.828-1.562-.86 0-1.406.328-1.922 1.125v-.969zm0 0"/></symbol><symbol id="J" overflow="visible"><path d="M5.89-.531c-.109.015-.156.015-.202.015-.313 0-.5-.171-.5-.453v-3.39c0-1.016-.75-1.563-2.157-1.563-.844 0-1.531.234-1.922.656-.265.297-.375.641-.39 1.204h.922c.078-.704.5-1.016 1.343-1.016.829 0 1.297.297 1.297.86v.234c0 .39-.234.546-.953.64-1.297.172-1.5.203-1.86.36-.671.265-1 .78-1 1.53C.469-.405 1.189.25 2.36.25c.72 0 1.297-.25 1.954-.844.062.578.343.844.953.844.171 0 .328-.016.625-.094zM4.282-1.812c0 .312-.093.5-.36.75-.374.343-.827.515-1.374.515-.703 0-1.125-.344-1.125-.922 0-.61.406-.922 1.39-1.062.954-.125 1.157-.172 1.47-.313zm0 0"/></symbol><symbol id="K" overflow="visible"><path d="M2.984-5.922c-1.609 0-2.593 1.14-2.593 3.078S1.359.25 3 .25c1.625 0 2.61-1.156 2.61-3.047 0-1.984-.954-3.125-2.626-3.125zM3-5.078c1.031 0 1.656.844 1.656 2.266 0 1.359-.64 2.218-1.656 2.218s-1.64-.844-1.64-2.25c0-1.375.624-2.234 1.64-2.234zm0 0"/></symbol><symbol id="L" overflow="visible"><path d="M4.047-4.031l-.14.593c-.11-.25-.188-.359-.36-.484a1.224 1.224 0 00-.703-.234c-.594 0-1.188.297-1.578.781C.859-2.875.562-2 .562-1.297c0 .844.547 1.422 1.344 1.422.485 0 .938-.203 1.328-.61l-.03.141c-.235 1.047-.642 1.469-1.47 1.469-.515 0-.828-.203-.828-.563V.47h-.64L.25.563v.14c0 .594.531.969 1.36.969.609 0 1.156-.172 1.5-.516.39-.36.593-.828.796-1.812l.719-3.375zm-1.25.468c.5 0 .812.376.812.954 0 .468-.14 1.046-.343 1.421-.266.47-.72.766-1.172.766-.516 0-.844-.39-.844-1a2.7 2.7 0 01.36-1.344c.265-.515.702-.796 1.187-.796zm0 0"/></symbol><symbol id="M" overflow="visible"><path d="M2.234-6.281C.97-5.156.656-3.453.656-2.094c0 1.469.36 3.11 1.578 4.203h.5c-.328-.312-.843-.968-1.14-1.906-.219-.75-.297-1.531-.297-2.281 0-2.485.875-3.688 1.437-4.203zm0 0"/></symbol><symbol id="O" overflow="visible"><path d="M.953 2.11C2.22.983 2.531-.72 2.531-2.079c0-1.485-.36-3.125-1.578-4.203h-.5c.328.297.844.953 1.125 1.906.234.734.313 1.516.313 2.281C1.89.375 1.016 1.578.453 2.11zm0 0"/></symbol><symbol id="N" overflow="visible"><path d="M2.125-5.469a1.58 1.58 0 00-1.266.61c-.343.468-.53 1.203-.53 2.218C.328-.797.952.172 2.124.172c1.156 0 1.781-.969 1.781-2.766 0-1.062-.172-1.781-.531-2.265-.281-.391-.734-.61-1.25-.61zm0 .61c.719 0 1.094.734 1.094 2.203 0 1.547-.36 2.265-1.11 2.265-.718 0-1.078-.75-1.078-2.25 0-1.484.36-2.218 1.094-2.218zm0 0"/></symbol><symbol id="P" overflow="visible"><path d="M2-3.89V0h.672v-5.469h-.453c-.235.844-.39.969-1.438 1.094v.484zm0 0"/></symbol><symbol id="Q" overflow="visible"><path d="M3.89-.672H1.032c.063-.437.313-.734.985-1.125l.765-.406c.766-.422 1.156-.985 1.156-1.656 0-.454-.187-.875-.515-1.172-.313-.297-.719-.438-1.235-.438-.687 0-1.203.25-1.515.719-.188.297-.266.625-.281 1.188h.671c.032-.376.063-.594.157-.782.187-.328.531-.531.953-.531.61 0 1.078.453 1.078 1.031 0 .438-.266.797-.75 1.078l-.703.407C.657-1.72.328-1.203.266 0H3.89zm0 0"/></symbol><symbol id="R" overflow="visible"><path d="M1.703-2.5h.078l.297-.016c.735 0 1.125.344 1.125 1 0 .688-.422 1.094-1.125 1.094-.75 0-1.11-.375-1.156-1.172H.25c.031.453.11.735.234.985.282.515.813.78 1.563.78C3.172.172 3.89-.5 3.89-1.53c0-.688-.266-1.078-.922-1.297.515-.203.765-.578.765-1.125 0-.953-.625-1.516-1.656-1.516-1.11 0-1.687.61-1.719 1.766h.688c0-.328.031-.516.11-.688.155-.296.5-.484.921-.484.61 0 .969.36.969.938 0 .39-.14.624-.438.734-.187.078-.421.11-.906.125zm0 0"/></symbol><symbol id="S" overflow="visible"><path d="M2.516-1.313V0h.687v-1.313H4v-.609h-.797v-3.547h-.5L.22-2.03v.719zm0-.609H.812l1.704-2.39zm0 0"/></symbol></defs><use transform="translate(-4.025 -3.663)" height="100%" width="100%" y="12.632" x="29.603" xlink:href="#a"/><use transform="translate(-4.025 -3.663)" height="100%" width="100%" y="12.632" x="38.16" xlink:href="#b"/><use transform="translate(-4.025 -3.663)" height="100%" width="100%" y="12.632" x="44.275" xlink:href="#c"/><use transform="translate(-4.025 -3.663)" height="100%" width="100%" y="12.632" x="50.995" xlink:href="#b"/><use transform="translate(-4.025 -3.663)" height="100%" width="100%" y="12.632" x="57.111" xlink:href="#d"/><use transform="translate(-4.025 -3.663)" height="100%" width="100%" y="12.632" x="61.389" xlink:href="#e"/><use transform="translate(-4.025 -3.663)" height="100%" width="100%" y="12.632" x="67.505" xlink:href="#f"/><use transform="translate(-4.025 -3.663)" height="100%" width="100%" y="12.632" x="71.167" xlink:href="#b"/><use transform="translate(-4.025 -3.663)" height="100%" width="100%" y="12.632" x="77.282" xlink:href="#g"/><use transform="translate(-4.025 -3.663)" height="100%" width="100%" y="12.632" x="81.834" xlink:href="#h" fill="red"/><use transform="translate(-4.025 -3.663)" height="100%" width="100%" y="12.632" x="88.131" xlink:href="#i"/><use transform="translate(-4.025 -3.663)" height="100%" width="100%" y="12.632" x="93.375" xlink:href="#j"/><use transform="translate(-4.025 -3.663)" height="100%" width="100%" y="12.632" x="100.084" xlink:href="#k"/><use transform="translate(-4.025 -3.663)" height="100%" width="100%" y="12.632" x="107.96" xlink:href="#l"/><use transform="translate(-4.025 -3.663)" height="100%" width="100%" y="12.632" x="114.53" xlink:href="#m"/><use transform="translate(-4.025 -3.663)" height="100%" width="100%" y="12.632" x="119.179" xlink:href="#n" fill="#283acc"/><use transform="translate(-4.025 -3.663)" height="100%" width="100%" y="12.632" x="126.515" xlink:href="#o"/><use transform="translate(-4.025 -3.663)" height="100%" width="100%" y="26.729" x="4.078" xlink:href="#h" fill="red"/><use transform="translate(-4.025 -3.663)" height="100%" width="100%" y="26.729" x="13.696" xlink:href="#p"/><use transform="translate(-4.025 -3.663)" height="100%" width="100%" y="26.729" x="24.987" xlink:href="#q"/><use transform="translate(-4.025 -3.663)" height="100%" width="100%" y="28.523" x="33.621" xlink:href="#r"/><use transform="translate(-4.025 -3.663)" height="100%" width="100%" y="26.729" x="107.761" xlink:href="#s"/><use transform="translate(-4.025 -3.663)" height="100%" width="100%" y="26.729" x="111.424" xlink:href="#t"/><use transform="translate(-4.025 -3.663)" height="100%" width="100%" y="26.729" x="117.539" xlink:href="#u"/><use transform="translate(-4.025 -3.663)" height="100%" width="100%" y="26.729" x="123.038" xlink:href="#v"/><use transform="translate(-4.025 -3.663)" height="100%" width="100%" y="26.729" x="129.153" xlink:href="#w"/><use transform="translate(-4.025 -3.663)" height="100%" width="100%" y="26.729" x="131.595" xlink:href="#x"/><use transform="translate(-4.025 -3.663)" height="100%" width="100%" y="26.729" x="137.71" xlink:href="#u"/><use transform="translate(-4.025 -3.663)" height="100%" width="100%" y="26.729" x="143.21" xlink:href="#y"/><use transform="translate(-4.025 -3.663)" height="100%" width="100%" y="26.729" x="145.652" xlink:href="#z"/><use transform="translate(-4.025 -3.663)" height="100%" width="100%" y="26.729" x="150.986" xlink:href="#t"/><use transform="translate(-4.025 -3.663)" height="100%" width="100%" y="40.179" x="3.666" xlink:href="#j"/><use transform="translate(-4.025 -3.663)" height="100%" width="100%" y="40.179" x="13.696" xlink:href="#l"/><use transform="translate(-4.025 -3.663)" height="100%" width="100%" y="40.179" x="20.268" xlink:href="#A"/><use transform="translate(-4.025 -3.663)" height="100%" width="100%" y="40.179" x="26.246" xlink:href="#B"/><use transform="translate(-4.025 -3.663)" height="100%" width="100%" y="40.179" x="32.361" xlink:href="#C"/><use transform="translate(-4.025 -3.663)" height="100%" width="100%" y="40.179" x="35.613" xlink:href="#C"/><use transform="translate(-4.025 -3.663)" height="100%" width="100%" y="40.179" x="38.864" xlink:href="#h" fill="red"/><use transform="translate(-4.025 -3.663)" height="100%" width="100%" y="40.179" x="47.818" xlink:href="#D"/><use transform="translate(-4.025 -3.663)" height="100%" width="100%" y="40.179" x="59.773" xlink:href="#E"/><use transform="translate(-4.025 -3.663)" height="100%" width="100%" y="40.179" x="65.888" xlink:href="#F"/><use transform="translate(-4.025 -3.663)" height="100%" width="100%" y="40.179" x="75.189" xlink:href="#G"/><use transform="translate(-4.025 -3.663)" height="100%" width="100%" y="40.179" x="90.463" xlink:href="#n" fill="#283acc"/><use transform="translate(-4.025 -3.663)" height="100%" width="100%" y="40.179" x="110.137" xlink:href="#H"/><use transform="translate(-4.025 -3.663)" height="100%" width="100%" y="40.179" x="116.252" xlink:href="#t"/><use transform="translate(-4.025 -3.663)" height="100%" width="100%" y="40.179" x="122.368" xlink:href="#I"/><use transform="translate(-4.025 -3.663)" height="100%" width="100%" y="40.179" x="128.483" xlink:href="#t"/><use transform="translate(-4.025 -3.663)" height="100%" width="100%" y="40.179" x="134.598" xlink:href="#s"/><use transform="translate(-4.025 -3.663)" height="100%" width="100%" y="40.179" x="138.151" xlink:href="#J"/><use transform="translate(-4.025 -3.663)" height="100%" width="100%" y="40.179" x="144.266" xlink:href="#x"/><use transform="translate(-4.025 -3.663)" height="100%" width="100%" y="40.179" x="147.324" xlink:href="#K"/><use transform="translate(-4.025 -3.663)" height="100%" width="100%" y="40.179" x="153.439" xlink:href="#s"/><path d="M46.916 47.74H26.432v19.843h20.484zm0 0" fill="#d4d7f5" stroke="#000" stroke-width=".598" stroke-miterlimit="10"/><use transform="translate(-4.025 -3.663)" height="100%" width="100%" y="63.417" x="33.024" xlink:href="#L"/><use transform="translate(-4.025 -3.663)" height="100%" width="100%" y="63.417" x="37.72" xlink:href="#M"/><use transform="translate(-4.025 -3.663)" height="100%" width="100%" y="63.417" x="40.907" xlink:href="#N"/><use transform="translate(-4.025 -3.663)" height="100%" width="100%" y="63.417" x="45.187" xlink:href="#O"/><path d="M66.756 47.74h-20.48v19.843h20.48zm0 0" fill="#d4d7f5" stroke="#000" stroke-width=".598" stroke-miterlimit="10"/><use transform="translate(-4.025 -3.663)" height="100%" width="100%" y="63.417" x="52.866" xlink:href="#L"/><use transform="translate(-4.025 -3.663)" height="100%" width="100%" y="63.417" x="57.562" xlink:href="#M"/><use transform="translate(-4.025 -3.663)" height="100%" width="100%" y="63.417" x="60.749" xlink:href="#P"/><use transform="translate(-4.025 -3.663)" height="100%" width="100%" y="63.417" x="65.03" xlink:href="#O"/><path d="M86.6 47.74H66.12v19.843H86.6zm0 0" fill="#d4d7f5" stroke="#000" stroke-width=".598" stroke-miterlimit="10"/><use transform="translate(-4.025 -3.663)" height="100%" width="100%" y="63.417" x="72.708" xlink:href="#L"/><use transform="translate(-4.025 -3.663)" height="100%" width="100%" y="63.417" x="77.404" xlink:href="#M"/><use transform="translate(-4.025 -3.663)" height="100%" width="100%" y="63.417" x="80.591" xlink:href="#Q"/><use transform="translate(-4.025 -3.663)" height="100%" width="100%" y="63.417" x="84.872" xlink:href="#O"/><path d="M106.443 47.74H85.96v19.843h20.484zm0 0" fill="#d4d7f5" stroke="#000" stroke-width=".598" stroke-miterlimit="10"/><use transform="translate(-4.025 -3.663)" height="100%" width="100%" y="63.417" x="92.551" xlink:href="#L"/><use transform="translate(-4.025 -3.663)" height="100%" width="100%" y="63.417" x="97.247" xlink:href="#M"/><use transform="translate(-4.025 -3.663)" height="100%" width="100%" y="63.417" x="100.434" xlink:href="#R"/><use transform="translate(-4.025 -3.663)" height="100%" width="100%" y="63.417" x="104.714" xlink:href="#O"/><path d="M126.287 47.74h-20.484v19.843h20.484zm0 0" fill="#d4d7f5" stroke="#000" stroke-width=".598" stroke-miterlimit="10"/><use transform="translate(-4.025 -3.663)" height="100%" width="100%" y="63.417" x="112.393" xlink:href="#L"/><use transform="translate(-4.025 -3.663)" height="100%" width="100%" y="63.417" x="117.089" xlink:href="#M"/><use transform="translate(-4.025 -3.663)" height="100%" width="100%" y="63.417" x="120.276" xlink:href="#S"/><use transform="translate(-4.025 -3.663)" height="100%" width="100%" y="63.417" x="124.557" xlink:href="#O"/></svg>