<svg xmlns="http://www.w3.org/2000/svg" xmlns:xlink="http://www.w3.org/1999/xlink" version="1.2" viewBox="0 0 199.023 212.533" height="283.377" width="265.364"><defs><symbol id="b" overflow="visible"><path d="M.688-5.938V0h1.546v-3.156c0-.906.454-1.36 1.36-1.36.156 0 .265.016.469.047V-6.03H3.89c-.72 0-1.329.453-1.657 1.25v-1.157zm0 0"/></symbol><symbol id="s" overflow="visible"><path d="M11.266-2.984a.136.136 0 00-.094-.125A3.744 3.744 0 018.719-6c0-.063-.063-.11-.125-.11h-.219c-.063 0-.125.063-.125.157a4.259 4.259 0 001.703 2.719H.906c-.172 0-.25.125-.25.25 0 .109.078.234.25.234h9.047A4.259 4.259 0 008.25-.031c0 .11.063.156.125.156h.219c.062 0 .125-.047.125-.094a3.766 3.766 0 012.453-2.906c.047 0 .094-.047.094-.11zm0 0"/></symbol><symbol id="c" overflow="visible"><path d="M3.313-6.031C1.5-6.031.39-4.844.39-2.891.39-.937 1.5.25 3.328.25c1.797 0 2.938-1.203 2.938-3.094 0-2.015-1.094-3.187-2.954-3.187zm.015 1.234c.844 0 1.39.766 1.39 1.922 0 1.11-.577 1.89-1.39 1.89-.844 0-1.406-.78-1.406-1.906 0-1.14.562-1.906 1.406-1.906zm0 0"/></symbol><symbol id="d" overflow="visible"><path d="M5.953 0v-5.938H4.406v3.72c0 .702-.484 1.155-1.234 1.155-.656 0-1-.343-1-1.062v-3.813H.64v4.141C.64-.5 1.359.25 2.625.25c.813 0 1.344-.297 1.781-.953V0zm0 0"/></symbol><symbol id="e" overflow="visible"><path d="M2.172-5.938H.64v8.329h1.53V-.703c.376.656.907.969 1.657.969 1.438 0 2.485-1.344 2.485-3.141 0-.844-.235-1.672-.641-2.234-.39-.563-1.125-.922-1.844-.922-.75 0-1.281.312-1.656.968zM3.469-4.75c.781 0 1.312.75 1.312 1.89 0 1.079-.547 1.844-1.312 1.844-.766 0-1.297-.75-1.297-1.859 0-1.125.531-1.875 1.297-1.875zm0 0"/></symbol><symbol id="f" overflow="visible"><path d="M.906 0h3.61c.921 0 1.53-.172 2.015-.578.485-.406.797-1.094.797-1.735 0-.796-.437-1.421-1.328-1.937.781-.516 1.094-.969 1.094-1.656 0-.547-.282-1.14-.719-1.532-.484-.406-1.047-.578-1.89-.578H.905zm1.64-6.64h1.798c.765 0 1.172.312 1.172.906 0 .593-.407.906-1.172.906H2.547zm0 3.187h1.97c.812 0 1.218.36 1.218 1.047 0 .672-.406 1.031-1.218 1.031h-1.97zm0 0"/></symbol><symbol id="g" overflow="visible"><path d="M4.328-5.938L3.11-1.609 1.797-5.938H.094L2.313.234v.047c0 .563-.422 1-.954 1a1.14 1.14 0 01-.406-.078V2.36c.219.032.36.047.547.047.375 0 .844-.078 1.11-.187.421-.172.609-.422.859-1.125l2.453-7.032zm0 0"/></symbol><symbol id="h" overflow="visible"><path d="M2.469-2.688l.812-.859L5.921 0h1.97L4.344-4.563l3.203-3.453H5.594L2.469-4.5v-3.516H.813V0h1.656zm0 0"/></symbol><symbol id="i" overflow="visible"><path d="M5.766-2.484c.015-.141.015-.188.015-.266a5.06 5.06 0 00-.234-1.563C5.14-5.39 4.187-6.03 2.984-6.03c-1.703 0-2.75 1.218-2.75 3.218C.234-.905 1.281.25 2.954.25c1.343 0 2.421-.75 2.75-1.922H4.187c-.188.469-.61.75-1.172.75-.438 0-.797-.187-1.016-.515-.14-.22-.203-.485-.219-1.047zm-3.97-1.032c.11-.89.485-1.343 1.173-1.343.39 0 .734.187.953.5.14.218.219.437.25.843zm0 0"/></symbol><symbol id="j" overflow="visible"><path d="M3.172-8.969C1.39-7.359.937-4.938.937-2.984c0 2.093.516 4.437 2.235 5.984h.719C3.437 2.562 2.703 1.64 2.28.281c-.328-1.062-.437-2.172-.437-3.25 0-3.531 1.25-5.25 2.047-6zm0 0"/></symbol><symbol id="n" overflow="visible"><path d="M1.36 3c1.796-1.594 2.25-4.031 2.25-5.969 0-2.11-.516-4.453-2.25-6H.64c.47.438 1.204 1.36 1.626 2.719.312 1.063.437 2.172.437 3.266C2.703.53 1.453 2.266.641 3zm0 0"/></symbol><symbol id="o" overflow="visible"><path d="M2.11-5.313h-.97v.97h.97zM1.14-.968V0h.97v-.969zm0 0"/></symbol><symbol id="k" overflow="visible"><path d="M3.266-8.016h-.922L.64 0h.921l.47-2.234 1.187-.97L4.469 0h1.047L3.984-3.766l2.438-2H5.234L2.281-3.359zm0 0"/></symbol><symbol id="m" overflow="visible"><path d="M5.781-5.766l-.187.86c-.172-.36-.282-.516-.516-.688a1.679 1.679 0 00-1.016-.328c-.843 0-1.703.406-2.25 1.094-.578.719-1 1.969-1 2.984C.813-.656 1.595.188 2.72.188c.687 0 1.344-.297 1.89-.875l-.046.203c-.313 1.5-.907 2.093-2.079 2.093-.75 0-1.187-.296-1.187-.796V.655H.375l-.016.14V1c0 .844.766 1.39 1.938 1.39.875 0 1.656-.25 2.14-.734C5 1.141 5.298.47 5.595-.937L6.61-5.766zM4-5.078c.703 0 1.156.531 1.156 1.344 0 .687-.187 1.5-.5 2.046-.36.672-1.015 1.079-1.672 1.079-.734 0-1.203-.547-1.203-1.422 0-.656.188-1.36.5-1.922C2.687-4.672 3.297-5.078 4-5.078zm0 0"/></symbol><symbol id="q" overflow="visible"><path d="M5.766-2.406L6.062 0h1.125L6.079-8.016H4.75L.187 0h1.094l1.344-2.406zm-.11-.86H3.11l2.11-3.671zm0 0"/></symbol><symbol id="t" overflow="visible"><path d="M.875 0H4.5c.906 0 1.594-.313 2.172-.953.484-.516.719-1.172.719-1.89 0-.673-.297-1.048-1.063-1.376.953-.437 1.5-1.218 1.5-2.203a1.39 1.39 0 00-.406-1.031c-.375-.406-.828-.563-1.594-.563h-3.25zm2-4.563l.547-2.546h1.984c.938 0 1.36.296 1.36.937 0 .406-.157.813-.422 1.094-.328.36-.766.516-1.5.516zM2.094-.905l.594-2.75h2.484c.75 0 1.172.344 1.172 1 0 .406-.14.797-.375 1.125-.344.437-.766.625-1.375.625zm0 0"/></symbol><symbol id="u" overflow="visible"><path d="M2.484-2.734l1.704-1.407L6.03 0h1.203L4.97-4.734l3.968-3.282H7.625l-4.89 4.094.874-4.094H2.58L.874 0h1.031zm0 0"/></symbol><symbol id="E" overflow="visible"><path d="M2.875-5.766h-.922L.72 0h.937zm.484-2.25h-.921l-.25 1.125h.921zm0 0"/></symbol><symbol id="F" overflow="visible"><path d="M4.031-5.766h-.984l.344-1.578h-.922l-.344 1.578h-.781l-.157.735h.782L1.094-.953a2.5 2.5 0 00-.032.344c0 .53.375.859.985.859.219 0 .562-.031.719-.078l.171-.797c-.343.078-.39.094-.53.094-.235 0-.391-.125-.391-.313 0-.031.015-.078.015-.14l.86-4.047h.984zm0 0"/></symbol><symbol id="G" overflow="visible"><path d="M6.188-2.578l.03-.188a6.66 6.66 0 00.157-1.28c0-1.063-.906-1.876-2.094-1.876-.953 0-1.89.438-2.437 1.188-.516.687-.922 1.937-.922 2.828 0 .593.25 1.203.687 1.61.375.374.86.546 1.5.546 1.313 0 2.454-.813 2.782-2h-.922C4.579-.984 4-.594 3.25-.594c-.86 0-1.36-.547-1.36-1.469 0-.234.016-.343.063-.515zM2.14-3.36c.296-1.016 1.109-1.72 2-1.72.78 0 1.265.532 1.265 1.345 0 .109 0 .187-.031.375zm0 0"/></symbol><symbol id="H" overflow="visible"><path d="M1.984-5.766L.766 0h.921l.641-2.984C2.61-4.328 3.391-5 4.594-4.97l.203-.922c-.14-.03-.234-.03-.36-.03-.625 0-1.125.28-1.812 1.062l.188-.907zm0 0"/></symbol><symbol id="I" overflow="visible"><path d="M6.078-.563c-.11.032-.156.032-.187.032-.297 0-.422-.11-.422-.328 0-.047 0-.079.015-.11l.704-3.312c.062-.297.062-.297.062-.407 0-.75-.766-1.234-1.922-1.234-1.516 0-2.453.64-2.672 1.86h.922c.11-.297.188-.454.344-.61.234-.25.703-.406 1.172-.406.656 0 1.172.297 1.172.703 0 .047-.016.125-.032.203l-.03.203c-.095.453-.313.563-1.11.64-1.469.142-1.938.25-2.485.595-.562.359-.89.937-.89 1.578C.719-.281 1.313.25 2.297.25c.39 0 .844-.078 1.25-.219.344-.125.515-.234.969-.625v.125c0 .453.296.719.828.719.125 0 .156 0 .437-.063.016-.015.078-.015.14-.03zM4.734-1.796C4.594-1.125 3.625-.53 2.656-.53c-.625 0-.969-.266-.969-.735 0-.359.204-.718.532-.921.265-.172.594-.25 1.14-.329 1.032-.14 1.125-.156 1.61-.328zm0 0"/></symbol><symbol id="J" overflow="visible"><path d="M2.297-8.016L.594 0h.828l.187-.86c.141.344.235.5.407.657.28.297.734.453 1.218.453.735 0 1.516-.344 2.016-.86.734-.78 1.219-2.03 1.219-3.156 0-1.234-.844-2.156-1.953-2.156a2.63 2.63 0 00-1.266.328c-.188.11-.328.235-.672.594l.64-3.016zm1.922 2.938c.797 0 1.281.562 1.281 1.516A3.85 3.85 0 015-1.704c-.453.75-1.031 1.11-1.75 1.11-.734 0-1.219-.548-1.219-1.423 0-.671.203-1.421.516-1.953.422-.734 1-1.11 1.672-1.11zm0 0"/></symbol><symbol id="K" overflow="visible"><path d="M3.375-8.016h-.922L.75 0h.922zm0 0"/></symbol><symbol id="l" overflow="visible"><path d="M2.328.047c0-.688-.219-1.203-.719-1.203-.375 0-.562.312-.562.578 0 .25.172.578.578.578a.518.518 0 00.39-.156c.032-.016.047-.016.047-.016s.032.156.032.219c0 .39-.078 1.172-.766 1.953-.14.14-.14.188-.14.188 0 .062.062.124.125.124.093 0 1.015-.89 1.015-2.265zm0 0"/></symbol><symbol id="p" overflow="visible"><path d="M3.969 2.75s0-.078-.063-.219L1.812-2.984l2.094-5.532c.063-.14.063-.203.063-.203 0-.14-.11-.25-.235-.25-.156 0-.203.11-.25.25L1.375-3.203c-.063.14-.063.219-.063.219s0 .062.063.218L3.469 2.72c.062.156.094.265.265.265a.24.24 0 00.235-.234zm0 0"/></symbol><symbol id="r" overflow="visible"><path d="M3.328-2.984s0-.079-.062-.22l-2.094-5.5c-.063-.14-.094-.265-.266-.265-.125 0-.234.11-.234.25 0 0 0 .063.062.203l2.094 5.532L.734 2.53c-.062.14-.062.219-.062.219 0 .125.11.234.234.234.156 0 .203-.109.25-.234l2.11-5.516c.062-.156.062-.218.062-.218zm0 0"/></symbol><symbol id="a" overflow="visible"><path d="M7.828-4.313H4.61v1.375h1.829c-.047.454-.157.72-.407 1.016a2.1 2.1 0 01-1.625.766c-1.343 0-2.297-1.172-2.297-2.813 0-1.734.844-2.781 2.25-2.781.563 0 1.047.172 1.422.484.219.204.344.391.485.813h1.562C7.625-7.11 6.281-8.156 4.344-8.156 2.03-8.156.469-6.453.469-3.953.469-1.516 2.047.25 4.219.25c1.078 0 1.797-.375 2.422-1.281L6.828.016h1zm0 0"/></symbol><symbol id="v" overflow="visible"><path d="M1.547-8.016H.64V0h.906v-2.25l.89-.875L4.391 0h1.125L3.172-3.766l2-2H4L1.547-3.328zm0 0"/></symbol><symbol id="w" overflow="visible"><path d="M5.64-2.578c0-.875-.062-1.406-.234-1.828-.375-.953-1.25-1.516-2.328-1.516-1.61 0-2.64 1.219-2.64 3.11 0 1.906 1 3.062 2.624 3.062 1.313 0 2.235-.75 2.454-2h-.922c-.25.766-.766 1.156-1.5 1.156a1.61 1.61 0 01-1.39-.75c-.22-.328-.298-.656-.313-1.234zm-4.218-.75c.078-1.063.719-1.75 1.64-1.75.907 0 1.594.75 1.594 1.687v.063zm0 0"/></symbol><symbol id="x" overflow="visible"><path d="M4.266-5.766L2.672-1.28 1.203-5.766H.22L2.172.016l-.36.921c-.14.407-.343.563-.734.563-.125 0-.281-.031-.484-.063v.813c.187.11.375.14.61.14.296 0 .624-.093.859-.265.296-.219.453-.453.624-.922l2.579-6.969zm0 0"/></symbol><symbol id="y" overflow="visible"><path d="M3.219-2.984L5.14-5.766H4.109L2.734-3.672l-1.39-2.094H.297l1.922 2.829L.188 0h1.046l1.454-2.219L4.14 0h1.062zm0 0"/></symbol><symbol id="z" overflow="visible"><path d="M2.797-5.766h-.953v-1.578H.937v1.578h-.78v.75h.78v4.36c0 .578.391.906 1.11.906.219 0 .437-.016.75-.078v-.766a1.786 1.786 0 01-.438.047c-.406 0-.515-.11-.515-.515v-3.954h.953zm0 0"/></symbol><symbol id="A" overflow="visible"><path d="M.766-5.766V0h.921v-2.984c0-.829.204-1.375.641-1.688.297-.219.563-.281 1.203-.297v-.922c-.156-.03-.234-.03-.36-.03-.593 0-1.03.343-1.562 1.202v-1.047zm0 0"/></symbol><symbol id="B" overflow="visible"><path d="M5.89-.531c-.109.015-.156.015-.202.015-.313 0-.5-.171-.5-.453v-3.39c0-1.016-.75-1.563-2.157-1.563-.844 0-1.531.234-1.922.656-.265.297-.375.641-.39 1.204h.922c.078-.704.5-1.016 1.343-1.016.829 0 1.297.297 1.297.86v.234c0 .39-.234.546-.953.64-1.297.172-1.5.203-1.86.36-.671.265-1 .78-1 1.53C.469-.405 1.189.25 2.36.25c.72 0 1.297-.25 1.954-.844.062.578.343.844.953.844.171 0 .328-.016.625-.094zM4.282-1.812c0 .312-.093.5-.36.75-.374.343-.827.515-1.374.515-.703 0-1.125-.344-1.125-.922 0-.61.406-.922 1.39-1.062.954-.125 1.157-.172 1.47-.313zm0 0"/></symbol><symbol id="C" overflow="visible"><path d="M5.188-3.828c-.047-.563-.172-.922-.391-1.25-.39-.531-1.094-.844-1.89-.844-1.548 0-2.563 1.219-2.563 3.14C.344-.921 1.328.25 2.89.25c1.375 0 2.25-.828 2.359-2.234h-.922c-.156.921-.625 1.39-1.406 1.39-1.016 0-1.625-.828-1.625-2.187 0-1.438.594-2.297 1.594-2.297.765 0 1.25.453 1.359 1.25zm0 0"/></symbol><symbol id="D" overflow="visible"><path d="M2.984-5.922c-1.609 0-2.593 1.14-2.593 3.078S1.359.25 3 .25c1.625 0 2.61-1.156 2.61-3.047 0-1.984-.954-3.125-2.626-3.125zM3-5.078c1.031 0 1.656.844 1.656 2.266 0 1.359-.64 2.218-1.656 2.218s-1.64-.844-1.64-2.25c0-1.375.624-2.234 1.64-2.234zm0 0"/></symbol><symbol id="L" overflow="visible"><path d="M4.531-5.766v.844c-.468-.687-1.015-1-1.765-1-1.454 0-2.454 1.266-2.454 3.14 0 .938.266 1.72.735 2.266a2.23 2.23 0 001.64.766c.735 0 1.235-.313 1.75-1.031v.297c0 .78-.093 1.25-.328 1.578-.234.343-.703.531-1.265.531-.422 0-.797-.11-1.047-.313C1.578 1.157 1.5 1 1.437.656H.5c.11 1.094.953 1.735 2.313 1.735.843 0 1.593-.266 1.968-.735.438-.515.594-1.25.594-2.61v-4.812zm-1.656.688c.984 0 1.563.828 1.563 2.266 0 1.374-.594 2.218-1.563 2.218-1 0-1.594-.844-1.594-2.25 0-1.375.61-2.234 1.594-2.234zm0 0"/></symbol><symbol id="M" overflow="visible"><path d="M5.297 0v-5.766H4.39V-2.5c0 1.188-.625 1.953-1.579 1.953-.718 0-1.187-.437-1.187-1.14v-4.079H.719v4.454C.719-.36 1.438.25 2.547.25c.86 0 1.39-.297 1.937-1.047V0zm0 0"/></symbol><symbol id="N" overflow="visible"><path d="M.594 2.39h.922v-3C2-.015 2.546.25 3.28.25c1.5 0 2.469-1.203 2.469-3.031 0-1.938-.938-3.14-2.469-3.14-.781 0-1.406.343-1.844 1.03v-.875H.595zm2.531-7.468c1.016 0 1.672.89 1.672 2.266C4.797-1.5 4.125-.61 3.125-.61c-.969 0-1.61-.875-1.61-2.235 0-1.344.641-2.234 1.61-2.234zm0 0"/></symbol><symbol id="O" overflow="visible"><path d="M2.844-5.766h-.969v-.906c0-.375.219-.578.64-.578.079 0 .11 0 .329.016V-8c-.219-.047-.328-.047-.516-.047-.86 0-1.36.485-1.36 1.297v.984H.204v.75H.97V0h.906v-5.016h.969zm0 0"/></symbol><symbol id="P" overflow="visible"><path d="M.766-5.766V0h.921v-3.172c0-1.187.625-1.953 1.563-1.953.734 0 1.188.438 1.188 1.125v4h.921v-4.36c0-.952-.718-1.562-1.828-1.562-.86 0-1.406.328-1.922 1.125v-.969zm0 0"/></symbol><symbol id="Q" overflow="visible"><path d="M1.656-5.766H.734V0h.922zm0-2.25H.72v1.157h.937zm0 0"/></symbol><symbol id="R" overflow="visible"><path d="M3.813-5.203H.342v.64H3.14C1.906-2.796 1.406-1.703 1.016 0h.687c.281-1.656.938-3.094 2.11-4.656zm0 0"/></symbol><symbol id="S" overflow="visible"><path d="M2.39-1.25V0h.657v-1.25h.765v-.578h-.765v-3.375h-.485L.204-1.922v.672zm0-.578H.767L2.39-4.094zm0 0"/></symbol><symbol id="T" overflow="visible"><path d="M1.625-2.375h.078l.266-.016c.718 0 1.078.329 1.078.954 0 .64-.406 1.03-1.078 1.03C1.266-.406.922-.75.875-1.515h-.64c.03.422.109.688.234.922.25.5.765.766 1.484.766 1.063 0 1.75-.64 1.75-1.625 0-.656-.25-1.031-.875-1.234.485-.188.719-.563.719-1.079 0-.89-.594-1.437-1.578-1.437-1.047 0-1.61.578-1.625 1.687h.64c.016-.312.047-.5.125-.656.141-.281.47-.453.875-.453.563 0 .907.328.907.875 0 .375-.125.594-.407.703-.187.078-.406.11-.859.11zm0 0"/></symbol><symbol id="U" overflow="visible"><path d="M.39-1.188c.126.844.672 1.36 1.47 1.36.577 0 1.093-.281 1.39-.75.328-.5.484-1.14.484-2.078 0-.875-.14-1.438-.437-1.89-.297-.423-.75-.657-1.313-.657-1 0-1.703.734-1.703 1.766 0 .953.656 1.64 1.594 1.64.484 0 .844-.172 1.188-.578 0 1.266-.422 1.969-1.157 1.969-.453 0-.765-.281-.875-.781zm1.58-3.436c.61 0 1.062.484 1.062 1.172 0 .625-.453 1.094-1.078 1.094S.937-2.797.937-3.5c0-.656.438-1.125 1.032-1.125zm0 0"/></symbol><symbol id="V" overflow="visible"><path d="M3.703-.64H.97c.078-.422.312-.688.937-1.063l.735-.406C3.375-2.5 3.75-3.031 3.75-3.672c0-.437-.188-.828-.484-1.11-.313-.28-.688-.421-1.188-.421-.656 0-1.14.234-1.437.687-.172.266-.266.594-.282 1.125h.657c.015-.359.062-.562.156-.734.156-.313.5-.5.89-.5.579 0 1.016.406 1.016.969 0 .406-.234.765-.703 1.031l-.672.375C.625-1.64.313-1.14.25 0h3.453zm0 0"/></symbol><symbol id="W" overflow="visible"><path d="M5.266-5.25l-.172.781c-.14-.343-.25-.484-.469-.64a1.582 1.582 0 00-.922-.297 2.63 2.63 0 00-2.047 1C1.125-3.734.75-2.61.75-1.688c0 1.094.703 1.86 1.734 1.86.625 0 1.22-.266 1.72-.797l-.048.188c-.281 1.359-.828 1.906-1.89 1.906-.688 0-1.079-.282-1.079-.719V.61H.345L.328.733v.172c0 .781.688 1.281 1.766 1.281.797 0 1.5-.234 1.953-.671.5-.485.781-1.094 1.047-2.375l.936-4.39zm-1.625.61c.64 0 1.062.484 1.062 1.234 0 .625-.172 1.375-.453 1.86-.344.609-.922 1-1.531 1-.672 0-1.094-.5-1.094-1.298 0-.61.172-1.25.469-1.765.36-.657.922-1.032 1.547-1.032zm0 0"/></symbol><symbol id="Y" overflow="visible"><path d="M2.984-7.313h-.843L.578 0h.844l.437-2.031 1.063-.89L4.078 0h.953L3.625-3.438 5.859-5.25H4.781L2.078-3.062zm0 0"/></symbol><symbol id="X" overflow="visible"><path d="M2.953-8.172c-.344.313-1.078.985-1.578 2.328C.937-4.672.859-3.516.859-2.719.86.797 2.438 2.25 2.953 2.72h.672C3.094 2.203 1.719.797 1.719-2.72c0-.625.031-1.89.468-3.187.454-1.266 1.079-1.907 1.438-2.266zm0 0"/></symbol><symbol id="Z" overflow="visible"><path d="M1.281 2.719C1.625 2.406 2.36 1.734 2.86.39c.438-1.172.516-2.329.516-3.11 0-3.531-1.578-4.984-2.094-5.453H.61c.532.516 1.907 1.922 1.907 5.453 0 .61-.032 1.875-.47 3.172C1.595 1.72.97 2.36.61 2.72zm0 0"/></symbol></defs><use y="12.633" x="23.188" xlink:href="#a" width="100%" height="100%" transform="translate(-1.971 -3.664)"/><use y="12.633" x="31.745" xlink:href="#b" width="100%" height="100%" transform="translate(-1.971 -3.664)"/><use y="12.633" x="35.804" xlink:href="#c" width="100%" height="100%" transform="translate(-1.971 -3.664)"/><use y="12.633" x="42.524" xlink:href="#d" width="100%" height="100%" transform="translate(-1.971 -3.664)"/><use y="12.633" x="49.244" xlink:href="#e" width="100%" height="100%" transform="translate(-1.971 -3.664)"/><use y="12.633" x="55.964" xlink:href="#f" width="100%" height="100%" transform="translate(-1.971 -3.664)"/><use y="12.633" x="63.905" xlink:href="#g" width="100%" height="100%" transform="translate(-1.971 -3.664)"/><use y="12.633" x="70.02" xlink:href="#h" width="100%" height="100%" transform="translate(-1.971 -3.664)"/><use y="12.633" x="77.797" xlink:href="#i" width="100%" height="100%" transform="translate(-1.971 -3.664)"/><use y="12.633" x="83.747" xlink:href="#g" width="100%" height="100%" transform="translate(-1.971 -3.664)"/><use y="12.633" x="89.862" xlink:href="#j" width="100%" height="100%" transform="translate(-1.971 -3.664)"/><use y="12.633" x="94.415" xlink:href="#k" width="100%" height="100%" transform="translate(-1.971 -3.664)"/><use y="12.633" x="101.019" xlink:href="#l" width="100%" height="100%" transform="translate(-1.971 -3.664)"/><use y="12.633" x="106.263" xlink:href="#m" width="100%" height="100%" transform="translate(-1.971 -3.664)"/><use y="12.633" x="112.972" xlink:href="#n" width="100%" height="100%" transform="translate(-1.971 -3.664)"/><use y="12.633" x="120.848" xlink:href="#o" width="100%" height="100%" transform="translate(-1.971 -3.664)"/><use y="12.633" x="127.418" xlink:href="#p" width="100%" height="100%" transform="translate(-1.971 -3.664)"/><use y="12.633" x="132.067" xlink:href="#q" width="100%" height="100%" transform="translate(-1.971 -3.664)" fill="#293ccd"/><use y="12.633" x="139.403" xlink:href="#r" width="100%" height="100%" transform="translate(-1.971 -3.664)"/><use y="12.633" x="147.376" xlink:href="#s" width="100%" height="100%" transform="translate(-1.971 -3.664)"/><use y="12.633" x="162.655" xlink:href="#p" width="100%" height="100%" transform="translate(-1.971 -3.664)"/><use y="12.633" x="167.299" xlink:href="#t" width="100%" height="100%" transform="translate(-1.971 -3.664)" fill="#009682"/><use y="12.633" x="175.124" xlink:href="#r" width="100%" height="100%" transform="translate(-1.971 -3.664)"/><use y="26.73" x="14.092" xlink:href="#k" width="100%" height="100%" transform="translate(-1.971 -3.664)"/><use y="26.73" x="24.017" xlink:href="#o" width="100%" height="100%" transform="translate(-1.971 -3.664)"/><use y="26.73" x="30.59" xlink:href="#q" width="100%" height="100%" transform="translate(-1.971 -3.664)" fill="#293ccd"/><use y="26.73" x="41.247" xlink:href="#s" width="100%" height="100%" transform="translate(-1.971 -3.664)"/><use y="26.73" x="56.523" xlink:href="#u" width="100%" height="100%" transform="translate(-1.971 -3.664)"/><use y="26.73" x="119.386" xlink:href="#v" width="100%" height="100%" transform="translate(-1.971 -3.664)"/><use y="26.73" x="124.665" xlink:href="#w" width="100%" height="100%" transform="translate(-1.971 -3.664)"/><use y="26.73" x="130.561" xlink:href="#x" width="100%" height="100%" transform="translate(-1.971 -3.664)"/><use y="26.73" x="139.118" xlink:href="#w" width="100%" height="100%" transform="translate(-1.971 -3.664)"/><use y="26.73" x="144.903" xlink:href="#y" width="100%" height="100%" transform="translate(-1.971 -3.664)"/><use y="26.73" x="150.402" xlink:href="#z" width="100%" height="100%" transform="translate(-1.971 -3.664)"/><use y="26.73" x="153.46" xlink:href="#A" width="100%" height="100%" transform="translate(-1.971 -3.664)"/><use y="26.73" x="157.013" xlink:href="#B" width="100%" height="100%" transform="translate(-1.971 -3.664)"/><use y="26.73" x="163.128" xlink:href="#C" width="100%" height="100%" transform="translate(-1.971 -3.664)"/><use y="26.73" x="168.627" xlink:href="#z" width="100%" height="100%" transform="translate(-1.971 -3.664)"/><use y="26.73" x="171.685" xlink:href="#D" width="100%" height="100%" transform="translate(-1.971 -3.664)"/><use y="26.73" x="177.8" xlink:href="#A" width="100%" height="100%" transform="translate(-1.971 -3.664)"/><use y="40.179" x="13.987" xlink:href="#m" width="100%" height="100%" transform="translate(-1.971 -3.664)"/><use y="40.179" x="24.017" xlink:href="#o" width="100%" height="100%" transform="translate(-1.971 -3.664)"/><use y="40.179" x="30.59" xlink:href="#E" width="100%" height="100%" transform="translate(-1.971 -3.664)"/><use y="40.179" x="33.032" xlink:href="#F" width="100%" height="100%" transform="translate(-1.971 -3.664)"/><use y="40.179" x="36.089" xlink:href="#G" width="100%" height="100%" transform="translate(-1.971 -3.664)"/><use y="40.179" x="42.205" xlink:href="#H" width="100%" height="100%" transform="translate(-1.971 -3.664)"/><use y="40.179" x="45.757" xlink:href="#I" width="100%" height="100%" transform="translate(-1.971 -3.664)"/><use y="40.179" x="51.872" xlink:href="#J" width="100%" height="100%" transform="translate(-1.971 -3.664)"/><use y="40.179" x="57.768" xlink:href="#K" width="100%" height="100%" transform="translate(-1.971 -3.664)"/><use y="40.179" x="60.209" xlink:href="#G" width="100%" height="100%" transform="translate(-1.971 -3.664)"/><use y="40.179" x="66.561" xlink:href="#j" width="100%" height="100%" transform="translate(-1.971 -3.664)"/><use y="40.179" x="71.113" xlink:href="#q" width="100%" height="100%" transform="translate(-1.971 -3.664)" fill="#293ccd"/><use y="40.179" x="78.449" xlink:href="#n" width="100%" height="100%" transform="translate(-1.971 -3.664)"/><use y="40.179" x="86.322" xlink:href="#s" width="100%" height="100%" transform="translate(-1.971 -3.664)"/><use y="40.179" x="101.598" xlink:href="#t" width="100%" height="100%" transform="translate(-1.971 -3.664)" fill="#009682"/><use y="40.179" x="119.386" xlink:href="#L" width="100%" height="100%" transform="translate(-1.971 -3.664)"/><use y="40.179" x="125.391" xlink:href="#A" width="100%" height="100%" transform="translate(-1.971 -3.664)"/><use y="40.179" x="129.054" xlink:href="#D" width="100%" height="100%" transform="translate(-1.971 -3.664)"/><use y="40.179" x="135.169" xlink:href="#M" width="100%" height="100%" transform="translate(-1.971 -3.664)"/><use y="40.179" x="141.284" xlink:href="#N" width="100%" height="100%" transform="translate(-1.971 -3.664)"/><use y="40.179" x="150.457" xlink:href="#O" width="100%" height="100%" transform="translate(-1.971 -3.664)"/><use y="40.179" x="153.515" xlink:href="#M" width="100%" height="100%" transform="translate(-1.971 -3.664)"/><use y="40.179" x="159.63" xlink:href="#P" width="100%" height="100%" transform="translate(-1.971 -3.664)"/><use y="40.179" x="165.746" xlink:href="#C" width="100%" height="100%" transform="translate(-1.971 -3.664)"/><use y="40.179" x="171.245" xlink:href="#z" width="100%" height="100%" transform="translate(-1.971 -3.664)"/><use y="40.179" x="174.303" xlink:href="#Q" width="100%" height="100%" transform="translate(-1.971 -3.664)"/><use y="40.179" x="176.744" xlink:href="#D" width="100%" height="100%" transform="translate(-1.971 -3.664)"/><use y="40.179" x="182.859" xlink:href="#P" width="100%" height="100%" transform="translate(-1.971 -3.664)"/><path d="M20.142 59.652H.299v19.844h19.843zm19.84 0h-19.84v19.844h19.84zm19.844 0H39.982v19.844h19.844zm19.843 0H59.827v19.844h19.842zm19.84 0h-19.84v19.844h19.84zm19.844 0H99.509v19.844h19.844zm19.844 0h-19.844v19.844h19.844zm19.844 0h-19.844v19.844h19.844zm19.84 0h-19.84v19.844h19.84zm19.843 0h-19.843v19.844h19.843zm0 0" stroke-miterlimit="10" fill="#d4d8f5" stroke="#000" stroke-width=".598"/><path d="M59.826 178.71H39.982v19.84h19.844zm19.843 0H59.827v19.84h19.842zm19.84 0h-19.84v19.84h19.84zm19.844 0H99.509v19.84h19.844zm19.844 0h-19.844v19.84h19.844zm0 0" stroke-miterlimit="10" fill="#cceae6" stroke="#000" stroke-width=".598"/><path d="M10.22 79.707L6.904 94.8" stroke-miterlimit="10" fill="none" stroke="#000" stroke-width=".797"/><path d="M10.404 93.367c-1.926.055-3.008.88-3.586 1.824-.129-1.101-.77-2.304-2.492-3.16" stroke-miterlimit="10" fill="none" stroke="#000" stroke-width=".797" stroke-linecap="round" stroke-linejoin="round"/><path d="M12.56 95.578a5.825 5.825 0 00-5.828-5.824 5.825 5.825 0 00-5.828 5.824 5.828 5.828 0 0011.656 0zm0 0" stroke-miterlimit="10" fill="#fff" stroke="#000" stroke-width=".399"/><use y="103.162" x="5.401" xlink:href="#k" width="100%" height="100%" transform="translate(-1.971 -3.664)"/><path d="M30.06 79.707L26.749 94.8" stroke-miterlimit="10" fill="none" stroke="#000" stroke-width=".797"/><path d="M30.248 93.367c-1.926.055-3.008.88-3.586 1.824-.133-1.101-.77-2.304-2.492-3.16" stroke-miterlimit="10" fill="none" stroke="#000" stroke-width=".797" stroke-linecap="round" stroke-linejoin="round"/><path d="M32.404 95.578a5.825 5.825 0 00-5.828-5.824 5.825 5.825 0 00-5.828 5.824 5.828 5.828 0 0011.656 0zm0 0" stroke-miterlimit="10" fill="#fff" stroke="#000" stroke-width=".399"/><use y="103.162" x="25.244" xlink:href="#k" width="100%" height="100%" transform="translate(-1.971 -3.664)"/><path d="M49.904 79.707L46.588 94.8" stroke-miterlimit="10" fill="none" stroke="#000" stroke-width=".797"/><path d="M50.088 93.367c-1.922.055-3.004.88-3.586 1.824-.13-1.101-.766-2.304-2.489-3.16" stroke-miterlimit="10" fill="none" stroke="#000" stroke-width=".797" stroke-linecap="round" stroke-linejoin="round"/><path d="M52.248 95.578a5.825 5.825 0 00-5.828-5.824 5.825 5.825 0 00-5.829 5.824 5.829 5.829 0 0011.657 0zm0 0" stroke-miterlimit="10" fill="#fff" stroke="#000" stroke-width=".399"/><use y="103.162" x="45.086" xlink:href="#k" width="100%" height="100%" transform="translate(-1.971 -3.664)"/><path d="M69.748 79.707L66.431 94.8" stroke-miterlimit="10" fill="none" stroke="#000" stroke-width=".797"/><path d="M69.931 93.367c-1.922.055-3.004.88-3.586 1.824-.129-1.101-.765-2.304-2.488-3.16" stroke-miterlimit="10" fill="none" stroke="#000" stroke-width=".797" stroke-linecap="round" stroke-linejoin="round"/><path d="M72.088 95.578a5.825 5.825 0 00-5.829-5.824 5.822 5.822 0 00-5.824 5.824 5.825 5.825 0 005.824 5.828 5.828 5.828 0 005.829-5.828zm0 0" stroke-miterlimit="10" fill="#fff" stroke="#000" stroke-width=".399"/><use y="103.162" x="64.929" xlink:href="#k" width="100%" height="100%" transform="translate(-1.971 -3.664)"/><path d="M89.592 79.707L86.275 94.8" stroke-miterlimit="10" fill="none" stroke="#000" stroke-width=".797"/><path d="M89.775 93.367c-1.922.055-3.008.88-3.586 1.824-.129-1.101-.77-2.304-2.492-3.16" stroke-miterlimit="10" fill="none" stroke="#000" stroke-width=".797" stroke-linecap="round" stroke-linejoin="round"/><path d="M91.931 95.578a5.825 5.825 0 00-5.828-5.824 5.825 5.825 0 00-5.828 5.824 5.828 5.828 0 0011.656 0zm0 0" stroke-miterlimit="10" fill="#fff" stroke="#000" stroke-width=".399"/><use y="103.162" x="84.772" xlink:href="#k" width="100%" height="100%" transform="translate(-1.971 -3.664)"/><path d="M109.435 79.707L106.119 94.8" stroke-miterlimit="10" fill="none" stroke="#000" stroke-width=".797"/><path d="M109.619 93.367c-1.922.055-3.008.88-3.586 1.824-.129-1.101-.77-2.304-2.492-3.16" stroke-miterlimit="10" fill="none" stroke="#000" stroke-width=".797" stroke-linecap="round" stroke-linejoin="round"/><path d="M111.775 95.578a5.825 5.825 0 00-5.828-5.824 5.825 5.825 0 00-5.828 5.824 5.828 5.828 0 0011.656 0zm0 0" stroke-miterlimit="10" fill="#fff" stroke="#000" stroke-width=".399"/><use y="103.162" x="104.615" xlink:href="#k" width="100%" height="100%" transform="translate(-1.971 -3.664)"/><path d="M129.279 79.707L125.963 94.8" stroke-miterlimit="10" fill="none" stroke="#000" stroke-width=".797"/><path d="M129.463 93.367c-1.926.055-3.008.88-3.586 1.824-.133-1.101-.77-2.304-2.493-3.16" stroke-miterlimit="10" fill="none" stroke="#000" stroke-width=".797" stroke-linecap="round" stroke-linejoin="round"/><path d="M131.619 95.578a5.825 5.825 0 00-5.828-5.824 5.825 5.825 0 00-5.828 5.824 5.828 5.828 0 0011.656 0zm0 0" stroke-miterlimit="10" fill="#fff" stroke="#000" stroke-width=".399"/><use y="103.162" x="124.457" xlink:href="#k" width="100%" height="100%" transform="translate(-1.971 -3.664)"/><path d="M149.119 79.707L145.802 94.8" stroke-miterlimit="10" fill="none" stroke="#000" stroke-width=".797"/><path d="M149.302 93.367c-1.921.055-3.003.88-3.582 1.824-.132-1.101-.77-2.304-2.492-3.16" stroke-miterlimit="10" fill="none" stroke="#000" stroke-width=".797" stroke-linecap="round" stroke-linejoin="round"/><path d="M151.463 95.578a5.825 5.825 0 00-5.829-5.824 5.825 5.825 0 00-5.828 5.824 5.829 5.829 0 0011.657 0zm0 0" stroke-miterlimit="10" fill="#fff" stroke="#000" stroke-width=".399"/><use y="103.162" x="144.3" xlink:href="#k" width="100%" height="100%" transform="translate(-1.971 -3.664)"/><path d="M168.963 79.707L165.646 94.8" stroke-miterlimit="10" fill="none" stroke="#000" stroke-width=".797"/><path d="M169.146 93.367c-1.922.055-3.004.88-3.586 1.824-.129-1.101-.765-2.304-2.488-3.16" stroke-miterlimit="10" fill="none" stroke="#000" stroke-width=".797" stroke-linecap="round" stroke-linejoin="round"/><path d="M171.302 95.578a5.822 5.822 0 00-5.824-5.824 5.825 5.825 0 00-5.828 5.824 5.828 5.828 0 005.828 5.828 5.825 5.825 0 005.824-5.828zm0 0" stroke-miterlimit="10" fill="#fff" stroke="#000" stroke-width=".399"/><use y="103.162" x="164.143" xlink:href="#k" width="100%" height="100%" transform="translate(-1.971 -3.664)"/><path stroke-miterlimit="10" d="M188.806 79.707L185.49 94.8" fill="none" stroke="#000" stroke-width=".797"/><path d="M188.989 93.367c-1.92.055-3.007.88-3.585 1.824-.129-1.101-.766-2.304-2.492-3.16" stroke-miterlimit="10" fill="none" stroke="#000" stroke-width=".797" stroke-linecap="round" stroke-linejoin="round"/><path d="M191.146 95.578a5.825 5.825 0 00-5.828-5.824 5.825 5.825 0 00-5.828 5.824 5.828 5.828 0 0011.656 0zm0 0" stroke-miterlimit="10" fill="#fff" stroke="#000" stroke-width=".399"/><use y="103.162" x="183.986" xlink:href="#k" width="100%" height="100%" transform="translate(-1.971 -3.664)"/><path d="M6.732 101.609v4.93" stroke-miterlimit="10" fill="none" stroke="#000" stroke-width=".797"/><path d="M9.842 104.386c-1.864.466-2.747 1.505-3.11 2.552-.363-1.047-1.246-2.086-3.11-2.551" stroke-miterlimit="10" fill="none" stroke="#000" stroke-width=".797" stroke-linecap="round" stroke-linejoin="round"/><use y="119.003" x="3.666" xlink:href="#k" width="100%" height="100%" transform="translate(-1.971 -3.664)"/><use y="120.796" x="9.165" xlink:href="#R" width="100%" height="100%" transform="translate(-1.971 -3.664)"/><path d="M26.576 101.606v4.933" stroke-miterlimit="10" fill="none" stroke="#000" stroke-width=".797"/><path d="M29.685 104.386c-1.867.466-2.746 1.505-3.11 2.552-.362-1.047-1.245-2.086-3.112-2.551" stroke-miterlimit="10" fill="none" stroke="#000" stroke-width=".797" stroke-linecap="round" stroke-linejoin="round"/><use y="119.003" x="23.509" xlink:href="#k" width="100%" height="100%" transform="translate(-1.971 -3.664)"/><use y="120.796" x="29.008" xlink:href="#S" width="100%" height="100%" transform="translate(-1.971 -3.664)"/><path d="M46.419 101.606v4.933" stroke-miterlimit="10" fill="none" stroke="#000" stroke-width=".797"/><path d="M49.529 104.386c-1.867.466-2.746 1.505-3.11 2.552-.363-1.047-1.245-2.086-3.113-2.551" stroke-miterlimit="10" fill="none" stroke="#000" stroke-width=".797" stroke-linecap="round" stroke-linejoin="round"/><use y="119.003" x="43.352" xlink:href="#k" width="100%" height="100%" transform="translate(-1.971 -3.664)"/><use y="120.796" x="48.851" xlink:href="#S" width="100%" height="100%" transform="translate(-1.971 -3.664)"/><path d="M66.263 101.606v4.933" stroke-miterlimit="10" fill="none" stroke="#000" stroke-width=".797"/><path d="M69.373 104.386c-1.867.466-2.746 1.505-3.11 2.552-.363-1.047-1.246-2.086-3.113-2.551" stroke-miterlimit="10" fill="none" stroke="#000" stroke-width=".797" stroke-linecap="round" stroke-linejoin="round"/><use y="118.928" x="63.195" xlink:href="#k" width="100%" height="100%" transform="translate(-1.971 -3.664)"/><use y="120.721" x="68.695" xlink:href="#T" width="100%" height="100%" transform="translate(-1.971 -3.664)"/><path d="M86.107 101.606v4.933" stroke-miterlimit="10" fill="none" stroke="#000" stroke-width=".797"/><path d="M89.217 104.386c-1.868.47-2.747 1.505-3.11 2.552-.363-1.047-1.246-2.086-3.113-2.551" stroke-miterlimit="10" fill="none" stroke="#000" stroke-width=".797" stroke-linecap="round" stroke-linejoin="round"/><use y="118.928" x="83.038" xlink:href="#k" width="100%" height="100%" transform="translate(-1.971 -3.664)"/><use y="120.721" x="88.538" xlink:href="#U" width="100%" height="100%" transform="translate(-1.971 -3.664)"/><path d="M105.951 101.606v4.933" stroke-miterlimit="10" fill="none" stroke="#000" stroke-width=".797"/><path d="M109.06 104.386c-1.867.47-2.746 1.505-3.11 2.552-.362-1.047-1.245-2.086-3.112-2.551" stroke-miterlimit="10" fill="none" stroke="#000" stroke-width=".797" stroke-linecap="round" stroke-linejoin="round"/><use y="119.003" x="102.882" xlink:href="#k" width="100%" height="100%" transform="translate(-1.971 -3.664)"/><use y="120.796" x="108.381" xlink:href="#S" width="100%" height="100%" transform="translate(-1.971 -3.664)"/><path d="M125.795 101.606v4.933" stroke-miterlimit="10" fill="none" stroke="#000" stroke-width=".797"/><path d="M128.904 104.386c-1.867.47-2.75 1.505-3.11 2.552-.363-1.047-1.245-2.086-3.113-2.551" stroke-miterlimit="10" fill="none" stroke="#000" stroke-width=".797" stroke-linecap="round" stroke-linejoin="round"/><use y="118.928" x="122.725" xlink:href="#k" width="100%" height="100%" transform="translate(-1.971 -3.664)"/><use y="120.721" x="128.224" xlink:href="#T" width="100%" height="100%" transform="translate(-1.971 -3.664)"/><path d="M145.639 101.606l-.005 4.933" stroke-miterlimit="10" fill="none" stroke="#000" stroke-width=".797"/><path d="M148.748 104.386c-1.867.47-2.75 1.505-3.114 2.552-.359-1.047-1.242-2.086-3.109-2.551" stroke-miterlimit="10" fill="none" stroke="#000" stroke-width=".797" stroke-linecap="round" stroke-linejoin="round"/><use y="119.003" x="142.568" xlink:href="#k" width="100%" height="100%" transform="translate(-1.971 -3.664)"/><use y="120.796" x="148.067" xlink:href="#V" width="100%" height="100%" transform="translate(-1.971 -3.664)"/><path d="M165.482 101.606l-.004 4.933" stroke-miterlimit="10" fill="none" stroke="#000" stroke-width=".797"/><path d="M168.591 104.386c-1.867.47-2.75 1.505-3.113 2.552-.363-1.047-1.242-2.086-3.11-2.551" stroke-miterlimit="10" fill="none" stroke="#000" stroke-width=".797" stroke-linecap="round" stroke-linejoin="round"/><use y="119.003" x="162.411" xlink:href="#k" width="100%" height="100%" transform="translate(-1.971 -3.664)"/><use y="120.796" x="167.91" xlink:href="#S" width="100%" height="100%" transform="translate(-1.971 -3.664)"/><path d="M185.322 101.606v4.933" stroke-miterlimit="10" fill="none" stroke="#000" stroke-width=".797"/><path d="M188.435 104.386c-1.867.47-2.75 1.505-3.113 2.552-.363-1.047-1.242-2.086-3.11-2.551" stroke-miterlimit="10" fill="none" stroke="#000" stroke-width=".797" stroke-linecap="round" stroke-linejoin="round"/><use y="119.003" x="182.254" xlink:href="#k" width="100%" height="100%" transform="translate(-1.971 -3.664)"/><use y="120.796" x="187.754" xlink:href="#S" width="100%" height="100%" transform="translate(-1.971 -3.664)"/><path d="M49.904 177.707v-21.031" stroke-miterlimit="10" fill="none" stroke="#000" stroke-width=".797"/><path d="M53.017 175.555c-1.867.465-2.75 1.504-3.113 2.55-.363-1.046-1.242-2.085-3.11-2.55" stroke-miterlimit="10" fill="none" stroke="#000" stroke-width=".797" stroke-linecap="round" stroke-linejoin="round"/><path d="M55.486 166.598a5.58 5.58 0 10-11.16 0 5.576 5.576 0 005.578 5.578 5.58 5.58 0 005.582-5.578zm0 0" stroke-miterlimit="10" fill="#fff" stroke="#000" stroke-width=".399"/><use y="171.823" x="48.815" xlink:href="#W" width="100%" height="100%" transform="translate(-1.971 -3.664)"/><path d="M45.654 156.277h8.504v-7.332h-8.504zm0 0" stroke-miterlimit="10" fill="#d4d8f5" stroke="#000" stroke-width=".797"/><path d="M69.748 177.707v-21.031" stroke-miterlimit="10" fill="none" stroke="#000" stroke-width=".797"/><path d="M72.857 175.555c-1.863.465-2.746 1.504-3.11 2.55-.363-1.046-1.241-2.085-3.109-2.55" stroke-miterlimit="10" fill="none" stroke="#000" stroke-width=".797" stroke-linecap="round" stroke-linejoin="round"/><path d="M75.329 166.598a5.583 5.583 0 00-11.163 0 5.58 5.58 0 005.582 5.578 5.58 5.58 0 005.582-5.578zm0 0" stroke-miterlimit="10" fill="#fff" stroke="#000" stroke-width=".399"/><use y="171.823" x="68.657" xlink:href="#W" width="100%" height="100%" transform="translate(-1.971 -3.664)"/><path d="M65.498 156.277h8.504V139.27h-8.504zm0 0" stroke-miterlimit="10" fill="#d4d8f5" stroke="#000" stroke-width=".797"/><path d="M89.592 177.707v-21.031" stroke-miterlimit="10" fill="none" stroke="#000" stroke-width=".797"/><path d="M92.701 175.555c-1.867.465-2.746 1.504-3.11 2.55-.363-1.046-1.246-2.085-3.109-2.55" stroke-miterlimit="10" fill="none" stroke="#000" stroke-width=".797" stroke-linecap="round" stroke-linejoin="round"/><path d="M95.174 166.598a5.583 5.583 0 00-11.165 0 5.58 5.58 0 005.582 5.578 5.58 5.58 0 005.583-5.578zm0 0" stroke-miterlimit="10" fill="#fff" stroke="#000" stroke-width=".399"/><use y="171.823" x="88.5" xlink:href="#W" width="100%" height="100%" transform="translate(-1.971 -3.664)"/><path d="M85.338 156.277h8.504v-8.504h-8.504zm0 0" stroke-miterlimit="10" fill="#d4d8f5" stroke="#000" stroke-width=".797"/><path d="M109.435 177.707v-21.031" stroke-miterlimit="10" fill="none" stroke="#000" stroke-width=".797"/><path d="M112.545 175.555c-1.868.465-2.746 1.504-3.11 2.55-.363-1.046-1.246-2.085-3.113-2.55" stroke-miterlimit="10" fill="none" stroke="#000" stroke-width=".797" stroke-linecap="round" stroke-linejoin="round"/><path d="M115.013 166.598a5.58 5.58 0 10-11.16 0 5.58 5.58 0 005.582 5.578 5.576 5.576 0 005.578-5.578zm0 0" stroke-miterlimit="10" fill="#fff" stroke="#000" stroke-width=".399"/><use y="171.823" x="108.343" xlink:href="#W" width="100%" height="100%" transform="translate(-1.971 -3.664)"/><path d="M105.181 156.277h8.504v-7.332h-8.504zm0 0" stroke-miterlimit="10" fill="#d4d8f5" stroke="#000" stroke-width=".797"/><path d="M129.279 177.707v-21.031" stroke-miterlimit="10" fill="none" stroke="#000" stroke-width=".797"/><path d="M132.389 175.555c-1.868.465-2.75 1.504-3.11 2.55-.363-1.046-1.246-2.085-3.113-2.55" stroke-miterlimit="10" fill="none" stroke="#000" stroke-width=".797" stroke-linecap="round" stroke-linejoin="round"/><path d="M134.857 166.598a5.58 5.58 0 10-11.16 0 5.58 5.58 0 005.582 5.578 5.576 5.576 0 005.578-5.578zm0 0" stroke-miterlimit="10" fill="#fff" stroke="#000" stroke-width=".399"/><use y="171.823" x="128.186" xlink:href="#W" width="100%" height="100%" transform="translate(-1.971 -3.664)"/><path d="M125.025 156.277h8.504v-7.332h-8.504zm0 0" stroke-miterlimit="10" fill="#d4d8f5" stroke="#000" stroke-width=".797"/><use y="213.477" x="42.837" xlink:href="#X" width="100%" height="100%" transform="translate(-1.971 -3.664)"/><use y="213.477" x="47.079" xlink:href="#Y" width="100%" height="100%" transform="translate(-1.971 -3.664)"/><use y="215.113" x="52.097" xlink:href="#R" width="100%" height="100%" transform="translate(-1.971 -3.664)"/><use y="213.477" x="56.672" xlink:href="#Z" width="100%" height="100%" transform="translate(-1.971 -3.664)"/><use y="213.477" x="62.679" xlink:href="#X" width="100%" height="100%" transform="translate(-1.971 -3.664)"/><use y="213.477" x="66.922" xlink:href="#Y" width="100%" height="100%" transform="translate(-1.971 -3.664)"/><use y="215.113" x="71.94" xlink:href="#S" width="100%" height="100%" transform="translate(-1.971 -3.664)"/><use y="213.477" x="76.515" xlink:href="#Z" width="100%" height="100%" transform="translate(-1.971 -3.664)"/><use y="213.477" x="82.522" xlink:href="#X" width="100%" height="100%" transform="translate(-1.971 -3.664)"/><use y="213.477" x="86.765" xlink:href="#Y" width="100%" height="100%" transform="translate(-1.971 -3.664)"/><use y="215.113" x="91.783" xlink:href="#T" width="100%" height="100%" transform="translate(-1.971 -3.664)"/><use y="213.477" x="96.358" xlink:href="#Z" width="100%" height="100%" transform="translate(-1.971 -3.664)"/><use y="213.477" x="102.365" xlink:href="#X" width="100%" height="100%" transform="translate(-1.971 -3.664)"/><use y="213.477" x="106.607" xlink:href="#Y" width="100%" height="100%" transform="translate(-1.971 -3.664)"/><use y="215.113" x="111.626" xlink:href="#U" width="100%" height="100%" transform="translate(-1.971 -3.664)"/><use y="213.477" x="116.2" xlink:href="#Z" width="100%" height="100%" transform="translate(-1.971 -3.664)"/><use y="213.477" x="122.208" xlink:href="#X" width="100%" height="100%" transform="translate(-1.971 -3.664)"/><use y="213.477" x="126.45" xlink:href="#Y" width="100%" height="100%" transform="translate(-1.971 -3.664)"/><use y="215.113" x="131.468" xlink:href="#V" width="100%" height="100%" transform="translate(-1.971 -3.664)"/><use y="213.477" x="136.043" xlink:href="#Z" width="100%" height="100%" transform="translate(-1.971 -3.664)"/><path d="M10.22 79.703l6.641 18.906a6.9 6.9 0 01.332 1.934v13.89c0 4.618 32.711 28.5 32.711 33.317" stroke-miterlimit="10" fill="none" stroke="#000" stroke-width=".797"/><path d="M53.017 145.598c-1.867.465-2.75 1.504-3.113 2.55-.36-1.046-1.242-2.085-3.11-2.55" stroke-miterlimit="10" fill="none" stroke="#000" stroke-width=".797" stroke-linecap="round" stroke-linejoin="round"/><path d="M30.06 79.703l6.645 18.906a6.9 6.9 0 01.332 1.934v13.89c0 3.87 32.71 19.567 32.71 23.64" stroke-miterlimit="10" fill="none" stroke="#000" stroke-width=".797"/><path d="M72.861 135.922c-1.867.465-2.75 1.504-3.113 2.55-.364-1.046-1.242-2.085-3.11-2.55" stroke-miterlimit="10" fill="none" stroke="#000" stroke-width=".797" stroke-linecap="round" stroke-linejoin="round"/><path d="M49.904 79.703l6.645 18.906a6.9 6.9 0 01.332 1.934v13.89c0 2.344 12.867 21.098 12.867 23.64" stroke-miterlimit="10" fill="none" stroke="#000" stroke-width=".797"/><path d="M72.861 135.922c-1.867.465-2.75 1.504-3.113 2.55-.364-1.046-1.242-2.085-3.11-2.55" stroke-miterlimit="10" fill="none" stroke="#000" stroke-width=".797" stroke-linecap="round" stroke-linejoin="round"/><path d="M69.748 79.703l6.644 18.906c.184.516.328 1.383.328 1.934v13.89c0 3.255 12.871 28.692 12.871 32.145" stroke-miterlimit="10" fill="none" stroke="#000" stroke-width=".797"/><path d="M92.705 144.426c-1.867.465-2.75 1.504-3.114 2.55-.363-1.046-1.242-2.085-3.109-2.55" stroke-miterlimit="10" fill="none" stroke="#000" stroke-width=".797" stroke-linecap="round" stroke-linejoin="round"/><path d="M89.592 79.703l6.644 18.906a7.04 7.04 0 01.328 1.934v13.89c0 3.383 12.871 29.735 12.871 33.317" stroke-miterlimit="10" fill="none" stroke="#000" stroke-width=".797"/><path d="M112.549 145.598c-1.868.465-2.75 1.504-3.114 2.55-.363-1.046-1.242-2.085-3.11-2.55" stroke-miterlimit="10" fill="none" stroke="#000" stroke-width=".797" stroke-linecap="round" stroke-linejoin="round"/><path d="M109.435 79.703l6.64 18.906a6.9 6.9 0 01.333 1.934v13.89c0 5.239-46.66 18.204-46.66 23.64" stroke-miterlimit="10" fill="none" stroke="#000" stroke-width=".797"/><path d="M72.861 135.922c-1.867.465-2.75 1.504-3.113 2.55-.364-1.046-1.242-2.085-3.11-2.55" stroke-miterlimit="10" fill="none" stroke="#000" stroke-width=".797" stroke-linecap="round" stroke-linejoin="round"/><path d="M129.279 79.703l6.64 18.906a6.9 6.9 0 01.333 1.934v13.89c0 5.78-46.66 26.165-46.66 32.145" stroke-miterlimit="10" fill="none" stroke="#000" stroke-width=".797"/><path d="M92.705 144.426c-1.867.465-2.75 1.504-3.114 2.55-.363-1.046-1.242-2.085-3.109-2.55" stroke-miterlimit="10" fill="none" stroke="#000" stroke-width=".797" stroke-linecap="round" stroke-linejoin="round"/><path d="M149.119 79.703l6.644 18.906a6.9 6.9 0 01.332 1.934v13.89c0 4.18-26.816 28.938-26.816 33.317" stroke-miterlimit="10" fill="none" stroke="#000" stroke-width=".797"/><path d="M132.392 145.598c-1.867.465-2.75 1.504-3.113 2.55-.363-1.046-1.242-2.085-3.11-2.55" stroke-miterlimit="10" fill="none" stroke="#000" stroke-width=".797" stroke-linecap="round" stroke-linejoin="round"/><path d="M168.963 79.703l6.644 18.906a6.9 6.9 0 01.332 1.934v13.89c0 11.825-106.191 11.614-106.191 23.64" stroke-miterlimit="10" fill="none" stroke="#000" stroke-width=".797"/><path d="M72.861 135.922c-1.867.465-2.75 1.504-3.113 2.55-.364-1.046-1.242-2.085-3.11-2.55" stroke-miterlimit="10" fill="none" stroke="#000" stroke-width=".797" stroke-linecap="round" stroke-linejoin="round"/><path stroke-miterlimit="10" d="M188.806 79.703l6.645 18.906a7.04 7.04 0 01.328 1.934v13.89c0 14.102-126.031 9.34-126.031 23.64" fill="none" stroke="#000" stroke-width=".797"/><path d="M72.861 135.922c-1.867.465-2.75 1.504-3.113 2.55-.364-1.046-1.242-2.085-3.11-2.55" stroke-miterlimit="10" fill="none" stroke="#000" stroke-width=".797" stroke-linecap="round" stroke-linejoin="round"/></svg>