<svg xmlns="http://www.w3.org/2000/svg" xmlns:xlink="http://www.w3.org/1999/xlink" version="1.2" viewBox="0 0 95.885 103.182" height="137.575" width="127.847"><defs><symbol id="e" overflow="visible"><path d="M4.063-5.766h-.938l.156-.75c.125-.562.328-.75.797-.75.078 0 .14 0 .297.032L4.547-8c-.203-.047-.328-.047-.5-.047-.844 0-1.469.485-1.64 1.297l-.204.984h-.765l-.157.735h.766L.984 0h.922L2.97-5.031h.953zm0 0"/></symbol><symbol id="a" overflow="visible"><path d="M2.375-6.25L3.813 0h1.656L6.89-6.25V0h1.64v-8.016H6.047L4.64-1.64 3.187-8.016H.72V0h1.656zm0 0"/></symbol><symbol id="c" overflow="visible"><path d="M2.172-5.938H.64v8.329h1.53V-.703c.376.656.907.969 1.657.969 1.438 0 2.485-1.344 2.485-3.141 0-.844-.235-1.672-.641-2.234-.39-.563-1.125-.922-1.844-.922-.75 0-1.281.312-1.656.968zM3.469-4.75c.781 0 1.312.75 1.312 1.89 0 1.079-.547 1.844-1.312 1.844-.766 0-1.297-.75-1.297-1.859 0-1.125.531-1.875 1.297-1.875zm0 0"/></symbol><symbol id="d" overflow="visible"><path d="M3.172-8.969C1.39-7.359.937-4.938.937-2.984c0 2.093.516 4.437 2.235 5.984h.719C3.437 2.562 2.703 1.64 2.28.281c-.328-1.062-.437-2.172-.437-3.25 0-3.531 1.25-5.25 2.047-6zm0 0"/></symbol><symbol id="f" overflow="visible"><path d="M1.36 3c1.796-1.594 2.25-4.031 2.25-5.969 0-2.11-.516-4.453-2.25-6H.64c.47.438 1.204 1.36 1.626 2.719.312 1.063.437 2.172.437 3.266C2.703.53 1.453 2.266.641 3zm0 0"/></symbol><symbol id="g" overflow="visible"><path d="M2.11-5.313h-.97v.97h.97zM1.14-.968V0h.97v-.969zm0 0"/></symbol><symbol id="b" overflow="visible"><path d="M5.766-.188c-.282-.25-.36-.421-.36-.718V-4.22c0-1.203-.812-1.812-2.422-1.812-1.609 0-2.453.672-2.546 2.047h1.484c.078-.61.328-.813 1.094-.813.593 0 .89.203.89.594a.514.514 0 01-.265.469c-.204.109-.204.109-.97.218l-.608.11c-1.188.203-1.75.812-1.75 1.875 0 .515.14.922.406 1.218.344.36.86.563 1.39.563.657 0 1.266-.281 1.813-.844 0 .313.031.422.172.594h1.672zM3.906-2.39c0 .891-.437 1.407-1.219 1.407-.515 0-.843-.282-.843-.72 0-.468.25-.687.89-.812l.516-.109c.406-.063.484-.094.656-.188zm0 0"/></symbol><symbol id="i" overflow="visible"><path d="M5.766-2.406L6.062 0h1.125L6.079-8.016H4.75L.187 0h1.094l1.344-2.406zm-.11-.86H3.11l2.11-3.671zm0 0"/></symbol><symbol id="l" overflow="visible"><path d="M.875 0H4.5c.906 0 1.594-.313 2.172-.953.484-.516.719-1.172.719-1.89 0-.673-.297-1.048-1.063-1.376.953-.437 1.5-1.218 1.5-2.203a1.39 1.39 0 00-.406-1.031c-.375-.406-.828-.563-1.594-.563h-3.25zm2-4.563l.547-2.546h1.984c.938 0 1.36.296 1.36.937 0 .406-.157.813-.422 1.094-.328.36-.766.516-1.5.516zM2.094-.905l.594-2.75h2.484c.75 0 1.172.344 1.172 1 0 .406-.14.797-.375 1.125-.344.437-.766.625-1.375.625zm0 0"/></symbol><symbol id="h" overflow="visible"><path d="M3.969 2.75s0-.078-.063-.219L1.812-2.984l2.094-5.532c.063-.14.063-.203.063-.203 0-.14-.11-.25-.235-.25-.156 0-.203.11-.25.25L1.375-3.203c-.063.14-.063.219-.063.219s0 .062.063.218L3.469 2.72c.062.156.094.265.265.265a.24.24 0 00.235-.234zm0 0"/></symbol><symbol id="j" overflow="visible"><path d="M3.328-2.984s0-.079-.062-.22l-2.094-5.5c-.063-.14-.094-.265-.266-.265-.125 0-.234.11-.234.25 0 0 0 .063.062.203l2.094 5.532L.734 2.53c-.062.14-.062.219-.062.219 0 .125.11.234.234.234.156 0 .203-.109.25-.234l2.11-5.516c.062-.156.062-.218.062-.218zm0 0"/></symbol><symbol id="k" overflow="visible"><path d="M11.266-2.984a.136.136 0 00-.094-.125A3.744 3.744 0 018.719-6c0-.063-.063-.11-.125-.11h-.219c-.063 0-.125.063-.125.157a4.259 4.259 0 001.703 2.719H.906c-.172 0-.25.125-.25.25 0 .109.078.234.25.234h9.047A4.259 4.259 0 008.25-.031c0 .11.063.156.125.156h.219c.062 0 .125-.047.125-.094a3.766 3.766 0 012.453-2.906c.047 0 .094-.047.094-.11zm0 0"/></symbol></defs><g transform="translate(-4.385 -3.664)"><use xlink:href="#a" x="3.666" y="12.633" width="100%" height="100%"/><use xlink:href="#b" x="12.828" y="12.633" width="100%" height="100%"/><use xlink:href="#c" x="18.943" y="12.633" width="100%" height="100%"/></g><use xlink:href="#d" x="25.663" y="12.633" width="100%" height="100%" transform="translate(-4.385 -3.664)"/><use xlink:href="#e" x="30.216" y="12.633" width="100%" height="100%" transform="translate(-4.385 -3.664)"/><use xlink:href="#f" x="34.791" y="12.633" width="100%" height="100%" transform="translate(-4.385 -3.664)"/><use xlink:href="#g" x="42.667" y="12.633" width="100%" height="100%" transform="translate(-4.385 -3.664)"/><use xlink:href="#h" x="49.236" y="12.633" width="100%" height="100%" transform="translate(-4.385 -3.664)"/><use xlink:href="#i" x="53.886" y="12.633" width="100%" height="100%" transform="translate(-4.385 -3.664)" fill="#283acc"/><use xlink:href="#j" x="61.222" y="12.633" width="100%" height="100%" transform="translate(-4.385 -3.664)"/><use xlink:href="#k" x="69.195" y="12.633" width="100%" height="100%" transform="translate(-4.385 -3.664)"/><use xlink:href="#h" x="84.474" y="12.633" width="100%" height="100%" transform="translate(-4.385 -3.664)"/><use xlink:href="#l" x="89.117" y="12.633" width="100%" height="100%" transform="translate(-4.385 -3.664)" fill="#00947f"/><use xlink:href="#j" x="96.942" y="12.633" width="100%" height="100%" transform="translate(-4.385 -3.664)"/><use xlink:href="#e" x="28.515" y="27.078" width="100%" height="100%" transform="translate(-4.385 -3.664)"/><use xlink:href="#g" x="36.411" y="27.078" width="100%" height="100%" transform="translate(-4.385 -3.664)"/><use xlink:href="#i" x="42.984" y="27.078" width="100%" height="100%" transform="translate(-4.385 -3.664)" fill="#283acc"/><use xlink:href="#k" x="53.641" y="27.078" width="100%" height="100%" transform="translate(-4.385 -3.664)"/><use xlink:href="#l" x="68.917" y="27.078" width="100%" height="100%" transform="translate(-4.385 -3.664)" fill="#00947f"/><path d="M30.584 32.242h-17.66v17.66h17.66zm17.66 0h-17.66v17.66h17.66zm17.66 0h-17.66v17.66h17.66zm17.66 0h-17.66v17.66h17.66zm0 0" fill="#d4d7f5" stroke="#000" stroke-width=".598" stroke-miterlimit="10"/><path d="M30.584 85.222h-17.66v17.66h17.66zm17.66 0h-17.66v17.66h17.66zm17.66 0h-17.66v17.66h17.66zm17.66 0h-17.66v17.66h17.66zm0 0" fill="#cae8e6" stroke="#000" stroke-width=".598" stroke-miterlimit="10"/><path d="M21.756 50.09v34.152" fill="none" stroke="#000" stroke-width=".797" stroke-miterlimit="10"/><path d="M24.865 82.09c-1.867.465-2.746 1.504-3.11 2.55-.362-1.046-1.245-2.085-3.112-2.55" fill="none" stroke="#000" stroke-width=".797" stroke-linecap="round" stroke-linejoin="round" stroke-miterlimit="10"/><path d="M27.064 67.566a5.31 5.31 0 10-10.62 0 5.312 5.312 0 005.312 5.309 5.309 5.309 0 005.308-5.309zm0 0" fill="#fff" stroke="#000" stroke-width=".399" stroke-miterlimit="10"/><use xlink:href="#e" x="23.852" y="75.273" width="100%" height="100%" transform="translate(-4.385 -3.664)"/><path d="M39.416 50.09v34.152" fill="none" stroke="#000" stroke-width=".797" stroke-miterlimit="10"/><path d="M42.525 82.09c-1.867.465-2.746 1.504-3.109 2.55-.363-1.046-1.246-2.085-3.113-2.55" fill="none" stroke="#000" stroke-width=".797" stroke-linecap="round" stroke-linejoin="round" stroke-miterlimit="10"/><path d="M44.725 67.566a5.31 5.31 0 10-10.621 0 5.312 5.312 0 005.312 5.309 5.309 5.309 0 005.309-5.309zm0 0" fill="#fff" stroke="#000" stroke-width=".399" stroke-miterlimit="10"/><use xlink:href="#e" x="41.512" y="75.273" width="100%" height="100%" transform="translate(-4.385 -3.664)"/><path d="M57.076 50.09v34.152" fill="none" stroke="#000" stroke-width=".797" stroke-miterlimit="10"/><path d="M60.186 82.09c-1.864.465-2.747 1.504-3.11 2.55-.363-1.046-1.246-2.085-3.11-2.55" fill="none" stroke="#000" stroke-width=".797" stroke-linecap="round" stroke-linejoin="round" stroke-miterlimit="10"/><path d="M62.385 67.566a5.31 5.31 0 10-5.309 5.309 5.309 5.309 0 005.309-5.309zm0 0" fill="#fff" stroke="#000" stroke-width=".399" stroke-miterlimit="10"/><use xlink:href="#e" x="59.173" y="75.273" width="100%" height="100%" transform="translate(-4.385 -3.664)"/><path d="M74.736 50.09v34.152" fill="none" stroke="#000" stroke-width=".797" stroke-miterlimit="10"/><path d="M77.846 82.09c-1.864.465-2.746 1.504-3.11 2.55-.363-1.046-1.242-2.085-3.109-2.55" fill="none" stroke="#000" stroke-width=".797" stroke-linecap="round" stroke-linejoin="round" stroke-miterlimit="10"/><path d="M80.049 67.566a5.31 5.31 0 10-10.621 0 5.309 5.309 0 005.308 5.309 5.312 5.312 0 005.313-5.309zm0 0" fill="#fff" stroke="#000" stroke-width=".399" stroke-miterlimit="10"/><use xlink:href="#e" x="76.833" y="75.273" width="100%" height="100%" transform="translate(-4.385 -3.664)"/></svg>