<svg xmlns="http://www.w3.org/2000/svg" xmlns:xlink="http://www.w3.org/1999/xlink" version="1.2" viewBox="0 0 154.78 129.4" height="172.534" width="206.374"><defs><symbol id="u" overflow="visible"><path d="M2.328.047c0-.688-.219-1.203-.719-1.203-.375 0-.562.312-.562.578 0 .25.172.578.578.578a.518.518 0 00.39-.156c.032-.016.047-.016.047-.016s.032.156.032.219c0 .39-.078 1.172-.766 1.953-.14.14-.14.188-.14.188 0 .062.062.124.125.124.093 0 1.015-.89 1.015-2.265zm0 0"/></symbol><symbol id="c" overflow="visible"><path d="M.688-5.938V0h1.546v-3.156c0-.906.454-1.36 1.36-1.36.156 0 .265.016.469.047V-6.03H3.89c-.72 0-1.329.453-1.657 1.25v-1.157zm0 0"/></symbol><symbol id="b" overflow="visible"><path d="M5.766-2.484c.015-.141.015-.188.015-.266a5.06 5.06 0 00-.234-1.563C5.14-5.39 4.187-6.03 2.984-6.03c-1.703 0-2.75 1.218-2.75 3.218C.234-.905 1.281.25 2.954.25c1.343 0 2.421-.75 2.75-1.922H4.187c-.188.469-.61.75-1.172.75-.438 0-.797-.187-1.016-.515-.14-.22-.203-.485-.219-1.047zm-3.97-1.032c.11-.89.485-1.343 1.173-1.343.39 0 .734.187.953.5.14.218.219.437.25.843zm0 0"/></symbol><symbol id="d" overflow="visible"><path d="M4.484-5.938v.907c-.453-.703-.968-1-1.64-1-1.406 0-2.469 1.375-2.469 3.203C.375-.984 1.344.25 2.813.25 3.5.25 3.921.047 4.484-.61v.813c0 .703-.53 1.203-1.312 1.203-.578 0-.953-.234-1.078-.687H.5c0 .453.188.781.578 1.11.469.39 1.14.562 2.047.562 1.797 0 2.828-.797 2.828-2.188v-6.14zM3.172-4.75c.765 0 1.344.797 1.344 1.906 0 1.078-.563 1.813-1.375 1.813-.72 0-1.235-.735-1.235-1.813 0-1.125.516-1.906 1.266-1.906zm0 0"/></symbol><symbol id="e" overflow="visible"><path d="M3.172-8.969C1.39-7.359.937-4.938.937-2.984c0 2.093.516 4.437 2.235 5.984h.719C3.437 2.562 2.703 1.64 2.28.281c-.328-1.062-.437-2.172-.437-3.25 0-3.531 1.25-5.25 2.047-6zm0 0"/></symbol><symbol id="g" overflow="visible"><path d="M1.36 3c1.796-1.594 2.25-4.031 2.25-5.969 0-2.11-.516-4.453-2.25-6H.64c.47.438 1.204 1.36 1.626 2.719.312 1.063.437 2.172.437 3.266C2.703.53 1.453 2.266.641 3zm0 0"/></symbol><symbol id="h" overflow="visible"><path d="M2.11-5.313h-.97v.97h.97zM1.14-.968V0h.97v-.969zm0 0"/></symbol><symbol id="f" overflow="visible"><path d="M4.219-5.922c-1.016 0-1.922.453-2.485 1.266-.484.703-.859 1.922-.859 2.86C.875-.579 1.735.25 2.953.25c1.063 0 1.89-.422 2.516-1.266.5-.703.875-1.906.875-2.859 0-.578-.235-1.14-.61-1.516-.375-.359-.875-.53-1.515-.53zm-.14.844c.812 0 1.296.531 1.296 1.422 0 .64-.188 1.36-.484 1.906-.422.766-1.016 1.156-1.782 1.156-.78 0-1.265-.547-1.265-1.437 0-.625.187-1.344.484-1.89.406-.75 1.031-1.157 1.75-1.157zm0 0"/></symbol><symbol id="j" overflow="visible"><path d="M5.766-2.406L6.062 0h1.125L6.079-8.016H4.75L.187 0h1.094l1.344-2.406zm-.11-.86H3.11l2.11-3.671zm0 0"/></symbol><symbol id="p" overflow="visible"><path d="M4.063-5.766h-.938l.156-.75c.125-.562.328-.75.797-.75.078 0 .14 0 .297.032L4.547-8c-.203-.047-.328-.047-.5-.047-.844 0-1.469.485-1.64 1.297l-.204.984h-.765l-.157.735h.766L.984 0h.922L2.97-5.031h.953zm0 0"/></symbol><symbol id="q" overflow="visible"><path d="M6.078-.563c-.11.032-.156.032-.187.032-.297 0-.422-.11-.422-.328 0-.047 0-.079.015-.11l.704-3.312c.062-.297.062-.297.062-.407 0-.75-.766-1.234-1.922-1.234-1.516 0-2.453.64-2.672 1.86h.922c.11-.297.188-.454.344-.61.234-.25.703-.406 1.172-.406.656 0 1.172.297 1.172.703 0 .047-.016.125-.032.203l-.03.203c-.095.453-.313.563-1.11.64-1.469.142-1.938.25-2.485.595-.562.359-.89.937-.89 1.578C.719-.281 1.313.25 2.297.25c.39 0 .844-.078 1.25-.219.344-.125.515-.234.969-.625v.125c0 .453.296.719.828.719.125 0 .156 0 .437-.063.016-.015.078-.015.14-.03zM4.734-1.796C4.594-1.125 3.625-.53 2.656-.53c-.625 0-.969-.266-.969-.735 0-.359.204-.718.532-.921.265-.172.594-.25 1.14-.329 1.032-.14 1.125-.156 1.61-.328zm0 0"/></symbol><symbol id="r" overflow="visible"><path d="M3.375-8.016h-.922L.75 0h.922zm0 0"/></symbol><symbol id="s" overflow="visible"><path d="M5.656-4.156a2.14 2.14 0 00.063-.469c0-.781-.735-1.297-1.797-1.297-.781 0-1.453.219-1.906.656a2.094 2.094 0 00-.657 1.47c0 .671.375.983 1.516 1.28l.813.22c.359.093.53.155.624.28.079.11.141.266.141.36 0 .203-.172.547-.344.687-.28.235-.75.375-1.234.375-.75 0-1.188-.297-1.188-.844 0-.062.016-.171.032-.28H.734a2.84 2.84 0 00-.062.562C.672-.281 1.437.25 2.719.25c1.64 0 2.703-.844 2.703-2.156 0-.672-.36-1.016-1.328-1.266l-.844-.203c-.61-.156-.922-.375-.922-.656 0-.219.125-.5.328-.688.266-.25.594-.36 1.078-.36.641 0 1 .25 1 .673v.25zm0 0"/></symbol><symbol id="t" overflow="visible"><path d="M6.188-2.578l.03-.188a6.66 6.66 0 00.157-1.28c0-1.063-.906-1.876-2.094-1.876-.953 0-1.89.438-2.437 1.188-.516.687-.922 1.937-.922 2.828 0 .593.25 1.203.687 1.61.375.374.86.546 1.5.546 1.313 0 2.454-.813 2.782-2h-.922C4.579-.984 4-.594 3.25-.594c-.86 0-1.36-.547-1.36-1.469 0-.234.016-.343.063-.515zM2.14-3.36c.296-1.016 1.109-1.72 2-1.72.78 0 1.265.532 1.265 1.345 0 .109 0 .187-.031.375zm0 0"/></symbol><symbol id="v" overflow="visible"><path d="M4.031-5.766h-.984l.344-1.578h-.922l-.344 1.578h-.781l-.157.735h.782L1.094-.953a2.5 2.5 0 00-.032.344c0 .53.375.859.985.859.219 0 .562-.031.719-.078l.171-.797c-.343.078-.39.094-.53.094-.235 0-.391-.125-.391-.313 0-.031.015-.078.015-.14l.86-4.047h.984zm0 0"/></symbol><symbol id="w" overflow="visible"><path d="M1.984-5.766L.766 0h.921l.641-2.984C2.61-4.328 3.391-5 4.594-4.97l.203-.922c-.14-.03-.234-.03-.36-.03-.625 0-1.125.28-1.812 1.062l.188-.907zm0 0"/></symbol><symbol id="x" overflow="visible"><path d="M5.313 0L6.53-5.766h-.92L4.922-2.5C4.656-1.312 3.89-.531 2.953-.531c-.594 0-.984-.344-.984-.86 0-.078.015-.187.031-.296l.875-4.079h-.922L1-1.312a2.31 2.31 0 00-.031.359c0 .75.578 1.203 1.515 1.203.86 0 1.485-.266 2.125-.875L4.484 0zm0 0"/></symbol><symbol id="i" overflow="visible"><path d="M3.969 2.75s0-.078-.063-.219L1.812-2.984l2.094-5.532c.063-.14.063-.203.063-.203 0-.14-.11-.25-.235-.25-.156 0-.203.11-.25.25L1.375-3.203c-.063.14-.063.219-.063.219s0 .062.063.218L3.469 2.72c.062.156.094.265.265.265a.24.24 0 00.235-.234zm0 0"/></symbol><symbol id="k" overflow="visible"><path d="M3.328-2.984s0-.079-.062-.22l-2.094-5.5c-.063-.14-.094-.265-.266-.265-.125 0-.234.11-.234.25 0 0 0 .063.062.203l2.094 5.532L.734 2.53c-.062.14-.062.219-.062.219 0 .125.11.234.234.234.156 0 .203-.109.25-.234l2.11-5.516c.062-.156.062-.218.062-.218zm0 0"/></symbol><symbol id="n" overflow="visible"><path d="M11.266-2.984a.136.136 0 00-.094-.125A3.744 3.744 0 018.719-6c0-.063-.063-.11-.125-.11h-.219c-.063 0-.125.063-.125.157a4.259 4.259 0 001.703 2.719H.906c-.172 0-.25.125-.25.25 0 .109.078.234.25.234h9.047A4.259 4.259 0 008.25-.031c0 .11.063.156.125.156h.219c.062 0 .125-.047.125-.094a3.766 3.766 0 012.453-2.906c.047 0 .094-.047.094-.11zm0 0"/></symbol><symbol id="l" overflow="visible"><path d="M7.531-.344c0-.094-.031-.125-.156-.25L5-2.984l2.375-2.391c.125-.14.156-.156.156-.25 0-.14-.11-.25-.234-.25-.094 0-.156.047-.25.156l-2.39 2.39-2.407-2.39c-.14-.125-.156-.156-.25-.156-.125 0-.25.11-.25.25 0 .094.063.14.156.25l2.39 2.39-2.39 2.376c-.11.125-.156.187-.156.265 0 .125.125.235.25.235.094 0 .11-.016.25-.157l2.39-2.39 2.391 2.39c.11.125.188.157.266.157a.23.23 0 00.234-.235zm0 0"/></symbol><symbol id="o" overflow="visible"><path d="M5.11 2.86c0-.126-.079-.126-.204-.141-.937-.047-1.375-.594-1.484-1.016-.047-.14-.047-.156-.047-.578V-.672c0-.36 0-.969-.016-1.078-.156-.797-.921-1.11-1.39-1.234 1.406-.407 1.406-1.266 1.406-1.594v-2.156c0-.86 0-1.125.297-1.422.219-.203.484-.5 1.328-.547.063-.016.11-.063.11-.125 0-.14-.094-.14-.25-.14-1.188 0-2.25.609-2.282 1.468v2.188c0 1.125 0 1.312-.312 1.656-.157.172-.485.484-1.235.531-.093 0-.172.016-.172.14 0 .11.079.11.188.126.516.03 1.531.296 1.531 1.484v2.36c0 .703 0 1.109.625 1.546.516.36 1.297.453 1.656.453.157 0 .25 0 .25-.125zm0 0"/></symbol><symbol id="y" overflow="visible"><path d="M5.11-2.984c0-.125-.079-.125-.204-.141-.5-.031-1.531-.281-1.531-1.484v-2.36c0-.687 0-1.093-.61-1.547-.515-.343-1.28-.453-1.671-.453-.11 0-.235 0-.235.14 0 .11.079.11.188.126.953.062 1.39.594 1.5 1.031.031.125.031.156.031.578v1.782c0 .359 0 .968.031 1.093.157.782.922 1.094 1.391 1.235-1.422.406-1.422 1.25-1.422 1.578V.75c0 .86 0 1.125-.281 1.422-.219.219-.485.5-1.328.547a.137.137 0 00-.11.14c0 .125.125.125.235.125 1.203 0 2.265-.609 2.281-1.468V-.672c0-1.125 0-1.312.313-1.64.171-.172.5-.5 1.25-.547.078 0 .171-.016.171-.125zm0 0"/></symbol><symbol id="m" overflow="visible"><path d="M2.297-2.984a.643.643 0 00-.64-.641.64.64 0 00-.626.64c0 .344.282.626.625.626a.63.63 0 00.64-.625zm0 0"/></symbol><symbol id="a" overflow="visible"><path d="M2.375-6.25L3.813 0h1.656L6.89-6.25V0h1.64v-8.016H6.047L4.64-1.64 3.187-8.016H.72V0h1.656zm0 0"/></symbol><symbol id="z" overflow="visible"><path d="M2.594-8.016C1.5-6.578.797-4.578.797-2.844c0 1.735.703 3.735 1.797 5.172h.61C2.233.766 1.686-1.094 1.686-2.844c0-1.75.547-3.61 1.516-5.172zm0 0"/></symbol><symbol id="A" overflow="visible"><path d="M1.672-8.016H.75V0h.922zm0 0"/></symbol><symbol id="B" overflow="visible"><path d="M5.64-2.578c0-.875-.062-1.406-.234-1.828-.375-.953-1.25-1.516-2.328-1.516-1.61 0-2.64 1.219-2.64 3.11 0 1.906 1 3.062 2.624 3.062 1.313 0 2.235-.75 2.454-2h-.922c-.25.766-.766 1.156-1.5 1.156a1.61 1.61 0 01-1.39-.75c-.22-.328-.298-.656-.313-1.234zm-4.218-.75c.078-1.063.719-1.75 1.64-1.75.907 0 1.594.75 1.594 1.687v.063zm0 0"/></symbol><symbol id="C" overflow="visible"><path d="M4.813-4.156c0-1.14-.75-1.766-2.079-1.766-1.343 0-2.218.688-2.218 1.75 0 .906.468 1.328 1.828 1.656l.86.22c.64.155.89.39.89.796 0 .547-.547.906-1.344.906-.5 0-.906-.14-1.14-.39-.141-.157-.22-.329-.266-.735H.375C.422-.39 1.172.25 2.672.25c1.453 0 2.375-.719 2.375-1.828 0-.86-.484-1.328-1.625-1.594l-.875-.219c-.75-.171-1.078-.421-1.078-.828 0-.515.484-.86 1.218-.86.75 0 1.141.313 1.157.923zm0 0"/></symbol><symbol id="D" overflow="visible"><path d="M1.016 2.328C2.125.891 2.812-1.109 2.812-2.844c0-1.734-.687-3.734-1.796-5.172H.422c.969 1.563 1.5 3.422 1.5 5.172 0 1.75-.531 3.61-1.5 5.172zm0 0"/></symbol><symbol id="E" overflow="visible"><path d="M2.984-5.922c-1.609 0-2.593 1.14-2.593 3.078S1.359.25 3 .25c1.625 0 2.61-1.156 2.61-3.047 0-1.984-.954-3.125-2.626-3.125zM3-5.078c1.031 0 1.656.844 1.656 2.266 0 1.359-.64 2.218-1.656 2.218s-1.64-.844-1.64-2.25c0-1.375.624-2.234 1.64-2.234zm0 0"/></symbol><symbol id="F" overflow="visible"><path d="M.766-5.766V0h.921v-2.984c0-.829.204-1.375.641-1.688.297-.219.563-.281 1.203-.297v-.922c-.156-.03-.234-.03-.36-.03-.593 0-1.03.343-1.562 1.202v-1.047zm0 0"/></symbol><symbol id="G" overflow="visible"><path d="M5.438-8.016H4.53v2.985c-.39-.594-1-.89-1.765-.89-1.5 0-2.485 1.187-2.485 3.03C.281-.953 1.25.25 2.797.25c.797 0 1.344-.297 1.828-1.016V0h.813zM2.921-5.078c.984 0 1.61.89 1.61 2.266 0 1.328-.641 2.203-1.61 2.203C1.906-.61 1.25-1.5 1.25-2.844c0-1.344.656-2.234 1.672-2.234zm0 0"/></symbol><symbol id="H" overflow="visible"><path d="M5.89-.531c-.109.015-.156.015-.202.015-.313 0-.5-.171-.5-.453v-3.39c0-1.016-.75-1.563-2.157-1.563-.844 0-1.531.234-1.922.656-.265.297-.375.641-.39 1.204h.922c.078-.704.5-1.016 1.343-1.016.829 0 1.297.297 1.297.86v.234c0 .39-.234.546-.953.64-1.297.172-1.5.203-1.86.36-.671.265-1 .78-1 1.53C.469-.405 1.189.25 2.36.25c.72 0 1.297-.25 1.954-.844.062.578.343.844.953.844.171 0 .328-.016.625-.094zM4.282-1.812c0 .312-.093.5-.36.75-.374.343-.827.515-1.374.515-.703 0-1.125-.344-1.125-.922 0-.61.406-.922 1.39-1.062.954-.125 1.157-.172 1.47-.313zm0 0"/></symbol><symbol id="I" overflow="visible"><path d="M2.797-5.766h-.953v-1.578H.937v1.578h-.78v.75h.78v4.36c0 .578.391.906 1.11.906.219 0 .437-.016.75-.078v-.766a1.786 1.786 0 01-.438.047c-.406 0-.515-.11-.515-.515v-3.954h.953zm0 0"/></symbol><symbol id="J" overflow="visible"><path d="M1.656-5.766H.734V0h.922zm0-2.25H.72v1.157h.937zm0 0"/></symbol><symbol id="K" overflow="visible"><path d="M.766-5.766V0h.921v-3.172c0-1.187.625-1.953 1.563-1.953.734 0 1.188.438 1.188 1.125v4h.921v-4.36c0-.952-.718-1.562-1.828-1.562-.86 0-1.406.328-1.922 1.125v-.969zm0 0"/></symbol><symbol id="O" overflow="visible"><path d="M2.016-5.203c-.485 0-.922.219-1.188.578-.344.453-.515 1.156-.515 2.11C.313-.766.905.171 2.016.171c1.093 0 1.703-.938 1.703-2.64 0-1.016-.172-1.688-.516-2.157a1.466 1.466 0 00-1.187-.578zm0 .578c.703 0 1.046.703 1.046 2.094C3.063-1.062 2.72-.36 2-.36 1.312-.36.969-1.08.969-2.5c0-1.422.344-2.125 1.047-2.125zm0 0"/></symbol><symbol id="L" overflow="visible"><path d="M3.703-.64H.97c.078-.422.312-.688.937-1.063l.735-.406C3.375-2.5 3.75-3.031 3.75-3.672c0-.437-.188-.828-.484-1.11-.313-.28-.688-.421-1.188-.421-.656 0-1.14.234-1.437.687-.172.266-.266.594-.282 1.125h.657c.015-.359.062-.562.156-.734.156-.313.5-.5.89-.5.579 0 1.016.406 1.016.969 0 .406-.234.765-.703 1.031l-.672.375C.625-1.64.313-1.14.25 0h3.453zm0 0"/></symbol><symbol id="M" overflow="visible"><path d="M2.39-1.25V0h.657v-1.25h.765v-.578h-.765v-3.375h-.485L.204-1.922v.672zm0-.578H.767L2.39-4.094zm0 0"/></symbol><symbol id="N" overflow="visible"><path d="M.39-1.188c.126.844.672 1.36 1.47 1.36.577 0 1.093-.281 1.39-.75.328-.5.484-1.14.484-2.078 0-.875-.14-1.438-.437-1.89-.297-.423-.75-.657-1.313-.657-1 0-1.703.734-1.703 1.766 0 .953.656 1.64 1.594 1.64.484 0 .844-.172 1.188-.578 0 1.266-.422 1.969-1.157 1.969-.453 0-.765-.281-.875-.781zm1.58-3.436c.61 0 1.062.484 1.062 1.172 0 .625-.453 1.094-1.078 1.094S.937-2.797.937-3.5c0-.656.438-1.125 1.032-1.125zm0 0"/></symbol><symbol id="P" overflow="visible"><path d="M3.484-5.203H.813L.421-2.36h.594c.296-.36.546-.485.953-.485.687 0 1.125.469 1.125 1.235 0 .75-.422 1.203-1.125 1.203-.563 0-.907-.281-1.063-.875H.25c.094.437.172.64.328.828.281.39.813.625 1.406.625 1.047 0 1.782-.766 1.782-1.86 0-1.03-.688-1.734-1.688-1.734-.36 0-.656.094-.953.313l.203-1.454h2.156zm0 0"/></symbol><symbol id="Q" overflow="visible"><path d="M3.656-3.844c-.125-.844-.687-1.36-1.484-1.36-.563 0-1.078.282-1.39.75-.313.5-.47 1.141-.47 2.095C.313-1.5.454-.938.75-.47c.281.406.734.64 1.313.64.984 0 1.703-.734 1.703-1.75 0-.968-.672-1.655-1.594-1.655-.516 0-.922.203-1.203.578.015-1.266.422-1.969 1.156-1.969.469 0 .781.281.875.781zM2.094-2.656c.625 0 1 .422 1 1.125 0 .656-.438 1.125-1.031 1.125-.594 0-1.047-.5-1.047-1.156 0-.657.437-1.094 1.078-1.094zm0 0"/></symbol><clipPath id="R"><path d="M174 112h21v21.066h-21zm0 0"/></clipPath><clipPath id="S"><path d="M194 112h21v21.066h-21zm0 0"/></clipPath><clipPath id="T"><path d="M213 112h22v21.066h-22zm0 0"/></clipPath><clipPath id="U"><path d="M233 112h22v21.066h-22zm0 0"/></clipPath><clipPath id="V"><path d="M253 112h22v21.066h-22zm0 0"/></clipPath><clipPath id="W"><path d="M273 112h21v21.066h-21zm0 0"/></clipPath></defs><g transform="translate(-146.425 -3.664)"><use xlink:href="#a" x="145.706" y="12.633" width="100%" height="100%"/><use xlink:href="#b" x="154.868" y="12.633" width="100%" height="100%"/><use xlink:href="#c" x="160.983" y="12.633" width="100%" height="100%"/></g><use xlink:href="#d" x="165.097" y="12.633" width="100%" height="100%" transform="translate(-146.425 -3.664)"/><use xlink:href="#b" x="171.927" y="12.633" width="100%" height="100%" transform="translate(-146.425 -3.664)"/><use xlink:href="#e" x="178.042" y="12.633" width="100%" height="100%" transform="translate(-146.425 -3.664)"/><use xlink:href="#f" x="182.594" y="12.633" width="100%" height="100%" transform="translate(-146.425 -3.664)"/><use xlink:href="#g" x="189.028" y="12.633" width="100%" height="100%" transform="translate(-146.425 -3.664)"/><use xlink:href="#h" x="196.904" y="12.633" width="100%" height="100%" transform="translate(-146.425 -3.664)"/><use xlink:href="#i" x="203.474" y="12.633" width="100%" height="100%" transform="translate(-146.425 -3.664)"/><use xlink:href="#j" x="208.123" y="12.633" width="100%" height="100%" transform="translate(-146.425 -3.664)" fill="#283acc"/><use xlink:href="#k" x="215.459" y="12.633" width="100%" height="100%" transform="translate(-146.425 -3.664)"/><use xlink:href="#l" x="222.762" y="12.633" width="100%" height="100%" transform="translate(-146.425 -3.664)"/><use xlink:href="#i" x="234.715" y="12.633" width="100%" height="100%" transform="translate(-146.425 -3.664)"/><use xlink:href="#j" x="239.37" y="12.633" width="100%" height="100%" transform="translate(-146.425 -3.664)" fill="#283acc"/><use xlink:href="#k" x="246.706" y="12.633" width="100%" height="100%" transform="translate(-146.425 -3.664)"/><use xlink:href="#m" x="253.352" y="12.633" width="100%" height="100%" transform="translate(-146.425 -3.664)"/><use xlink:href="#m" x="258.658" y="12.633" width="100%" height="100%" transform="translate(-146.425 -3.664)"/><use xlink:href="#m" x="263.975" y="12.633" width="100%" height="100%" transform="translate(-146.425 -3.664)"/><use xlink:href="#n" x="270.62" y="12.633" width="100%" height="100%" transform="translate(-146.425 -3.664)"/><use xlink:href="#i" x="285.887" y="12.633" width="100%" height="100%" transform="translate(-146.425 -3.664)"/><use xlink:href="#j" x="290.541" y="12.633" width="100%" height="100%" transform="translate(-146.425 -3.664)" fill="#283acc"/><use xlink:href="#k" x="297.877" y="12.633" width="100%" height="100%" transform="translate(-146.425 -3.664)"/><use xlink:href="#f" x="162.405" y="26.73" width="100%" height="100%" transform="translate(-146.425 -3.664)"/><use xlink:href="#h" x="172.16" y="26.73" width="100%" height="100%" transform="translate(-146.425 -3.664)"/><use xlink:href="#j" x="178.733" y="26.73" width="100%" height="100%" transform="translate(-146.425 -3.664)" fill="#283acc"/><use xlink:href="#l" x="188.725" y="26.73" width="100%" height="100%" transform="translate(-146.425 -3.664)"/><use xlink:href="#j" x="200.681" y="26.73" width="100%" height="100%" transform="translate(-146.425 -3.664)" fill="#283acc"/><use xlink:href="#n" x="211.337" y="26.73" width="100%" height="100%" transform="translate(-146.425 -3.664)"/><use xlink:href="#o" x="226.616" y="26.73" width="100%" height="100%" transform="translate(-146.425 -3.664)"/><use xlink:href="#p" x="232.591" y="26.73" width="100%" height="100%" transform="translate(-146.425 -3.664)"/><g transform="translate(-146.425 -3.664)"><use xlink:href="#q" x="235.319" y="26.73" width="100%" height="100%"/><use xlink:href="#r" x="241.434" y="26.73" width="100%" height="100%"/><use xlink:href="#s" x="243.876" y="26.73" width="100%" height="100%"/><use xlink:href="#t" x="249.375" y="26.73" width="100%" height="100%"/></g><use xlink:href="#u" x="255.49" y="26.73" width="100%" height="100%" transform="translate(-146.425 -3.664)"/><g transform="translate(-146.425 -3.664)"><use xlink:href="#v" x="260.734" y="26.73" width="100%" height="100%"/><use xlink:href="#w" x="263.792" y="26.73" width="100%" height="100%"/></g><g transform="translate(-146.425 -3.664)"><use xlink:href="#x" x="267.619" y="26.73" width="100%" height="100%"/><use xlink:href="#t" x="273.734" y="26.73" width="100%" height="100%"/></g><use xlink:href="#y" x="279.85" y="26.73" width="100%" height="100%" transform="translate(-146.425 -3.664)"/><g transform="translate(-146.425 -3.664)"><use xlink:href="#z" x="191.096" y="40.179" width="100%" height="100%"/><use xlink:href="#A" x="194.759" y="40.179" width="100%" height="100%"/><use xlink:href="#B" x="197.2" y="40.179" width="100%" height="100%"/><use xlink:href="#C" x="203.316" y="40.179" width="100%" height="100%"/><use xlink:href="#C" x="208.815" y="40.179" width="100%" height="100%"/><use xlink:href="#D" x="214.314" y="40.179" width="100%" height="100%"/></g><g transform="translate(-146.425 -3.664)"><use xlink:href="#E" x="221.034" y="40.179" width="100%" height="100%"/><use xlink:href="#F" x="227.15" y="40.179" width="100%" height="100%"/><use xlink:href="#G" x="230.812" y="40.179" width="100%" height="100%"/><use xlink:href="#B" x="236.928" y="40.179" width="100%" height="100%"/><use xlink:href="#F" x="243.043" y="40.179" width="100%" height="100%"/></g><g transform="translate(-146.425 -3.664)"><use xlink:href="#F" x="249.763" y="40.179" width="100%" height="100%"/><use xlink:href="#B" x="253.426" y="40.179" width="100%" height="100%"/><use xlink:href="#A" x="259.541" y="40.179" width="100%" height="100%"/><use xlink:href="#H" x="261.983" y="40.179" width="100%" height="100%"/><use xlink:href="#I" x="268.098" y="40.179" width="100%" height="100%"/><use xlink:href="#J" x="271.156" y="40.179" width="100%" height="100%"/><use xlink:href="#E" x="273.597" y="40.179" width="100%" height="100%"/><use xlink:href="#K" x="279.713" y="40.179" width="100%" height="100%"/></g><path d="M47.93 49.734H28.088v19.84h19.844zm0 0" fill="#d4d7f5" stroke="#000" stroke-width=".598" stroke-miterlimit="10"/><use xlink:href="#q" x="179.086" y="65.358" width="100%" height="100%" transform="translate(-146.425 -3.664)"/><use xlink:href="#L" x="185.202" y="67.151" width="100%" height="100%" transform="translate(-146.425 -3.664)"/><path d="M67.774 49.734H47.931v19.84h19.843zm0 0" fill="#d4d7f5" stroke="#000" stroke-width=".598" stroke-miterlimit="10"/><use xlink:href="#q" x="198.929" y="65.358" width="100%" height="100%" transform="translate(-146.425 -3.664)"/><use xlink:href="#M" x="205.044" y="67.151" width="100%" height="100%" transform="translate(-146.425 -3.664)"/><path d="M87.614 49.734h-19.84v19.84h19.84zm0 0" fill="#d4d7f5" stroke="#000" stroke-width=".598" stroke-miterlimit="10"/><use xlink:href="#q" x="218.772" y="65.283" width="100%" height="100%" transform="translate(-146.425 -3.664)"/><use xlink:href="#N" x="224.887" y="67.076" width="100%" height="100%" transform="translate(-146.425 -3.664)"/><path d="M47.93 73.543H28.088v19.844h19.844zm0 0" fill="#d4d7f5" stroke="#000" stroke-width=".598" stroke-miterlimit="10"/><use xlink:href="#q" x="179.086" y="89.094" width="100%" height="100%" transform="translate(-146.425 -3.664)"/><use xlink:href="#O" x="185.202" y="90.887" width="100%" height="100%" transform="translate(-146.425 -3.664)"/><path d="M67.774 73.543H47.931v19.844h19.843zm0 0" fill="#d4d7f5" stroke="#000" stroke-width=".598" stroke-miterlimit="10"/><use xlink:href="#q" x="198.929" y="89.094" width="100%" height="100%" transform="translate(-146.425 -3.664)"/><use xlink:href="#P" x="205.044" y="90.887" width="100%" height="100%" transform="translate(-146.425 -3.664)"/><path d="M87.614 73.543h-19.84v19.844h19.84zm0 0" fill="#d4d7f5" stroke="#000" stroke-width=".598" stroke-miterlimit="10"/><use xlink:href="#q" x="218.772" y="89.094" width="100%" height="100%" transform="translate(-146.425 -3.664)"/><use xlink:href="#Q" x="224.887" y="90.887" width="100%" height="100%" transform="translate(-146.425 -3.664)"/><path d="M47.93 109.262H28.088v19.84h19.844zm0 0" fill="#d4d7f5"/><g transform="translate(-146.425 -3.664)" clip-path="url(#R)"><path d="M194.355 112.926h-19.843v19.84h19.843zm0 0" fill="none" stroke="#000" stroke-width=".598" stroke-miterlimit="10"/></g><use xlink:href="#q" x="179.086" y="124.811" width="100%" height="100%" transform="translate(-146.425 -3.664)"/><use xlink:href="#O" x="185.202" y="126.604" width="100%" height="100%" transform="translate(-146.425 -3.664)"/><path d="M38.009 93.597c.21 1.188 0 14.25 0 14.657" fill="none" stroke="#000" stroke-width=".797" stroke-miterlimit="10"/><path d="M41.118 106.101c-1.863.47-2.746 1.508-3.11 2.551-.362-1.043-1.245-2.082-3.109-2.55" fill="none" stroke="#000" stroke-width=".797" stroke-linecap="round" stroke-linejoin="round" stroke-miterlimit="10"/><path d="M67.774 109.262H47.931v19.84h19.843zm0 0" fill="#d4d7f5"/><g transform="translate(-146.425 -3.664)" clip-path="url(#S)"><path d="M214.2 112.926h-19.845v19.84H214.2zm0 0" fill="none" stroke="#000" stroke-width=".598" stroke-miterlimit="10"/></g><use xlink:href="#q" x="198.929" y="124.886" width="100%" height="100%" transform="translate(-146.425 -3.664)"/><use xlink:href="#L" x="205.044" y="126.679" width="100%" height="100%" transform="translate(-146.425 -3.664)"/><path d="M38.009 69.785c.598 3.383 19.844 35.832 19.844 38.469" fill="none" stroke="#000" stroke-width=".797" stroke-miterlimit="10"/><path d="M60.962 106.101c-1.867.47-2.746 1.508-3.11 2.551-.363-1.043-1.245-2.082-3.113-2.55" fill="none" stroke="#000" stroke-width=".797" stroke-linecap="round" stroke-linejoin="round" stroke-miterlimit="10"/><path d="M87.614 109.262h-19.84v19.84h19.84zm0 0" fill="#d4d7f5"/><g transform="translate(-146.425 -3.664)" clip-path="url(#T)"><path d="M234.04 112.926H214.2v19.84h19.84zm0 0" fill="none" stroke="#000" stroke-width=".598" stroke-miterlimit="10"/></g><use xlink:href="#q" x="218.772" y="124.886" width="100%" height="100%" transform="translate(-146.425 -3.664)"/><use xlink:href="#M" x="224.887" y="126.679" width="100%" height="100%" transform="translate(-146.425 -3.664)"/><path d="M57.853 69.785c.597 3.383 19.843 35.832 19.843 38.469" fill="none" stroke="#000" stroke-width=".797" stroke-miterlimit="10"/><path d="M80.806 106.101c-1.867.47-2.746 1.508-3.11 2.551-.363-1.043-1.246-2.082-3.113-2.55" fill="none" stroke="#000" stroke-width=".797" stroke-linecap="round" stroke-linejoin="round" stroke-miterlimit="10"/><path d="M107.458 109.262H87.614v19.84h19.844zm0 0" fill="#d4d7f5"/><g transform="translate(-146.425 -3.664)" clip-path="url(#U)"><path d="M253.883 112.926h-19.844v19.84h19.844zm0 0" fill="none" stroke="#000" stroke-width=".598" stroke-miterlimit="10"/></g><use xlink:href="#q" x="238.615" y="124.811" width="100%" height="100%" transform="translate(-146.425 -3.664)"/><use xlink:href="#P" x="244.73" y="126.604" width="100%" height="100%" transform="translate(-146.425 -3.664)"/><path d="M57.853 93.597c.578 3.278 39.683 12.125 39.683 14.657" fill="none" stroke="#000" stroke-width=".797" stroke-miterlimit="10"/><path d="M100.65 106.101c-1.868.47-2.75 1.508-3.114 2.551-.36-1.043-1.242-2.082-3.11-2.55" fill="none" stroke="#000" stroke-width=".797" stroke-linecap="round" stroke-linejoin="round" stroke-miterlimit="10"/><path d="M127.302 109.262h-19.844v19.84h19.844zm0 0" fill="#d4d7f5"/><g transform="translate(-146.425 -3.664)" clip-path="url(#V)"><path d="M273.727 112.926h-19.844v19.84h19.844zm0 0" fill="none" stroke="#000" stroke-width=".598" stroke-miterlimit="10"/></g><use xlink:href="#q" x="258.458" y="124.811" width="100%" height="100%" transform="translate(-146.425 -3.664)"/><use xlink:href="#Q" x="264.573" y="126.604" width="100%" height="100%" transform="translate(-146.425 -3.664)"/><path d="M77.696 93.597c.578 3.278 39.684 12.125 39.684 14.657" fill="none" stroke="#000" stroke-width=".797" stroke-miterlimit="10"/><path d="M120.493 106.101c-1.867.47-2.75 1.508-3.113 2.551-.363-1.043-1.242-2.082-3.11-2.55" fill="none" stroke="#000" stroke-width=".797" stroke-linecap="round" stroke-linejoin="round" stroke-miterlimit="10"/><path d="M147.142 109.262h-19.84v19.84h19.84zm0 0" fill="#d4d7f5"/><g transform="translate(-146.425 -3.664)" clip-path="url(#W)"><path d="M293.566 112.926h-19.84v19.84h19.84zm0 0" fill="none" stroke="#000" stroke-width=".598" stroke-miterlimit="10"/></g><use xlink:href="#q" x="278.3" y="124.811" width="100%" height="100%" transform="translate(-146.425 -3.664)"/><use xlink:href="#N" x="284.416" y="126.604" width="100%" height="100%" transform="translate(-146.425 -3.664)"/><path d="M77.696 69.785c.965 5.492 59.528 33.691 59.528 38.469" fill="none" stroke="#000" stroke-width=".797" stroke-miterlimit="10"/><path d="M140.333 106.101c-1.863.47-2.746 1.508-3.11 2.551-.363-1.043-1.241-2.082-3.109-2.55" fill="none" stroke="#000" stroke-width=".797" stroke-linecap="round" stroke-linejoin="round" stroke-miterlimit="10"/></svg>