<svg xmlns="http://www.w3.org/2000/svg" xmlns:xlink="http://www.w3.org/1999/xlink" version="1.2" viewBox="0 0 199.023 192.691" height="256.922" width="265.364"><defs><symbol id="b" overflow="visible"><path d="M5.766-2.484c.015-.141.015-.188.015-.266a5.06 5.06 0 00-.234-1.563C5.14-5.39 4.187-6.03 2.984-6.03c-1.703 0-2.75 1.218-2.75 3.218C.234-.905 1.281.25 2.954.25c1.343 0 2.421-.75 2.75-1.922H4.187c-.188.469-.61.75-1.172.75-.438 0-.797-.187-1.016-.515-.14-.22-.203-.485-.219-1.047zm-3.97-1.032c.11-.89.485-1.343 1.173-1.343.39 0 .734.187.953.5.14.218.219.437.25.843zm0 0"/></symbol><symbol id="v" overflow="visible"><path d="M4.266-5.766L2.672-1.28 1.203-5.766H.22L2.172.016l-.36.921c-.14.407-.343.563-.734.563-.125 0-.281-.031-.484-.063v.813c.187.11.375.14.61.14.296 0 .624-.093.859-.265.296-.219.453-.453.624-.922l2.579-6.969zm0 0"/></symbol><symbol id="c" overflow="visible"><path d="M4.453 0H6v-8.016H4.453v2.844c-.39-.594-.906-.86-1.64-.86-1.422 0-2.5 1.36-2.5 3.157 0 .797.25 1.61.64 2.188.406.562 1.14.937 1.86.937.734 0 1.25-.266 1.64-.86zM3.156-4.75c.781 0 1.297.75 1.297 1.89 0 1.079-.531 1.829-1.297 1.829-.765 0-1.297-.766-1.297-1.844 0-1.11.532-1.875 1.297-1.875zm0 0"/></symbol><symbol id="d" overflow="visible"><path d="M5.953 0v-5.938H4.406v3.72c0 .702-.484 1.155-1.234 1.155-.656 0-1-.343-1-1.062v-3.813H.64v4.141C.64-.5 1.359.25 2.625.25c.813 0 1.344-.297 1.781-.953V0zm0 0"/></symbol><symbol id="e" overflow="visible"><path d="M5.734-3.719C5.625-5.172 4.656-6.03 3.172-6.03 1.406-6.031.375-4.875.375-2.844.375-.89 1.391.25 3.156.25c1.438 0 2.438-.89 2.578-2.313H4.266c-.204.782-.5 1.079-1.094 1.079-.781 0-1.266-.704-1.266-1.86 0-.562.125-1.094.313-1.453.172-.328.515-.5.953-.5.625 0 .922.297 1.094 1.078zm0 0"/></symbol><symbol id="f" overflow="visible"><path d="M.906 0h3.61c.921 0 1.53-.172 2.015-.578.485-.406.797-1.094.797-1.735 0-.796-.437-1.421-1.328-1.937.781-.516 1.094-.969 1.094-1.656 0-.547-.282-1.14-.719-1.532-.484-.406-1.047-.578-1.89-.578H.905zm1.64-6.64h1.798c.765 0 1.172.312 1.172.906 0 .593-.407.906-1.172.906H2.547zm0 3.187h1.97c.812 0 1.218.36 1.218 1.047 0 .672-.406 1.031-1.218 1.031h-1.97zm0 0"/></symbol><symbol id="g" overflow="visible"><path d="M4.328-5.938L3.11-1.609 1.797-5.938H.094L2.313.234v.047c0 .563-.422 1-.954 1a1.14 1.14 0 01-.406-.078V2.36c.219.032.36.047.547.047.375 0 .844-.078 1.11-.187.421-.172.609-.422.859-1.125l2.453-7.032zm0 0"/></symbol><symbol id="h" overflow="visible"><path d="M2.469-2.688l.812-.859L5.921 0h1.97L4.344-4.563l3.203-3.453H5.594L2.469-4.5v-3.516H.813V0h1.656zm0 0"/></symbol><symbol id="i" overflow="visible"><path d="M3.172-8.969C1.39-7.359.937-4.938.937-2.984c0 2.093.516 4.437 2.235 5.984h.719C3.437 2.562 2.703 1.64 2.28.281c-.328-1.062-.437-2.172-.437-3.25 0-3.531 1.25-5.25 2.047-6zm0 0"/></symbol><symbol id="m" overflow="visible"><path d="M1.36 3c1.796-1.594 2.25-4.031 2.25-5.969 0-2.11-.516-4.453-2.25-6H.64c.47.438 1.204 1.36 1.626 2.719.312 1.063.437 2.172.437 3.266C2.703.53 1.453 2.266.641 3zm0 0"/></symbol><symbol id="n" overflow="visible"><path d="M2.11-5.313h-.97v.97h.97zM1.14-.968V0h.97v-.969zm0 0"/></symbol><symbol id="j" overflow="visible"><path d="M3.266-8.016h-.922L.64 0h.921l.47-2.234 1.187-.97L4.469 0h1.047L3.984-3.766l2.438-2H5.234L2.281-3.359zm0 0"/></symbol><symbol id="l" overflow="visible"><path d="M1.984-5.766L.766 0h.921l.641-2.984C2.61-4.328 3.391-5 4.594-4.97l.203-.922c-.14-.03-.234-.03-.36-.03-.625 0-1.125.28-1.812 1.062l.188-.907zm0 0"/></symbol><symbol id="p" overflow="visible"><path d="M5.766-2.406L6.062 0h1.125L6.079-8.016H4.75L.187 0h1.094l1.344-2.406zm-.11-.86H3.11l2.11-3.671zm0 0"/></symbol><symbol id="s" overflow="visible"><path d="M2.484-2.734l1.704-1.407L6.03 0h1.203L4.97-4.734l3.968-3.282H7.625l-4.89 4.094.874-4.094H2.58L.874 0h1.031zm0 0"/></symbol><symbol id="k" overflow="visible"><path d="M2.328.047c0-.688-.219-1.203-.719-1.203-.375 0-.562.312-.562.578 0 .25.172.578.578.578a.518.518 0 00.39-.156c.032-.016.047-.016.047-.016s.032.156.032.219c0 .39-.078 1.172-.766 1.953-.14.14-.14.188-.14.188 0 .062.062.124.125.124.093 0 1.015-.89 1.015-2.265zm0 0"/></symbol><symbol id="o" overflow="visible"><path d="M3.969 2.75s0-.078-.063-.219L1.812-2.984l2.094-5.532c.063-.14.063-.203.063-.203 0-.14-.11-.25-.235-.25-.156 0-.203.11-.25.25L1.375-3.203c-.063.14-.063.219-.063.219s0 .062.063.218L3.469 2.72c.062.156.094.265.265.265a.24.24 0 00.235-.234zm0 0"/></symbol><symbol id="q" overflow="visible"><path d="M3.328-2.984s0-.079-.062-.22l-2.094-5.5c-.063-.14-.094-.265-.266-.265-.125 0-.234.11-.234.25 0 0 0 .063.062.203l2.094 5.532L.734 2.53c-.062.14-.062.219-.062.219 0 .125.11.234.234.234.156 0 .203-.109.25-.234l2.11-5.516c.062-.156.062-.218.062-.218zm0 0"/></symbol><symbol id="r" overflow="visible"><path d="M11.266-2.984a.136.136 0 00-.094-.125A3.744 3.744 0 018.719-6c0-.063-.063-.11-.125-.11h-.219c-.063 0-.125.063-.125.157a4.259 4.259 0 001.703 2.719H.906c-.172 0-.25.125-.25.25 0 .109.078.234.25.234h9.047A4.259 4.259 0 008.25-.031c0 .11.063.156.125.156h.219c.062 0 .125-.047.125-.094a3.766 3.766 0 012.453-2.906c.047 0 .094-.047.094-.11zm0 0"/></symbol><symbol id="C" overflow="visible"><path d="M7.531-.344c0-.094-.031-.125-.156-.25L5-2.984l2.375-2.391c.125-.14.156-.156.156-.25 0-.14-.11-.25-.234-.25-.094 0-.156.047-.25.156l-2.39 2.39-2.407-2.39c-.14-.125-.156-.156-.25-.156-.125 0-.25.11-.25.25 0 .094.063.14.156.25l2.39 2.39-2.39 2.376c-.11.125-.156.187-.156.265 0 .125.125.235.25.235.094 0 .11-.016.25-.157l2.39-2.39 2.391 2.39c.11.125.188.157.266.157a.23.23 0 00.234-.235zm0 0"/></symbol><symbol id="t" overflow="visible"><path d="M1.547-8.016H.64V0h.906v-2.25l.89-.875L4.391 0h1.125L3.172-3.766l2-2H4L1.547-3.328zm0 0"/></symbol><symbol id="u" overflow="visible"><path d="M5.64-2.578c0-.875-.062-1.406-.234-1.828-.375-.953-1.25-1.516-2.328-1.516-1.61 0-2.64 1.219-2.64 3.11 0 1.906 1 3.062 2.624 3.062 1.313 0 2.235-.75 2.454-2h-.922c-.25.766-.766 1.156-1.5 1.156a1.61 1.61 0 01-1.39-.75c-.22-.328-.298-.656-.313-1.234zm-4.218-.75c.078-1.063.719-1.75 1.64-1.75.907 0 1.594.75 1.594 1.687v.063zm0 0"/></symbol><symbol id="a" overflow="visible"><path d="M2.531-3.172h1.89c.72 0 1.016.281 1.016.953v.313c-.015.218-.015.406-.015.531 0 .75.047.984.25 1.375h1.781v-.297c-.266-.14-.36-.312-.36-.656C7.048-3.328 7-3.438 5.985-3.875c.907-.344 1.36-1 1.36-1.984 0-.625-.235-1.22-.61-1.61-.359-.375-.875-.547-1.546-.547H.875V0h1.656zm0-1.375V-6.64h1.985c.484 0 .671.047.875.204.203.171.296.437.296.812 0 .39-.109.703-.296.86-.172.156-.391.218-.875.218zm0 0"/></symbol><symbol id="w" overflow="visible"><path d="M3.219-2.984L5.14-5.766H4.109L2.734-3.672l-1.39-2.094H.297l1.922 2.829L.188 0h1.046l1.454-2.219L4.14 0h1.062zm0 0"/></symbol><symbol id="x" overflow="visible"><path d="M2.797-5.766h-.953v-1.578H.937v1.578h-.78v.75h.78v4.36c0 .578.391.906 1.11.906.219 0 .437-.016.75-.078v-.766a1.786 1.786 0 01-.438.047c-.406 0-.515-.11-.515-.515v-3.954h.953zm0 0"/></symbol><symbol id="y" overflow="visible"><path d="M.766-5.766V0h.921v-2.984c0-.829.204-1.375.641-1.688.297-.219.563-.281 1.203-.297v-.922c-.156-.03-.234-.03-.36-.03-.593 0-1.03.343-1.562 1.202v-1.047zm0 0"/></symbol><symbol id="z" overflow="visible"><path d="M5.89-.531c-.109.015-.156.015-.202.015-.313 0-.5-.171-.5-.453v-3.39c0-1.016-.75-1.563-2.157-1.563-.844 0-1.531.234-1.922.656-.265.297-.375.641-.39 1.204h.922c.078-.704.5-1.016 1.343-1.016.829 0 1.297.297 1.297.86v.234c0 .39-.234.546-.953.64-1.297.172-1.5.203-1.86.36-.671.265-1 .78-1 1.53C.469-.405 1.189.25 2.36.25c.72 0 1.297-.25 1.954-.844.062.578.343.844.953.844.171 0 .328-.016.625-.094zM4.282-1.812c0 .312-.093.5-.36.75-.374.343-.827.515-1.374.515-.703 0-1.125-.344-1.125-.922 0-.61.406-.922 1.39-1.062.954-.125 1.157-.172 1.47-.313zm0 0"/></symbol><symbol id="A" overflow="visible"><path d="M5.188-3.828c-.047-.563-.172-.922-.391-1.25-.39-.531-1.094-.844-1.89-.844-1.548 0-2.563 1.219-2.563 3.14C.344-.921 1.328.25 2.89.25c1.375 0 2.25-.828 2.359-2.234h-.922c-.156.921-.625 1.39-1.406 1.39-1.016 0-1.625-.828-1.625-2.187 0-1.438.594-2.297 1.594-2.297.765 0 1.25.453 1.359 1.25zm0 0"/></symbol><symbol id="B" overflow="visible"><path d="M2.984-5.922c-1.609 0-2.593 1.14-2.593 3.078S1.359.25 3 .25c1.625 0 2.61-1.156 2.61-3.047 0-1.984-.954-3.125-2.626-3.125zM3-5.078c1.031 0 1.656.844 1.656 2.266 0 1.359-.64 2.218-1.656 2.218s-1.64-.844-1.64-2.25c0-1.375.624-2.234 1.64-2.234zm0 0"/></symbol><symbol id="D" overflow="visible"><path d="M5.438-8.016H4.53v2.985c-.39-.594-1-.89-1.765-.89-1.5 0-2.485 1.187-2.485 3.03C.281-.953 1.25.25 2.797.25c.797 0 1.344-.297 1.828-1.016V0h.813zM2.921-5.078c.984 0 1.61.89 1.61 2.266 0 1.328-.641 2.203-1.61 2.203C1.906-.61 1.25-1.5 1.25-2.844c0-1.344.656-2.234 1.672-2.234zm0 0"/></symbol><symbol id="E" overflow="visible"><path d="M5.297 0v-5.766H4.39V-2.5c0 1.188-.625 1.953-1.579 1.953-.718 0-1.187-.437-1.187-1.14v-4.079H.719v4.454C.719-.36 1.438.25 2.547.25c.86 0 1.39-.297 1.937-1.047V0zm0 0"/></symbol><symbol id="F" overflow="visible"><path d="M1.656-5.766H.734V0h.922zm0-2.25H.72v1.157h.937zm0 0"/></symbol><symbol id="G" overflow="visible"><path d="M.766-5.766V0h.921v-3.172c0-1.187.625-1.953 1.563-1.953.734 0 1.188.438 1.188 1.125v4h.921v-4.36c0-.952-.718-1.562-1.828-1.562-.86 0-1.406.328-1.922 1.125v-.969zm0 0"/></symbol><symbol id="H" overflow="visible"><path d="M3.813-5.203H.342v.64H3.14C1.906-2.796 1.406-1.703 1.016 0h.687c.281-1.656.938-3.094 2.11-4.656zm0 0"/></symbol><symbol id="I" overflow="visible"><path d="M2.39-1.25V0h.657v-1.25h.765v-.578h-.765v-3.375h-.485L.204-1.922v.672zm0-.578H.767L2.39-4.094zm0 0"/></symbol><symbol id="J" overflow="visible"><path d="M1.625-2.375h.078l.266-.016c.718 0 1.078.329 1.078.954 0 .64-.406 1.03-1.078 1.03C1.266-.406.922-.75.875-1.515h-.64c.03.422.109.688.234.922.25.5.765.766 1.484.766 1.063 0 1.75-.64 1.75-1.625 0-.656-.25-1.031-.875-1.234.485-.188.719-.563.719-1.079 0-.89-.594-1.437-1.578-1.437-1.047 0-1.61.578-1.625 1.687h.64c.016-.312.047-.5.125-.656.141-.281.47-.453.875-.453.563 0 .907.328.907.875 0 .375-.125.594-.407.703-.187.078-.406.11-.859.11zm0 0"/></symbol><symbol id="K" overflow="visible"><path d="M.39-1.188c.126.844.672 1.36 1.47 1.36.577 0 1.093-.281 1.39-.75.328-.5.484-1.14.484-2.078 0-.875-.14-1.438-.437-1.89-.297-.423-.75-.657-1.313-.657-1 0-1.703.734-1.703 1.766 0 .953.656 1.64 1.594 1.64.484 0 .844-.172 1.188-.578 0 1.266-.422 1.969-1.157 1.969-.453 0-.765-.281-.875-.781zm1.58-3.436c.61 0 1.062.484 1.062 1.172 0 .625-.453 1.094-1.078 1.094S.937-2.797.937-3.5c0-.656.438-1.125 1.032-1.125zm0 0"/></symbol><symbol id="L" overflow="visible"><path d="M3.703-.64H.97c.078-.422.312-.688.937-1.063l.735-.406C3.375-2.5 3.75-3.031 3.75-3.672c0-.437-.188-.828-.484-1.11-.313-.28-.688-.421-1.188-.421-.656 0-1.14.234-1.437.687-.172.266-.266.594-.282 1.125h.657c.015-.359.062-.562.156-.734.156-.313.5-.5.89-.5.579 0 1.016.406 1.016.969 0 .406-.234.765-.703 1.031l-.672.375C.625-1.64.313-1.14.25 0h3.453zm0 0"/></symbol><symbol id="M" overflow="visible"><path d="M2.953-8.172c-.344.313-1.078.985-1.578 2.328C.937-4.672.859-3.516.859-2.719.86.797 2.438 2.25 2.953 2.72h.672C3.094 2.203 1.719.797 1.719-2.72c0-.625.031-1.89.468-3.187.454-1.266 1.079-1.907 1.438-2.266zm0 0"/></symbol><symbol id="O" overflow="visible"><path d="M1.281 2.719C1.625 2.406 2.36 1.734 2.86.39c.438-1.172.516-2.329.516-3.11 0-3.531-1.578-4.984-2.094-5.453H.61c.532.516 1.907 1.922 1.907 5.453 0 .61-.032 1.875-.47 3.172C1.595 1.72.97 2.36.61 2.72zm0 0"/></symbol><symbol id="N" overflow="visible"><path d="M2.984-7.313h-.843L.578 0h.844l.437-2.031 1.063-.89L4.078 0h.953L3.625-3.438 5.859-5.25H4.781L2.078-3.062zm0 0"/></symbol></defs><use xlink:href="#a" x="20.862" y="12.632" width="100%" height="100%" transform="translate(-1.971 -3.663)"/><use xlink:href="#b" x="28.803" y="12.632" width="100%" height="100%" transform="translate(-1.971 -3.663)"/><use xlink:href="#c" x="34.918" y="12.632" width="100%" height="100%" transform="translate(-1.971 -3.663)"/><use xlink:href="#d" x="41.639" y="12.632" width="100%" height="100%" transform="translate(-1.971 -3.663)"/><use xlink:href="#e" x="48.359" y="12.632" width="100%" height="100%" transform="translate(-1.971 -3.663)"/><use xlink:href="#b" x="54.474" y="12.632" width="100%" height="100%" transform="translate(-1.971 -3.663)"/><use xlink:href="#f" x="60.589" y="12.632" width="100%" height="100%" transform="translate(-1.971 -3.663)"/><use xlink:href="#g" x="68.53" y="12.632" width="100%" height="100%" transform="translate(-1.971 -3.663)"/><use xlink:href="#h" x="74.646" y="12.632" width="100%" height="100%" transform="translate(-1.971 -3.663)"/><use height="100%" width="100%" y="12.632" x="82.422" xlink:href="#b" transform="translate(-1.971 -3.663)"/><use height="100%" width="100%" y="12.632" x="88.372" xlink:href="#g" transform="translate(-1.971 -3.663)"/><use height="100%" width="100%" y="12.632" x="94.487" xlink:href="#i" transform="translate(-1.971 -3.663)"/><use height="100%" width="100%" y="12.632" x="99.039" xlink:href="#j" transform="translate(-1.971 -3.663)"/><use height="100%" width="100%" y="12.632" x="105.644" xlink:href="#k" transform="translate(-1.971 -3.663)"/><use height="100%" width="100%" y="12.632" x="110.888" xlink:href="#l" transform="translate(-1.971 -3.663)"/><use height="100%" width="100%" y="12.632" x="115.788" xlink:href="#m" transform="translate(-1.971 -3.663)"/><use height="100%" width="100%" y="12.632" x="123.664" xlink:href="#n" transform="translate(-1.971 -3.663)"/><use height="100%" width="100%" y="12.632" x="130.234" xlink:href="#o" transform="translate(-1.971 -3.663)"/><use height="100%" width="100%" y="12.632" x="134.883" xlink:href="#p" transform="translate(-1.971 -3.663)" fill="#283acc"/><use height="100%" width="100%" y="12.632" x="142.219" xlink:href="#q" transform="translate(-1.971 -3.663)"/><use height="100%" width="100%" y="12.632" x="150.192" xlink:href="#r" transform="translate(-1.971 -3.663)"/><use height="100%" width="100%" y="12.632" x="165.471" xlink:href="#o" transform="translate(-1.971 -3.663)"/><use height="100%" width="100%" y="12.632" x="170.114" xlink:href="#p" transform="translate(-1.971 -3.663)" fill="#283acc"/><use height="100%" width="100%" y="12.632" x="177.45" xlink:href="#q" transform="translate(-1.971 -3.663)"/><use height="100%" width="100%" y="26.729" x="29.604" xlink:href="#j" transform="translate(-1.971 -3.663)"/><use height="100%" width="100%" y="26.729" x="39.529" xlink:href="#n" transform="translate(-1.971 -3.663)"/><use height="100%" width="100%" y="26.729" x="46.102" xlink:href="#p" transform="translate(-1.971 -3.663)" fill="#283acc"/><use height="100%" width="100%" y="26.729" x="56.759" xlink:href="#r" transform="translate(-1.971 -3.663)"/><use height="100%" width="100%" y="26.729" x="72.035" xlink:href="#s" transform="translate(-1.971 -3.663)"/><use height="100%" width="100%" y="26.729" x="111.281" xlink:href="#t" transform="translate(-1.971 -3.663)"/><use height="100%" width="100%" y="26.729" x="116.56" xlink:href="#u" transform="translate(-1.971 -3.663)"/><use height="100%" width="100%" y="26.729" x="122.456" xlink:href="#v" transform="translate(-1.971 -3.663)"/><use height="100%" width="100%" y="26.729" x="131.013" xlink:href="#u" transform="translate(-1.971 -3.663)"/><use xlink:href="#w" x="136.798" y="26.729" width="100%" height="100%" transform="translate(-1.971 -3.663)"/><use xlink:href="#x" x="142.297" y="26.729" width="100%" height="100%" transform="translate(-1.971 -3.663)"/><use xlink:href="#y" x="145.355" y="26.729" width="100%" height="100%" transform="translate(-1.971 -3.663)"/><use xlink:href="#z" x="148.908" y="26.729" width="100%" height="100%" transform="translate(-1.971 -3.663)"/><use xlink:href="#A" x="155.023" y="26.729" width="100%" height="100%" transform="translate(-1.971 -3.663)"/><use xlink:href="#x" x="160.522" y="26.729" width="100%" height="100%" transform="translate(-1.971 -3.663)"/><use xlink:href="#B" x="163.58" y="26.729" width="100%" height="100%" transform="translate(-1.971 -3.663)"/><use xlink:href="#y" x="169.695" y="26.729" width="100%" height="100%" transform="translate(-1.971 -3.663)"/><use height="100%" width="100%" y="40.179" x="31.309" xlink:href="#l" transform="translate(-1.971 -3.663)"/><use height="100%" width="100%" y="40.179" x="39.529" xlink:href="#n" transform="translate(-1.971 -3.663)"/><use height="100%" width="100%" y="40.179" x="46.102" xlink:href="#p" transform="translate(-1.971 -3.663)" fill="#283acc"/><use height="100%" width="100%" y="40.179" x="56.095" xlink:href="#C" transform="translate(-1.971 -3.663)"/><use height="100%" width="100%" y="40.179" x="68.05" xlink:href="#p" transform="translate(-1.971 -3.663)" fill="#283acc"/><use height="100%" width="100%" y="40.179" x="78.707" xlink:href="#r" transform="translate(-1.971 -3.663)"/><use height="100%" width="100%" y="40.179" x="93.983" xlink:href="#p" transform="translate(-1.971 -3.663)" fill="#283acc"/><use xlink:href="#y" x="111.281" y="40.179" width="100%" height="100%" transform="translate(-1.971 -3.663)"/><use xlink:href="#u" x="114.944" y="40.179" width="100%" height="100%" transform="translate(-1.971 -3.663)"/><use xlink:href="#D" x="121.059" y="40.179" width="100%" height="100%" transform="translate(-1.971 -3.663)"/><use xlink:href="#E" x="127.174" y="40.179" width="100%" height="100%" transform="translate(-1.971 -3.663)"/><use xlink:href="#A" x="133.289" y="40.179" width="100%" height="100%" transform="translate(-1.971 -3.663)"/><use xlink:href="#x" x="138.789" y="40.179" width="100%" height="100%" transform="translate(-1.971 -3.663)"/><use xlink:href="#F" x="141.846" y="40.179" width="100%" height="100%" transform="translate(-1.971 -3.663)"/><use xlink:href="#B" x="144.288" y="40.179" width="100%" height="100%" transform="translate(-1.971 -3.663)"/><use xlink:href="#G" x="150.403" y="40.179" width="100%" height="100%" transform="translate(-1.971 -3.663)"/><path d="M20.142 59.653H.299v19.844h19.843zm19.84 0h-19.84v19.844h19.84zm19.844 0H39.982v19.844h19.844zm19.843 0H59.827v19.844h19.842zm19.84 0h-19.84v19.844h19.84zm19.844 0H99.509v19.844h19.844zm19.844 0h-19.844v19.844h19.844zm19.844 0h-19.844v19.844h19.844zm19.84 0h-19.84v19.844h19.84zm19.843 0h-19.843v19.844h19.843zM59.826 158.868H39.982v19.844h19.844zm19.843 0H59.827v19.844h19.842zm19.84 0h-19.84v19.844h19.84zm19.844 0H99.509v19.844h19.844zm19.844 0h-19.844v19.844h19.844zm0 0" stroke-miterlimit="10" fill="#d4d7f5" stroke="#000" stroke-width=".598"/><path d="M10.22 79.708L6.904 94.802" stroke-miterlimit="10" fill="none" stroke="#000" stroke-width=".797"/><path d="M10.404 93.368c-1.926.055-3.008.88-3.586 1.824-.129-1.101-.77-2.304-2.492-3.16" stroke-miterlimit="10" fill="none" stroke="#000" stroke-width=".797" stroke-linecap="round" stroke-linejoin="round"/><path d="M12.56 95.579a5.825 5.825 0 00-5.828-5.824 5.825 5.825 0 00-5.828 5.824 5.828 5.828 0 0011.656 0zm0 0" stroke-miterlimit="10" fill="#fff" stroke="#000" stroke-width=".399"/><use height="100%" width="100%" y="103.162" x="5.401" xlink:href="#j" transform="translate(-1.971 -3.663)"/><path d="M30.06 79.708l-3.311 15.094" stroke-miterlimit="10" fill="none" stroke="#000" stroke-width=".797"/><path d="M30.248 93.368c-1.926.055-3.008.88-3.586 1.824-.133-1.101-.77-2.304-2.492-3.16" stroke-miterlimit="10" fill="none" stroke="#000" stroke-width=".797" stroke-linecap="round" stroke-linejoin="round"/><path d="M32.404 95.579a5.825 5.825 0 00-5.828-5.824 5.825 5.825 0 00-5.828 5.824 5.828 5.828 0 0011.656 0zm0 0" stroke-miterlimit="10" fill="#fff" stroke="#000" stroke-width=".399"/><use height="100%" width="100%" y="103.162" x="25.244" xlink:href="#j" transform="translate(-1.971 -3.663)"/><path d="M49.904 79.708l-3.316 15.094" stroke-miterlimit="10" fill="none" stroke="#000" stroke-width=".797"/><path d="M50.088 93.368c-1.922.055-3.004.88-3.586 1.824-.13-1.101-.766-2.304-2.489-3.16" stroke-miterlimit="10" fill="none" stroke="#000" stroke-width=".797" stroke-linecap="round" stroke-linejoin="round"/><path d="M52.248 95.579a5.825 5.825 0 00-5.828-5.824 5.825 5.825 0 00-5.828 5.824 5.828 5.828 0 0011.656 0zm0 0" stroke-miterlimit="10" fill="#fff" stroke="#000" stroke-width=".399"/><use height="100%" width="100%" y="103.162" x="45.086" xlink:href="#j" transform="translate(-1.971 -3.663)"/><path d="M69.748 79.708l-3.317 15.094" stroke-miterlimit="10" fill="none" stroke="#000" stroke-width=".797"/><path d="M69.931 93.368c-1.922.055-3.004.88-3.586 1.824-.129-1.101-.765-2.304-2.488-3.16" stroke-miterlimit="10" fill="none" stroke="#000" stroke-width=".797" stroke-linecap="round" stroke-linejoin="round"/><path d="M72.088 95.579a5.825 5.825 0 00-5.829-5.824 5.822 5.822 0 00-5.824 5.824 5.825 5.825 0 005.824 5.828 5.828 5.828 0 005.829-5.828zm0 0" stroke-miterlimit="10" fill="#fff" stroke="#000" stroke-width=".399"/><use height="100%" width="100%" y="103.162" x="64.929" xlink:href="#j" transform="translate(-1.971 -3.663)"/><path d="M89.592 79.708l-3.317 15.094" stroke-miterlimit="10" fill="none" stroke="#000" stroke-width=".797"/><path d="M89.775 93.368c-1.922.055-3.008.88-3.586 1.824-.129-1.101-.77-2.304-2.492-3.16" stroke-miterlimit="10" fill="none" stroke="#000" stroke-width=".797" stroke-linecap="round" stroke-linejoin="round"/><path d="M91.931 95.579a5.825 5.825 0 00-5.828-5.824 5.825 5.825 0 00-5.828 5.824 5.828 5.828 0 0011.656 0zm0 0" stroke-miterlimit="10" fill="#fff" stroke="#000" stroke-width=".399"/><use height="100%" width="100%" y="103.162" x="84.772" xlink:href="#j" transform="translate(-1.971 -3.663)"/><path d="M109.435 79.708l-3.316 15.094" stroke-miterlimit="10" fill="none" stroke="#000" stroke-width=".797"/><path d="M109.619 93.368c-1.922.055-3.008.88-3.586 1.824-.129-1.101-.77-2.304-2.492-3.16" stroke-miterlimit="10" fill="none" stroke="#000" stroke-width=".797" stroke-linecap="round" stroke-linejoin="round"/><path d="M111.775 95.579a5.825 5.825 0 00-5.828-5.824 5.825 5.825 0 00-5.828 5.824 5.828 5.828 0 0011.656 0zm0 0" stroke-miterlimit="10" fill="#fff" stroke="#000" stroke-width=".399"/><use height="100%" width="100%" y="103.162" x="104.615" xlink:href="#j" transform="translate(-1.971 -3.663)"/><path d="M129.279 79.708l-3.316 15.094" stroke-miterlimit="10" fill="none" stroke="#000" stroke-width=".797"/><path d="M129.463 93.368c-1.926.055-3.008.88-3.586 1.824-.133-1.101-.77-2.304-2.493-3.16" stroke-miterlimit="10" fill="none" stroke="#000" stroke-width=".797" stroke-linecap="round" stroke-linejoin="round"/><path d="M131.619 95.579a5.825 5.825 0 00-5.828-5.824 5.825 5.825 0 00-5.828 5.824 5.828 5.828 0 0011.656 0zm0 0" stroke-miterlimit="10" fill="#fff" stroke="#000" stroke-width=".399"/><use height="100%" width="100%" y="103.162" x="124.457" xlink:href="#j" transform="translate(-1.971 -3.663)"/><path d="M149.119 79.708l-3.317 15.094" stroke-miterlimit="10" fill="none" stroke="#000" stroke-width=".797"/><path d="M149.302 93.368c-1.921.055-3.003.88-3.582 1.824-.132-1.101-.77-2.304-2.492-3.16" stroke-miterlimit="10" fill="none" stroke="#000" stroke-width=".797" stroke-linecap="round" stroke-linejoin="round"/><path d="M151.463 95.579a5.825 5.825 0 00-5.829-5.824 5.825 5.825 0 00-5.828 5.824 5.829 5.829 0 0011.657 0zm0 0" stroke-miterlimit="10" fill="#fff" stroke="#000" stroke-width=".399"/><use height="100%" width="100%" y="103.162" x="144.3" xlink:href="#j" transform="translate(-1.971 -3.663)"/><path d="M168.963 79.708l-3.317 15.094" stroke-miterlimit="10" fill="none" stroke="#000" stroke-width=".797"/><path d="M169.146 93.368c-1.922.055-3.004.88-3.586 1.824-.129-1.101-.765-2.304-2.488-3.16" stroke-miterlimit="10" fill="none" stroke="#000" stroke-width=".797" stroke-linecap="round" stroke-linejoin="round"/><path d="M171.302 95.579a5.822 5.822 0 00-5.824-5.824 5.825 5.825 0 00-5.828 5.824 5.828 5.828 0 005.828 5.828 5.825 5.825 0 005.824-5.828zm0 0" stroke-miterlimit="10" fill="#fff" stroke="#000" stroke-width=".399"/><use height="100%" width="100%" y="103.162" x="164.143" xlink:href="#j" transform="translate(-1.971 -3.663)"/><path stroke-miterlimit="10" d="M188.806 79.708l-3.316 15.094" fill="none" stroke="#000" stroke-width=".797"/><path d="M188.989 93.368c-1.92.055-3.007.88-3.585 1.824-.129-1.101-.766-2.304-2.492-3.16" stroke-miterlimit="10" fill="none" stroke="#000" stroke-width=".797" stroke-linecap="round" stroke-linejoin="round"/><path d="M191.146 95.579a5.825 5.825 0 00-5.828-5.824 5.825 5.825 0 00-5.828 5.824 5.828 5.828 0 0011.656 0zm0 0" stroke-miterlimit="10" fill="#fff" stroke="#000" stroke-width=".399"/><use height="100%" width="100%" y="103.162" x="183.986" xlink:href="#j" transform="translate(-1.971 -3.663)"/><path d="M6.732 101.61v4.93" stroke-miterlimit="10" fill="none" stroke="#000" stroke-width=".797"/><path d="M9.842 104.387c-1.864.466-2.747 1.505-3.11 2.552-.363-1.047-1.246-2.086-3.11-2.551" stroke-miterlimit="10" fill="none" stroke="#000" stroke-width=".797" stroke-linecap="round" stroke-linejoin="round"/><use height="100%" width="100%" y="119.003" x="3.666" xlink:href="#j" transform="translate(-1.971 -3.663)"/><use height="100%" width="100%" y="120.796" x="9.165" xlink:href="#H" transform="translate(-1.971 -3.663)"/><path d="M26.576 101.607v4.933" stroke-miterlimit="10" fill="none" stroke="#000" stroke-width=".797"/><path d="M29.685 104.387c-1.867.466-2.746 1.505-3.11 2.552-.362-1.047-1.245-2.086-3.112-2.551" stroke-miterlimit="10" fill="none" stroke="#000" stroke-width=".797" stroke-linecap="round" stroke-linejoin="round"/><use height="100%" width="100%" y="119.003" x="23.509" xlink:href="#j" transform="translate(-1.971 -3.663)"/><use height="100%" width="100%" y="120.796" x="29.008" xlink:href="#I" transform="translate(-1.971 -3.663)"/><path d="M46.419 101.607v4.933" stroke-miterlimit="10" fill="none" stroke="#000" stroke-width=".797"/><path d="M49.529 104.387c-1.867.466-2.746 1.505-3.11 2.552-.363-1.047-1.245-2.086-3.113-2.551" stroke-miterlimit="10" fill="none" stroke="#000" stroke-width=".797" stroke-linecap="round" stroke-linejoin="round"/><use height="100%" width="100%" y="119.003" x="43.352" xlink:href="#j" transform="translate(-1.971 -3.663)"/><use height="100%" width="100%" y="120.796" x="48.851" xlink:href="#I" transform="translate(-1.971 -3.663)"/><path d="M66.263 101.607v4.933" stroke-miterlimit="10" fill="none" stroke="#000" stroke-width=".797"/><path d="M69.373 104.387c-1.867.466-2.746 1.505-3.11 2.552-.363-1.047-1.246-2.086-3.113-2.551" stroke-miterlimit="10" fill="none" stroke="#000" stroke-width=".797" stroke-linecap="round" stroke-linejoin="round"/><use height="100%" width="100%" y="118.928" x="63.195" xlink:href="#j" transform="translate(-1.971 -3.663)"/><use height="100%" width="100%" y="120.721" x="68.695" xlink:href="#J" transform="translate(-1.971 -3.663)"/><path d="M86.107 101.607v4.933" stroke-miterlimit="10" fill="none" stroke="#000" stroke-width=".797"/><path d="M89.217 104.387c-1.868.47-2.747 1.505-3.11 2.552-.363-1.047-1.246-2.086-3.113-2.551" stroke-miterlimit="10" fill="none" stroke="#000" stroke-width=".797" stroke-linecap="round" stroke-linejoin="round"/><use height="100%" width="100%" y="118.928" x="83.038" xlink:href="#j" transform="translate(-1.971 -3.663)"/><use height="100%" width="100%" y="120.721" x="88.538" xlink:href="#K" transform="translate(-1.971 -3.663)"/><path d="M105.951 101.607v4.933" stroke-miterlimit="10" fill="none" stroke="#000" stroke-width=".797"/><path d="M109.06 104.387c-1.867.47-2.746 1.505-3.11 2.552-.362-1.047-1.245-2.086-3.112-2.551" stroke-miterlimit="10" fill="none" stroke="#000" stroke-width=".797" stroke-linecap="round" stroke-linejoin="round"/><use height="100%" width="100%" y="119.003" x="102.882" xlink:href="#j" transform="translate(-1.971 -3.663)"/><use height="100%" width="100%" y="120.796" x="108.381" xlink:href="#I" transform="translate(-1.971 -3.663)"/><path d="M125.795 101.607v4.933" stroke-miterlimit="10" fill="none" stroke="#000" stroke-width=".797"/><path d="M128.904 104.387c-1.867.47-2.75 1.505-3.11 2.552-.363-1.047-1.245-2.086-3.113-2.551" stroke-miterlimit="10" fill="none" stroke="#000" stroke-width=".797" stroke-linecap="round" stroke-linejoin="round"/><use height="100%" width="100%" y="118.928" x="122.725" xlink:href="#j" transform="translate(-1.971 -3.663)"/><use height="100%" width="100%" y="120.721" x="128.224" xlink:href="#J" transform="translate(-1.971 -3.663)"/><path d="M145.639 101.607l-.005 4.933" stroke-miterlimit="10" fill="none" stroke="#000" stroke-width=".797"/><path d="M148.748 104.387c-1.867.47-2.75 1.505-3.114 2.552-.359-1.047-1.242-2.086-3.109-2.551" stroke-miterlimit="10" fill="none" stroke="#000" stroke-width=".797" stroke-linecap="round" stroke-linejoin="round"/><use height="100%" width="100%" y="119.003" x="142.568" xlink:href="#j" transform="translate(-1.971 -3.663)"/><use height="100%" width="100%" y="120.796" x="148.067" xlink:href="#L" transform="translate(-1.971 -3.663)"/><path d="M165.482 101.607l-.004 4.933" stroke-miterlimit="10" fill="none" stroke="#000" stroke-width=".797"/><path d="M168.591 104.387c-1.867.47-2.75 1.505-3.113 2.552-.363-1.047-1.242-2.086-3.11-2.551" stroke-miterlimit="10" fill="none" stroke="#000" stroke-width=".797" stroke-linecap="round" stroke-linejoin="round"/><use height="100%" width="100%" y="119.003" x="162.411" xlink:href="#j" transform="translate(-1.971 -3.663)"/><use height="100%" width="100%" y="120.796" x="167.91" xlink:href="#I" transform="translate(-1.971 -3.663)"/><path d="M185.322 101.607v4.933" stroke-miterlimit="10" fill="none" stroke="#000" stroke-width=".797"/><path d="M188.435 104.387c-1.867.47-2.75 1.505-3.113 2.552-.363-1.047-1.242-2.086-3.11-2.551" stroke-miterlimit="10" fill="none" stroke="#000" stroke-width=".797" stroke-linecap="round" stroke-linejoin="round"/><use height="100%" width="100%" y="119.003" x="182.254" xlink:href="#j" transform="translate(-1.971 -3.663)"/><use height="100%" width="100%" y="120.796" x="187.754" xlink:href="#I" transform="translate(-1.971 -3.663)"/><use height="100%" width="100%" y="193.634" x="42.837" xlink:href="#M" transform="translate(-1.971 -3.663)"/><use height="100%" width="100%" y="193.634" x="47.079" xlink:href="#N" transform="translate(-1.971 -3.663)"/><use height="100%" width="100%" y="195.271" x="52.097" xlink:href="#H" transform="translate(-1.971 -3.663)"/><use height="100%" width="100%" y="193.634" x="56.672" xlink:href="#O" transform="translate(-1.971 -3.663)"/><use height="100%" width="100%" y="193.634" x="62.679" xlink:href="#M" transform="translate(-1.971 -3.663)"/><use height="100%" width="100%" y="193.634" x="66.922" xlink:href="#N" transform="translate(-1.971 -3.663)"/><use height="100%" width="100%" y="195.271" x="71.94" xlink:href="#I" transform="translate(-1.971 -3.663)"/><use height="100%" width="100%" y="193.634" x="76.515" xlink:href="#O" transform="translate(-1.971 -3.663)"/><use height="100%" width="100%" y="193.634" x="82.522" xlink:href="#M" transform="translate(-1.971 -3.663)"/><use height="100%" width="100%" y="193.634" x="86.765" xlink:href="#N" transform="translate(-1.971 -3.663)"/><use height="100%" width="100%" y="195.271" x="91.783" xlink:href="#J" transform="translate(-1.971 -3.663)"/><use height="100%" width="100%" y="193.634" x="96.358" xlink:href="#O" transform="translate(-1.971 -3.663)"/><use height="100%" width="100%" y="193.634" x="102.365" xlink:href="#M" transform="translate(-1.971 -3.663)"/><use height="100%" width="100%" y="193.634" x="106.607" xlink:href="#N" transform="translate(-1.971 -3.663)"/><use height="100%" width="100%" y="195.271" x="111.626" xlink:href="#K" transform="translate(-1.971 -3.663)"/><use height="100%" width="100%" y="193.634" x="116.2" xlink:href="#O" transform="translate(-1.971 -3.663)"/><use height="100%" width="100%" y="193.634" x="122.208" xlink:href="#M" transform="translate(-1.971 -3.663)"/><use height="100%" width="100%" y="193.634" x="126.45" xlink:href="#N" transform="translate(-1.971 -3.663)"/><use height="100%" width="100%" y="195.27" x="131.468" xlink:href="#L" transform="translate(-1.971 -3.663)"/><use height="100%" width="100%" y="193.634" x="136.043" xlink:href="#O" transform="translate(-1.971 -3.663)"/><path d="M52.427 125.134a4.508 4.508 0 10-9.015 0 4.508 4.508 0 109.016 0zm0 0" stroke-miterlimit="10" fill="#fff" stroke="#000" stroke-width=".399"/><use height="100%" width="100%" y="131.734" x="47.441" xlink:href="#l" transform="translate(-1.971 -3.663)"/><path d="M30.06 79.704l6.645 18.906a6.9 6.9 0 01.332 1.934v17.852c0 .55.394 1.203.879 1.46l5.136 2.711" stroke-miterlimit="10" fill="none" stroke="#000" stroke-width=".797"/><path d="M42.599 118.81c-.457 1.867.051 3.132.805 3.941-1.094-.168-2.426.129-3.707 1.563" stroke-miterlimit="10" fill="none" stroke="#000" stroke-width=".797" stroke-linecap="round" stroke-linejoin="round"/><path d="M49.904 79.704l6.645 18.906a6.9 6.9 0 01.332 1.934v17.852c0 .55-.38 1.234-.84 1.535l-3.485 2.234" stroke-miterlimit="10" fill="none" stroke="#000" stroke-width=".797"/><path d="M56.045 123.622c-1.399-1.32-2.75-1.504-3.825-1.242.684-.871 1.082-2.172.465-3.996" stroke-miterlimit="10" fill="none" stroke="#000" stroke-width=".797" stroke-linecap="round" stroke-linejoin="round"/><path d="M191.329 125.134a4.51 4.51 0 10-9.02.005 4.51 4.51 0 009.02-.005zm0 0" stroke-miterlimit="10" fill="#fff" stroke="#000" stroke-width=".399"/><use height="100%" width="100%" y="131.734" x="186.338" xlink:href="#l" transform="translate(-1.971 -3.663)"/><path d="M168.963 79.704l6.644 18.906a6.9 6.9 0 01.332 1.934v17.852c0 .55.395 1.203.88 1.46l5.136 2.708" stroke-miterlimit="10" fill="none" stroke="#000" stroke-width=".797"/><path d="M181.502 118.81c-.457 1.867.047 3.132.804 3.941-1.093-.168-2.425.129-3.707 1.563" stroke-miterlimit="10" fill="none" stroke="#000" stroke-width=".797" stroke-linecap="round" stroke-linejoin="round"/><path stroke-miterlimit="10" d="M188.806 79.704l6.645 18.906a7.04 7.04 0 01.328 1.934v17.852c0 .55-.375 1.234-.836 1.535l-3.488 2.234" fill="none" stroke="#000" stroke-width=".797"/><path d="M194.947 123.622c-1.398-1.32-2.75-1.5-3.824-1.242.683-.871 1.082-2.172.465-3.996" stroke-miterlimit="10" fill="none" stroke="#000" stroke-width=".797" stroke-linecap="round" stroke-linejoin="round"/><path d="M131.799 135.056a4.507 4.507 0 00-4.508-4.508 4.507 4.507 0 00-4.508 4.508 4.508 4.508 0 109.016 0zm0 0" stroke-miterlimit="10" fill="#fff" stroke="#000" stroke-width=".399"/><use height="100%" width="100%" y="141.656" x="126.81" xlink:href="#l" transform="translate(-1.971 -3.663)"/><path d="M109.435 79.704l6.64 18.906a6.9 6.9 0 01.333 1.934v17.852c0 .55.254 1.363.57 1.812l7.172 10.328" stroke-miterlimit="10" fill="none" stroke="#000" stroke-width=".797"/><path d="M125.479 126.993c-1.266 1.45-1.4 2.805-1.098 3.871-.895-.652-2.211-1.004-4.012-.32" stroke-miterlimit="10" fill="none" stroke="#000" stroke-width=".797" stroke-linecap="round" stroke-linejoin="round"/><path d="M182.177 125.911l-49.453 8.242" stroke-miterlimit="10" fill="none" stroke="#000" stroke-width=".797"/><path d="M135.357 136.868c-.766-1.765-1.933-2.465-3.027-2.652.972-.527 1.851-1.566 2.004-3.484" stroke-miterlimit="10" fill="none" stroke="#000" stroke-width=".797" stroke-linecap="round" stroke-linejoin="round"/><path d="M74.256 144.977a4.51 4.51 0 10-9.02.004 4.51 4.51 0 009.02-.003zm0 0" stroke-miterlimit="10" fill="#fff" stroke="#000" stroke-width=".399"/><use height="100%" width="100%" y="151.577" x="69.267" xlink:href="#l" transform="translate(-1.971 -3.663)"/><path d="M51.404 128.302l14.27 12.972" stroke-miterlimit="10" fill="none" stroke="#000" stroke-width=".797"/><path d="M66.174 137.524c-.91 1.696-.735 3.047-.204 4.02-1.02-.437-2.378-.48-3.98.586" stroke-miterlimit="10" fill="none" stroke="#000" stroke-width=".797" stroke-linecap="round" stroke-linejoin="round"/><path d="M122.654 135.857l-47.48 8.187" stroke-miterlimit="10" fill="none" stroke="#000" stroke-width=".797"/><path d="M77.822 146.743c-.777-1.761-1.95-2.453-3.043-2.633.973-.535 1.844-1.578 1.988-3.5" stroke-miterlimit="10" fill="none" stroke="#000" stroke-width=".797" stroke-linecap="round" stroke-linejoin="round"/><path d="M69.748 149.689v8.175" stroke-miterlimit="10" fill="none" stroke="#000" stroke-width=".797"/><path d="M72.861 155.712c-1.867.465-2.75 1.504-3.113 2.55-.364-1.046-1.242-2.085-3.11-2.55" stroke-miterlimit="10" fill="none" stroke="#000" stroke-width=".797" stroke-linecap="round" stroke-linejoin="round"/><path d="M92.115 130.095a4.51 4.51 0 10-9.02.003 4.51 4.51 0 009.02-.003zm0 0" stroke-miterlimit="10" fill="#fff" stroke="#000" stroke-width=".399"/><use height="100%" width="100%" y="136.695" x="87.125" xlink:href="#l" transform="translate(-1.971 -3.663)"/><path d="M69.748 79.704l6.644 18.906c.184.516.328 1.383.328 1.934v17.852c0 .55.32 1.308.711 1.695l6.25 6.144" stroke-miterlimit="10" fill="none" stroke="#000" stroke-width=".797"/><path d="M84.329 122.509c-.976 1.656-.855 3.016-.363 4.008-1-.477-2.359-.575-4 .43" stroke-miterlimit="10" fill="none" stroke="#000" stroke-width=".797" stroke-linecap="round" stroke-linejoin="round"/><path d="M129.279 79.704l6.64 18.906a6.9 6.9 0 01.333 1.934v17.852c0 .55-.438 1.09-.973 1.21l-42.297 9.305" stroke-miterlimit="10" fill="none" stroke="#000" stroke-width=".797"/><path d="M95.756 131.489c-.86-1.722-2.063-2.359-3.16-2.492.94-.578 1.765-1.66 1.82-3.586" stroke-miterlimit="10" fill="none" stroke="#000" stroke-width=".797" stroke-linecap="round" stroke-linejoin="round"/><path d="M87.849 134.797l1.184 23.067" stroke-miterlimit="10" fill="none" stroke="#000" stroke-width=".797"/><path d="M92.029 155.556c-1.84.558-2.668 1.64-2.977 2.707-.418-1.028-1.351-2.02-3.238-2.39" stroke-miterlimit="10" fill="none" stroke="#000" stroke-width=".797" stroke-linecap="round" stroke-linejoin="round"/><path d="M10.22 79.704l6.641 18.906a6.9 6.9 0 01.332 1.934v17.852c0 .55.285 1.34.637 1.761l31.566 37.89" stroke-miterlimit="10" fill="none" stroke="#000" stroke-width=".797"/><path d="M50.408 154.403c-1.137 1.551-1.149 2.914-.758 3.95-.95-.57-2.289-.805-4.023.03" stroke-miterlimit="10" fill="none" stroke="#000" stroke-width=".797" stroke-linecap="round" stroke-linejoin="round"/><path d="M89.592 79.704l6.644 18.906a7.04 7.04 0 01.328 1.934v17.852c0 .55.14 1.418.313 1.941l12.308 37.566" stroke-miterlimit="10" fill="none" stroke="#000" stroke-width=".797"/><path d="M111.47 154.887c-1.629 1.024-2.14 2.286-2.16 3.395-.672-.882-1.832-1.593-3.75-1.457" stroke-miterlimit="10" fill="none" stroke="#000" stroke-width=".797" stroke-linecap="round" stroke-linejoin="round"/><path d="M149.119 79.704l6.644 18.906a6.9 6.9 0 01.332 1.934v17.852c0 .55-.253 1.363-.562 1.816l-25.805 37.79" stroke-miterlimit="10" fill="none" stroke="#000" stroke-width=".797"/><path d="M133.509 157.977c-1.804-.667-3.117-.304-4.007.352.289-1.066.148-2.422-1.13-3.86" stroke-miterlimit="10" fill="none" stroke="#000" stroke-width=".797" stroke-linecap="round" stroke-linejoin="round"/></svg>