<svg xmlns="http://www.w3.org/2000/svg" xmlns:xlink="http://www.w3.org/1999/xlink" version="1.2" viewBox="0 0 199.027 185.733" height="247.644" width="265.369"><defs><symbol id="b" overflow="visible"><path d="M5.766-2.484c.015-.141.015-.188.015-.266a5.06 5.06 0 00-.234-1.563C5.14-5.39 4.187-6.03 2.984-6.03c-1.703 0-2.75 1.218-2.75 3.218C.234-.905 1.281.25 2.954.25c1.343 0 2.421-.75 2.75-1.922H4.187c-.188.469-.61.75-1.172.75-.438 0-.797-.187-1.016-.515-.14-.22-.203-.485-.219-1.047zm-3.97-1.032c.11-.89.485-1.343 1.173-1.343.39 0 .734.187.953.5.14.218.219.437.25.843zm0 0"/></symbol><symbol id="D" overflow="visible"><path d="M5.438-8.016H4.53v2.985c-.39-.594-1-.89-1.765-.89-1.5 0-2.485 1.187-2.485 3.03C.281-.953 1.25.25 2.797.25c.797 0 1.344-.297 1.828-1.016V0h.813zM2.921-5.078c.984 0 1.61.89 1.61 2.266 0 1.328-.641 2.203-1.61 2.203C1.906-.61 1.25-1.5 1.25-2.844c0-1.344.656-2.234 1.672-2.234zm0 0"/></symbol><symbol id="c" overflow="visible"><path d="M4.453 0H6v-8.016H4.453v2.844c-.39-.594-.906-.86-1.64-.86-1.422 0-2.5 1.36-2.5 3.157 0 .797.25 1.61.64 2.188.406.562 1.14.937 1.86.937.734 0 1.25-.266 1.64-.86zM3.156-4.75c.781 0 1.297.75 1.297 1.89 0 1.079-.531 1.829-1.297 1.829-.765 0-1.297-.766-1.297-1.844 0-1.11.532-1.875 1.297-1.875zm0 0"/></symbol><symbol id="d" overflow="visible"><path d="M5.953 0v-5.938H4.406v3.72c0 .702-.484 1.155-1.234 1.155-.656 0-1-.343-1-1.062v-3.813H.64v4.141C.64-.5 1.359.25 2.625.25c.813 0 1.344-.297 1.781-.953V0zm0 0"/></symbol><symbol id="e" overflow="visible"><path d="M5.734-3.719C5.625-5.172 4.656-6.03 3.172-6.03 1.406-6.031.375-4.875.375-2.844.375-.89 1.391.25 3.156.25c1.438 0 2.438-.89 2.578-2.313H4.266c-.204.782-.5 1.079-1.094 1.079-.781 0-1.266-.704-1.266-1.86 0-.562.125-1.094.313-1.453.172-.328.515-.5.953-.5.625 0 .922.297 1.094 1.078zm0 0"/></symbol><symbol id="f" overflow="visible"><path d="M4.234-6.64h2.344v-1.376H.156v1.375h2.422V0h1.656zm0 0"/></symbol><symbol id="g" overflow="visible"><path d="M3.313-6.031C1.5-6.031.39-4.844.39-2.891.39-.937 1.5.25 3.328.25c1.797 0 2.938-1.203 2.938-3.094 0-2.015-1.094-3.187-2.954-3.187zm.015 1.234c.844 0 1.39.766 1.39 1.922 0 1.11-.577 1.89-1.39 1.89-.844 0-1.406-.78-1.406-1.906 0-1.14.562-1.906 1.406-1.906zm0 0"/></symbol><symbol id="h" overflow="visible"><path d="M2.344-8.016H.688V0h1.656zm0 0"/></symbol><symbol id="i" overflow="visible"><path d="M.688-5.938V0h1.546v-3.563c0-.703.5-1.171 1.235-1.171.672 0 1 .375 1 1.078V0H6v-3.984c0-1.313-.719-2.047-1.984-2.047-.797 0-1.344.297-1.782.953v-.86zm0 0"/></symbol><symbol id="j" overflow="visible"><path d="M3.906-2.984l1.938-2.954H4L3.031-4.14l-.969-1.796H.22l1.937 2.953L.172 0h1.86l1-1.844 1 1.844H5.89zm0 0"/></symbol><symbol id="k" overflow="visible"><path d="M3.172-8.969C1.39-7.359.937-4.938.937-2.984c0 2.093.516 4.437 2.235 5.984h.719C3.437 2.562 2.703 1.64 2.28.281c-.328-1.062-.437-2.172-.437-3.25 0-3.531 1.25-5.25 2.047-6zm0 0"/></symbol><symbol id="p" overflow="visible"><path d="M1.36 3c1.796-1.594 2.25-4.031 2.25-5.969 0-2.11-.516-4.453-2.25-6H.64c.47.438 1.204 1.36 1.626 2.719.312 1.063.437 2.172.437 3.266C2.703.53 1.453 2.266.641 3zm0 0"/></symbol><symbol id="q" overflow="visible"><path d="M2.11-5.313h-.97v.97h.97zM1.14-.968V0h.97v-.969zm0 0"/></symbol><symbol id="l" overflow="visible"><path d="M2.875-5.766h-.922L.72 0h.937zm.484-2.25h-.921l-.25 1.125h.921zm0 0"/></symbol><symbol id="n" overflow="visible"><path d="M1.984-5.766L.766 0h.921l.672-3.172C2.625-4.39 3.406-5.14 4.391-5.14c.546 0 .953.391.953.891 0 .063-.016.234-.063.406L4.47 0h.922l.875-4.14c.03-.141.046-.266.046-.407 0-.844-.578-1.375-1.5-1.375-.828 0-1.562.297-2.125.875l.141-.719zm0 0"/></symbol><symbol id="o" overflow="visible"><path d="M1.984-5.766L.766 0h.921l.641-2.984C2.61-4.328 3.391-5 4.594-4.97l.203-.922c-.14-.03-.234-.03-.36-.03-.625 0-1.125.28-1.812 1.062l.188-.907zm0 0"/></symbol><symbol id="s" overflow="visible"><path d="M5.766-2.406L6.062 0h1.125L6.079-8.016H4.75L.187 0h1.094l1.344-2.406zm-.11-.86H3.11l2.11-3.671zm0 0"/></symbol><symbol id="m" overflow="visible"><path d="M2.328.047c0-.688-.219-1.203-.719-1.203-.375 0-.562.312-.562.578 0 .25.172.578.578.578a.518.518 0 00.39-.156c.032-.016.047-.016.047-.016s.032.156.032.219c0 .39-.078 1.172-.766 1.953-.14.14-.14.188-.14.188 0 .062.062.124.125.124.093 0 1.015-.89 1.015-2.265zm0 0"/></symbol><symbol id="x" overflow="visible"><path d="M2.203-.578a.586.586 0 00-.578-.578.576.576 0 00-.578.578c0 .344.281.578.562.578a.59.59 0 00.594-.578zm0 0"/></symbol><symbol id="r" overflow="visible"><path d="M3.969 2.75s0-.078-.063-.219L1.812-2.984l2.094-5.532c.063-.14.063-.203.063-.203 0-.14-.11-.25-.235-.25-.156 0-.203.11-.25.25L1.375-3.203c-.063.14-.063.219-.063.219s0 .062.063.218L3.469 2.72c.062.156.094.265.265.265a.24.24 0 00.235-.234zm0 0"/></symbol><symbol id="t" overflow="visible"><path d="M3.328-2.984s0-.079-.062-.22l-2.094-5.5c-.063-.14-.094-.265-.266-.265-.125 0-.234.11-.234.25 0 0 0 .063.062.203l2.094 5.532L.734 2.53c-.062.14-.062.219-.062.219 0 .125.11.234.234.234.156 0 .203-.109.25-.234l2.11-5.516c.062-.156.062-.218.062-.218zm0 0"/></symbol><symbol id="u" overflow="visible"><path d="M11.266-2.984a.136.136 0 00-.094-.125A3.744 3.744 0 018.719-6c0-.063-.063-.11-.125-.11h-.219c-.063 0-.125.063-.125.157a4.259 4.259 0 001.703 2.719H.906c-.172 0-.25.125-.25.25 0 .109.078.234.25.234h9.047A4.259 4.259 0 008.25-.031c0 .11.063.156.125.156h.219c.062 0 .125-.047.125-.094a3.766 3.766 0 012.453-2.906c.047 0 .094-.047.094-.11zm0 0"/></symbol><symbol id="v" overflow="visible"><path d="M5.11 2.86c0-.126-.079-.126-.204-.141-.937-.047-1.375-.594-1.484-1.016-.047-.14-.047-.156-.047-.578V-.672c0-.36 0-.969-.016-1.078-.156-.797-.921-1.11-1.39-1.234 1.406-.407 1.406-1.266 1.406-1.594v-2.156c0-.86 0-1.125.297-1.422.219-.203.484-.5 1.328-.547.063-.016.11-.063.11-.125 0-.14-.094-.14-.25-.14-1.188 0-2.25.609-2.282 1.468v2.188c0 1.125 0 1.312-.312 1.656-.157.172-.485.484-1.235.531-.093 0-.172.016-.172.14 0 .11.079.11.188.126.516.03 1.531.296 1.531 1.484v2.36c0 .703 0 1.109.625 1.546.516.36 1.297.453 1.656.453.157 0 .25 0 .25-.125zm0 0"/></symbol><symbol id="y" overflow="visible"><path d="M8.297-2.984c0-.25-.235-.25-.39-.25H1.39c-.172 0-.407 0-.407.25 0 .234.235.234.407.234h6.515c.157 0 .39 0 .39-.234zm0 0"/></symbol><symbol id="A" overflow="visible"><path d="M5.11-2.984c0-.125-.079-.125-.204-.141-.5-.031-1.531-.281-1.531-1.484v-2.36c0-.687 0-1.093-.61-1.547-.515-.343-1.28-.453-1.671-.453-.11 0-.235 0-.235.14 0 .11.079.11.188.126.953.062 1.39.594 1.5 1.031.031.125.031.156.031.578v1.782c0 .359 0 .968.031 1.093.157.782.922 1.094 1.391 1.235-1.422.406-1.422 1.25-1.422 1.578V.75c0 .86 0 1.125-.281 1.422-.219.219-.485.5-1.328.547a.137.137 0 00-.11.14c0 .125.125.125.235.125 1.203 0 2.265-.609 2.281-1.468V-.672c0-1.125 0-1.312.313-1.64.171-.172.5-.5 1.25-.547.078 0 .171-.016.171-.125zm0 0"/></symbol><symbol id="L" overflow="visible"><path d="M6.969.234C6.969 0 6.734 0 6.579 0H4.671C3 0 1.625-1.14 1.484-2.75h5.094c.156 0 .39 0 .39-.234 0-.25-.234-.25-.39-.25H1.484C1.625-4.86 3.031-5.97 4.656-5.97h1.922c.156 0 .39 0 .39-.25 0-.234-.234-.234-.39-.234H4.625C2.719-6.453.985-5 .985-2.984.984-1 2.687.484 4.64.484h1.937c.156 0 .39 0 .39-.25zm0 0"/></symbol><symbol id="S" overflow="visible"><path d="M7.531-.344c0-.094-.031-.125-.156-.25L5-2.984l2.375-2.391c.125-.14.156-.156.156-.25 0-.14-.11-.25-.234-.25-.094 0-.156.047-.25.156l-2.39 2.39-2.407-2.39c-.14-.125-.156-.156-.25-.156-.125 0-.25.11-.25.25 0 .094.063.14.156.25l2.39 2.39-2.39 2.376c-.11.125-.156.187-.156.265 0 .125.125.235.25.235.094 0 .11-.016.25-.157l2.39-2.39 2.391 2.39c.11.125.188.157.266.157a.23.23 0 00.234-.235zm0 0"/></symbol><symbol id="w" overflow="visible"><path d="M3.031-7.797c-.734 0-1.39.313-1.797.86C.72-6.266.47-5.22.47-3.767.469-1.14 1.359.25 3.03.25c1.64 0 2.547-1.39 2.547-3.953 0-1.516-.25-2.531-.766-3.235-.406-.546-1.046-.859-1.78-.859zm0 .86c1.031 0 1.563 1.046 1.563 3.14 0 2.219-.516 3.25-1.594 3.25-1.016 0-1.531-1.078-1.531-3.219 0-2.125.515-3.171 1.562-3.171zm0 0"/></symbol><symbol id="z" overflow="visible"><path d="M2.844-5.563V0h.969v-7.797h-.641c-.328 1.203-.547 1.36-2.047 1.547v.688zm0 0"/></symbol><symbol id="B" overflow="visible"><path d="M1.656-5.766H.734V0h.922zm0-2.25H.72v1.157h.937zm0 0"/></symbol><symbol id="C" overflow="visible"><path d="M.766-5.766V0h.921v-3.172c0-1.187.625-1.953 1.563-1.953.734 0 1.188.438 1.188 1.125v4h.921v-4.36c0-.952-.718-1.562-1.828-1.562-.86 0-1.406.328-1.922 1.125v-.969zm0 0"/></symbol><symbol id="a" overflow="visible"><path d="M2.531-3.172h1.89c.72 0 1.016.281 1.016.953v.313c-.015.218-.015.406-.015.531 0 .75.047.984.25 1.375h1.781v-.297c-.266-.14-.36-.312-.36-.656C7.048-3.328 7-3.438 5.985-3.875c.907-.344 1.36-1 1.36-1.984 0-.625-.235-1.22-.61-1.61-.359-.375-.875-.547-1.546-.547H.875V0h1.656zm0-1.375V-6.64h1.985c.484 0 .671.047.875.204.203.171.296.437.296.812 0 .39-.109.703-.296.86-.172.156-.391.218-.875.218zm0 0"/></symbol><symbol id="E" overflow="visible"><path d="M5.64-2.578c0-.875-.062-1.406-.234-1.828-.375-.953-1.25-1.516-2.328-1.516-1.61 0-2.64 1.219-2.64 3.11 0 1.906 1 3.062 2.624 3.062 1.313 0 2.235-.75 2.454-2h-.922c-.25.766-.766 1.156-1.5 1.156a1.61 1.61 0 01-1.39-.75c-.22-.328-.298-.656-.313-1.234zm-4.218-.75c.078-1.063.719-1.75 1.64-1.75.907 0 1.594.75 1.594 1.687v.063zm0 0"/></symbol><symbol id="F" overflow="visible"><path d="M3.219-2.984L5.14-5.766H4.109L2.734-3.672l-1.39-2.094H.297l1.922 2.829L.188 0h1.046l1.454-2.219L4.14 0h1.062zm0 0"/></symbol><symbol id="G" overflow="visible"><path d="M2.797-5.766h-.953v-1.578H.937v1.578h-.78v.75h.78v4.36c0 .578.391.906 1.11.906.219 0 .437-.016.75-.078v-.766a1.786 1.786 0 01-.438.047c-.406 0-.515-.11-.515-.515v-3.954h.953zm0 0"/></symbol><symbol id="H" overflow="visible"><path d="M.766-5.766V0h.921v-2.984c0-.829.204-1.375.641-1.688.297-.219.563-.281 1.203-.297v-.922c-.156-.03-.234-.03-.36-.03-.593 0-1.03.343-1.562 1.202v-1.047zm0 0"/></symbol><symbol id="I" overflow="visible"><path d="M5.89-.531c-.109.015-.156.015-.202.015-.313 0-.5-.171-.5-.453v-3.39c0-1.016-.75-1.563-2.157-1.563-.844 0-1.531.234-1.922.656-.265.297-.375.641-.39 1.204h.922c.078-.704.5-1.016 1.343-1.016.829 0 1.297.297 1.297.86v.234c0 .39-.234.546-.953.64-1.297.172-1.5.203-1.86.36-.671.265-1 .78-1 1.53C.469-.405 1.189.25 2.36.25c.72 0 1.297-.25 1.954-.844.062.578.343.844.953.844.171 0 .328-.016.625-.094zM4.282-1.812c0 .312-.093.5-.36.75-.374.343-.827.515-1.374.515-.703 0-1.125-.344-1.125-.922 0-.61.406-.922 1.39-1.062.954-.125 1.157-.172 1.47-.313zm0 0"/></symbol><symbol id="J" overflow="visible"><path d="M5.188-3.828c-.047-.563-.172-.922-.391-1.25-.39-.531-1.094-.844-1.89-.844-1.548 0-2.563 1.219-2.563 3.14C.344-.921 1.328.25 2.89.25c1.375 0 2.25-.828 2.359-2.234h-.922c-.156.921-.625 1.39-1.406 1.39-1.016 0-1.625-.828-1.625-2.187 0-1.438.594-2.297 1.594-2.297.765 0 1.25.453 1.359 1.25zm0 0"/></symbol><symbol id="K" overflow="visible"><path d="M2.984-5.922c-1.609 0-2.593 1.14-2.593 3.078S1.359.25 3 .25c1.625 0 2.61-1.156 2.61-3.047 0-1.984-.954-3.125-2.626-3.125zM3-5.078c1.031 0 1.656.844 1.656 2.266 0 1.359-.64 2.218-1.656 2.218s-1.64-.844-1.64-2.25c0-1.375.624-2.234 1.64-2.234zm0 0"/></symbol><symbol id="O" overflow="visible"><path d="M4.813-4.156c0-1.14-.75-1.766-2.079-1.766-1.343 0-2.218.688-2.218 1.75 0 .906.468 1.328 1.828 1.656l.86.22c.64.155.89.39.89.796 0 .547-.547.906-1.344.906-.5 0-.906-.14-1.14-.39-.141-.157-.22-.329-.266-.735H.375C.422-.39 1.172.25 2.672.25c1.453 0 2.375-.719 2.375-1.828 0-.86-.484-1.328-1.625-1.594l-.875-.219c-.75-.171-1.078-.421-1.078-.828 0-.515.484-.86 1.218-.86.75 0 1.141.313 1.157.923zm0 0"/></symbol><symbol id="P" overflow="visible"><path d="M5.297 0v-5.766H4.39V-2.5c0 1.188-.625 1.953-1.579 1.953-.718 0-1.187-.437-1.187-1.14v-4.079H.719v4.454C.719-.36 1.438.25 2.547.25c.86 0 1.39-.297 1.937-1.047V0zm0 0"/></symbol><symbol id="Q" overflow="visible"><path d="M1.672-8.016H.75V0h.922zm0 0"/></symbol><symbol id="R" overflow="visible"><path d="M4.875-5.766H.578v.797h3.203L.344-.829V0H5.03v-.797H1.453l3.422-4.156zm0 0"/></symbol><symbol id="T" overflow="visible"><path d="M5.563-.953H1.468c.093-.64.437-1.047 1.406-1.61l1.094-.593c1.094-.594 1.656-1.39 1.656-2.36 0-.64-.266-1.25-.734-1.671-.454-.407-1.032-.61-1.766-.61-.984 0-1.734.344-2.156 1.016-.281.406-.39.89-.422 1.687h.969c.03-.531.093-.843.234-1.093.25-.485.766-.766 1.344-.766.875 0 1.531.625 1.531 1.469 0 .609-.36 1.14-1.047 1.53l-1.015.579C.937-2.453.469-1.719.374 0h5.188zm0 0"/></symbol><symbol id="U" overflow="visible"><path d="M2.438-3.578h.109l.406-.016c1.078 0 1.625.485 1.625 1.422 0 .985-.61 1.563-1.625 1.563-1.047 0-1.562-.532-1.64-1.657H.359C.391-1.64.5-1.234.688-.875 1.094-.125 1.859.25 2.921.25c1.61 0 2.64-.953 2.64-2.422 0-1-.375-1.547-1.312-1.86.719-.296 1.078-.843 1.078-1.624 0-1.344-.89-2.14-2.375-2.14-1.562 0-2.406.859-2.437 2.515h.968c.016-.469.063-.735.172-.985.219-.421.703-.687 1.313-.687.86 0 1.375.5 1.375 1.328 0 .547-.203.89-.625 1.063-.266.109-.61.156-1.281.156zm0 0"/></symbol><symbol id="V" overflow="visible"><path d="M3.594-1.875V0h.969v-1.875h1.156v-.86H4.562v-5.062h-.718L.313-2.89v1.016zm0-.86H1.156l2.438-3.421zm0 0"/></symbol><symbol id="M" overflow="visible"><path d="M1.344-7.11v5.829c0 .64-.094.843-.703.86-.141 0-.344.015-.344.202C.297 0 .484 0 .703 0h1.86c.203 0 .39 0 .39-.219 0-.187-.187-.203-.36-.203-.655-.016-.75-.266-.75-.875V-6.78L7 .047c.11.14.172.187.25.187.203 0 .203-.203.203-.406v-6.75c0-.672.11-.828.656-.844.079 0 .282-.015.282-.203 0-.218-.172-.218-.391-.218H6.25c-.219 0-.406 0-.406.218 0 .203.218.203.343.203.672.016.766.25.766.875v3.75l-3.61-4.875c-.109-.171-.155-.171-.421-.171H.844c-.219 0-.406 0-.406.218 0 .172.187.203.25.203a.99.99 0 01.671.36c-.015.11-.015.125-.015.297zm5.703 6.5L1.844-7.483c-.125-.141-.125-.172-.25-.282h1.422l4.03 5.438zm0 0"/></symbol><symbol id="N" overflow="visible"><path d="M2.016-5.203c-.485 0-.922.219-1.188.578-.344.453-.515 1.156-.515 2.11C.313-.766.905.171 2.016.171c1.093 0 1.703-.938 1.703-2.64 0-1.016-.172-1.688-.516-2.157a1.466 1.466 0 00-1.187-.578zm0 .578c.703 0 1.046.703 1.046 2.094C3.063-1.062 2.72-.36 2-.36 1.312-.36.969-1.08.969-2.5c0-1.422.344-2.125 1.047-2.125zm0 0"/></symbol></defs><use y="12.633" x="11.12" xlink:href="#a" width="100%" height="100%" transform="translate(0 -3.664)"/><use y="12.633" x="19.061" xlink:href="#b" width="100%" height="100%" transform="translate(0 -3.664)"/><use y="12.633" x="25.176" xlink:href="#c" width="100%" height="100%" transform="translate(0 -3.664)"/><use y="12.633" x="31.897" xlink:href="#d" width="100%" height="100%" transform="translate(0 -3.664)"/><use y="12.633" x="38.617" xlink:href="#e" width="100%" height="100%" transform="translate(0 -3.664)"/><use y="12.633" x="44.732" xlink:href="#b" width="100%" height="100%" transform="translate(0 -3.664)"/><use y="12.633" x="50.847" xlink:href="#f" width="100%" height="100%" transform="translate(0 -3.664)"/><use y="12.633" x="56.688" xlink:href="#g" width="100%" height="100%" transform="translate(0 -3.664)"/><use y="12.633" x="63.408" xlink:href="#h" width="100%" height="100%" transform="translate(0 -3.664)"/><use y="12.633" x="66.465" xlink:href="#i" width="100%" height="100%" transform="translate(0 -3.664)"/><use y="12.633" x="73.186" xlink:href="#c" width="100%" height="100%" transform="translate(0 -3.664)"/><use y="12.633" x="79.906" xlink:href="#b" width="100%" height="100%" transform="translate(0 -3.664)"/><use y="12.633" x="85.856" xlink:href="#j" width="100%" height="100%" transform="translate(0 -3.664)"/><use y="12.633" x="91.971" xlink:href="#k" width="100%" height="100%" transform="translate(0 -3.664)"/><use y="12.633" x="96.524" xlink:href="#l" width="100%" height="100%" transform="translate(0 -3.664)"/><use y="12.633" x="99.906" xlink:href="#m" width="100%" height="100%" transform="translate(0 -3.664)"/><use y="12.633" x="105.15" xlink:href="#n" width="100%" height="100%" transform="translate(0 -3.664)" fill="red"/><use y="12.633" x="111.446" xlink:href="#m" width="100%" height="100%" transform="translate(0 -3.664)"/><use y="12.633" x="116.691" xlink:href="#o" width="100%" height="100%" transform="translate(0 -3.664)"/><use y="12.633" x="121.59" xlink:href="#p" width="100%" height="100%" transform="translate(0 -3.664)"/><use y="12.633" x="129.466" xlink:href="#q" width="100%" height="100%" transform="translate(0 -3.664)"/><use y="12.633" x="136.036" xlink:href="#r" width="100%" height="100%" transform="translate(0 -3.664)"/><use y="12.633" x="140.685" xlink:href="#s" width="100%" height="100%" transform="translate(0 -3.664)" fill="#293ccd"/><use y="12.633" x="148.021" xlink:href="#t" width="100%" height="100%" transform="translate(0 -3.664)"/><use y="12.633" x="155.994" xlink:href="#u" width="100%" height="100%" transform="translate(0 -3.664)"/><use y="12.633" x="171.273" xlink:href="#r" width="100%" height="100%" transform="translate(0 -3.664)"/><use y="12.633" x="175.917" xlink:href="#s" width="100%" height="100%" transform="translate(0 -3.664)" fill="#293ccd"/><use y="12.633" x="183.253" xlink:href="#t" width="100%" height="100%" transform="translate(0 -3.664)"/><use y="26.73" x="14.905" xlink:href="#l" width="100%" height="100%" transform="translate(0 -3.664)"/><use y="26.73" x="21.607" xlink:href="#q" width="100%" height="100%" transform="translate(0 -3.664)"/><use y="26.73" x="28.18" xlink:href="#s" width="100%" height="100%" transform="translate(0 -3.664)" fill="#293ccd"/><use y="26.73" x="38.837" xlink:href="#u" width="100%" height="100%" transform="translate(0 -3.664)"/><use y="26.73" x="54.116" xlink:href="#v" width="100%" height="100%" transform="translate(0 -3.664)"/><use y="26.73" x="60.091" xlink:href="#w" width="100%" height="100%" transform="translate(0 -3.664)"/><use y="26.73" x="66.206" xlink:href="#x" width="100%" height="100%" transform="translate(0 -3.664)"/><use y="26.73" x="69.458" xlink:href="#x" width="100%" height="100%" transform="translate(0 -3.664)"/><use y="26.73" x="72.709" xlink:href="#n" width="100%" height="100%" transform="translate(0 -3.664)" fill="red"/><use y="26.73" x="81.662" xlink:href="#y" width="100%" height="100%" transform="translate(0 -3.664)"/><use y="26.73" x="93.617" xlink:href="#z" width="100%" height="100%" transform="translate(0 -3.664)"/><use y="26.73" x="99.733" xlink:href="#A" width="100%" height="100%" transform="translate(0 -3.664)"/><use y="26.73" x="115.673" xlink:href="#B" width="100%" height="100%" transform="translate(0 -3.664)"/><use y="26.73" x="118.115" xlink:href="#C" width="100%" height="100%" transform="translate(0 -3.664)"/><use y="26.73" x="124.23" xlink:href="#D" width="100%" height="100%" transform="translate(0 -3.664)"/><use y="26.73" x="130.345" xlink:href="#E" width="100%" height="100%" transform="translate(0 -3.664)"/><use y="26.73" x="136.131" xlink:href="#F" width="100%" height="100%" transform="translate(0 -3.664)"/><use y="26.73" x="144.688" xlink:href="#E" width="100%" height="100%" transform="translate(0 -3.664)"/><use y="26.73" x="150.473" xlink:href="#F" width="100%" height="100%" transform="translate(0 -3.664)"/><use y="26.73" x="155.972" xlink:href="#G" width="100%" height="100%" transform="translate(0 -3.664)"/><use y="26.73" x="159.03" xlink:href="#H" width="100%" height="100%" transform="translate(0 -3.664)"/><use y="26.73" x="162.582" xlink:href="#I" width="100%" height="100%" transform="translate(0 -3.664)"/><use y="26.73" x="168.698" xlink:href="#J" width="100%" height="100%" transform="translate(0 -3.664)"/><use y="26.73" x="174.197" xlink:href="#G" width="100%" height="100%" transform="translate(0 -3.664)"/><use y="26.73" x="177.255" xlink:href="#K" width="100%" height="100%" transform="translate(0 -3.664)"/><use y="26.73" x="183.37" xlink:href="#H" width="100%" height="100%" transform="translate(0 -3.664)"/><use y="40.179" x="11.99" xlink:href="#n" width="100%" height="100%" transform="translate(0 -3.664)" fill="red"/><use y="40.179" x="21.607" xlink:href="#L" width="100%" height="100%" transform="translate(0 -3.664)"/><use y="40.179" x="32.898" xlink:href="#M" width="100%" height="100%" transform="translate(0 -3.664)"/><use y="41.973" x="41.533" xlink:href="#N" width="100%" height="100%" transform="translate(0 -3.664)"/><use y="40.179" x="115.673" xlink:href="#H" width="100%" height="100%" transform="translate(0 -3.664)"/><use y="40.179" x="119.336" xlink:href="#E" width="100%" height="100%" transform="translate(0 -3.664)"/><use y="40.179" x="125.451" xlink:href="#O" width="100%" height="100%" transform="translate(0 -3.664)"/><use y="40.179" x="130.95" xlink:href="#P" width="100%" height="100%" transform="translate(0 -3.664)"/><use y="40.179" x="137.065" xlink:href="#Q" width="100%" height="100%" transform="translate(0 -3.664)"/><use y="40.179" x="139.507" xlink:href="#G" width="100%" height="100%" transform="translate(0 -3.664)"/><use y="40.179" x="145.622" xlink:href="#O" width="100%" height="100%" transform="translate(0 -3.664)"/><use y="40.179" x="151.122" xlink:href="#B" width="100%" height="100%" transform="translate(0 -3.664)"/><use y="40.179" x="153.564" xlink:href="#R" width="100%" height="100%" transform="translate(0 -3.664)"/><use y="40.179" x="158.898" xlink:href="#E" width="100%" height="100%" transform="translate(0 -3.664)"/><use y="53.629" x="13.387" xlink:href="#o" width="100%" height="100%" transform="translate(0 -3.664)"/><use y="53.629" x="21.608" xlink:href="#q" width="100%" height="100%" transform="translate(0 -3.664)"/><use y="53.629" x="28.18" xlink:href="#s" width="100%" height="100%" transform="translate(0 -3.664)" fill="#293ccd"/><use y="53.629" x="38.173" xlink:href="#S" width="100%" height="100%" transform="translate(0 -3.664)"/><use y="53.629" x="50.128" xlink:href="#s" width="100%" height="100%" transform="translate(0 -3.664)" fill="#293ccd"/><use y="53.629" x="60.785" xlink:href="#u" width="100%" height="100%" transform="translate(0 -3.664)"/><use y="53.629" x="76.061" xlink:href="#s" width="100%" height="100%" transform="translate(0 -3.664)" fill="#293ccd"/><use y="53.629" x="115.673" xlink:href="#H" width="100%" height="100%" transform="translate(0 -3.664)"/><use y="53.629" x="119.336" xlink:href="#E" width="100%" height="100%" transform="translate(0 -3.664)"/><use y="53.629" x="125.451" xlink:href="#D" width="100%" height="100%" transform="translate(0 -3.664)"/><use y="53.629" x="131.566" xlink:href="#P" width="100%" height="100%" transform="translate(0 -3.664)"/><use y="53.629" x="137.681" xlink:href="#J" width="100%" height="100%" transform="translate(0 -3.664)"/><use y="53.629" x="143.181" xlink:href="#G" width="100%" height="100%" transform="translate(0 -3.664)"/><use y="53.629" x="146.238" xlink:href="#B" width="100%" height="100%" transform="translate(0 -3.664)"/><use y="53.629" x="148.68" xlink:href="#K" width="100%" height="100%" transform="translate(0 -3.664)"/><use y="53.629" x="154.795" xlink:href="#C" width="100%" height="100%" transform="translate(0 -3.664)"/><path d="M20.14 66.379H.3v19.844h19.84zm19.845 0H20.142v19.844h19.843zm19.844 0H39.985v19.844h19.844zm19.84 0h-19.84v19.844h19.84zm19.844 0H79.669v19.844h19.844zm19.843 0H99.513v19.844h19.843zm0 0" stroke-miterlimit="10" fill="#d4d8f5" stroke="#000" stroke-width=".598"/><path d="M139.2 66.379h-19.844v19.844H139.2zm19.84 0H139.2v19.844h19.84zm19.844 0H159.04v19.844h19.844zm0 0" stroke-miterlimit="10" fill="#d4d8f5" stroke="#000" stroke-width=".598"/><path d="M198.728 66.379h-19.844v19.844h19.844zm0 0" fill="#d4d8f5"/><path stroke-miterlimit="10" d="M198.728 66.379h-19.844v19.844h19.844zm0 0" fill="none" stroke="#000" stroke-width=".598"/><path d="M59.829 165.594H39.985v19.84h19.844zm0 0" fill="#d4d8f5"/><path stroke-miterlimit="10" d="M59.829 165.594H39.985v19.84h19.844zm0 0" fill="none" stroke="#000" stroke-width=".598"/><path d="M79.669 165.594h-19.84v19.84h19.84zm0 0" fill="#d4d8f5"/><path stroke-miterlimit="10" d="M79.669 165.594h-19.84v19.84h19.84zm0 0" fill="none" stroke="#000" stroke-width=".598"/><path d="M99.513 165.594H79.669v19.84h19.844zm0 0" fill="#d4d8f5"/><path stroke-miterlimit="10" d="M99.513 165.594H79.669v19.84h19.844zm0 0" fill="none" stroke="#000" stroke-width=".598"/><path d="M119.356 165.594H99.513v19.84h19.843zm0 0" fill="#d4d8f5"/><path stroke-miterlimit="10" d="M119.356 165.594H99.513v19.84h19.843zm0 0" fill="none" stroke="#000" stroke-width=".598"/><path d="M139.2 165.594h-19.844v19.84H139.2zm0 0" fill="#d4d8f5"/><path stroke-miterlimit="10" d="M139.2 165.594h-19.844v19.84H139.2zm0 0" fill="none" stroke="#000" stroke-width=".598"/><path d="M10.22 86.43l-3.317 15.096" stroke-miterlimit="10" fill="none" stroke="#000" stroke-width=".797"/><path d="M10.403 100.094c-1.922.055-3.004.879-3.582 1.82-.133-1.098-.77-2.3-2.492-3.156" stroke-miterlimit="10" fill="none" stroke="#000" stroke-width=".797" stroke-linecap="round" stroke-linejoin="round"/><path d="M11.649 102.305a4.916 4.916 0 00-9.832 0 4.916 4.916 0 009.832 0zm0 0" stroke-miterlimit="10" fill="#fff" stroke="#000" stroke-width=".399"/><use y="109.887" x="5.042" xlink:href="#l" width="100%" height="100%" transform="translate(0 -3.664)"/><path d="M30.064 86.43l-3.317 15.097" stroke-miterlimit="10" fill="none" stroke="#000" stroke-width=".797"/><path d="M30.247 100.094c-1.922.055-3.004.879-3.586 1.82-.13-1.098-.765-2.3-2.488-3.156" stroke-miterlimit="10" fill="none" stroke="#000" stroke-width=".797" stroke-linecap="round" stroke-linejoin="round"/><path d="M31.493 102.305a4.916 4.916 0 00-9.832 0 4.916 4.916 0 009.832 0zm0 0" stroke-miterlimit="10" fill="#fff" stroke="#000" stroke-width=".399"/><use y="109.887" x="24.885" xlink:href="#l" width="100%" height="100%" transform="translate(0 -3.664)"/><path d="M49.907 86.43l-3.316 15.096" stroke-miterlimit="10" fill="none" stroke="#000" stroke-width=".797"/><path d="M50.09 100.094c-1.921.055-3.007.879-3.585 1.82-.13-1.098-.766-2.3-2.492-3.156" stroke-miterlimit="10" fill="none" stroke="#000" stroke-width=".797" stroke-linecap="round" stroke-linejoin="round"/><path d="M51.337 102.305a4.916 4.916 0 00-9.832 0 4.916 4.916 0 009.832 0zm0 0" stroke-miterlimit="10" fill="#fff" stroke="#000" stroke-width=".399"/><use y="109.887" x="44.728" xlink:href="#l" width="100%" height="100%" transform="translate(0 -3.664)"/><path d="M69.75 86.43l-3.315 15.097" stroke-miterlimit="10" fill="none" stroke="#000" stroke-width=".797"/><path d="M69.935 100.094c-1.922.054-3.008.879-3.586 1.82-.13-1.098-.77-2.3-2.493-3.156" stroke-miterlimit="10" fill="none" stroke="#000" stroke-width=".797" stroke-linecap="round" stroke-linejoin="round"/><path d="M71.177 102.305c0-2.715-2.2-4.914-4.914-4.914a4.913 4.913 0 00-4.914 4.914 4.913 4.913 0 004.914 4.914c2.715 0 4.914-2.2 4.914-4.914zm0 0" stroke-miterlimit="10" fill="#fff" stroke="#000" stroke-width=".399"/><use y="109.887" x="64.57" xlink:href="#l" width="100%" height="100%" transform="translate(0 -3.664)"/><path d="M89.595 86.43l-3.317 15.097" stroke-miterlimit="10" fill="none" stroke="#000" stroke-width=".797"/><path d="M89.778 100.094c-1.925.054-3.007.879-3.586 1.82-.128-1.098-.77-2.3-2.492-3.156" stroke-miterlimit="10" fill="none" stroke="#000" stroke-width=".797" stroke-linecap="round" stroke-linejoin="round"/><path d="M91.02 102.305c0-2.715-2.2-4.914-4.914-4.914a4.913 4.913 0 00-4.914 4.914 4.915 4.915 0 009.829 0zm0 0" stroke-miterlimit="10" fill="#fff" stroke="#000" stroke-width=".399"/><use y="109.887" x="84.413" xlink:href="#l" width="100%" height="100%" transform="translate(0 -3.664)"/><path d="M109.435 86.43l-3.313 15.097" stroke-miterlimit="10" fill="none" stroke="#000" stroke-width=".797"/><path d="M109.622 100.094c-1.926.054-3.008.879-3.586 1.82-.133-1.098-.77-2.3-2.492-3.156" stroke-miterlimit="10" fill="none" stroke="#000" stroke-width=".797" stroke-linecap="round" stroke-linejoin="round"/><path d="M110.864 102.305a4.916 4.916 0 00-9.832 0 4.916 4.916 0 009.832 0zm0 0" stroke-miterlimit="10" fill="#fff" stroke="#000" stroke-width=".399"/><use y="109.887" x="104.256" xlink:href="#l" width="100%" height="100%" transform="translate(0 -3.664)"/><path d="M129.278 86.43l-3.316 15.097" stroke-miterlimit="10" fill="none" stroke="#000" stroke-width=".797"/><path d="M129.46 100.094c-1.92.055-3.002.879-3.584 1.82-.13-1.098-.766-2.3-2.488-3.156" stroke-miterlimit="10" fill="none" stroke="#000" stroke-width=".797" stroke-linecap="round" stroke-linejoin="round"/><path d="M130.708 102.305a4.916 4.916 0 00-9.832 0 4.916 4.916 0 009.832 0zm0 0" stroke-miterlimit="10" fill="#fff" stroke="#000" stroke-width=".399"/><use y="109.887" x="124.099" xlink:href="#l" width="100%" height="100%" transform="translate(0 -3.664)"/><path d="M149.122 86.43l-3.316 15.097" stroke-miterlimit="10" fill="none" stroke="#000" stroke-width=".797"/><path d="M149.306 100.094c-1.922.055-3.008.879-3.586 1.82-.13-1.098-.766-2.3-2.49-3.156" stroke-miterlimit="10" fill="none" stroke="#000" stroke-width=".797" stroke-linecap="round" stroke-linejoin="round"/><path d="M150.55 102.305a4.916 4.916 0 00-9.83 0 4.916 4.916 0 009.832 0zm0 0" stroke-miterlimit="10" fill="#fff" stroke="#000" stroke-width=".399"/><use y="109.887" x="143.942" xlink:href="#l" width="100%" height="100%" transform="translate(0 -3.664)"/><path d="M168.966 86.43l-3.317 15.097" stroke-miterlimit="10" fill="none" stroke="#000" stroke-width=".797"/><path d="M169.149 100.094c-1.921.055-3.007.879-3.585 1.82-.13-1.098-.77-2.3-2.493-3.156" stroke-miterlimit="10" fill="none" stroke="#000" stroke-width=".797" stroke-linecap="round" stroke-linejoin="round"/><path d="M170.396 102.305a4.917 4.917 0 00-9.833 0 4.917 4.917 0 009.833 0zm0 0" stroke-miterlimit="10" fill="#fff" stroke="#000" stroke-width=".399"/><use y="109.887" x="163.784" xlink:href="#l" width="100%" height="100%" transform="translate(0 -3.664)"/><path stroke-miterlimit="10" d="M188.81 86.43l-3.317 15.097" fill="none" stroke="#000" stroke-width=".797"/><path d="M188.993 100.094c-1.922.054-3.008.879-3.586 1.82-.13-1.098-.77-2.3-2.492-3.156" stroke-miterlimit="10" fill="none" stroke="#000" stroke-width=".797" stroke-linecap="round" stroke-linejoin="round"/><path d="M190.235 102.305a4.913 4.913 0 00-4.914-4.914 4.913 4.913 0 00-4.914 4.914c0 2.715 2.2 4.914 4.914 4.914 2.715 0 4.914-2.2 4.914-4.914zm0 0" stroke-miterlimit="10" fill="#fff" stroke="#000" stroke-width=".399"/><use y="109.887" x="183.627" xlink:href="#l" width="100%" height="100%" transform="translate(0 -3.664)"/><path d="M6.735 107.422v4.848" stroke-miterlimit="10" fill="none" stroke="#000" stroke-width=".797"/><path d="M9.845 110.117c-1.867.465-2.746 1.504-3.11 2.551-.363-1.047-1.246-2.086-3.113-2.55" stroke-miterlimit="10" fill="none" stroke="#000" stroke-width=".797" stroke-linecap="round" stroke-linejoin="round"/><use y="126.512" x="3.675" xlink:href="#w" width="100%" height="100%" transform="translate(0 -3.664)"/><path d="M26.579 107.422v4.848" stroke-miterlimit="10" fill="none" stroke="#000" stroke-width=".797"/><path d="M29.689 110.117c-1.868.465-2.75 1.504-3.11 2.551-.363-1.047-1.246-2.086-3.113-2.55" stroke-miterlimit="10" fill="none" stroke="#000" stroke-width=".797" stroke-linecap="round" stroke-linejoin="round"/><use y="126.624" x="23.519" xlink:href="#z" width="100%" height="100%" transform="translate(0 -3.664)"/><path d="M46.419 107.422v4.848" stroke-miterlimit="10" fill="none" stroke="#000" stroke-width=".797"/><path d="M49.532 110.117c-1.867.465-2.75 1.504-3.113 2.551-.36-1.047-1.242-2.086-3.11-2.55" stroke-miterlimit="10" fill="none" stroke="#000" stroke-width=".797" stroke-linecap="round" stroke-linejoin="round"/><use y="126.624" x="43.362" xlink:href="#z" width="100%" height="100%" transform="translate(0 -3.664)"/><path d="M66.263 107.422v4.848" stroke-miterlimit="10" fill="none" stroke="#000" stroke-width=".797"/><path d="M69.376 110.117c-1.867.465-2.75 1.504-3.113 2.551-.364-1.047-1.242-2.086-3.11-2.55" stroke-miterlimit="10" fill="none" stroke="#000" stroke-width=".797" stroke-linecap="round" stroke-linejoin="round"/><use y="126.624" x="63.205" xlink:href="#T" width="100%" height="100%" transform="translate(0 -3.664)"/><path d="M86.106 107.422v4.848" stroke-miterlimit="10" fill="none" stroke="#000" stroke-width=".797"/><path d="M89.22 110.117c-1.867.465-2.75 1.504-3.114 2.551-.363-1.047-1.242-2.086-3.11-2.55" stroke-miterlimit="10" fill="none" stroke="#000" stroke-width=".797" stroke-linecap="round" stroke-linejoin="round"/><use y="126.512" x="83.048" xlink:href="#U" width="100%" height="100%" transform="translate(0 -3.664)"/><path d="M105.95 107.422v4.848" stroke-miterlimit="10" fill="none" stroke="#000" stroke-width=".797"/><path d="M109.063 110.117c-1.867.465-2.75 1.504-3.113 2.551-.363-1.047-1.242-2.086-3.11-2.55" stroke-miterlimit="10" fill="none" stroke="#000" stroke-width=".797" stroke-linecap="round" stroke-linejoin="round"/><use y="126.624" x="102.891" xlink:href="#z" width="100%" height="100%" transform="translate(0 -3.664)"/><path d="M125.794 107.422v4.848" stroke-miterlimit="10" fill="none" stroke="#000" stroke-width=".797"/><path d="M128.907 110.117c-1.867.465-2.75 1.504-3.113 2.551-.363-1.047-1.242-2.086-3.11-2.55" stroke-miterlimit="10" fill="none" stroke="#000" stroke-width=".797" stroke-linecap="round" stroke-linejoin="round"/><use y="126.624" x="122.734" xlink:href="#T" width="100%" height="100%" transform="translate(0 -3.664)"/><path d="M145.638 107.422v4.848" stroke-miterlimit="10" fill="none" stroke="#000" stroke-width=".797"/><path d="M148.75 110.117c-1.866.465-2.75 1.504-3.112 2.551-.364-1.047-1.242-2.086-3.11-2.55" stroke-miterlimit="10" fill="none" stroke="#000" stroke-width=".797" stroke-linecap="round" stroke-linejoin="round"/><use y="126.624" x="142.577" xlink:href="#V" width="100%" height="100%" transform="translate(0 -3.664)"/><path d="M165.48 107.422v4.848" stroke-miterlimit="10" fill="none" stroke="#000" stroke-width=".797"/><path d="M168.595 110.117c-1.867.465-2.75 1.504-3.114 2.551-.363-1.047-1.242-2.086-3.11-2.55" stroke-miterlimit="10" fill="none" stroke="#000" stroke-width=".797" stroke-linecap="round" stroke-linejoin="round"/><use y="126.624" x="162.421" xlink:href="#z" width="100%" height="100%" transform="translate(0 -3.664)"/><path d="M185.325 107.422v4.848" stroke-miterlimit="10" fill="none" stroke="#000" stroke-width=".797"/><path d="M188.435 110.117c-1.864.465-2.746 1.504-3.11 2.551-.363-1.047-1.246-2.086-3.11-2.55" stroke-miterlimit="10" fill="none" stroke="#000" stroke-width=".797" stroke-linecap="round" stroke-linejoin="round"/><use y="126.624" x="182.264" xlink:href="#z" width="100%" height="100%" transform="translate(0 -3.664)"/><path d="M52.43 131.859a4.507 4.507 0 00-4.507-4.507 4.508 4.508 0 100 9.015 4.507 4.507 0 004.508-4.508zm0 0" stroke-miterlimit="10" fill="#fff" stroke="#000" stroke-width=".399"/><use y="138.459" x="45.471" xlink:href="#o" width="100%" height="100%" transform="translate(0 -3.664)"/><path d="M30.064 86.43l6.644 18.902c.184.52.328 1.387.328 1.938v17.847c0 .551.395 1.207.883 1.461l5.133 2.711" stroke-miterlimit="10" fill="none" stroke="#000" stroke-width=".797"/><path d="M42.603 125.536c-.461 1.866.046 3.132.804 3.94-1.093-.167-2.426.126-3.707 1.56" stroke-miterlimit="10" fill="none" stroke="#000" stroke-width=".797" stroke-linecap="round" stroke-linejoin="round"/><path d="M49.907 86.43l6.645 18.902c.18.52.328 1.387.328 1.938v17.847c0 .551-.375 1.239-.836 1.535l-3.488 2.235" stroke-miterlimit="10" fill="none" stroke="#000" stroke-width=".797"/><path d="M56.048 130.344c-1.4-1.32-2.75-1.5-3.828-1.242.687-.868 1.086-2.172.468-3.993" stroke-miterlimit="10" fill="none" stroke="#000" stroke-width=".797" stroke-linecap="round" stroke-linejoin="round"/><path d="M191.329 131.859a4.507 4.507 0 00-4.508-4.507 4.508 4.508 0 100 9.015 4.507 4.507 0 004.508-4.508zm0 0" stroke-miterlimit="10" fill="#fff" stroke="#000" stroke-width=".399"/><use y="138.459" x="184.368" xlink:href="#o" width="100%" height="100%" transform="translate(0 -3.664)"/><path d="M168.966 86.43l6.644 18.902c.18.52.328 1.387.328 1.938v17.847c0 .551.395 1.207.883 1.461l5.133 2.711" stroke-miterlimit="10" fill="none" stroke="#000" stroke-width=".797"/><path d="M181.505 125.536c-.461 1.866.047 3.132.805 3.94-1.098-.167-2.426.126-3.711 1.56" stroke-miterlimit="10" fill="none" stroke="#000" stroke-width=".797" stroke-linecap="round" stroke-linejoin="round"/><path stroke-miterlimit="10" d="M188.81 86.43l6.64 18.902c.184.52.332 1.387.332 1.938v17.847c0 .551-.375 1.239-.84 1.535l-3.484 2.235" fill="none" stroke="#000" stroke-width=".797"/><path d="M194.95 130.344c-1.402-1.317-2.75-1.5-3.828-1.242.688-.868 1.082-2.172.469-3.993" stroke-miterlimit="10" fill="none" stroke="#000" stroke-width=".797" stroke-linecap="round" stroke-linejoin="round"/><path d="M131.8 141.781a4.507 4.507 0 00-4.506-4.507 4.508 4.508 0 100 9.015 4.51 4.51 0 004.508-4.508zm0 0" stroke-miterlimit="10" fill="#fff" stroke="#000" stroke-width=".399"/><use y="148.381" x="124.84" xlink:href="#o" width="100%" height="100%" transform="translate(0 -3.664)"/><path d="M109.435 86.43l6.644 18.902c.184.52.332 1.387.332 1.938v17.847c0 .551.254 1.364.567 1.817l7.175 10.324" stroke-miterlimit="10" fill="none" stroke="#000" stroke-width=".797"/><path d="M125.48 133.719c-1.27 1.445-1.397 2.8-1.1 3.867-.895-.652-2.211-1-4.008-.32" stroke-miterlimit="10" fill="none" stroke="#000" stroke-width=".797" stroke-linecap="round" stroke-linejoin="round"/><path d="M182.18 132.633l-49.456 8.242" stroke-miterlimit="10" fill="none" stroke="#000" stroke-width=".797"/><path d="M135.36 143.59c-.77-1.762-1.937-2.461-3.027-2.649.973-.53 1.852-1.57 2.004-3.488" stroke-miterlimit="10" fill="none" stroke="#000" stroke-width=".797" stroke-linecap="round" stroke-linejoin="round"/><path d="M74.259 151.703a4.51 4.51 0 10-9.018-.003 4.51 4.51 0 009.018.003zm0 0" stroke-miterlimit="10" fill="#fff" stroke="#000" stroke-width=".399"/><use y="158.302" x="67.297" xlink:href="#o" width="100%" height="100%" transform="translate(0 -3.664)"/><path d="M51.407 135.027L65.677 148" stroke-miterlimit="10" fill="none" stroke="#000" stroke-width=".797"/><path d="M66.177 144.25c-.91 1.695-.735 3.047-.207 4.016-1.016-.434-2.38-.48-3.977.59" stroke-miterlimit="10" fill="none" stroke="#000" stroke-width=".797" stroke-linecap="round" stroke-linejoin="round"/><path d="M122.653 142.582l-47.476 8.184" stroke-miterlimit="10" fill="none" stroke="#000" stroke-width=".797"/><path d="M77.825 153.469c-.777-1.762-1.95-2.453-3.043-2.633.969-.535 1.844-1.582 1.985-3.5" stroke-miterlimit="10" fill="none" stroke="#000" stroke-width=".797" stroke-linecap="round" stroke-linejoin="round"/><path d="M69.75 156.41v8.176" stroke-miterlimit="10" fill="none" stroke="#000" stroke-width=".797"/><path d="M72.86 162.434c-1.867.468-2.746 1.504-3.11 2.55-.362-1.046-1.245-2.082-3.112-2.55" stroke-miterlimit="10" fill="none" stroke="#000" stroke-width=".797" stroke-linecap="round" stroke-linejoin="round"/><path d="M92.118 136.82a4.508 4.508 0 00-4.512-4.507 4.508 4.508 0 100 9.015 4.51 4.51 0 004.512-4.508zm0 0" stroke-miterlimit="10" fill="#fff" stroke="#000" stroke-width=".399"/><use y="143.42" x="85.155" xlink:href="#o" width="100%" height="100%" transform="translate(0 -3.664)"/><path d="M69.75 86.43l6.646 18.902c.18.52.328 1.387.328 1.938v17.847c0 .551.32 1.313.71 1.696l6.25 6.148" stroke-miterlimit="10" fill="none" stroke="#000" stroke-width=".797"/><path d="M84.329 129.234c-.976 1.657-.851 3.012-.36 4.004-1.003-.472-2.36-.574-4 .43" stroke-miterlimit="10" fill="none" stroke="#000" stroke-width=".797" stroke-linecap="round" stroke-linejoin="round"/><path d="M129.278 86.43l6.645 18.902c.183.52.332 1.387.332 1.938v17.847c0 .551-.438 1.094-.977 1.211l-42.293 9.309" stroke-miterlimit="10" fill="none" stroke="#000" stroke-width=".797"/><path d="M95.755 138.211c-.856-1.723-2.06-2.36-3.16-2.488.945-.578 1.77-1.664 1.824-3.586" stroke-miterlimit="10" fill="none" stroke="#000" stroke-width=".797" stroke-linecap="round" stroke-linejoin="round"/><path d="M87.849 141.524l1.183 23.062" stroke-miterlimit="10" fill="none" stroke="#000" stroke-width=".797"/><path d="M92.028 162.277c-1.84.563-2.664 1.645-2.976 2.707-.414-1.023-1.348-2.015-3.235-2.386" stroke-miterlimit="10" fill="none" stroke="#000" stroke-width=".797" stroke-linecap="round" stroke-linejoin="round"/><path d="M10.22 86.43l6.644 18.902c.184.52.332 1.387.332 1.938v17.847c0 .551.285 1.34.637 1.762l31.563 37.89" stroke-miterlimit="10" fill="none" stroke="#000" stroke-width=".797"/><path d="M50.41 161.126c-1.136 1.554-1.147 2.917-.757 3.952-.95-.574-2.293-.804-4.023.031" stroke-miterlimit="10" fill="none" stroke="#000" stroke-width=".797" stroke-linecap="round" stroke-linejoin="round"/><path d="M89.595 86.43l6.64 18.902c.184.52.332 1.387.332 1.938v17.847c0 .551.137 1.422.309 1.946l12.313 37.562" stroke-miterlimit="10" fill="none" stroke="#000" stroke-width=".797"/><path d="M111.474 161.613c-1.63 1.024-2.141 2.286-2.16 3.391-.672-.879-1.833-1.594-3.75-1.453" stroke-miterlimit="10" fill="none" stroke="#000" stroke-width=".797" stroke-linecap="round" stroke-linejoin="round"/><path d="M149.122 86.43l6.645 18.902c.183.52.328 1.387.328 1.938v17.847c0 .551-.25 1.367-.56 1.82l-25.807 37.79" stroke-miterlimit="10" fill="none" stroke="#000" stroke-width=".797"/><path d="M133.513 164.703c-1.805-.668-3.117-.308-4.008.352.289-1.07.148-2.422-1.133-3.86" stroke-miterlimit="10" fill="none" stroke="#000" stroke-width=".797" stroke-linecap="round" stroke-linejoin="round"/></svg>