<svg xmlns="http://www.w3.org/2000/svg" xmlns:xlink="http://www.w3.org/1999/xlink" version="1.2" viewBox="0 0 121.792 109.561" height="146.082" width="162.389"><defs><symbol id="m" overflow="visible"><path d="M7.531-.344c0-.094-.031-.125-.156-.25L5-2.984l2.375-2.391c.125-.14.156-.156.156-.25 0-.14-.11-.25-.234-.25-.094 0-.156.047-.25.156l-2.39 2.39-2.407-2.39c-.14-.125-.156-.156-.25-.156-.125 0-.25.11-.25.25 0 .094.063.14.156.25l2.39 2.39-2.39 2.376c-.11.125-.156.187-.156.265 0 .125.125.235.25.235.094 0 .11-.016.25-.157l2.39-2.39 2.391 2.39c.11.125.188.157.266.157a.23.23 0 00.234-.235zm0 0"/></symbol><symbol id="a" overflow="visible"><path d="M6.672-5.578c0-.734-.156-1.219-.563-1.656-.53-.594-1.421-.922-2.578-.922C1.61-8.156.5-7.25.5-5.687c0 1.25.625 1.843 2.25 2.156l1.125.219c1.094.203 1.5.515 1.5 1.171 0 .672-.61 1.079-1.61 1.079-1.124 0-1.75-.485-1.812-1.329H.36C.453-.687 1.625.25 3.672.25c2.062 0 3.297-.969 3.297-2.594 0-1.265-.64-1.922-2.125-2.203l-1.25-.25c-1.188-.234-1.531-.469-1.531-1.047 0-.61.546-.984 1.39-.984 1.047 0 1.625.437 1.688 1.25zm0 0"/></symbol><symbol id="c" overflow="visible"><path d="M.688-5.938V0h1.546v-3.156c0-.906.454-1.36 1.36-1.36.156 0 .265.016.469.047V-6.03H3.89c-.72 0-1.329.453-1.657 1.25v-1.157zm0 0"/></symbol><symbol id="d" overflow="visible"><path d="M3.313-5.813h-.86v-1.593H.906v1.593h-.75v1.016h.75v3.656c0 .938.5 1.391 1.516 1.391.344 0 .61-.031.89-.125V-.953c-.156.031-.25.047-.359.047-.406 0-.5-.125-.5-.656v-3.235h.86zm0 0"/></symbol><symbol id="e" overflow="visible"><path d="M3.172-8.969C1.39-7.359.937-4.938.937-2.984c0 2.093.516 4.437 2.235 5.984h.719C3.437 2.562 2.703 1.64 2.28.281c-.328-1.062-.437-2.172-.437-3.25 0-3.531 1.25-5.25 2.047-6zm0 0"/></symbol><symbol id="g" overflow="visible"><path d="M1.36 3c1.796-1.594 2.25-4.031 2.25-5.969 0-2.11-.516-4.453-2.25-6H.64c.47.438 1.204 1.36 1.626 2.719.312 1.063.437 2.172.437 3.266C2.703.53 1.453 2.266.641 3zm0 0"/></symbol><symbol id="h" overflow="visible"><path d="M2.11-5.313h-.97v.97h.97zM1.14-.968V0h.97v-.969zm0 0"/></symbol><symbol id="f" overflow="visible"><path d="M4.219-5.922c-1.016 0-1.922.453-2.485 1.266-.484.703-.859 1.922-.859 2.86C.875-.579 1.735.25 2.953.25c1.063 0 1.89-.422 2.516-1.266.5-.703.875-1.906.875-2.859 0-.578-.235-1.14-.61-1.516-.375-.359-.875-.53-1.515-.53zm-.14.844c.812 0 1.296.531 1.296 1.422 0 .64-.188 1.36-.484 1.906-.422.766-1.016 1.156-1.782 1.156-.78 0-1.265-.547-1.265-1.437 0-.625.187-1.344.484-1.89.406-.75 1.031-1.157 1.75-1.157zm0 0"/></symbol><symbol id="j" overflow="visible"><path d="M5.766-2.406L6.062 0h1.125L6.079-8.016H4.75L.187 0h1.094l1.344-2.406zm-.11-.86H3.11l2.11-3.671zm0 0"/></symbol><symbol id="o" overflow="visible"><path d="M4.063-5.766h-.938l.156-.75c.125-.562.328-.75.797-.75.078 0 .14 0 .297.032L4.547-8c-.203-.047-.328-.047-.5-.047-.844 0-1.469.485-1.64 1.297l-.204.984h-.765l-.157.735h.766L.984 0h.922L2.97-5.031h.953zm0 0"/></symbol><symbol id="p" overflow="visible"><path d="M6.078-.563c-.11.032-.156.032-.187.032-.297 0-.422-.11-.422-.328 0-.047 0-.079.015-.11l.704-3.312c.062-.297.062-.297.062-.407 0-.75-.766-1.234-1.922-1.234-1.516 0-2.453.64-2.672 1.86h.922c.11-.297.188-.454.344-.61.234-.25.703-.406 1.172-.406.656 0 1.172.297 1.172.703 0 .047-.016.125-.032.203l-.03.203c-.095.453-.313.563-1.11.64-1.469.142-1.938.25-2.485.595-.562.359-.89.937-.89 1.578C.719-.281 1.313.25 2.297.25c.39 0 .844-.078 1.25-.219.344-.125.515-.234.969-.625v.125c0 .453.296.719.828.719.125 0 .156 0 .437-.063.016-.015.078-.015.14-.03zM4.734-1.796C4.594-1.125 3.625-.53 2.656-.53c-.625 0-.969-.266-.969-.735 0-.359.204-.718.532-.921.265-.172.594-.25 1.14-.329 1.032-.14 1.125-.156 1.61-.328zm0 0"/></symbol><symbol id="q" overflow="visible"><path d="M3.375-8.016h-.922L.75 0h.922zm0 0"/></symbol><symbol id="r" overflow="visible"><path d="M5.656-4.156a2.14 2.14 0 00.063-.469c0-.781-.735-1.297-1.797-1.297-.781 0-1.453.219-1.906.656a2.094 2.094 0 00-.657 1.47c0 .671.375.983 1.516 1.28l.813.22c.359.093.53.155.624.28.079.11.141.266.141.36 0 .203-.172.547-.344.687-.28.235-.75.375-1.234.375-.75 0-1.188-.297-1.188-.844 0-.062.016-.171.032-.28H.734a2.84 2.84 0 00-.062.562C.672-.281 1.437.25 2.719.25c1.64 0 2.703-.844 2.703-2.156 0-.672-.36-1.016-1.328-1.266l-.844-.203c-.61-.156-.922-.375-.922-.656 0-.219.125-.5.328-.688.266-.25.594-.36 1.078-.36.641 0 1 .25 1 .673v.25zm0 0"/></symbol><symbol id="s" overflow="visible"><path d="M6.188-2.578l.03-.188a6.66 6.66 0 00.157-1.28c0-1.063-.906-1.876-2.094-1.876-.953 0-1.89.438-2.437 1.188-.516.687-.922 1.937-.922 2.828 0 .593.25 1.203.687 1.61.375.374.86.546 1.5.546 1.313 0 2.454-.813 2.782-2h-.922C4.579-.984 4-.594 3.25-.594c-.86 0-1.36-.547-1.36-1.469 0-.234.016-.343.063-.515zM2.14-3.36c.296-1.016 1.109-1.72 2-1.72.78 0 1.265.532 1.265 1.345 0 .109 0 .187-.031.375zm0 0"/></symbol><symbol id="u" overflow="visible"><path d="M4.031-5.766h-.984l.344-1.578h-.922l-.344 1.578h-.781l-.157.735h.782L1.094-.953a2.5 2.5 0 00-.032.344c0 .53.375.859.985.859.219 0 .562-.031.719-.078l.171-.797c-.343.078-.39.094-.53.094-.235 0-.391-.125-.391-.313 0-.031.015-.078.015-.14l.86-4.047h.984zm0 0"/></symbol><symbol id="v" overflow="visible"><path d="M1.984-5.766L.766 0h.921l.641-2.984C2.61-4.328 3.391-5 4.594-4.97l.203-.922c-.14-.03-.234-.03-.36-.03-.625 0-1.125.28-1.812 1.062l.188-.907zm0 0"/></symbol><symbol id="w" overflow="visible"><path d="M5.313 0L6.53-5.766h-.92L4.922-2.5C4.656-1.312 3.89-.531 2.953-.531c-.594 0-.984-.344-.984-.86 0-.078.015-.187.031-.296l.875-4.079h-.922L1-1.312a2.31 2.31 0 00-.031.359c0 .75.578 1.203 1.515 1.203.86 0 1.485-.266 2.125-.875L4.484 0zm0 0"/></symbol><symbol id="i" overflow="visible"><path d="M3.969 2.75s0-.078-.063-.219L1.812-2.984l2.094-5.532c.063-.14.063-.203.063-.203 0-.14-.11-.25-.235-.25-.156 0-.203.11-.25.25L1.375-3.203c-.063.14-.063.219-.063.219s0 .062.063.218L3.469 2.72c.062.156.094.265.265.265a.24.24 0 00.235-.234zm0 0"/></symbol><symbol id="k" overflow="visible"><path d="M3.328-2.984s0-.079-.062-.22l-2.094-5.5c-.063-.14-.094-.265-.266-.265-.125 0-.234.11-.234.25 0 0 0 .063.062.203l2.094 5.532L.734 2.53c-.062.14-.062.219-.062.219 0 .125.11.234.234.234.156 0 .203-.109.25-.234l2.11-5.516c.062-.156.062-.218.062-.218zm0 0"/></symbol><symbol id="l" overflow="visible"><path d="M11.266-2.984a.136.136 0 00-.094-.125A3.744 3.744 0 018.719-6c0-.063-.063-.11-.125-.11h-.219c-.063 0-.125.063-.125.157a4.259 4.259 0 001.703 2.719H.906c-.172 0-.25.125-.25.25 0 .109.078.234.25.234h9.047A4.259 4.259 0 008.25-.031c0 .11.063.156.125.156h.219c.062 0 .125-.047.125-.094a3.766 3.766 0 012.453-2.906c.047 0 .094-.047.094-.11zm0 0"/></symbol><symbol id="b" overflow="visible"><path d="M3.313-6.031C1.5-6.031.39-4.844.39-2.891.39-.937 1.5.25 3.328.25c1.797 0 2.938-1.203 2.938-3.094 0-2.015-1.094-3.187-2.954-3.187zm.015 1.234c.844 0 1.39.766 1.39 1.922 0 1.11-.577 1.89-1.39 1.89-.844 0-1.406-.78-1.406-1.906 0-1.14.562-1.906 1.406-1.906zm0 0"/></symbol><symbol id="n" overflow="visible"><path d="M5.11 2.86c0-.126-.079-.126-.204-.141-.937-.047-1.375-.594-1.484-1.016-.047-.14-.047-.156-.047-.578V-.672c0-.36 0-.969-.016-1.078-.156-.797-.921-1.11-1.39-1.234 1.406-.407 1.406-1.266 1.406-1.594v-2.156c0-.86 0-1.125.297-1.422.219-.203.484-.5 1.328-.547.063-.016.11-.063.11-.125 0-.14-.094-.14-.25-.14-1.188 0-2.25.609-2.282 1.468v2.188c0 1.125 0 1.312-.312 1.656-.157.172-.485.484-1.235.531-.093 0-.172.016-.172.14 0 .11.079.11.188.126.516.03 1.531.296 1.531 1.484v2.36c0 .703 0 1.109.625 1.546.516.36 1.297.453 1.656.453.157 0 .25 0 .25-.125zm0 0"/></symbol><symbol id="x" overflow="visible"><path d="M5.11-2.984c0-.125-.079-.125-.204-.141-.5-.031-1.531-.281-1.531-1.484v-2.36c0-.687 0-1.093-.61-1.547-.515-.343-1.28-.453-1.671-.453-.11 0-.235 0-.235.14 0 .11.079.11.188.126.953.062 1.39.594 1.5 1.031.031.125.031.156.031.578v1.782c0 .359 0 .968.031 1.093.157.782.922 1.094 1.391 1.235-1.422.406-1.422 1.25-1.422 1.578V.75c0 .86 0 1.125-.281 1.422-.219.219-.485.5-1.328.547a.137.137 0 00-.11.14c0 .125.125.125.235.125 1.203 0 2.265-.609 2.281-1.468V-.672c0-1.125 0-1.312.313-1.64.171-.172.5-.5 1.25-.547.078 0 .171-.016.171-.125zm0 0"/></symbol><symbol id="t" overflow="visible"><path d="M2.328.047c0-.688-.219-1.203-.719-1.203-.375 0-.562.312-.562.578 0 .25.172.578.578.578a.518.518 0 00.39-.156c.032-.016.047-.016.047-.016s.032.156.032.219c0 .39-.078 1.172-.766 1.953-.14.14-.14.188-.14.188 0 .062.062.124.125.124.093 0 1.015-.89 1.015-2.265zm0 0"/></symbol><symbol id="y" overflow="visible"><path d="M2.594-8.016C1.5-6.578.797-4.578.797-2.844c0 1.735.703 3.735 1.797 5.172h.61C2.233.766 1.686-1.094 1.686-2.844c0-1.75.547-3.61 1.516-5.172zm0 0"/></symbol><symbol id="z" overflow="visible"><path d="M1.672-8.016H.75V0h.922zm0 0"/></symbol><symbol id="A" overflow="visible"><path d="M5.64-2.578c0-.875-.062-1.406-.234-1.828-.375-.953-1.25-1.516-2.328-1.516-1.61 0-2.64 1.219-2.64 3.11 0 1.906 1 3.062 2.624 3.062 1.313 0 2.235-.75 2.454-2h-.922c-.25.766-.766 1.156-1.5 1.156a1.61 1.61 0 01-1.39-.75c-.22-.328-.298-.656-.313-1.234zm-4.218-.75c.078-1.063.719-1.75 1.64-1.75.907 0 1.594.75 1.594 1.687v.063zm0 0"/></symbol><symbol id="B" overflow="visible"><path d="M4.813-4.156c0-1.14-.75-1.766-2.079-1.766-1.343 0-2.218.688-2.218 1.75 0 .906.468 1.328 1.828 1.656l.86.22c.64.155.89.39.89.796 0 .547-.547.906-1.344.906-.5 0-.906-.14-1.14-.39-.141-.157-.22-.329-.266-.735H.375C.422-.39 1.172.25 2.672.25c1.453 0 2.375-.719 2.375-1.828 0-.86-.484-1.328-1.625-1.594l-.875-.219c-.75-.171-1.078-.421-1.078-.828 0-.515.484-.86 1.218-.86.75 0 1.141.313 1.157.923zm0 0"/></symbol><symbol id="C" overflow="visible"><path d="M1.016 2.328C2.125.891 2.812-1.109 2.812-2.844c0-1.734-.687-3.734-1.796-5.172H.422c.969 1.563 1.5 3.422 1.5 5.172 0 1.75-.531 3.61-1.5 5.172zm0 0"/></symbol><symbol id="D" overflow="visible"><path d="M2.984-5.922c-1.609 0-2.593 1.14-2.593 3.078S1.359.25 3 .25c1.625 0 2.61-1.156 2.61-3.047 0-1.984-.954-3.125-2.626-3.125zM3-5.078c1.031 0 1.656.844 1.656 2.266 0 1.359-.64 2.218-1.656 2.218s-1.64-.844-1.64-2.25c0-1.375.624-2.234 1.64-2.234zm0 0"/></symbol><symbol id="E" overflow="visible"><path d="M.766-5.766V0h.921v-2.984c0-.829.204-1.375.641-1.688.297-.219.563-.281 1.203-.297v-.922c-.156-.03-.234-.03-.36-.03-.593 0-1.03.343-1.562 1.202v-1.047zm0 0"/></symbol><symbol id="F" overflow="visible"><path d="M5.438-8.016H4.53v2.985c-.39-.594-1-.89-1.765-.89-1.5 0-2.485 1.187-2.485 3.03C.281-.953 1.25.25 2.797.25c.797 0 1.344-.297 1.828-1.016V0h.813zM2.921-5.078c.984 0 1.61.89 1.61 2.266 0 1.328-.641 2.203-1.61 2.203C1.906-.61 1.25-1.5 1.25-2.844c0-1.344.656-2.234 1.672-2.234zm0 0"/></symbol><symbol id="G" overflow="visible"><path d="M5.89-.531c-.109.015-.156.015-.202.015-.313 0-.5-.171-.5-.453v-3.39c0-1.016-.75-1.563-2.157-1.563-.844 0-1.531.234-1.922.656-.265.297-.375.641-.39 1.204h.922c.078-.704.5-1.016 1.343-1.016.829 0 1.297.297 1.297.86v.234c0 .39-.234.546-.953.64-1.297.172-1.5.203-1.86.36-.671.265-1 .78-1 1.53C.469-.405 1.189.25 2.36.25c.72 0 1.297-.25 1.954-.844.062.578.343.844.953.844.171 0 .328-.016.625-.094zM4.282-1.812c0 .312-.093.5-.36.75-.374.343-.827.515-1.374.515-.703 0-1.125-.344-1.125-.922 0-.61.406-.922 1.39-1.062.954-.125 1.157-.172 1.47-.313zm0 0"/></symbol><symbol id="H" overflow="visible"><path d="M2.797-5.766h-.953v-1.578H.937v1.578h-.78v.75h.78v4.36c0 .578.391.906 1.11.906.219 0 .437-.016.75-.078v-.766a1.786 1.786 0 01-.438.047c-.406 0-.515-.11-.515-.515v-3.954h.953zm0 0"/></symbol><symbol id="I" overflow="visible"><path d="M1.656-5.766H.734V0h.922zm0-2.25H.72v1.157h.937zm0 0"/></symbol><symbol id="J" overflow="visible"><path d="M.766-5.766V0h.921v-3.172c0-1.187.625-1.953 1.563-1.953.734 0 1.188.438 1.188 1.125v4h.921v-4.36c0-.952-.718-1.562-1.828-1.562-.86 0-1.406.328-1.922 1.125v-.969zm0 0"/></symbol><symbol id="K" overflow="visible"><path d="M2.016-5.203c-.485 0-.922.219-1.188.578-.344.453-.515 1.156-.515 2.11C.313-.766.905.171 2.016.171c1.093 0 1.703-.938 1.703-2.64 0-1.016-.172-1.688-.516-2.157a1.466 1.466 0 00-1.187-.578zm0 .578c.703 0 1.046.703 1.046 2.094C3.063-1.062 2.72-.36 2-.36 1.312-.36.969-1.08.969-2.5c0-1.422.344-2.125 1.047-2.125zm0 0"/></symbol><symbol id="L" overflow="visible"><path d="M1.89-3.703V0h.657v-5.203h-.422c-.234.812-.375.922-1.375 1.047v.453zm0 0"/></symbol><symbol id="M" overflow="visible"><path d="M3.703-.64H.97c.078-.422.312-.688.937-1.063l.735-.406C3.375-2.5 3.75-3.031 3.75-3.672c0-.437-.188-.828-.484-1.11-.313-.28-.688-.421-1.188-.421-.656 0-1.14.234-1.437.687-.172.266-.266.594-.282 1.125h.657c.015-.359.062-.562.156-.734.156-.313.5-.5.89-.5.579 0 1.016.406 1.016.969 0 .406-.234.765-.703 1.031l-.672.375C.625-1.64.313-1.14.25 0h3.453zm0 0"/></symbol><symbol id="N" overflow="visible"><path d="M1.625-2.375h.078l.266-.016c.718 0 1.078.329 1.078.954 0 .64-.406 1.03-1.078 1.03C1.266-.406.922-.75.875-1.515h-.64c.03.422.109.688.234.922.25.5.765.766 1.484.766 1.063 0 1.75-.64 1.75-1.625 0-.656-.25-1.031-.875-1.234.485-.188.719-.563.719-1.079 0-.89-.594-1.437-1.578-1.437-1.047 0-1.61.578-1.625 1.687h.64c.016-.312.047-.5.125-.656.141-.281.47-.453.875-.453.563 0 .907.328.907.875 0 .375-.125.594-.407.703-.187.078-.406.11-.859.11zm0 0"/></symbol><symbol id="O" overflow="visible"><path d="M2.39-1.25V0h.657v-1.25h.765v-.578h-.765v-3.375h-.485L.204-1.922v.672zm0-.578H.767L2.39-4.094zm0 0"/></symbol></defs><g transform="translate(-4.541 -3.663)"><use xlink:href="#a" x="15.619" y="12.632" width="100%" height="100%"/><use xlink:href="#b" x="22.955" y="12.632" width="100%" height="100%"/><use xlink:href="#c" x="29.675" y="12.632" width="100%" height="100%"/></g><use xlink:href="#d" x="34.174" y="12.632" width="100%" height="100%" transform="translate(-4.541 -3.663)"/><use xlink:href="#e" x="37.836" y="12.632" width="100%" height="100%" transform="translate(-4.541 -3.663)"/><use xlink:href="#f" x="42.389" y="12.632" width="100%" height="100%" transform="translate(-4.541 -3.663)"/><use xlink:href="#g" x="48.823" y="12.632" width="100%" height="100%" transform="translate(-4.541 -3.663)"/><use xlink:href="#h" x="56.699" y="12.632" width="100%" height="100%" transform="translate(-4.541 -3.663)"/><use xlink:href="#i" x="63.268" y="12.632" width="100%" height="100%" transform="translate(-4.541 -3.663)"/><use xlink:href="#j" x="67.918" y="12.632" width="100%" height="100%" transform="translate(-4.541 -3.663)" fill="#283acc"/><use xlink:href="#k" x="75.254" y="12.632" width="100%" height="100%" transform="translate(-4.541 -3.663)"/><use xlink:href="#l" x="83.227" y="12.632" width="100%" height="100%" transform="translate(-4.541 -3.663)"/><use xlink:href="#i" x="98.506" y="12.632" width="100%" height="100%" transform="translate(-4.541 -3.663)"/><use xlink:href="#j" x="103.149" y="12.632" width="100%" height="100%" transform="translate(-4.541 -3.663)" fill="#283acc"/><use xlink:href="#k" x="110.485" y="12.632" width="100%" height="100%" transform="translate(-4.541 -3.663)"/><use xlink:href="#f" x="3.666" y="26.73" width="100%" height="100%" transform="translate(-4.541 -3.663)"/><use xlink:href="#h" x="13.421" y="26.73" width="100%" height="100%" transform="translate(-4.541 -3.663)"/><use xlink:href="#j" x="19.993" y="26.73" width="100%" height="100%" transform="translate(-4.541 -3.663)" fill="#283acc"/><use xlink:href="#m" x="29.986" y="26.73" width="100%" height="100%" transform="translate(-4.541 -3.663)"/><use xlink:href="#j" x="41.941" y="26.73" width="100%" height="100%" transform="translate(-4.541 -3.663)" fill="#283acc"/><use xlink:href="#l" x="52.598" y="26.73" width="100%" height="100%" transform="translate(-4.541 -3.663)"/><use xlink:href="#n" x="67.877" y="26.73" width="100%" height="100%" transform="translate(-4.541 -3.663)"/><use xlink:href="#o" x="73.852" y="26.73" width="100%" height="100%" transform="translate(-4.541 -3.663)"/><g transform="translate(-4.541 -3.663)"><use xlink:href="#p" x="76.58" y="26.73" width="100%" height="100%"/><use xlink:href="#q" x="82.695" y="26.73" width="100%" height="100%"/><use xlink:href="#r" x="85.137" y="26.73" width="100%" height="100%"/><use xlink:href="#s" x="90.636" y="26.73" width="100%" height="100%"/></g><use xlink:href="#t" x="96.751" y="26.73" width="100%" height="100%" transform="translate(-4.541 -3.663)"/><g transform="translate(-4.541 -3.663)"><use xlink:href="#u" x="101.995" y="26.73" width="100%" height="100%"/><use xlink:href="#v" x="105.053" y="26.73" width="100%" height="100%"/></g><g transform="translate(-4.541 -3.663)"><use xlink:href="#w" x="108.88" y="26.73" width="100%" height="100%"/><use xlink:href="#s" x="114.995" y="26.73" width="100%" height="100%"/></g><use xlink:href="#x" x="121.11" y="26.73" width="100%" height="100%" transform="translate(-4.541 -3.663)"/><g transform="translate(-4.541 -3.663)"><use xlink:href="#y" x="32.357" y="40.179" width="100%" height="100%"/><use xlink:href="#z" x="36.02" y="40.179" width="100%" height="100%"/><use xlink:href="#A" x="38.461" y="40.179" width="100%" height="100%"/><use xlink:href="#B" x="44.577" y="40.179" width="100%" height="100%"/><use xlink:href="#B" x="50.076" y="40.179" width="100%" height="100%"/><use xlink:href="#C" x="55.575" y="40.179" width="100%" height="100%"/></g><g transform="translate(-4.541 -3.663)"><use xlink:href="#D" x="62.295" y="40.179" width="100%" height="100%"/><use xlink:href="#E" x="68.411" y="40.179" width="100%" height="100%"/><use xlink:href="#F" x="72.073" y="40.179" width="100%" height="100%"/><use xlink:href="#A" x="78.189" y="40.179" width="100%" height="100%"/><use xlink:href="#E" x="84.304" y="40.179" width="100%" height="100%"/></g><g transform="translate(-4.541 -3.663)"><use xlink:href="#E" x="91.024" y="40.179" width="100%" height="100%"/><use xlink:href="#A" x="94.687" y="40.179" width="100%" height="100%"/><use xlink:href="#z" x="100.802" y="40.179" width="100%" height="100%"/><use xlink:href="#G" x="103.244" y="40.179" width="100%" height="100%"/><use xlink:href="#H" x="109.359" y="40.179" width="100%" height="100%"/><use xlink:href="#I" x="112.417" y="40.179" width="100%" height="100%"/><use xlink:href="#D" x="114.858" y="40.179" width="100%" height="100%"/><use xlink:href="#J" x="120.974" y="40.179" width="100%" height="100%"/></g><path d="M31.072 49.735H11.23v19.84h19.843zm0 0" fill="#d4d7f5" stroke="#000" stroke-width=".598" stroke-miterlimit="10"/><use xlink:href="#p" x="20.347" y="65.283" width="100%" height="100%" transform="translate(-4.541 -3.663)"/><use xlink:href="#K" x="26.462" y="67.076" width="100%" height="100%" transform="translate(-4.541 -3.663)"/><path d="M50.916 49.735H31.072v19.84h19.844zm0 0" fill="#d4d7f5" stroke="#000" stroke-width=".598" stroke-miterlimit="10"/><use xlink:href="#p" x="40.19" y="65.358" width="100%" height="100%" transform="translate(-4.541 -3.663)"/><use xlink:href="#L" x="46.305" y="67.151" width="100%" height="100%" transform="translate(-4.541 -3.663)"/><path d="M70.756 49.735h-19.84v19.84h19.84zm0 0" fill="#d4d7f5" stroke="#000" stroke-width=".598" stroke-miterlimit="10"/><use xlink:href="#p" x="60.033" y="65.358" width="100%" height="100%" transform="translate(-4.541 -3.663)"/><use xlink:href="#M" x="66.148" y="67.151" width="100%" height="100%" transform="translate(-4.541 -3.663)"/><path d="M90.6 49.735H70.756v19.84H90.6zm0 0" fill="#d4d7f5" stroke="#000" stroke-width=".598" stroke-miterlimit="10"/><use xlink:href="#p" x="79.875" y="65.283" width="100%" height="100%" transform="translate(-4.541 -3.663)"/><use xlink:href="#N" x="85.99" y="67.076" width="100%" height="100%" transform="translate(-4.541 -3.663)"/><path d="M110.443 49.735H90.6v19.84h19.843zm0 0" fill="#d4d7f5" stroke="#000" stroke-width=".598" stroke-miterlimit="10"/><use xlink:href="#p" x="99.718" y="65.358" width="100%" height="100%" transform="translate(-4.541 -3.663)"/><use xlink:href="#O" x="105.833" y="67.151" width="100%" height="100%" transform="translate(-4.541 -3.663)"/><path d="M31.072 89.419H11.23v19.844h19.843zm0 0" fill="#d4d7f5" stroke="#000" stroke-width=".598" stroke-miterlimit="10"/><use xlink:href="#p" x="20.347" y="105.043" width="100%" height="100%" transform="translate(-4.541 -3.663)"/><use xlink:href="#O" x="26.462" y="106.837" width="100%" height="100%" transform="translate(-4.541 -3.663)"/><path d="M50.916 89.419H31.072v19.844h19.844zm0 0" fill="#d4d7f5" stroke="#000" stroke-width=".598" stroke-miterlimit="10"/><use xlink:href="#p" x="40.19" y="104.968" width="100%" height="100%" transform="translate(-4.541 -3.663)"/><use xlink:href="#N" x="46.305" y="106.761" width="100%" height="100%" transform="translate(-4.541 -3.663)"/><path d="M70.756 89.419h-19.84v19.844h19.84zm0 0" fill="#d4d7f5" stroke="#000" stroke-width=".598" stroke-miterlimit="10"/><use xlink:href="#p" x="60.032" y="105.043" width="100%" height="100%" transform="translate(-4.541 -3.663)"/><use xlink:href="#L" x="66.148" y="106.837" width="100%" height="100%" transform="translate(-4.541 -3.663)"/><path d="M90.6 89.419H70.756v19.844H90.6zm0 0" fill="#d4d7f5" stroke="#000" stroke-width=".598" stroke-miterlimit="10"/><use xlink:href="#p" x="79.875" y="104.968" width="100%" height="100%" transform="translate(-4.541 -3.663)"/><use xlink:href="#K" x="85.99" y="106.761" width="100%" height="100%" transform="translate(-4.541 -3.663)"/><path d="M110.443 89.419H90.6v19.844h19.843zm0 0" fill="#d4d7f5" stroke="#000" stroke-width=".598" stroke-miterlimit="10"/><use xlink:href="#p" x="99.718" y="105.043" width="100%" height="100%" transform="translate(-4.541 -3.663)"/><use xlink:href="#M" x="105.833" y="106.837" width="100%" height="100%" transform="translate(-4.541 -3.663)"/><path d="M21.15 69.786c1.11 6.293 79.371 13.035 79.371 18.629" fill="none" stroke="#000" stroke-width=".797" stroke-miterlimit="10"/><path d="M103.635 86.263c-1.867.464-2.75 1.503-3.113 2.55-.36-1.047-1.243-2.086-3.11-2.55" fill="none" stroke="#000" stroke-width=".797" stroke-linecap="round" stroke-linejoin="round" stroke-miterlimit="10"/><path d="M40.994 69.786c.602 3.406 39.688 15.965 39.688 18.629" fill="none" stroke="#000" stroke-width=".797" stroke-miterlimit="10"/><path d="M83.791 86.263c-1.867.464-2.746 1.503-3.11 2.55-.363-1.047-1.245-2.086-3.113-2.55" fill="none" stroke="#000" stroke-width=".797" stroke-linecap="round" stroke-linejoin="round" stroke-miterlimit="10"/><path d="M60.838 69.786c.375 2.14-19.844 17.25-19.844 18.629" fill="none" stroke="#000" stroke-width=".797" stroke-miterlimit="10"/><path d="M44.104 86.263c-1.864.464-2.747 1.503-3.11 2.55-.363-1.047-1.246-2.086-3.11-2.55" fill="none" stroke="#000" stroke-width=".797" stroke-linecap="round" stroke-linejoin="round" stroke-miterlimit="10"/><path d="M80.682 69.786c.847 4.816-59.532 14.535-59.532 18.629" fill="none" stroke="#000" stroke-width=".797" stroke-miterlimit="10"/><path d="M24.264 86.263c-1.867.464-2.75 1.503-3.114 2.55-.363-1.047-1.242-2.086-3.109-2.55" fill="none" stroke="#000" stroke-width=".797" stroke-linecap="round" stroke-linejoin="round" stroke-miterlimit="10"/><path d="M100.522 69.786c.601 3.406-39.684 15.965-39.684 18.629" fill="none" stroke="#000" stroke-width=".797" stroke-miterlimit="10"/><path d="M63.947 86.263c-1.867.464-2.746 1.503-3.11 2.55-.362-1.047-1.245-2.086-3.112-2.55" fill="none" stroke="#000" stroke-width=".797" stroke-linecap="round" stroke-linejoin="round" stroke-miterlimit="10"/></svg>