<svg xmlns="http://www.w3.org/2000/svg" xmlns:xlink="http://www.w3.org/1999/xlink" version="1.2" viewBox="0 0 145.33 129.924" height="173.232" width="193.774"><defs><symbol id="r" overflow="visible"><path d="M6.969.234C6.969 0 6.734 0 6.579 0H4.671C3 0 1.625-1.14 1.484-2.75h5.094c.156 0 .39 0 .39-.234 0-.25-.234-.25-.39-.25H1.484C1.625-4.86 3.031-5.97 4.656-5.97h1.922c.156 0 .39 0 .39-.25 0-.234-.234-.234-.39-.234H4.625C2.719-6.453.985-5 .985-2.984.984-1 2.687.484 4.64.484h1.937c.156 0 .39 0 .39-.25zm0 0"/></symbol><symbol id="b" overflow="visible"><path d="M2.281-5.938H.734V0h1.547zm0-2.078H.734v1.375h1.547zm0 0"/></symbol><symbol id="c" overflow="visible"><path d="M.688-5.938V0h1.546v-3.563c0-.703.5-1.171 1.235-1.171.672 0 1 .375 1 1.078V0H6v-3.984c0-1.313-.719-2.047-1.984-2.047-.797 0-1.344.297-1.782.953v-.86zm0 0"/></symbol><symbol id="d" overflow="visible"><path d="M4.453 0H6v-8.016H4.453v2.844c-.39-.594-.906-.86-1.64-.86-1.422 0-2.5 1.36-2.5 3.157 0 .797.25 1.61.64 2.188.406.562 1.14.937 1.86.937.734 0 1.25-.266 1.64-.86zM3.156-4.75c.781 0 1.297.75 1.297 1.89 0 1.079-.531 1.829-1.297 1.829-.765 0-1.297-.766-1.297-1.844 0-1.11.532-1.875 1.297-1.875zm0 0"/></symbol><symbol id="e" overflow="visible"><path d="M3.313-6.031C1.5-6.031.39-4.844.39-2.891.39-.937 1.5.25 3.328.25c1.797 0 2.938-1.203 2.938-3.094 0-2.015-1.094-3.187-2.954-3.187zm.015 1.234c.844 0 1.39.766 1.39 1.922 0 1.11-.577 1.89-1.39 1.89-.844 0-1.406-.78-1.406-1.906 0-1.14.562-1.906 1.406-1.906zm0 0"/></symbol><symbol id="f" overflow="visible"><path d="M6.75 0l1.672-5.938H6.828L5.922-1.78l-.89-4.157H3.5L2.594-1.78l-.938-4.157H.063L1.734 0h1.579l.937-4.188L5.14 0zm0 0"/></symbol><symbol id="g" overflow="visible"><path d="M3.172-8.969C1.39-7.359.937-4.938.937-2.984c0 2.093.516 4.437 2.235 5.984h.719C3.437 2.562 2.703 1.64 2.28.281c-.328-1.062-.437-2.172-.437-3.25 0-3.531 1.25-5.25 2.047-6zm0 0"/></symbol><symbol id="k" overflow="visible"><path d="M1.36 3c1.796-1.594 2.25-4.031 2.25-5.969 0-2.11-.516-4.453-2.25-6H.64c.47.438 1.204 1.36 1.626 2.719.312 1.063.437 2.172.437 3.266C2.703.53 1.453 2.266.641 3zm0 0"/></symbol><symbol id="l" overflow="visible"><path d="M2.11-5.313h-.97v.97h.97zM1.14-.968V0h.97v-.969zm0 0"/></symbol><symbol id="n" overflow="visible"><path d="M5.766-2.406L6.062 0h1.125L6.079-8.016H4.75L.187 0h1.094l1.344-2.406zm-.11-.86H3.11l2.11-3.671zm0 0"/></symbol><symbol id="q" overflow="visible"><path d="M.875 0H4.5c.906 0 1.594-.313 2.172-.953.484-.516.719-1.172.719-1.89 0-.673-.297-1.048-1.063-1.376.953-.437 1.5-1.218 1.5-2.203a1.39 1.39 0 00-.406-1.031c-.375-.406-.828-.563-1.594-.563h-3.25zm2-4.563l.547-2.546h1.984c.938 0 1.36.296 1.36.937 0 .406-.157.813-.422 1.094-.328.36-.766.516-1.5.516zM2.094-.905l.594-2.75h2.484c.75 0 1.172.344 1.172 1 0 .406-.14.797-.375 1.125-.344.437-.766.625-1.375.625zm0 0"/></symbol><symbol id="h" overflow="visible"><path d="M3.266-8.016h-.922L.64 0h.921l.47-2.234 1.187-.97L4.469 0h1.047L3.984-3.766l2.438-2H5.234L2.281-3.359zm0 0"/></symbol><symbol id="j" overflow="visible"><path d="M6.11 0l2.906-5.766h-1L5.859-1.28l-.125-4.485h-1.14L2.516-1.28l-.22-4.485h-1L1.735 0h1.063l2.14-4.594L5.079 0zm0 0"/></symbol><symbol id="m" overflow="visible"><path d="M3.969 2.75s0-.078-.063-.219L1.812-2.984l2.094-5.532c.063-.14.063-.203.063-.203 0-.14-.11-.25-.235-.25-.156 0-.203.11-.25.25L1.375-3.203c-.063.14-.063.219-.063.219s0 .062.063.218L3.469 2.72c.062.156.094.265.265.265a.24.24 0 00.235-.234zm0 0"/></symbol><symbol id="o" overflow="visible"><path d="M3.328-2.984s0-.079-.062-.22l-2.094-5.5c-.063-.14-.094-.265-.266-.265-.125 0-.234.11-.234.25 0 0 0 .063.062.203l2.094 5.532L.734 2.53c-.062.14-.062.219-.062.219 0 .125.11.234.234.234.156 0 .203-.109.25-.234l2.11-5.516c.062-.156.062-.218.062-.218zm0 0"/></symbol><symbol id="p" overflow="visible"><path d="M11.266-2.984a.136.136 0 00-.094-.125A3.744 3.744 0 018.719-6c0-.063-.063-.11-.125-.11h-.219c-.063 0-.125.063-.125.157a4.259 4.259 0 001.703 2.719H.906c-.172 0-.25.125-.25.25 0 .109.078.234.25.234h9.047A4.259 4.259 0 008.25-.031c0 .11.063.156.125.156h.219c.062 0 .125-.047.125-.094a3.766 3.766 0 012.453-2.906c.047 0 .094-.047.094-.11zm0 0"/></symbol><symbol id="a" overflow="visible"><path d="M8.031 0l2.219-8.016H8.5L7.297-2 6-8.016H4.375l-1.234 6-1.25-6H.14L2.406 0h1.485l1.312-6.266L6.547 0zm0 0"/></symbol><symbol id="z" overflow="visible"><path d="M4.875-5.766H.578v.797h3.203L.344-.829V0H5.03v-.797H1.453l3.422-4.156zm0 0"/></symbol><symbol id="u" overflow="visible"><path d="M1.656-5.766H.734V0h.922zm0-2.25H.72v1.157h.937zm0 0"/></symbol><symbol id="C" overflow="visible"><path d="M2.844-5.766h-.969v-.906c0-.375.219-.578.64-.578.079 0 .11 0 .329.016V-8c-.219-.047-.328-.047-.516-.047-.86 0-1.36.485-1.36 1.297v.984H.204v.75H.97V0h.906v-5.016h.969zm0 0"/></symbol><symbol id="D" overflow="visible"><path d="M5.297 0v-5.766H4.39V-2.5c0 1.188-.625 1.953-1.579 1.953-.718 0-1.187-.437-1.187-1.14v-4.079H.719v4.454C.719-.36 1.438.25 2.547.25c.86 0 1.39-.297 1.937-1.047V0zm0 0"/></symbol><symbol id="v" overflow="visible"><path d="M.766-5.766V0h.921v-3.172c0-1.187.625-1.953 1.563-1.953.734 0 1.188.438 1.188 1.125v4h.921v-4.36c0-.952-.718-1.562-1.828-1.562-.86 0-1.406.328-1.922 1.125v-.969zm0 0"/></symbol><symbol id="E" overflow="visible"><path d="M5.188-3.828c-.047-.563-.172-.922-.391-1.25-.39-.531-1.094-.844-1.89-.844-1.548 0-2.563 1.219-2.563 3.14C.344-.921 1.328.25 2.89.25c1.375 0 2.25-.828 2.359-2.234h-.922c-.156.921-.625 1.39-1.406 1.39-1.016 0-1.625-.828-1.625-2.187 0-1.438.594-2.297 1.594-2.297.765 0 1.25.453 1.359 1.25zm0 0"/></symbol><symbol id="F" overflow="visible"><path d="M2.797-5.766h-.953v-1.578H.937v1.578h-.78v.75h.78v4.36c0 .578.391.906 1.11.906.219 0 .437-.016.75-.078v-.766a1.786 1.786 0 01-.438.047c-.406 0-.515-.11-.515-.515v-3.954h.953zm0 0"/></symbol><symbol id="x" overflow="visible"><path d="M2.984-5.922c-1.609 0-2.593 1.14-2.593 3.078S1.359.25 3 .25c1.625 0 2.61-1.156 2.61-3.047 0-1.984-.954-3.125-2.626-3.125zM3-5.078c1.031 0 1.656.844 1.656 2.266 0 1.359-.64 2.218-1.656 2.218s-1.64-.844-1.64-2.25c0-1.375.624-2.234 1.64-2.234zm0 0"/></symbol><symbol id="t" overflow="visible"><path d="M6.094 0L7.78-5.766H6.75L5.61-1.28 4.483-5.766H3.36L2.25-1.28 1.078-5.766H.062L1.734 0h1.032L3.89-4.516 5.047 0zm0 0"/></symbol><symbol id="w" overflow="visible"><path d="M5.438-8.016H4.53v2.985c-.39-.594-1-.89-1.765-.89-1.5 0-2.485 1.187-2.485 3.03C.281-.953 1.25.25 2.797.25c.797 0 1.344-.297 1.828-1.016V0h.813zM2.921-5.078c.984 0 1.61.89 1.61 2.266 0 1.328-.641 2.203-1.61 2.203C1.906-.61 1.25-1.5 1.25-2.844c0-1.344.656-2.234 1.672-2.234zm0 0"/></symbol><symbol id="y" overflow="visible"><path d="M4.813-4.156c0-1.14-.75-1.766-2.079-1.766-1.343 0-2.218.688-2.218 1.75 0 .906.468 1.328 1.828 1.656l.86.22c.64.155.89.39.89.796 0 .547-.547.906-1.344.906-.5 0-.906-.14-1.14-.39-.141-.157-.22-.329-.266-.735H.375C.422-.39 1.172.25 2.672.25c1.453 0 2.375-.719 2.375-1.828 0-.86-.484-1.328-1.625-1.594l-.875-.219c-.75-.171-1.078-.421-1.078-.828 0-.515.484-.86 1.218-.86.75 0 1.141.313 1.157.923zm0 0"/></symbol><symbol id="A" overflow="visible"><path d="M5.64-2.578c0-.875-.062-1.406-.234-1.828-.375-.953-1.25-1.516-2.328-1.516-1.61 0-2.64 1.219-2.64 3.11 0 1.906 1 3.062 2.624 3.062 1.313 0 2.235-.75 2.454-2h-.922c-.25.766-.766 1.156-1.5 1.156a1.61 1.61 0 01-1.39-.75c-.22-.328-.298-.656-.313-1.234zm-4.218-.75c.078-1.063.719-1.75 1.64-1.75.907 0 1.594.75 1.594 1.687v.063zm0 0"/></symbol><symbol id="i" overflow="visible"><path d="M2.328.047c0-.688-.219-1.203-.719-1.203-.375 0-.562.312-.562.578 0 .25.172.578.578.578a.518.518 0 00.39-.156c.032-.016.047-.016.047-.016s.032.156.032.219c0 .39-.078 1.172-.766 1.953-.14.14-.14.188-.14.188 0 .062.062.124.125.124.093 0 1.015-.89 1.015-2.265zm0 0"/></symbol><symbol id="s" overflow="visible"><path d="M1.344-7.11v5.829c0 .64-.094.843-.703.86-.141 0-.344.015-.344.202C.297 0 .484 0 .703 0h1.86c.203 0 .39 0 .39-.219 0-.187-.187-.203-.36-.203-.655-.016-.75-.266-.75-.875V-6.78L7 .047c.11.14.172.187.25.187.203 0 .203-.203.203-.406v-6.75c0-.672.11-.828.656-.844.079 0 .282-.015.282-.203 0-.218-.172-.218-.391-.218H6.25c-.219 0-.406 0-.406.218 0 .203.218.203.343.203.672.016.766.25.766.875v3.75l-3.61-4.875c-.109-.171-.155-.171-.421-.171H.844c-.219 0-.406 0-.406.218 0 .172.187.203.25.203a.99.99 0 01.671.36c-.015.11-.015.125-.015.297zm5.703 6.5L1.844-7.483c-.125-.141-.125-.172-.25-.282h1.422l4.03 5.438zm0 0"/></symbol><symbol id="B" overflow="visible"><path d="M2.172-5.344h-.61L.423 0h.625l.312-1.484.782-.641L2.969 0h.703L2.656-2.516l1.625-1.328h-.797L1.516-2.25zm0 0"/></symbol></defs><use transform="translate(-164.545 -22.984)" height="100%" width="100%" y="31.953" x="168.948" xlink:href="#a"/><use transform="translate(-164.545 -22.984)" height="100%" width="100%" y="31.953" x="179.331" xlink:href="#b"/><use transform="translate(-164.545 -22.984)" height="100%" width="100%" y="31.953" x="182.388" xlink:href="#c"/><use transform="translate(-164.545 -22.984)" height="100%" width="100%" y="31.953" x="189.109" xlink:href="#d"/><use transform="translate(-164.545 -22.984)" height="100%" width="100%" y="31.953" x="195.829" xlink:href="#e"/><use transform="translate(-164.545 -22.984)" height="100%" width="100%" y="31.953" x="202.384" xlink:href="#f"/><use transform="translate(-164.545 -22.984)" height="100%" width="100%" y="31.953" x="210.941" xlink:href="#g"/><use transform="translate(-164.545 -22.984)" height="100%" width="100%" y="31.953" x="215.493" xlink:href="#h" fill="red"/><use transform="translate(-164.545 -22.984)" height="100%" width="100%" y="31.953" x="222.098" xlink:href="#i"/><use transform="translate(-164.545 -22.984)" height="100%" width="100%" y="31.953" x="227.342" xlink:href="#j"/><use transform="translate(-164.545 -22.984)" height="100%" width="100%" y="31.953" x="236.361" xlink:href="#k"/><use transform="translate(-164.545 -22.984)" height="100%" width="100%" y="31.953" x="244.237" xlink:href="#l"/><use transform="translate(-164.545 -22.984)" height="100%" width="100%" y="31.953" x="250.806" xlink:href="#m"/><use transform="translate(-164.545 -22.984)" height="100%" width="100%" y="31.953" x="255.456" xlink:href="#n" fill="#283acc"/><use transform="translate(-164.545 -22.984)" height="100%" width="100%" y="31.953" x="262.792" xlink:href="#o"/><use transform="translate(-164.545 -22.984)" height="100%" width="100%" y="31.953" x="270.765" xlink:href="#p"/><use transform="translate(-164.545 -22.984)" height="100%" width="100%" y="31.953" x="286.044" xlink:href="#m"/><use transform="translate(-164.545 -22.984)" height="100%" width="100%" y="31.953" x="290.687" xlink:href="#q" fill="#00947f"/><use transform="translate(-164.545 -22.984)" height="100%" width="100%" y="31.953" x="298.512" xlink:href="#o"/><use transform="translate(-164.545 -22.984)" height="100%" width="100%" y="46.05" x="165.662" xlink:href="#h" fill="red"/><use transform="translate(-164.545 -22.984)" height="100%" width="100%" y="46.05" x="175.588" xlink:href="#r"/><use transform="translate(-164.545 -22.984)" height="100%" width="100%" y="46.05" x="186.879" xlink:href="#s"/><use transform="translate(-164.545 -22.984)" height="100%" width="100%" y="46.05" x="230.782" xlink:href="#t"/><use transform="translate(-164.545 -22.984)" height="100%" width="100%" y="46.05" x="238.723" xlink:href="#u"/><use transform="translate(-164.545 -22.984)" height="100%" width="100%" y="46.05" x="241.165" xlink:href="#v"/><use transform="translate(-164.545 -22.984)" height="100%" width="100%" y="46.05" x="247.28" xlink:href="#w"/><use transform="translate(-164.545 -22.984)" height="100%" width="100%" y="46.05" x="253.395" xlink:href="#x"/><use transform="translate(-164.545 -22.984)" height="100%" width="100%" y="46.05" x="259.346" xlink:href="#t"/><use transform="translate(-164.545 -22.984)" height="100%" width="100%" y="46.05" x="270.344" xlink:href="#y"/><use transform="translate(-164.545 -22.984)" height="100%" width="100%" y="46.05" x="275.844" xlink:href="#u"/><use transform="translate(-164.545 -22.984)" height="100%" width="100%" y="46.05" x="278.285" xlink:href="#z"/><use transform="translate(-164.545 -22.984)" height="100%" width="100%" y="46.05" x="283.62" xlink:href="#A"/><use transform="translate(-164.545 -22.984)" height="100%" width="100%" y="60.544" x="163.248" xlink:href="#j"/><use transform="translate(-164.545 -22.984)" height="100%" width="100%" y="60.544" x="175.588" xlink:href="#l"/><use transform="translate(-164.545 -22.984)" height="100%" width="100%" y="60.544" x="182.16" xlink:href="#n" fill="#283acc"/><use transform="translate(-164.545 -22.984)" height="100%" width="100%" y="55.608" x="189.496" xlink:href="#B" fill="red"/><use transform="translate(-164.545 -22.984)" height="100%" width="100%" y="60.544" x="197.718" xlink:href="#p"/><use transform="translate(-164.545 -22.984)" height="100%" width="100%" y="60.544" x="212.994" xlink:href="#q" fill="#00947f"/><use transform="translate(-164.545 -22.984)" height="100%" width="100%" y="60.544" x="230.782" xlink:href="#t"/><use transform="translate(-164.545 -22.984)" height="100%" width="100%" y="60.544" x="238.723" xlink:href="#u"/><use transform="translate(-164.545 -22.984)" height="100%" width="100%" y="60.544" x="241.165" xlink:href="#v"/><use transform="translate(-164.545 -22.984)" height="100%" width="100%" y="60.544" x="247.28" xlink:href="#w"/><use transform="translate(-164.545 -22.984)" height="100%" width="100%" y="60.544" x="253.395" xlink:href="#x"/><use transform="translate(-164.545 -22.984)" height="100%" width="100%" y="60.544" x="259.346" xlink:href="#t"/><use transform="translate(-164.545 -22.984)" height="100%" width="100%" y="60.544" x="270.344" xlink:href="#C"/><use transform="translate(-164.545 -22.984)" height="100%" width="100%" y="60.544" x="273.402" xlink:href="#D"/><use transform="translate(-164.545 -22.984)" height="100%" width="100%" y="60.544" x="279.517" xlink:href="#v"/><use transform="translate(-164.545 -22.984)" height="100%" width="100%" y="60.544" x="285.633" xlink:href="#E"/><use transform="translate(-164.545 -22.984)" height="100%" width="100%" y="60.544" x="291.132" xlink:href="#F"/><use transform="translate(-164.545 -22.984)" height="100%" width="100%" y="60.544" x="294.19" xlink:href="#u"/><use transform="translate(-164.545 -22.984)" height="100%" width="100%" y="60.544" x="296.631" xlink:href="#x"/><use transform="translate(-164.545 -22.984)" height="100%" width="100%" y="60.544" x="302.746" xlink:href="#v"/><path d="M41.748 50.254H21.904v19.844h19.844zm0 0" fill="#d4d7f5" stroke="#000" stroke-width=".598" stroke-miterlimit="10"/><path d="M61.592 50.254H41.748v19.844h19.844zm19.84 0h-19.84v19.844h19.84zm19.843 0H81.432v19.844h19.843zm19.845 0h-19.845v19.844h19.844zm0 0" fill="#d4d7f5" stroke="#000" stroke-width=".598" stroke-miterlimit="10"/><path d="M140.963 50.254h-19.844v19.844h19.844zm0 0" fill="#d4d7f5" stroke="#000" stroke-width=".598" stroke-miterlimit="10"/><path d="M41.748 109.781H21.904v19.844h19.844zm0 0" fill="#cae8e6" stroke="#000" stroke-width=".598" stroke-miterlimit="10"/><path d="M61.592 109.781H41.748v19.844h19.844zm19.84 0h-19.84v19.844h19.84zm19.843 0H81.432v19.844h19.843zm0 0" fill="#cae8e6" stroke="#000" stroke-width=".598" stroke-miterlimit="10"/><path d="M17.936 66.129v7.938H85.4v-7.938" fill="none" stroke="#c51117" stroke-width=".797" stroke-miterlimit="10"/><path d="M51.67 74.067L41.748 93.91l-9.496 14.992" fill="none" stroke="#000" stroke-width=".797" stroke-miterlimit="10"/><path d="M36.033 108.746c-1.828-.601-3.129-.199-3.992.492.25-1.078.063-2.425-1.266-3.82" fill="none" stroke="#000" stroke-width=".797" stroke-linecap="round" stroke-linejoin="round" stroke-miterlimit="10"/><path d="M47.822 93.91a6.077 6.077 0 00-6.074-6.078 6.077 6.077 0 000 12.153 6.073 6.073 0 006.074-6.075zm0 0" fill="#fff" stroke="#000" stroke-width=".399" stroke-miterlimit="10"/><use transform="translate(-164.545 -22.984)" height="100%" width="100%" y="119.829" x="201.782" xlink:href="#j"/><path d="M37.78 68.113v7.938h67.464v-7.938" fill="none" stroke="#c51117" stroke-width=".797" stroke-miterlimit="10"/><path d="M71.514 76.05l-9.922 17.86-9.496 14.992" fill="none" stroke="#000" stroke-width=".797" stroke-miterlimit="10"/><path d="M55.877 108.746c-1.828-.601-3.129-.199-3.996.492.254-1.078.066-2.425-1.262-3.82" fill="none" stroke="#000" stroke-width=".797" stroke-linecap="round" stroke-linejoin="round" stroke-miterlimit="10"/><path d="M67.666 93.91a6.077 6.077 0 10-12.153-.003 6.077 6.077 0 0012.153.003zm0 0" fill="#fff" stroke="#000" stroke-width=".399" stroke-miterlimit="10"/><use transform="translate(-164.545 -22.984)" height="100%" width="100%" y="119.829" x="221.624" xlink:href="#j"/><path d="M57.623 70.098v7.937h67.465v-7.937" fill="none" stroke="#c51117" stroke-width=".797" stroke-miterlimit="10"/><path d="M91.354 78.035L81.432 93.91l-9.493 14.992" fill="none" stroke="#000" stroke-width=".797" stroke-miterlimit="10"/><path d="M75.717 108.746c-1.824-.601-3.125-.199-3.992.492.254-1.078.066-2.425-1.262-3.82" fill="none" stroke="#000" stroke-width=".797" stroke-linecap="round" stroke-linejoin="round" stroke-miterlimit="10"/><path d="M87.51 93.91a6.077 6.077 0 10-12.152-.003 6.077 6.077 0 0012.152.003zm0 0" fill="#fff" stroke="#000" stroke-width=".399" stroke-miterlimit="10"/><use transform="translate(-164.545 -22.984)" height="100%" width="100%" y="119.829" x="241.466" xlink:href="#j"/><path d="M77.463 72.082v7.938h67.469v-7.938" fill="none" stroke="#c51117" stroke-width=".797" stroke-miterlimit="10"/><path d="M111.197 80.02l-9.922 13.89-9.492 14.992" fill="none" stroke="#000" stroke-width=".797" stroke-miterlimit="10"/><path d="M95.56 108.746c-1.824-.601-3.124-.199-3.992.492.254-1.078.063-2.425-1.261-3.82" fill="none" stroke="#000" stroke-width=".797" stroke-linecap="round" stroke-linejoin="round" stroke-miterlimit="10"/><path d="M107.35 93.91a6.077 6.077 0 00-6.075-6.078 6.077 6.077 0 000 12.153 6.073 6.073 0 006.075-6.075zm0 0" fill="#fff" stroke="#000" stroke-width=".399" stroke-miterlimit="10"/><use transform="translate(-164.545 -22.984)" height="100%" width="100%" y="119.829" x="261.309" xlink:href="#j"/></svg>