<svg xmlns="http://www.w3.org/2000/svg" xmlns:xlink="http://www.w3.org/1999/xlink" version="1.2" viewBox="0 0 262.742 55.46" height="73.946" width="350.323"><defs><symbol id="o" overflow="visible"><path d="M4.172-1.5c0-.219 0-.469-.422-.469-.406 0-.406.25-.406.469 0 .578-.313.844-.61.844-.578 0-.578-.625-.578-.89v-2.876h1.328c.172 0 .47 0 .47-.36 0-.374-.282-.374-.47-.374H2.156v-.969c0-.234 0-.5-.406-.5-.422 0-.422.25-.422.5v.969h-.61c-.187 0-.484 0-.484.375 0 .36.297.36.47.36h.624v2.952c0 1.219.797 1.547 1.36 1.547.796 0 1.484-.656 1.484-1.578zm0 0"/></symbol><symbol id="a" overflow="visible"><path d="M8.031 0l2.219-8.016H8.5L7.297-2 6-8.016H4.375l-1.234 6-1.25-6H.14L2.406 0h1.485l1.312-6.266L6.547 0zm0 0"/></symbol><symbol id="c" overflow="visible"><path d="M2.281-5.938H.734V0h1.547zm0-2.078H.734v1.375h1.547zm0 0"/></symbol><symbol id="d" overflow="visible"><path d="M3.313-5.813h-.86v-1.593H.906v1.593h-.75v1.016h.75v3.656c0 .938.5 1.391 1.516 1.391.344 0 .61-.031.89-.125V-.953c-.156.031-.25.047-.359.047-.406 0-.5-.125-.5-.656v-3.235h.86zm0 0"/></symbol><symbol id="e" overflow="visible"><path d="M5.766-2.484c.015-.141.015-.188.015-.266a5.06 5.06 0 00-.234-1.563C5.14-5.39 4.187-6.03 2.984-6.03c-1.703 0-2.75 1.218-2.75 3.218C.234-.905 1.281.25 2.954.25c1.343 0 2.421-.75 2.75-1.922H4.187c-.188.469-.61.75-1.172.75-.438 0-.797-.187-1.016-.515-.14-.22-.203-.485-.219-1.047zm-3.97-1.032c.11-.89.485-1.343 1.173-1.343.39 0 .734.187.953.5.14.218.219.437.25.843zm0 0"/></symbol><symbol id="f" overflow="visible"><path d="M2.531-8.016H.875V0h5.5v-1.375H2.531zm0 0"/></symbol><symbol id="g" overflow="visible"><path d="M.688-5.938V0h1.546v-3.563c0-.703.5-1.171 1.235-1.171.672 0 1 .375 1 1.078V0H6v-3.984c0-1.313-.719-2.047-1.984-2.047-.797 0-1.344.297-1.782.953v-.86zm0 0"/></symbol><symbol id="h" overflow="visible"><path d="M5.563-4.031c-.032-1.25-1-2-2.594-2-1.5 0-2.438.75-2.438 1.968 0 .407.125.735.328.97.204.218.391.312.97.5l1.827.562c.39.125.531.25.531.484 0 .375-.437.594-1.156.594-.39 0-.703-.078-.906-.219-.172-.11-.234-.234-.297-.562H.312C.36-.422 1.313.25 3.126.25c.828 0 1.453-.172 1.89-.531.438-.344.704-.89.704-1.485 0-.765-.39-1.265-1.172-1.484L2.61-3.813c-.437-.14-.546-.218-.546-.468 0-.328.359-.547.89-.547.75 0 1.11.266 1.11.797zm0 0"/></symbol><symbol id="i" overflow="visible"><path d="M3.172-8.969C1.39-7.359.937-4.938.937-2.984c0 2.093.516 4.437 2.235 5.984h.719C3.437 2.562 2.703 1.64 2.28.281c-.328-1.062-.437-2.172-.437-3.25 0-3.531 1.25-5.25 2.047-6zm0 0"/></symbol><symbol id="k" overflow="visible"><path d="M1.36 3c1.796-1.594 2.25-4.031 2.25-5.969 0-2.11-.516-4.453-2.25-6H.64c.47.438 1.204 1.36 1.626 2.719.312 1.063.437 2.172.437 3.266C2.703.53 1.453 2.266.641 3zm0 0"/></symbol><symbol id="l" overflow="visible"><path d="M2.11-5.313h-.97v.97h.97zM1.14-.968V0h.97v-.969zm0 0"/></symbol><symbol id="j" overflow="visible"><path d="M4.063-5.766h-.938l.156-.75c.125-.562.328-.75.797-.75.078 0 .14 0 .297.032L4.547-8c-.203-.047-.328-.047-.5-.047-.844 0-1.469.485-1.64 1.297l-.204.984h-.765l-.157.735h.766L.984 0h.922L2.97-5.031h.953zm0 0"/></symbol><symbol id="x" overflow="visible"><path d="M3.156 0l3.422-5.766h-1L2.891-1.125l-.532-4.64H1.344L2.156 0zm0 0"/></symbol><symbol id="y" overflow="visible"><path d="M4.219-5.922c-1.016 0-1.922.453-2.485 1.266-.484.703-.859 1.922-.859 2.86C.875-.579 1.735.25 2.953.25c1.063 0 1.89-.422 2.516-1.266.5-.703.875-1.906.875-2.859 0-.578-.235-1.14-.61-1.516-.375-.359-.875-.53-1.515-.53zm-.14.844c.812 0 1.296.531 1.296 1.422 0 .64-.188 1.36-.484 1.906-.422.766-1.016 1.156-1.782 1.156-.78 0-1.265-.547-1.265-1.437 0-.625.187-1.344.484-1.89.406-.75 1.031-1.157 1.75-1.157zm0 0"/></symbol><symbol id="z" overflow="visible"><path d="M2.875-5.766h-.922L.72 0h.937zm.484-2.25h-.921l-.25 1.125h.921zm0 0"/></symbol><symbol id="A" overflow="visible"><path d="M7.156-8.016H6.22l-.657 3.094c-.343-.719-.78-1-1.562-1-1.828 0-3.203 1.734-3.203 4.047 0 1.297.75 2.125 1.89 2.125.47 0 .97-.156 1.422-.422.329-.187.47-.36.625-.672L4.547 0h.89zm-3.25 2.938c.813 0 1.297.547 1.297 1.484 0 .64-.172 1.313-.5 1.89-.437.735-.969 1.11-1.64 1.11-.813 0-1.297-.547-1.297-1.5 0-.61.187-1.312.484-1.875.422-.765.953-1.11 1.656-1.11zm0 0"/></symbol><symbol id="B" overflow="visible"><path d="M5.656-4.156a2.14 2.14 0 00.063-.469c0-.781-.735-1.297-1.797-1.297-.781 0-1.453.219-1.906.656a2.094 2.094 0 00-.657 1.47c0 .671.375.983 1.516 1.28l.813.22c.359.093.53.155.624.28.079.11.141.266.141.36 0 .203-.172.547-.344.687-.28.235-.75.375-1.234.375-.75 0-1.188-.297-1.188-.844 0-.062.016-.171.032-.28H.734a2.84 2.84 0 00-.062.562C.672-.281 1.437.25 2.719.25c1.64 0 2.703-.844 2.703-2.156 0-.672-.36-1.016-1.328-1.266l-.844-.203c-.61-.156-.922-.375-.922-.656 0-.219.125-.5.328-.688.266-.25.594-.36 1.078-.36.641 0 1 .25 1 .673v.25zm0 0"/></symbol><symbol id="C" overflow="visible"><path d="M4.031-5.766h-.984l.344-1.578h-.922l-.344 1.578h-.781l-.157.735h.782L1.094-.953a2.5 2.5 0 00-.032.344c0 .53.375.859.985.859.219 0 .562-.031.719-.078l.171-.797c-.343.078-.39.094-.53.094-.235 0-.391-.125-.391-.313 0-.031.015-.078.015-.14l.86-4.047h.984zm0 0"/></symbol><symbol id="D" overflow="visible"><path d="M1.984-5.766L.766 0h.921l.641-2.984C2.61-4.328 3.391-5 4.594-4.97l.203-.922c-.14-.03-.234-.03-.36-.03-.625 0-1.125.28-1.812 1.062l.188-.907zm0 0"/></symbol><symbol id="E" overflow="visible"><path d="M1.984-5.766L.766 0h.921l.672-3.172C2.625-4.39 3.406-5.14 4.391-5.14c.546 0 .953.391.953.891 0 .063-.016.234-.063.406L4.47 0h.922l.875-4.14c.03-.141.046-.266.046-.407 0-.844-.578-1.375-1.5-1.375-.828 0-1.562.297-2.125.875l.141-.719zm0 0"/></symbol><symbol id="F" overflow="visible"><path d="M5.781-5.766l-.187.86c-.172-.36-.282-.516-.516-.688a1.679 1.679 0 00-1.016-.328c-.843 0-1.703.406-2.25 1.094-.578.719-1 1.969-1 2.984C.813-.656 1.595.188 2.72.188c.687 0 1.344-.297 1.89-.875l-.046.203c-.313 1.5-.907 2.093-2.079 2.093-.75 0-1.187-.296-1.187-.796V.655H.375l-.016.14V1c0 .844.766 1.39 1.938 1.39.875 0 1.656-.25 2.14-.734C5 1.141 5.298.47 5.595-.937L6.61-5.766zM4-5.078c.703 0 1.156.531 1.156 1.344 0 .687-.187 1.5-.5 2.046-.36.672-1.015 1.079-1.672 1.079-.734 0-1.203-.547-1.203-1.422 0-.656.188-1.36.5-1.922C2.687-4.672 3.297-5.078 4-5.078zm0 0"/></symbol><symbol id="m" overflow="visible"><path d="M3.969 2.75s0-.078-.063-.219L1.812-2.984l2.094-5.532c.063-.14.063-.203.063-.203 0-.14-.11-.25-.235-.25-.156 0-.203.11-.25.25L1.375-3.203c-.063.14-.063.219-.063.219s0 .062.063.218L3.469 2.72c.062.156.094.265.265.265a.24.24 0 00.235-.234zm0 0"/></symbol><symbol id="v" overflow="visible"><path d="M3.328-2.984s0-.079-.062-.22l-2.094-5.5c-.063-.14-.094-.265-.266-.265-.125 0-.234.11-.234.25 0 0 0 .063.062.203l2.094 5.532L.734 2.53c-.062.14-.062.219-.062.219 0 .125.11.234.234.234.156 0 .203-.109.25-.234l2.11-5.516c.062-.156.062-.218.062-.218zm0 0"/></symbol><symbol id="w" overflow="visible"><path d="M11.266-2.984a.136.136 0 00-.094-.125A3.744 3.744 0 018.719-6c0-.063-.063-.11-.125-.11h-.219c-.063 0-.125.063-.125.157a4.259 4.259 0 001.703 2.719H.906c-.172 0-.25.125-.25.25 0 .109.078.234.25.234h9.047A4.259 4.259 0 008.25-.031c0 .11.063.156.125.156h.219c.062 0 .125-.047.125-.094a3.766 3.766 0 012.453-2.906c.047 0 .094-.047.094-.11zm0 0"/></symbol><symbol id="n" overflow="visible"><path d="M4.516-1.5c0-1.234-1.422-1.5-1.797-1.578-.938-.156-1.578-.281-1.578-.766 0-.375.375-.687 1.265-.687.89 0 .953.453.969.687.016.172.047.39.422.39.406 0 .406-.25.406-.483v-.829c0-.187 0-.5-.36-.5-.234 0-.312.172-.343.25-.313-.187-.703-.25-1.078-.25-1.719 0-2 .97-2 1.422 0 1.078 1.281 1.328 1.734 1.406.094.016.672.126.719.126.406.093.922.343.922.812 0 .844-1.125.844-1.281.844-.907 0-1.125-.594-1.266-1.094-.047-.156-.094-.313-.406-.313-.422 0-.422.25-.422.5v1.141c0 .188 0 .5.36.5.296 0 .39-.312.405-.406.391.297.86.406 1.313.406 1.578 0 2.016-.922 2.016-1.578zm0 0"/></symbol><symbol id="b" overflow="visible"><path d="M.688-5.938V0h1.546v-3.156c0-.906.454-1.36 1.36-1.36.156 0 .265.016.469.047V-6.03H3.89c-.72 0-1.329.453-1.657 1.25v-1.157zm0 0"/></symbol><symbol id="p" overflow="visible"><path d="M6.75-.36c0-.374-.281-.374-.469-.374h-.656v-6.079c0-.375-.063-.484-.469-.484h-1c-.172 0-.468 0-.468.36 0 .359.28.359.468.359h.657v1.969a2.421 2.421 0 00-1.61-.61A2.657 2.657 0 00.531-2.562c0 1.468 1.156 2.64 2.547 2.64.844 0 1.422-.453 1.735-.765v.203c0 .359.062.484.468.484h1c.172 0 .469 0 .469-.36zm-1.938-2c0 .72-.671 1.704-1.687 1.704-.984 0-1.781-.875-1.781-1.906 0-1.094.89-1.938 1.922-1.938.828 0 1.546.656 1.546 1.36zm0 0"/></symbol><symbol id="q" overflow="visible"><path d="M2.344-4.547a.597.597 0 00-.594-.61.6.6 0 00-.61.61c0 .328.266.594.61.594a.593.593 0 00.594-.594zm0 3.953a.584.584 0 00-.594-.594c-.344 0-.61.25-.61.594 0 .328.266.594.61.594a.593.593 0 00.594-.594zm0 0"/></symbol><symbol id="r" overflow="visible"><path d="M4.516-4.484c0-.329-.297-.735-.891-.735-.625 0-1.11.313-1.469.719 0-.5 0-.656-.484-.656H.688c-.204 0-.485 0-.485.375 0 .36.297.36.484.36h.641v3.687h-.64c-.204 0-.485 0-.485.375C.203 0 .5 0 .687 0h2.391c.188 0 .485 0 .485-.36 0-.374-.282-.374-.485-.374h-.922V-2.25c0-1.047.438-2.125 1.36-2.234.015.437.343.515.5.515.265 0 .5-.187.5-.515zm0 0"/></symbol><symbol id="s" overflow="visible"><path d="M3.172-.36c0-.374-.297-.374-.5-.374h-.516v-3.922c0-.375-.078-.5-.484-.5H.734c-.171 0-.484 0-.484.36 0 .374.313.374.484.374h.594v3.688h-.64c-.204 0-.485 0-.485.375C.203 0 .5 0 .687 0h2c.188 0 .485 0 .485-.36zM2.344-6.5a.604.604 0 00-.594-.594.597.597 0 00-.61.594c0 .313.266.594.594.594.375 0 .61-.297.61-.594zm0 0"/></symbol><symbol id="t" overflow="visible"><path d="M6.75-.36c0-.374-.281-.374-.469-.374h-.656v-2.75c0-1.282-.734-1.735-1.719-1.735-.687 0-1.281.25-1.75.672 0-.437 0-.61-.484-.61H.688c-.204 0-.485 0-.485.376 0 .36.297.36.484.36h.641v3.687h-.64c-.204 0-.485 0-.485.375C.203 0 .5 0 .687 0h2.11c.172 0 .484 0 .484-.36 0-.374-.297-.374-.484-.374h-.64v-2.094c0-1.266 1.015-1.672 1.687-1.672.828 0 .969.422.969 1.094v2.672h-.657c-.172 0-.468 0-.468.359 0 .375.28.375.468.375h2.125c.172 0 .469 0 .469-.36zm0 0"/></symbol><symbol id="u" overflow="visible"><path d="M6.078-4.64c0-.266-.219-.641-.86-.641-.14 0-.718.015-1.28.422a2.006 2.006 0 00-1.157-.36c-1.125 0-1.969.89-1.969 1.907 0 .515.204.906.375 1.14a1.434 1.434 0 00-.234.813c0 .421.172.718.281.859C.344.031.344.844.344.984c0 1.032 1.265 1.75 2.781 1.75 1.531 0 2.797-.734 2.797-1.75 0-.453-.219-1.046-.828-1.359-.157-.094-.657-.36-1.735-.36h-.843c-.094 0-.25 0-.344-.015-.172 0-.25 0-.39-.172-.126-.172-.141-.422-.141-.422 0-.062.015-.218.062-.343.047.03.5.296 1.078.296 1.11 0 1.969-.859 1.969-1.921 0-.36-.094-.704-.297-1.032.25-.156.531-.203.688-.203a.514.514 0 00.468.406.476.476 0 00.47-.5zm-2.14 1.327c0 .688-.532 1.204-1.157 1.204-.64 0-1.14-.563-1.14-1.188 0-.687.515-1.203 1.14-1.203.656 0 1.156.563 1.156 1.188zM5.218.984c0 .516-.89 1.032-2.093 1.032-1.188 0-2.078-.516-2.078-1.032 0-.218.094-.609.484-.843.297-.188.407-.188 1.282-.188 1.062 0 2.406 0 2.406 1.031zm0 0"/></symbol><symbol id="G" overflow="visible"><path d="M.594 2.39h.922v-3C2-.015 2.546.25 3.28.25c1.5 0 2.469-1.203 2.469-3.031 0-1.938-.938-3.14-2.469-3.14-.781 0-1.406.343-1.844 1.03v-.875H.595zm2.531-7.468c1.016 0 1.672.89 1.672 2.266C4.797-1.5 4.125-.61 3.125-.61c-.969 0-1.61-.875-1.61-2.235 0-1.344.641-2.234 1.61-2.234zm0 0"/></symbol><symbol id="H" overflow="visible"><path d="M5.89-.531c-.109.015-.156.015-.202.015-.313 0-.5-.171-.5-.453v-3.39c0-1.016-.75-1.563-2.157-1.563-.844 0-1.531.234-1.922.656-.265.297-.375.641-.39 1.204h.922c.078-.704.5-1.016 1.343-1.016.829 0 1.297.297 1.297.86v.234c0 .39-.234.546-.953.64-1.297.172-1.5.203-1.86.36-.671.265-1 .78-1 1.53C.469-.405 1.189.25 2.36.25c.72 0 1.297-.25 1.954-.844.062.578.343.844.953.844.171 0 .328-.016.625-.094zM4.282-1.812c0 .312-.093.5-.36.75-.374.343-.827.515-1.374.515-.703 0-1.125-.344-1.125-.922 0-.61.406-.922 1.39-1.062.954-.125 1.157-.172 1.47-.313zm0 0"/></symbol><symbol id="I" overflow="visible"><path d="M2.797-5.766h-.953v-1.578H.937v1.578h-.78v.75h.78v4.36c0 .578.391.906 1.11.906.219 0 .437-.016.75-.078v-.766a1.786 1.786 0 01-.438.047c-.406 0-.515-.11-.515-.515v-3.954h.953zm0 0"/></symbol><symbol id="J" overflow="visible"><path d="M.766-8.016V0h.921v-3.172c0-1.187.61-1.953 1.563-1.953.297 0 .594.094.813.266.265.187.375.453.375.859v4h.906v-4.36c0-.968-.688-1.562-1.813-1.562-.812 0-1.312.25-1.844.953v-3.047zm0 0"/></symbol><symbol id="K" overflow="visible"><path d="M2.516-8.016L-.094.22h.61l2.609-8.235zm0 0"/></symbol><symbol id="L" overflow="visible"><path d="M2.766-5.766h-.954v-.906c0-.375.22-.578.641-.578.078 0 .11 0 .313.016V-8c-.204-.047-.329-.047-.516-.047-.844 0-1.344.485-1.344 1.297v.984H.125v.75h.781V0h.906v-5.016h.954zm2.03 0h-.905V0h.906zm0-2.25h-.905v1.157h.906zm0 0"/></symbol><symbol id="M" overflow="visible"><path d="M1.672-8.016H.75V0h.922zm0 0"/></symbol><symbol id="N" overflow="visible"><path d="M5.64-2.578c0-.875-.062-1.406-.234-1.828-.375-.953-1.25-1.516-2.328-1.516-1.61 0-2.64 1.219-2.64 3.11 0 1.906 1 3.062 2.624 3.062 1.313 0 2.235-.75 2.454-2h-.922c-.25.766-.766 1.156-1.5 1.156a1.61 1.61 0 01-1.39-.75c-.22-.328-.298-.656-.313-1.234zm-4.218-.75c.078-1.063.719-1.75 1.64-1.75.907 0 1.594.75 1.594 1.687v.063zm0 0"/></symbol><symbol id="O" overflow="visible"><path d="M.766-5.766V0h.921v-2.984c0-.829.204-1.375.641-1.688.297-.219.563-.281 1.203-.297v-.922c-.156-.03-.234-.03-.36-.03-.593 0-1.03.343-1.562 1.202v-1.047zm0 0"/></symbol><symbol id="P" overflow="visible"><path d="M.766-5.766V0h.921v-3.172c0-1.187.625-1.953 1.563-1.953.734 0 1.188.438 1.188 1.125v4h.921v-4.36c0-.952-.718-1.562-1.828-1.562-.86 0-1.406.328-1.922 1.125v-.969zm0 0"/></symbol><symbol id="Q" overflow="visible"><path d="M4.25-1.016c0-.062-.047-.125-.11-.125-.046 0-.234.172-.28.22-.422.405-.938.827-1.422.827-.641 0-.735-.937-.735-1.578 0-.125 0-.625.094-.719.703-.734 2.906-3.015 2.906-5.125 0-.484-.172-.906-.687-.906-1.11 0-2.079 2.469-2.25 2.922-.047.125-.735 1.969-.672 3.469-.75.734-.938.922-.938.969 0 .046.047.125.125.125.063 0 .75-.657.844-.766C1.188-.891 1.5.14 2.422.14c.484 0 .906-.297 1.11-.438.155-.125.718-.61.718-.719zm.203-6.515c0 .422-.125 1.5-1.172 3a15.877 15.877 0 01-1.469 1.765c.016-.078.547-3.203 1.563-4.89.203-.313.406-.516.64-.516.407 0 .438.375.438.64zm0 0"/></symbol><symbol id="R" overflow="visible"><path d="M2.016-5.203c-.485 0-.922.219-1.188.578-.344.453-.515 1.156-.515 2.11C.313-.766.905.171 2.016.171c1.093 0 1.703-.938 1.703-2.64 0-1.016-.172-1.688-.516-2.157a1.466 1.466 0 00-1.187-.578zm0 .578c.703 0 1.046.703 1.046 2.094C3.063-1.062 2.72-.36 2-.36 1.312-.36.969-1.08.969-2.5c0-1.422.344-2.125 1.047-2.125zm0 0"/></symbol><symbol id="S" overflow="visible"><path d="M1.89-3.703V0h.657v-5.203h-.422c-.234.812-.375.922-1.375 1.047v.453zm0 0"/></symbol><symbol id="T" overflow="visible"><path d="M3.703-.64H.97c.078-.422.312-.688.937-1.063l.735-.406C3.375-2.5 3.75-3.031 3.75-3.672c0-.437-.188-.828-.484-1.11-.313-.28-.688-.421-1.188-.421-.656 0-1.14.234-1.437.687-.172.266-.266.594-.282 1.125h.657c.015-.359.062-.562.156-.734.156-.313.5-.5.89-.5.579 0 1.016.406 1.016.969 0 .406-.234.765-.703 1.031l-.672.375C.625-1.64.313-1.14.25 0h3.453zm0 0"/></symbol><symbol id="U" overflow="visible"><path d="M1.625-2.375h.078l.266-.016c.718 0 1.078.329 1.078.954 0 .64-.406 1.03-1.078 1.03C1.266-.406.922-.75.875-1.515h-.64c.03.422.109.688.234.922.25.5.765.766 1.484.766 1.063 0 1.75-.64 1.75-1.625 0-.656-.25-1.031-.875-1.234.485-.188.719-.563.719-1.079 0-.89-.594-1.437-1.578-1.437-1.047 0-1.61.578-1.625 1.687h.64c.016-.312.047-.5.125-.656.141-.281.47-.453.875-.453.563 0 .907.328.907.875 0 .375-.125.594-.407.703-.187.078-.406.11-.859.11zm0 0"/></symbol><symbol id="V" overflow="visible"><path d="M2.39-1.25V0h.657v-1.25h.765v-.578h-.765v-3.375h-.485L.204-1.922v.672zm0-.578H.767L2.39-4.094zm0 0"/></symbol><symbol id="W" overflow="visible"><path d="M3.484-5.203H.813L.421-2.36h.594c.296-.36.546-.485.953-.485.687 0 1.125.469 1.125 1.235 0 .75-.422 1.203-1.125 1.203-.563 0-.907-.281-1.063-.875H.25c.094.437.172.64.328.828.281.39.813.625 1.406.625 1.047 0 1.782-.766 1.782-1.86 0-1.03-.688-1.734-1.688-1.734-.36 0-.656.094-.953.313l.203-1.454h2.156zm0 0"/></symbol><clipPath id="X"><path d="M235 24h31.984v44H235zm0 0"/></clipPath><clipPath id="Y"><path d="M250 24h16.984v25H250zm0 0"/></clipPath></defs><g transform="translate(-3.807 -3.663)"><use xlink:href="#a" x="3.666" y="12.632" width="100%" height="100%"/><use xlink:href="#b" x="14.049" y="12.632" width="100%" height="100%"/><use xlink:href="#c" x="18.327" y="12.632" width="100%" height="100%"/><use xlink:href="#d" x="21.385" y="12.632" width="100%" height="100%"/><use xlink:href="#e" x="25.047" y="12.632" width="100%" height="100%"/><use xlink:href="#f" x="31.163" y="12.632" width="100%" height="100%"/><use xlink:href="#c" x="37.883" y="12.632" width="100%" height="100%"/><use xlink:href="#g" x="40.941" y="12.632" width="100%" height="100%"/><use xlink:href="#e" x="47.661" y="12.632" width="100%" height="100%"/><use xlink:href="#h" x="53.776" y="12.632" width="100%" height="100%"/></g><use xlink:href="#i" x="59.891" y="12.632" width="100%" height="100%" transform="translate(-3.807 -3.663)"/><use xlink:href="#j" x="64.443" y="12.632" width="100%" height="100%" transform="translate(-3.807 -3.663)"/><use xlink:href="#k" x="69.018" y="12.632" width="100%" height="100%" transform="translate(-3.807 -3.663)"/><use xlink:href="#l" x="76.894" y="12.632" width="100%" height="100%" transform="translate(-3.807 -3.663)"/><use xlink:href="#m" x="83.464" y="12.632" width="100%" height="100%" transform="translate(-3.807 -3.663)"/><g transform="translate(-3.807 -3.663)" fill="#283acc"><use xlink:href="#n" x="88.113" y="12.632" width="100%" height="100%"/><use xlink:href="#o" x="93.062" y="12.632" width="100%" height="100%"/><use xlink:href="#p" x="97.94" y="12.632" width="100%" height="100%"/><use xlink:href="#q" x="104.91" y="12.632" width="100%" height="100%"/><use xlink:href="#q" x="108.401" y="12.632" width="100%" height="100%"/><use xlink:href="#n" x="111.892" y="12.632" width="100%" height="100%"/><use xlink:href="#o" x="116.841" y="12.632" width="100%" height="100%"/><use xlink:href="#r" x="121.719" y="12.632" width="100%" height="100%"/><use xlink:href="#s" x="126.597" y="12.632" width="100%" height="100%"/><use xlink:href="#t" x="130.088" y="12.632" width="100%" height="100%"/><use xlink:href="#u" x="137.058" y="12.632" width="100%" height="100%"/></g><use xlink:href="#v" x="143.334" y="12.632" width="100%" height="100%" transform="translate(-3.807 -3.663)"/><use xlink:href="#w" x="151.307" y="12.632" width="100%" height="100%" transform="translate(-3.807 -3.663)"/><use xlink:href="#x" x="166.58" y="12.632" width="100%" height="100%" transform="translate(-3.807 -3.663)"/><g transform="translate(-3.807 -3.663)"><use xlink:href="#y" x="171.804" y="12.632" width="100%" height="100%"/><use xlink:href="#z" x="177.92" y="12.632" width="100%" height="100%"/><use xlink:href="#A" x="180.361" y="12.632" width="100%" height="100%"/></g><use xlink:href="#j" x="31.517" y="26.978" width="100%" height="100%" transform="translate(-3.807 -3.663)"/><use xlink:href="#l" x="39.413" y="26.978" width="100%" height="100%" transform="translate(-3.807 -3.663)"/><g transform="translate(-3.807 -3.663)"><use xlink:href="#B" x="45.986" y="26.978" width="100%" height="100%"/><use xlink:href="#C" x="51.485" y="26.978" width="100%" height="100%"/><use xlink:href="#D" x="54.543" y="26.978" width="100%" height="100%"/></g><g transform="translate(-3.807 -3.663)"><use xlink:href="#z" x="58.371" y="26.978" width="100%" height="100%"/><use xlink:href="#E" x="60.812" y="26.978" width="100%" height="100%"/><use xlink:href="#F" x="66.928" y="26.978" width="100%" height="100%"/></g><g transform="translate(-3.807 -3.663)"><use xlink:href="#G" x="83.599" y="26.978" width="100%" height="100%"/><use xlink:href="#H" x="89.714" y="26.978" width="100%" height="100%"/><use xlink:href="#I" x="95.83" y="26.978" width="100%" height="100%"/><use xlink:href="#J" x="98.887" y="26.978" width="100%" height="100%"/><use xlink:href="#K" x="105.002" y="26.978" width="100%" height="100%"/><use xlink:href="#L" x="108.06" y="26.978" width="100%" height="100%"/><use xlink:href="#M" x="113.559" y="26.978" width="100%" height="100%"/><use xlink:href="#N" x="116.001" y="26.978" width="100%" height="100%"/></g><g transform="translate(-3.807 -3.663)"><use xlink:href="#G" x="125.174" y="26.978" width="100%" height="100%"/><use xlink:href="#H" x="131.289" y="26.978" width="100%" height="100%"/><use xlink:href="#I" x="137.405" y="26.978" width="100%" height="100%"/><use xlink:href="#I" x="140.462" y="26.978" width="100%" height="100%"/><use xlink:href="#N" x="143.52" y="26.978" width="100%" height="100%"/><use xlink:href="#O" x="149.635" y="26.978" width="100%" height="100%"/></g><use xlink:href="#P" x="153.573" y="26.978" width="100%" height="100%" transform="translate(-3.807 -3.663)"/><path d="M52.111 33.337H32.268v19.84H52.11zm0 0" fill="#d4d7f5" stroke="#000" stroke-width=".598" stroke-miterlimit="10"/><use xlink:href="#Q" x="41.252" y="50.099" width="100%" height="100%" transform="translate(-3.807 -3.663)"/><use xlink:href="#R" x="46.164" y="51.893" width="100%" height="100%" transform="translate(-3.807 -3.663)"/><path d="M71.955 33.337H52.111v19.84h19.844zm0 0" fill="#d4d7f5" stroke="#000" stroke-width=".598" stroke-miterlimit="10"/><use xlink:href="#Q" x="61.095" y="50.175" width="100%" height="100%" transform="translate(-3.807 -3.663)"/><use xlink:href="#S" x="66.007" y="51.968" width="100%" height="100%" transform="translate(-3.807 -3.663)"/><path d="M91.799 33.337H71.955v19.84H91.8zm0 0" fill="#d4d7f5" stroke="#000" stroke-width=".598" stroke-miterlimit="10"/><use xlink:href="#Q" x="80.938" y="50.175" width="100%" height="100%" transform="translate(-3.807 -3.663)"/><use xlink:href="#T" x="85.85" y="51.968" width="100%" height="100%" transform="translate(-3.807 -3.663)"/><path d="M111.639 33.337h-19.84v19.84h19.84zm0 0" fill="#d4d7f5" stroke="#000" stroke-width=".598" stroke-miterlimit="10"/><use xlink:href="#Q" x="100.781" y="50.099" width="100%" height="100%" transform="translate(-3.807 -3.663)"/><use xlink:href="#U" x="105.693" y="51.893" width="100%" height="100%" transform="translate(-3.807 -3.663)"/><path d="M131.482 33.337H111.64v19.84h19.843zm0 0" fill="#d4d7f5" stroke="#000" stroke-width=".598" stroke-miterlimit="10"/><use xlink:href="#Q" x="120.624" y="50.175" width="100%" height="100%" transform="translate(-3.807 -3.663)"/><use xlink:href="#V" x="125.536" y="51.968" width="100%" height="100%" transform="translate(-3.807 -3.663)"/><path d="M151.326 33.337h-19.844v19.84h19.844zm0 0" fill="#d4d7f5" stroke="#000" stroke-width=".598" stroke-miterlimit="10"/><use xlink:href="#Q" x="140.466" y="50.099" width="100%" height="100%" transform="translate(-3.807 -3.663)"/><use xlink:href="#W" x="145.378" y="51.893" width="100%" height="100%" transform="translate(-3.807 -3.663)"/><path d="M181.088 54.165v-24.2c0-.55.45-.995.996-.995h13.29c.55 0 1.312.316 1.698.707l5.14 5.136c.388.39.704 1.153.704 1.703v17.649c0 .55-.445.996-.996.996h-19.836a.998.998 0 01-.996-.996zm0 0" fill="none" stroke="#000" stroke-width=".598" stroke-linecap="round" stroke-miterlimit="10"/><path d="M195.932 29.407v5.55c0 .552.445.997.996.997h5.55M185.455 37.7h6.547m-6.547 13.098h13.098m-13.098-4.368h13.098m-13.098-4.363h13.098m12.301 12.098v-24.2c0-.55.445-.995.996-.995h13.285c.55 0 1.312.316 1.703.707l5.137 5.136c.39.39.707 1.153.707 1.703v17.649c0 .55-.45.996-.996.996H211.85a.995.995 0 01-.996-.996zm0 0" fill="none" stroke="#000" stroke-width=".598" stroke-linecap="round" stroke-miterlimit="10"/><path d="M225.697 29.407v5.55c0 .552.446.997.996.997h5.551M215.22 37.7h6.548m-6.548 13.098h13.094M215.22 46.43h13.094m-13.094-4.363h13.094" fill="none" stroke="#000" stroke-width=".598" stroke-linecap="round" stroke-miterlimit="10"/><g transform="translate(-3.807 -3.663)" clip-path="url(#X)"><path d="M244.426 57.828v-24.2c0-.55.445-.995.996-.995h13.285c.55 0 1.313.316 1.7.707l5.14 5.137c.39.39.703 1.152.703 1.703v17.648c0 .55-.445.996-.996.996h-19.832a.995.995 0 01-.996-.996zm0 0" fill="none" stroke="#000" stroke-width=".598" stroke-linecap="round" stroke-miterlimit="10"/></g><g transform="translate(-3.807 -3.663)" clip-path="url(#Y)"><path d="M259.266 33.07v5.551c0 .55.445.996.996.996h5.55" fill="none" stroke="#000" stroke-width=".598" stroke-linecap="round" stroke-miterlimit="10"/></g><path d="M244.982 37.7h6.547m-6.547 13.098h13.098m-13.098-4.368h13.098m-13.098-4.363h13.098" fill="none" stroke="#000" stroke-width=".598" stroke-linecap="round" stroke-miterlimit="10"/><path d="M157.205 43.259h17.23" fill="none" stroke="#000" stroke-width="1.196" stroke-linecap="round" stroke-miterlimit="10"/><path d="M172.006 39.427c.55 2.296 1.785 3.382 3.027 3.832-1.242.445-2.476 1.53-3.027 3.828" fill="none" stroke="#000" stroke-width="1.196" stroke-linecap="round" stroke-linejoin="round" stroke-miterlimit="10"/></svg>