<svg xmlns="http://www.w3.org/2000/svg" xmlns:xlink="http://www.w3.org/1999/xlink" version="1.2" viewBox="0 0 241.604 55.461" height="73.948" width="322.139"><defs><symbol id="n" overflow="visible"><path d="M3.969 2.75s0-.078-.063-.219L1.812-2.984l2.094-5.532c.063-.14.063-.203.063-.203 0-.14-.11-.25-.235-.25-.156 0-.203.11-.25.25L1.375-3.203c-.063.14-.063.219-.063.219s0 .062.063.218L3.469 2.72c.062.156.094.265.265.265a.24.24 0 00.235-.234zm0 0"/></symbol><symbol id="a" overflow="visible"><path d="M8.031 0l2.219-8.016H8.5L7.297-2 6-8.016H4.375l-1.234 6-1.25-6H.14L2.406 0h1.485l1.312-6.266L6.547 0zm0 0"/></symbol><symbol id="c" overflow="visible"><path d="M2.281-5.938H.734V0h1.547zm0-2.078H.734v1.375h1.547zm0 0"/></symbol><symbol id="d" overflow="visible"><path d="M3.313-5.813h-.86v-1.593H.906v1.593h-.75v1.016h.75v3.656c0 .938.5 1.391 1.516 1.391.344 0 .61-.031.89-.125V-.953c-.156.031-.25.047-.359.047-.406 0-.5-.125-.5-.656v-3.235h.86zm0 0"/></symbol><symbol id="e" overflow="visible"><path d="M5.766-2.484c.015-.141.015-.188.015-.266a5.06 5.06 0 00-.234-1.563C5.14-5.39 4.187-6.03 2.984-6.03c-1.703 0-2.75 1.218-2.75 3.218C.234-.905 1.281.25 2.954.25c1.343 0 2.421-.75 2.75-1.922H4.187c-.188.469-.61.75-1.172.75-.438 0-.797-.187-1.016-.515-.14-.22-.203-.485-.219-1.047zm-3.97-1.032c.11-.89.485-1.343 1.173-1.343.39 0 .734.187.953.5.14.218.219.437.25.843zm0 0"/></symbol><symbol id="g" overflow="visible"><path d="M.688-5.938V0h1.546v-3.563c0-.703.5-1.171 1.235-1.171.672 0 1 .375 1 1.078V0H6v-3.984c0-1.313-.719-2.047-1.984-2.047-.797 0-1.344.297-1.782.953v-.86zm0 0"/></symbol><symbol id="f" overflow="visible"><path d="M.906 0h3.61c.921 0 1.53-.172 2.015-.578.485-.406.797-1.094.797-1.735 0-.796-.437-1.421-1.328-1.937.781-.516 1.094-.969 1.094-1.656 0-.547-.282-1.14-.719-1.532-.484-.406-1.047-.578-1.89-.578H.905zm1.64-6.64h1.798c.765 0 1.172.312 1.172.906 0 .593-.407.906-1.172.906H2.547zm0 3.187h1.97c.812 0 1.218.36 1.218 1.047 0 .672-.406 1.031-1.218 1.031h-1.97zm0 0"/></symbol><symbol id="h" overflow="visible"><path d="M5.766-.188c-.282-.25-.36-.421-.36-.718V-4.22c0-1.203-.812-1.812-2.422-1.812-1.609 0-2.453.672-2.546 2.047h1.484c.078-.61.328-.813 1.094-.813.593 0 .89.203.89.594a.514.514 0 01-.265.469c-.204.109-.204.109-.97.218l-.608.11c-1.188.203-1.75.812-1.75 1.875 0 .515.14.922.406 1.218.344.36.86.563 1.39.563.657 0 1.266-.281 1.813-.844 0 .313.031.422.172.594h1.672zM3.906-2.39c0 .891-.437 1.407-1.219 1.407-.515 0-.843-.282-.843-.72 0-.468.25-.687.89-.812l.516-.109c.406-.063.484-.094.656-.188zm0 0"/></symbol><symbol id="i" overflow="visible"><path d="M4.328-5.938L3.11-1.609 1.797-5.938H.094L2.313.234v.047c0 .563-.422 1-.954 1a1.14 1.14 0 01-.406-.078V2.36c.219.032.36.047.547.047.375 0 .844-.078 1.11-.187.421-.172.609-.422.859-1.125l2.453-7.032zm0 0"/></symbol><symbol id="j" overflow="visible"><path d="M3.172-8.969C1.39-7.359.937-4.938.937-2.984c0 2.093.516 4.437 2.235 5.984h.719C3.437 2.562 2.703 1.64 2.28.281c-.328-1.062-.437-2.172-.437-3.25 0-3.531 1.25-5.25 2.047-6zm0 0"/></symbol><symbol id="l" overflow="visible"><path d="M1.36 3c1.796-1.594 2.25-4.031 2.25-5.969 0-2.11-.516-4.453-2.25-6H.64c.47.438 1.204 1.36 1.626 2.719.312 1.063.437 2.172.437 3.266C2.703.53 1.453 2.266.641 3zm0 0"/></symbol><symbol id="m" overflow="visible"><path d="M2.11-5.313h-.97v.97h.97zM1.14-.968V0h.97v-.969zm0 0"/></symbol><symbol id="k" overflow="visible"><path d="M4.063-5.766h-.938l.156-.75c.125-.562.328-.75.797-.75.078 0 .14 0 .297.032L4.547-8c-.203-.047-.328-.047-.5-.047-.844 0-1.469.485-1.64 1.297l-.204.984h-.765l-.157.735h.766L.984 0h.922L2.97-5.031h.953zm0 0"/></symbol><symbol id="r" overflow="visible"><path d="M3.156 0l3.422-5.766h-1L2.891-1.125l-.532-4.64H1.344L2.156 0zm0 0"/></symbol><symbol id="s" overflow="visible"><path d="M4.219-5.922c-1.016 0-1.922.453-2.485 1.266-.484.703-.859 1.922-.859 2.86C.875-.579 1.735.25 2.953.25c1.063 0 1.89-.422 2.516-1.266.5-.703.875-1.906.875-2.859 0-.578-.235-1.14-.61-1.516-.375-.359-.875-.53-1.515-.53zm-.14.844c.812 0 1.296.531 1.296 1.422 0 .64-.188 1.36-.484 1.906-.422.766-1.016 1.156-1.782 1.156-.78 0-1.265-.547-1.265-1.437 0-.625.187-1.344.484-1.89.406-.75 1.031-1.157 1.75-1.157zm0 0"/></symbol><symbol id="t" overflow="visible"><path d="M2.875-5.766h-.922L.72 0h.937zm.484-2.25h-.921l-.25 1.125h.921zm0 0"/></symbol><symbol id="u" overflow="visible"><path d="M7.156-8.016H6.22l-.657 3.094c-.343-.719-.78-1-1.562-1-1.828 0-3.203 1.734-3.203 4.047 0 1.297.75 2.125 1.89 2.125.47 0 .97-.156 1.422-.422.329-.187.47-.36.625-.672L4.547 0h.89zm-3.25 2.938c.813 0 1.297.547 1.297 1.484 0 .64-.172 1.313-.5 1.89-.437.735-.969 1.11-1.64 1.11-.813 0-1.297-.547-1.297-1.5 0-.61.187-1.312.484-1.875.422-.765.953-1.11 1.656-1.11zm0 0"/></symbol><symbol id="v" overflow="visible"><path d="M5.656-4.156a2.14 2.14 0 00.063-.469c0-.781-.735-1.297-1.797-1.297-.781 0-1.453.219-1.906.656a2.094 2.094 0 00-.657 1.47c0 .671.375.983 1.516 1.28l.813.22c.359.093.53.155.624.28.079.11.141.266.141.36 0 .203-.172.547-.344.687-.28.235-.75.375-1.234.375-.75 0-1.188-.297-1.188-.844 0-.062.016-.171.032-.28H.734a2.84 2.84 0 00-.062.562C.672-.281 1.437.25 2.719.25c1.64 0 2.703-.844 2.703-2.156 0-.672-.36-1.016-1.328-1.266l-.844-.203c-.61-.156-.922-.375-.922-.656 0-.219.125-.5.328-.688.266-.25.594-.36 1.078-.36.641 0 1 .25 1 .673v.25zm0 0"/></symbol><symbol id="w" overflow="visible"><path d="M4.031-5.766h-.984l.344-1.578h-.922l-.344 1.578h-.781l-.157.735h.782L1.094-.953a2.5 2.5 0 00-.032.344c0 .53.375.859.985.859.219 0 .562-.031.719-.078l.171-.797c-.343.078-.39.094-.53.094-.235 0-.391-.125-.391-.313 0-.031.015-.078.015-.14l.86-4.047h.984zm0 0"/></symbol><symbol id="x" overflow="visible"><path d="M1.984-5.766L.766 0h.921l.641-2.984C2.61-4.328 3.391-5 4.594-4.97l.203-.922c-.14-.03-.234-.03-.36-.03-.625 0-1.125.28-1.812 1.062l.188-.907zm0 0"/></symbol><symbol id="y" overflow="visible"><path d="M1.984-5.766L.766 0h.921l.672-3.172C2.625-4.39 3.406-5.14 4.391-5.14c.546 0 .953.391.953.891 0 .063-.016.234-.063.406L4.47 0h.922l.875-4.14c.03-.141.046-.266.046-.407 0-.844-.578-1.375-1.5-1.375-.828 0-1.562.297-2.125.875l.141-.719zm0 0"/></symbol><symbol id="z" overflow="visible"><path d="M5.781-5.766l-.187.86c-.172-.36-.282-.516-.516-.688a1.679 1.679 0 00-1.016-.328c-.843 0-1.703.406-2.25 1.094-.578.719-1 1.969-1 2.984C.813-.656 1.595.188 2.72.188c.687 0 1.344-.297 1.89-.875l-.046.203c-.313 1.5-.907 2.093-2.079 2.093-.75 0-1.187-.296-1.187-.796V.655H.375l-.016.14V1c0 .844.766 1.39 1.938 1.39.875 0 1.656-.25 2.14-.734C5 1.141 5.298.47 5.595-.937L6.61-5.766zM4-5.078c.703 0 1.156.531 1.156 1.344 0 .687-.187 1.5-.5 2.046-.36.672-1.015 1.079-1.672 1.079-.734 0-1.203-.547-1.203-1.422 0-.656.188-1.36.5-1.922C2.687-4.672 3.297-5.078 4-5.078zm0 0"/></symbol><symbol id="o" overflow="visible"><path d="M5.766-2.406L6.062 0h1.125L6.079-8.016H4.75L.187 0h1.094l1.344-2.406zm-.11-.86H3.11l2.11-3.671zm0 0"/></symbol><symbol id="K" overflow="visible"><path d="M6.078-.563c-.11.032-.156.032-.187.032-.297 0-.422-.11-.422-.328 0-.047 0-.079.015-.11l.704-3.312c.062-.297.062-.297.062-.407 0-.75-.766-1.234-1.922-1.234-1.516 0-2.453.64-2.672 1.86h.922c.11-.297.188-.454.344-.61.234-.25.703-.406 1.172-.406.656 0 1.172.297 1.172.703 0 .047-.016.125-.032.203l-.03.203c-.095.453-.313.563-1.11.64-1.469.142-1.938.25-2.485.595-.562.359-.89.937-.89 1.578C.719-.281 1.313.25 2.297.25c.39 0 .844-.078 1.25-.219.344-.125.515-.234.969-.625v.125c0 .453.296.719.828.719.125 0 .156 0 .437-.063.016-.015.078-.015.14-.03zM4.734-1.796C4.594-1.125 3.625-.53 2.656-.53c-.625 0-.969-.266-.969-.735 0-.359.204-.718.532-.921.265-.172.594-.25 1.14-.329 1.032-.14 1.125-.156 1.61-.328zm0 0"/></symbol><symbol id="b" overflow="visible"><path d="M.688-5.938V0h1.546v-3.156c0-.906.454-1.36 1.36-1.36.156 0 .265.016.469.047V-6.03H3.89c-.72 0-1.329.453-1.657 1.25v-1.157zm0 0"/></symbol><symbol id="p" overflow="visible"><path d="M3.328-2.984s0-.079-.062-.22l-2.094-5.5c-.063-.14-.094-.265-.266-.265-.125 0-.234.11-.234.25 0 0 0 .063.062.203l2.094 5.532L.734 2.53c-.062.14-.062.219-.062.219 0 .125.11.234.234.234.156 0 .203-.109.25-.234l2.11-5.516c.062-.156.062-.218.062-.218zm0 0"/></symbol><symbol id="q" overflow="visible"><path d="M11.266-2.984a.136.136 0 00-.094-.125A3.744 3.744 0 018.719-6c0-.063-.063-.11-.125-.11h-.219c-.063 0-.125.063-.125.157a4.259 4.259 0 001.703 2.719H.906c-.172 0-.25.125-.25.25 0 .109.078.234.25.234h9.047A4.259 4.259 0 008.25-.031c0 .11.063.156.125.156h.219c.062 0 .125-.047.125-.094a3.766 3.766 0 012.453-2.906c.047 0 .094-.047.094-.11zm0 0"/></symbol><symbol id="A" overflow="visible"><path d="M.594 2.39h.922v-3C2-.015 2.546.25 3.28.25c1.5 0 2.469-1.203 2.469-3.031 0-1.938-.938-3.14-2.469-3.14-.781 0-1.406.343-1.844 1.03v-.875H.595zm2.531-7.468c1.016 0 1.672.89 1.672 2.266C4.797-1.5 4.125-.61 3.125-.61c-.969 0-1.61-.875-1.61-2.235 0-1.344.641-2.234 1.61-2.234zm0 0"/></symbol><symbol id="B" overflow="visible"><path d="M5.89-.531c-.109.015-.156.015-.202.015-.313 0-.5-.171-.5-.453v-3.39c0-1.016-.75-1.563-2.157-1.563-.844 0-1.531.234-1.922.656-.265.297-.375.641-.39 1.204h.922c.078-.704.5-1.016 1.343-1.016.829 0 1.297.297 1.297.86v.234c0 .39-.234.546-.953.64-1.297.172-1.5.203-1.86.36-.671.265-1 .78-1 1.53C.469-.405 1.189.25 2.36.25c.72 0 1.297-.25 1.954-.844.062.578.343.844.953.844.171 0 .328-.016.625-.094zM4.282-1.812c0 .312-.093.5-.36.75-.374.343-.827.515-1.374.515-.703 0-1.125-.344-1.125-.922 0-.61.406-.922 1.39-1.062.954-.125 1.157-.172 1.47-.313zm0 0"/></symbol><symbol id="C" overflow="visible"><path d="M2.797-5.766h-.953v-1.578H.937v1.578h-.78v.75h.78v4.36c0 .578.391.906 1.11.906.219 0 .437-.016.75-.078v-.766a1.786 1.786 0 01-.438.047c-.406 0-.515-.11-.515-.515v-3.954h.953zm0 0"/></symbol><symbol id="D" overflow="visible"><path d="M.766-8.016V0h.921v-3.172c0-1.187.61-1.953 1.563-1.953.297 0 .594.094.813.266.265.187.375.453.375.859v4h.906v-4.36c0-.968-.688-1.562-1.813-1.562-.812 0-1.312.25-1.844.953v-3.047zm0 0"/></symbol><symbol id="E" overflow="visible"><path d="M2.516-8.016L-.094.22h.61l2.609-8.235zm0 0"/></symbol><symbol id="F" overflow="visible"><path d="M2.766-5.766h-.954v-.906c0-.375.22-.578.641-.578.078 0 .11 0 .313.016V-8c-.204-.047-.329-.047-.516-.047-.844 0-1.344.485-1.344 1.297v.984H.125v.75h.781V0h.906v-5.016h.954zm2.03 0h-.905V0h.906zm0-2.25h-.905v1.157h.906zm0 0"/></symbol><symbol id="G" overflow="visible"><path d="M1.672-8.016H.75V0h.922zm0 0"/></symbol><symbol id="H" overflow="visible"><path d="M5.64-2.578c0-.875-.062-1.406-.234-1.828-.375-.953-1.25-1.516-2.328-1.516-1.61 0-2.64 1.219-2.64 3.11 0 1.906 1 3.062 2.624 3.062 1.313 0 2.235-.75 2.454-2h-.922c-.25.766-.766 1.156-1.5 1.156a1.61 1.61 0 01-1.39-.75c-.22-.328-.298-.656-.313-1.234zm-4.218-.75c.078-1.063.719-1.75 1.64-1.75.907 0 1.594.75 1.594 1.687v.063zm0 0"/></symbol><symbol id="I" overflow="visible"><path d="M.766-5.766V0h.921v-2.984c0-.829.204-1.375.641-1.688.297-.219.563-.281 1.203-.297v-.922c-.156-.03-.234-.03-.36-.03-.593 0-1.03.343-1.562 1.202v-1.047zm0 0"/></symbol><symbol id="J" overflow="visible"><path d="M.766-5.766V0h.921v-3.172c0-1.187.625-1.953 1.563-1.953.734 0 1.188.438 1.188 1.125v4h.921v-4.36c0-.952-.718-1.562-1.828-1.562-.86 0-1.406.328-1.922 1.125v-.969zm0 0"/></symbol><symbol id="L" overflow="visible"><path d="M2.016-5.203c-.485 0-.922.219-1.188.578-.344.453-.515 1.156-.515 2.11C.313-.766.905.171 2.016.171c1.093 0 1.703-.938 1.703-2.64 0-1.016-.172-1.688-.516-2.157a1.466 1.466 0 00-1.187-.578zm0 .578c.703 0 1.046.703 1.046 2.094C3.063-1.062 2.72-.36 2-.36 1.312-.36.969-1.08.969-2.5c0-1.422.344-2.125 1.047-2.125zm0 0"/></symbol><symbol id="M" overflow="visible"><path d="M1.89-3.703V0h.657v-5.203h-.422c-.234.812-.375.922-1.375 1.047v.453zm0 0"/></symbol><symbol id="N" overflow="visible"><path d="M3.703-.64H.97c.078-.422.312-.688.937-1.063l.735-.406C3.375-2.5 3.75-3.031 3.75-3.672c0-.437-.188-.828-.484-1.11-.313-.28-.688-.421-1.188-.421-.656 0-1.14.234-1.437.687-.172.266-.266.594-.282 1.125h.657c.015-.359.062-.562.156-.734.156-.313.5-.5.89-.5.579 0 1.016.406 1.016.969 0 .406-.234.765-.703 1.031l-.672.375C.625-1.64.313-1.14.25 0h3.453zm0 0"/></symbol><symbol id="O" overflow="visible"><path d="M1.625-2.375h.078l.266-.016c.718 0 1.078.329 1.078.954 0 .64-.406 1.03-1.078 1.03C1.266-.406.922-.75.875-1.515h-.64c.03.422.109.688.234.922.25.5.765.766 1.484.766 1.063 0 1.75-.64 1.75-1.625 0-.656-.25-1.031-.875-1.234.485-.188.719-.563.719-1.079 0-.89-.594-1.437-1.578-1.437-1.047 0-1.61.578-1.625 1.687h.64c.016-.312.047-.5.125-.656.141-.281.47-.453.875-.453.563 0 .907.328.907.875 0 .375-.125.594-.407.703-.187.078-.406.11-.859.11zm0 0"/></symbol><symbol id="P" overflow="visible"><path d="M2.39-1.25V0h.657v-1.25h.765v-.578h-.765v-3.375h-.485L.204-1.922v.672zm0-.578H.767L2.39-4.094zm0 0"/></symbol><symbol id="Q" overflow="visible"><path d="M3.484-5.203H.813L.421-2.36h.594c.296-.36.546-.485.953-.485.687 0 1.125.469 1.125 1.235 0 .75-.422 1.203-1.125 1.203-.563 0-.907-.281-1.063-.875H.25c.094.437.172.64.328.828.281.39.813.625 1.406.625 1.047 0 1.782-.766 1.782-1.86 0-1.03-.688-1.734-1.688-1.734-.36 0-.656.094-.953.313l.203-1.454h2.156zm0 0"/></symbol><symbol id="S" overflow="visible"><path d="M1.75-4.516c-.422 0-.797.188-1.031.5-.297.391-.438 1-.438 1.829C.281-.657.781.14 1.75.14c.953 0 1.469-.797 1.469-2.282 0-.875-.14-1.468-.438-1.875-.234-.312-.61-.5-1.031-.5zm0 .5c.61 0 .906.61.906 1.829 0 1.265-.297 1.874-.922 1.874-.593 0-.89-.625-.89-1.859s.297-1.844.906-1.844zm0 0"/></symbol><symbol id="T" overflow="visible"><path d="M1.64-3.219V0h.563v-4.516h-.36c-.202.704-.327.797-1.187.907v.39zm0 0"/></symbol><clipPath id="R"><path d="M176 93h40v35.574h-40zm0 0"/></clipPath><clipPath id="U"><path d="M206 93h39v35.574h-39zm0 0"/></clipPath><clipPath id="V"><path d="M235 93h31.984v35.574H235zm0 0"/></clipPath><clipPath id="W"><path d="M250 94h16.984v24H250zm0 0"/></clipPath></defs><g transform="translate(-24.945 -73.111)"><use xlink:href="#a" x="24.804" y="82.08" width="100%" height="100%"/><use xlink:href="#b" x="35.187" y="82.08" width="100%" height="100%"/><use xlink:href="#c" x="39.465" y="82.08" width="100%" height="100%"/><use xlink:href="#d" x="42.523" y="82.08" width="100%" height="100%"/><use xlink:href="#e" x="46.185" y="82.08" width="100%" height="100%"/><use xlink:href="#f" x="52.301" y="82.08" width="100%" height="100%"/><use xlink:href="#c" x="60.242" y="82.08" width="100%" height="100%"/><use xlink:href="#g" x="63.299" y="82.08" width="100%" height="100%"/><use xlink:href="#h" x="70.02" y="82.08" width="100%" height="100%"/><use xlink:href="#b" x="76.135" y="82.08" width="100%" height="100%"/></g><use xlink:href="#i" x="80.523" y="82.08" width="100%" height="100%" transform="translate(-24.945 -73.111)"/><use xlink:href="#j" x="86.638" y="82.08" width="100%" height="100%" transform="translate(-24.945 -73.111)"/><use xlink:href="#k" x="91.19" y="82.08" width="100%" height="100%" transform="translate(-24.945 -73.111)"/><use xlink:href="#l" x="95.765" y="82.08" width="100%" height="100%" transform="translate(-24.945 -73.111)"/><use xlink:href="#m" x="103.641" y="82.08" width="100%" height="100%" transform="translate(-24.945 -73.111)"/><use xlink:href="#n" x="110.211" y="82.08" width="100%" height="100%" transform="translate(-24.945 -73.111)"/><use xlink:href="#o" x="114.86" y="82.08" width="100%" height="100%" transform="translate(-24.945 -73.111)" fill="#283acc"/><use xlink:href="#p" x="122.196" y="82.08" width="100%" height="100%" transform="translate(-24.945 -73.111)"/><use xlink:href="#q" x="130.169" y="82.08" width="100%" height="100%" transform="translate(-24.945 -73.111)"/><use xlink:href="#r" x="145.442" y="82.08" width="100%" height="100%" transform="translate(-24.945 -73.111)"/><g transform="translate(-24.945 -73.111)"><use xlink:href="#s" x="150.666" y="82.08" width="100%" height="100%"/><use xlink:href="#t" x="156.782" y="82.08" width="100%" height="100%"/><use xlink:href="#u" x="159.223" y="82.08" width="100%" height="100%"/></g><use xlink:href="#k" x="31.517" y="96.427" width="100%" height="100%" transform="translate(-24.945 -73.111)"/><use xlink:href="#m" x="39.413" y="96.427" width="100%" height="100%" transform="translate(-24.945 -73.111)"/><g transform="translate(-24.945 -73.111)"><use xlink:href="#v" x="45.986" y="96.427" width="100%" height="100%"/><use xlink:href="#w" x="51.485" y="96.427" width="100%" height="100%"/><use xlink:href="#x" x="54.543" y="96.427" width="100%" height="100%"/></g><g transform="translate(-24.945 -73.111)"><use xlink:href="#t" x="58.371" y="96.427" width="100%" height="100%"/><use xlink:href="#y" x="60.812" y="96.427" width="100%" height="100%"/><use xlink:href="#z" x="66.928" y="96.427" width="100%" height="100%"/></g><g transform="translate(-24.945 -73.111)"><use xlink:href="#A" x="83.599" y="96.427" width="100%" height="100%"/><use xlink:href="#B" x="89.714" y="96.427" width="100%" height="100%"/><use xlink:href="#C" x="95.83" y="96.427" width="100%" height="100%"/><use xlink:href="#D" x="98.887" y="96.427" width="100%" height="100%"/><use xlink:href="#E" x="105.002" y="96.427" width="100%" height="100%"/><use xlink:href="#F" x="108.06" y="96.427" width="100%" height="100%"/><use xlink:href="#G" x="113.559" y="96.427" width="100%" height="100%"/><use xlink:href="#H" x="116.001" y="96.427" width="100%" height="100%"/></g><g transform="translate(-24.945 -73.111)"><use xlink:href="#A" x="125.174" y="96.427" width="100%" height="100%"/><use xlink:href="#B" x="131.289" y="96.427" width="100%" height="100%"/><use xlink:href="#C" x="137.405" y="96.427" width="100%" height="100%"/><use xlink:href="#C" x="140.462" y="96.427" width="100%" height="100%"/><use xlink:href="#H" x="143.52" y="96.427" width="100%" height="100%"/><use xlink:href="#I" x="149.635" y="96.427" width="100%" height="100%"/></g><use xlink:href="#J" x="153.573" y="96.427" width="100%" height="100%" transform="translate(-24.945 -73.111)"/><path d="M30.973 33.338H11.13v19.84h19.843zm0 0" fill="#d4d7f5" stroke="#000" stroke-width=".598" stroke-miterlimit="10"/><use xlink:href="#K" x="40.651" y="118.334" width="100%" height="100%" transform="translate(-24.945 -73.111)"/><use xlink:href="#L" x="46.766" y="120.127" width="100%" height="100%" transform="translate(-24.945 -73.111)"/><path d="M50.817 33.338H30.973v19.84h19.844zm0 0" fill="#d4d7f5" stroke="#000" stroke-width=".598" stroke-miterlimit="10"/><use xlink:href="#K" x="60.494" y="118.409" width="100%" height="100%" transform="translate(-24.945 -73.111)"/><use xlink:href="#M" x="66.609" y="120.202" width="100%" height="100%" transform="translate(-24.945 -73.111)"/><path d="M70.66 33.338H50.818v19.84h19.844zm0 0" fill="#d4d7f5" stroke="#000" stroke-width=".598" stroke-miterlimit="10"/><use xlink:href="#K" x="80.336" y="118.409" width="100%" height="100%" transform="translate(-24.945 -73.111)"/><use xlink:href="#N" x="86.452" y="120.202" width="100%" height="100%" transform="translate(-24.945 -73.111)"/><path d="M90.5 33.338H70.66v19.84H90.5zm0 0" fill="#d4d7f5" stroke="#000" stroke-width=".598" stroke-miterlimit="10"/><use xlink:href="#K" x="100.179" y="118.334" width="100%" height="100%" transform="translate(-24.945 -73.111)"/><use xlink:href="#O" x="106.294" y="120.127" width="100%" height="100%" transform="translate(-24.945 -73.111)"/><path d="M110.344 33.338H90.501v19.84h19.843zm0 0" fill="#d4d7f5" stroke="#000" stroke-width=".598" stroke-miterlimit="10"/><use xlink:href="#K" x="120.022" y="118.409" width="100%" height="100%" transform="translate(-24.945 -73.111)"/><use xlink:href="#P" x="126.137" y="120.202" width="100%" height="100%" transform="translate(-24.945 -73.111)"/><path d="M130.188 33.338h-19.844v19.84h19.844zm0 0" fill="#d4d7f5" stroke="#000" stroke-width=".598" stroke-miterlimit="10"/><use xlink:href="#K" x="139.865" y="118.334" width="100%" height="100%" transform="translate(-24.945 -73.111)"/><use xlink:href="#Q" x="145.98" y="120.127" width="100%" height="100%" transform="translate(-24.945 -73.111)"/><g transform="translate(-24.945 -73.111)" clip-path="url(#R)"><path d="M184.895 127.277v-24.199c0-.55.449-.996.996-.996h13.289c.55 0 1.312.316 1.699.707l5.14 5.137c.387.39.704 1.152.704 1.703v17.648a.995.995 0 01-.996.996H185.89a.998.998 0 01-.996-.996zm0 0" fill="none" stroke="#000" stroke-width=".598" stroke-linecap="round" stroke-miterlimit="10"/></g><path d="M174.794 29.408v5.551c0 .55.445.996.996.996h5.55" fill="none" stroke="#000" stroke-width=".598" stroke-linecap="round" stroke-miterlimit="10"/><g transform="translate(-24.945 -73.111)"><use xlink:href="#S" x="186.977" y="116.106" width="100%" height="100%"/><use xlink:href="#T" x="190.509" y="116.106" width="100%" height="100%"/><use xlink:href="#S" x="194.04" y="116.106" width="100%" height="100%"/><use xlink:href="#T" x="197.572" y="116.106" width="100%" height="100%"/><use xlink:href="#T" x="201.103" y="116.106" width="100%" height="100%"/></g><g transform="translate(-24.945 -73.111)"><use xlink:href="#S" x="186.977" y="123.011" width="100%" height="100%"/><use xlink:href="#S" x="190.509" y="123.011" width="100%" height="100%"/><use xlink:href="#T" x="194.04" y="123.011" width="100%" height="100%"/><use xlink:href="#S" x="197.572" y="123.011" width="100%" height="100%"/><use xlink:href="#T" x="201.103" y="123.011" width="100%" height="100%"/></g><g transform="translate(-24.945 -73.111)" clip-path="url(#U)"><path d="M214.66 127.277v-24.199c0-.55.445-.996.996-.996h13.285c.551 0 1.313.316 1.704.707l5.136 5.137c.39.39.707 1.152.707 1.703v17.648a.997.997 0 01-.996.996h-19.836a.995.995 0 01-.996-.996zm0 0" fill="none" stroke="#000" stroke-width=".598" stroke-linecap="round" stroke-miterlimit="10"/></g><path d="M204.56 29.408v5.551c0 .55.445.996.995.996h5.551" fill="none" stroke="#000" stroke-width=".598" stroke-linecap="round" stroke-miterlimit="10"/><g transform="translate(-24.945 -73.111)"><use xlink:href="#S" x="216.741" y="116.106" width="100%" height="100%"/><use xlink:href="#T" x="220.273" y="116.106" width="100%" height="100%"/><use xlink:href="#S" x="223.804" y="116.106" width="100%" height="100%"/><use xlink:href="#T" x="227.336" y="116.106" width="100%" height="100%"/><use xlink:href="#T" x="230.867" y="116.106" width="100%" height="100%"/></g><g transform="translate(-24.945 -73.111)"><use xlink:href="#S" x="216.741" y="123.011" width="100%" height="100%"/><use xlink:href="#S" x="220.273" y="123.011" width="100%" height="100%"/><use xlink:href="#T" x="223.804" y="123.011" width="100%" height="100%"/><use xlink:href="#S" x="227.336" y="123.011" width="100%" height="100%"/><use xlink:href="#T" x="230.867" y="123.011" width="100%" height="100%"/></g><g transform="translate(-24.945 -73.111)" clip-path="url(#V)"><path d="M244.426 127.277v-24.199c0-.55.445-.996.996-.996h13.285c.55 0 1.313.316 1.7.707l5.14 5.137c.39.39.703 1.152.703 1.703v17.648a.995.995 0 01-.996.996h-19.832a.995.995 0 01-.996-.996zm0 0" fill="none" stroke="#000" stroke-width=".598" stroke-linecap="round" stroke-miterlimit="10"/></g><g transform="translate(-24.945 -73.111)" clip-path="url(#W)"><path d="M259.266 102.52v5.55c0 .551.445.996.996.996h5.55" fill="none" stroke="#000" stroke-width=".598" stroke-linecap="round" stroke-miterlimit="10"/></g><g transform="translate(-24.945 -73.111)"><use xlink:href="#S" x="246.505" y="116.106" width="100%" height="100%"/><use xlink:href="#T" x="250.037" y="116.106" width="100%" height="100%"/><use xlink:href="#S" x="253.568" y="116.106" width="100%" height="100%"/><use xlink:href="#T" x="257.1" y="116.106" width="100%" height="100%"/><use xlink:href="#T" x="260.631" y="116.106" width="100%" height="100%"/></g><g transform="translate(-24.945 -73.111)"><use xlink:href="#S" x="246.505" y="123.011" width="100%" height="100%"/><use xlink:href="#S" x="250.037" y="123.011" width="100%" height="100%"/><use xlink:href="#T" x="253.568" y="123.011" width="100%" height="100%"/><use xlink:href="#S" x="257.1" y="123.011" width="100%" height="100%"/><use xlink:href="#T" x="260.631" y="123.011" width="100%" height="100%"/></g><path d="M136.067 43.26h17.23" fill="none" stroke="#000" stroke-width="1.196" stroke-linecap="round" stroke-miterlimit="10"/><path d="M150.868 39.428c.55 2.297 1.785 3.383 3.027 3.832-1.242.445-2.476 1.531-3.027 3.828" fill="none" stroke="#000" stroke-width="1.196" stroke-linecap="round" stroke-linejoin="round" stroke-miterlimit="10"/></svg>