<svg xmlns="http://www.w3.org/2000/svg" xmlns:xlink="http://www.w3.org/1999/xlink" version="1.2" viewBox="0 0 140.939 133.369" height="177.825" width="187.919"><defs><symbol id="k" overflow="visible"><path d="M7.531-.344c0-.094-.031-.125-.156-.25L5-2.984l2.375-2.391c.125-.14.156-.156.156-.25 0-.14-.11-.25-.234-.25-.094 0-.156.047-.25.156l-2.39 2.39-2.407-2.39c-.14-.125-.156-.156-.25-.156-.125 0-.25.11-.25.25 0 .094.063.14.156.25l2.39 2.39-2.39 2.376c-.11.125-.156.187-.156.265 0 .125.125.235.25.235.094 0 .11-.016.25-.157l2.39-2.39 2.391 2.39c.11.125.188.157.266.157a.23.23 0 00.234-.235zm0 0"/></symbol><symbol id="a" overflow="visible"><path d="M6.36-8.016H.327v1.375h4.11L.327-1.375V0H6.36v-1.375H2.266l4.093-5.266zm0 0"/></symbol><symbol id="c" overflow="visible"><path d="M2.172-5.938H.64v8.329h1.53V-.703c.376.656.907.969 1.657.969 1.438 0 2.485-1.344 2.485-3.141 0-.844-.235-1.672-.641-2.234-.39-.563-1.125-.922-1.844-.922-.75 0-1.281.312-1.656.968zM3.469-4.75c.781 0 1.312.75 1.312 1.89 0 1.079-.547 1.844-1.312 1.844-.766 0-1.297-.75-1.297-1.859 0-1.125.531-1.875 1.297-1.875zm0 0"/></symbol><symbol id="d" overflow="visible"><path d="M3.172-8.969C1.39-7.359.937-4.938.937-2.984c0 2.093.516 4.437 2.235 5.984h.719C3.437 2.562 2.703 1.64 2.28.281c-.328-1.062-.437-2.172-.437-3.25 0-3.531 1.25-5.25 2.047-6zm0 0"/></symbol><symbol id="f" overflow="visible"><path d="M1.36 3c1.796-1.594 2.25-4.031 2.25-5.969 0-2.11-.516-4.453-2.25-6H.64c.47.438 1.204 1.36 1.626 2.719.312 1.063.437 2.172.437 3.266C2.703.53 1.453 2.266.641 3zm0 0"/></symbol><symbol id="g" overflow="visible"><path d="M2.11-5.313h-.97v.97h.97zM1.14-.968V0h.97v-.969zm0 0"/></symbol><symbol id="e" overflow="visible"><path d="M6.125-5.766H1.812l-.156.797h3.235L.53-.812.344 0H5.03l.172-.797H1.61l4.313-4.14zm0 0"/></symbol><symbol id="i" overflow="visible"><path d="M5.766-2.406L6.062 0h1.125L6.079-8.016H4.75L.187 0h1.094l1.344-2.406zm-.11-.86H3.11l2.11-3.671zm0 0"/></symbol><symbol id="l" overflow="visible"><path d="M.875 0H4.5c.906 0 1.594-.313 2.172-.953.484-.516.719-1.172.719-1.89 0-.673-.297-1.048-1.063-1.376.953-.437 1.5-1.218 1.5-2.203a1.39 1.39 0 00-.406-1.031c-.375-.406-.828-.563-1.594-.563h-3.25zm2-4.563l.547-2.546h1.984c.938 0 1.36.296 1.36.937 0 .406-.157.813-.422 1.094-.328.36-.766.516-1.5.516zM2.094-.905l.594-2.75h2.484c.75 0 1.172.344 1.172 1 0 .406-.14.797-.375 1.125-.344.437-.766.625-1.375.625zm0 0"/></symbol><symbol id="o" overflow="visible"><path d="M8.469-5.531c-.031-.657-.14-1.063-.344-1.438-.453-.781-1.234-1.187-2.266-1.187-1.296 0-2.359.515-3.218 1.562-.875 1.032-1.407 2.563-1.407 3.938 0 .765.22 1.453.625 1.969.5.64 1.204.937 2.172.937C5.203.25 6.22-.172 6.938-.953c.421-.485.78-1.078 1.14-1.969H7c-.266.625-.438.953-.64 1.219-.47.656-1.298 1.062-2.173 1.062-1.14 0-1.906-.89-1.906-2.218 0-1 .344-2.11.89-2.938.673-.984 1.485-1.469 2.5-1.469 1.11 0 1.657.547 1.735 1.735zm0 0"/></symbol><symbol id="h" overflow="visible"><path d="M3.969 2.75s0-.078-.063-.219L1.812-2.984l2.094-5.532c.063-.14.063-.203.063-.203 0-.14-.11-.25-.235-.25-.156 0-.203.11-.25.25L1.375-3.203c-.063.14-.063.219-.063.219s0 .062.063.218L3.469 2.72c.062.156.094.265.265.265a.24.24 0 00.235-.234zm0 0"/></symbol><symbol id="j" overflow="visible"><path d="M3.328-2.984s0-.079-.062-.22l-2.094-5.5c-.063-.14-.094-.265-.266-.265-.125 0-.234.11-.234.25 0 0 0 .063.062.203l2.094 5.532L.734 2.53c-.062.14-.062.219-.062.219 0 .125.11.234.234.234.156 0 .203-.109.25-.234l2.11-5.516c.062-.156.062-.218.062-.218zm0 0"/></symbol><symbol id="b" overflow="visible"><path d="M2.281-5.938H.734V0h1.547zm0-2.078H.734v1.375h1.547zm0 0"/></symbol><symbol id="m" overflow="visible"><path d="M2.297-2.984a.643.643 0 00-.64-.641.64.64 0 00-.626.64c0 .344.282.626.625.626a.63.63 0 00.64-.625zm0 0"/></symbol><symbol id="n" overflow="visible"><path d="M11.266-2.984a.136.136 0 00-.094-.125A3.744 3.744 0 018.719-6c0-.063-.063-.11-.125-.11h-.219c-.063 0-.125.063-.125.157a4.259 4.259 0 001.703 2.719H.906c-.172 0-.25.125-.25.25 0 .109.078.234.25.234h9.047A4.259 4.259 0 008.25-.031c0 .11.063.156.125.156h.219c.062 0 .125-.047.125-.094a3.766 3.766 0 012.453-2.906c.047 0 .094-.047.094-.11zm0 0"/></symbol><symbol id="p" overflow="visible"><path d="M4.875-5.766H.578v.797h3.203L.344-.829V0H5.03v-.797H1.453l3.422-4.156zm0 0"/></symbol><symbol id="q" overflow="visible"><path d="M1.656-5.766H.734V0h.922zm0-2.25H.72v1.157h.937zm0 0"/></symbol><symbol id="r" overflow="visible"><path d="M.594 2.39h.922v-3C2-.015 2.546.25 3.28.25c1.5 0 2.469-1.203 2.469-3.031 0-1.938-.938-3.14-2.469-3.14-.781 0-1.406.343-1.844 1.03v-.875H.595zm2.531-7.468c1.016 0 1.672.89 1.672 2.266C4.797-1.5 4.125-.61 3.125-.61c-.969 0-1.61-.875-1.61-2.235 0-1.344.641-2.234 1.61-2.234zm0 0"/></symbol><symbol id="s" overflow="visible"><path d="M2.844-5.766h-.969v-.906c0-.375.219-.578.64-.578.079 0 .11 0 .329.016V-8c-.219-.047-.328-.047-.516-.047-.86 0-1.36.485-1.36 1.297v.984H.204v.75H.97V0h.906v-5.016h.969zm0 0"/></symbol><symbol id="t" overflow="visible"><path d="M5.297 0v-5.766H4.39V-2.5c0 1.188-.625 1.953-1.579 1.953-.718 0-1.187-.437-1.187-1.14v-4.079H.719v4.454C.719-.36 1.438.25 2.547.25c.86 0 1.39-.297 1.937-1.047V0zm0 0"/></symbol><symbol id="u" overflow="visible"><path d="M.766-5.766V0h.921v-3.172c0-1.187.625-1.953 1.563-1.953.734 0 1.188.438 1.188 1.125v4h.921v-4.36c0-.952-.718-1.562-1.828-1.562-.86 0-1.406.328-1.922 1.125v-.969zm0 0"/></symbol><symbol id="v" overflow="visible"><path d="M5.188-3.828c-.047-.563-.172-.922-.391-1.25-.39-.531-1.094-.844-1.89-.844-1.548 0-2.563 1.219-2.563 3.14C.344-.921 1.328.25 2.89.25c1.375 0 2.25-.828 2.359-2.234h-.922c-.156.921-.625 1.39-1.406 1.39-1.016 0-1.625-.828-1.625-2.187 0-1.438.594-2.297 1.594-2.297.765 0 1.25.453 1.359 1.25zm0 0"/></symbol><symbol id="w" overflow="visible"><path d="M2.797-5.766h-.953v-1.578H.937v1.578h-.78v.75h.78v4.36c0 .578.391.906 1.11.906.219 0 .437-.016.75-.078v-.766a1.786 1.786 0 01-.438.047c-.406 0-.515-.11-.515-.515v-3.954h.953zm0 0"/></symbol><symbol id="x" overflow="visible"><path d="M2.984-5.922c-1.609 0-2.593 1.14-2.593 3.078S1.359.25 3 .25c1.625 0 2.61-1.156 2.61-3.047 0-1.984-.954-3.125-2.626-3.125zM3-5.078c1.031 0 1.656.844 1.656 2.266 0 1.359-.64 2.218-1.656 2.218s-1.64-.844-1.64-2.25c0-1.375.624-2.234 1.64-2.234zm0 0"/></symbol></defs><use transform="translate(-6.35 -3.664)" height="100%" width="100%" y="12.633" x="6.021" xlink:href="#a"/><use transform="translate(-6.35 -3.664)" height="100%" width="100%" y="12.633" x="12.741" xlink:href="#b"/><use transform="translate(-6.35 -3.664)" height="100%" width="100%" y="12.633" x="15.799" xlink:href="#c"/><use transform="translate(-6.35 -3.664)" height="100%" width="100%" y="12.633" x="22.519" xlink:href="#d"/><use transform="translate(-6.35 -3.664)" height="100%" width="100%" y="12.633" x="27.071" xlink:href="#e"/><use transform="translate(-6.35 -3.664)" height="100%" width="100%" y="12.633" x="33.352" xlink:href="#f"/><use transform="translate(-6.35 -3.664)" height="100%" width="100%" y="12.633" x="41.228" xlink:href="#g"/><use transform="translate(-6.35 -3.664)" height="100%" width="100%" y="12.633" x="47.797" xlink:href="#h"/><use transform="translate(-6.35 -3.664)" height="100%" width="100%" y="12.633" x="52.447" xlink:href="#i" fill="#283acc"/><use transform="translate(-6.35 -3.664)" height="100%" width="100%" y="12.633" x="59.783" xlink:href="#j"/><use transform="translate(-6.35 -3.664)" height="100%" width="100%" y="12.633" x="67.086" xlink:href="#k"/><use transform="translate(-6.35 -3.664)" height="100%" width="100%" y="12.633" x="79.039" xlink:href="#h"/><use transform="translate(-6.35 -3.664)" height="100%" width="100%" y="12.633" x="83.693" xlink:href="#l" fill="#00947f"/><use transform="translate(-6.35 -3.664)" height="100%" width="100%" y="12.633" x="91.518" xlink:href="#j"/><use transform="translate(-6.35 -3.664)" height="100%" width="100%" y="12.633" x="98.164" xlink:href="#m"/><use transform="translate(-6.35 -3.664)" height="100%" width="100%" y="12.633" x="103.47" xlink:href="#m"/><use transform="translate(-6.35 -3.664)" height="100%" width="100%" y="12.633" x="108.787" xlink:href="#m"/><use transform="translate(-6.35 -3.664)" height="100%" width="100%" y="12.633" x="115.432" xlink:href="#n"/><use transform="translate(-6.35 -3.664)" height="100%" width="100%" y="12.633" x="130.699" xlink:href="#h"/><use transform="translate(-6.35 -3.664)" height="100%" width="100%" y="12.633" x="135.354" xlink:href="#o" fill="red"/><use transform="translate(-6.35 -3.664)" height="100%" width="100%" y="12.633" x="143.96" xlink:href="#j"/><use transform="translate(-6.35 -3.664)" height="100%" width="100%" y="26.73" x="40.74" xlink:href="#e"/><use transform="translate(-6.35 -3.664)" height="100%" width="100%" y="26.73" x="50.341" xlink:href="#g"/><use transform="translate(-6.35 -3.664)" height="100%" width="100%" y="26.73" x="56.914" xlink:href="#i" fill="#283acc"/><use transform="translate(-6.35 -3.664)" height="100%" width="100%" y="26.73" x="66.907" xlink:href="#k"/><use transform="translate(-6.35 -3.664)" height="100%" width="100%" y="26.73" x="78.862" xlink:href="#l" fill="#00947f"/><use transform="translate(-6.35 -3.664)" height="100%" width="100%" y="26.73" x="90.008" xlink:href="#n"/><use transform="translate(-6.35 -3.664)" height="100%" width="100%" y="26.73" x="105.284" xlink:href="#o" fill="red"/><use transform="translate(-6.35 -3.664)" height="100%" width="100%" y="40.179" x="58.26" xlink:href="#p"/><use transform="translate(-6.35 -3.664)" height="100%" width="100%" y="40.179" x="63.759" xlink:href="#q"/><use transform="translate(-6.35 -3.664)" height="100%" width="100%" y="40.179" x="66.201" xlink:href="#r"/><use transform="translate(-6.35 -3.664)" height="100%" width="100%" y="40.179" x="75.374" xlink:href="#s"/><use transform="translate(-6.35 -3.664)" height="100%" width="100%" y="40.179" x="78.432" xlink:href="#t"/><use transform="translate(-6.35 -3.664)" height="100%" width="100%" y="40.179" x="84.547" xlink:href="#u"/><use transform="translate(-6.35 -3.664)" height="100%" width="100%" y="40.179" x="90.662" xlink:href="#v"/><use transform="translate(-6.35 -3.664)" height="100%" width="100%" y="40.179" x="96.162" xlink:href="#w"/><use transform="translate(-6.35 -3.664)" height="100%" width="100%" y="40.179" x="99.219" xlink:href="#q"/><use transform="translate(-6.35 -3.664)" height="100%" width="100%" y="40.179" x="101.661" xlink:href="#x"/><use transform="translate(-6.35 -3.664)" height="100%" width="100%" y="40.179" x="107.776" xlink:href="#u"/><path d="M41.202 49.734H21.358v19.84h19.844zm19.843 0H41.202v19.84h19.843zm0 0" fill="#d4d7f5" stroke="#000" stroke-width=".598" stroke-miterlimit="10"/><path d="M80.89 49.734H61.044v19.84H80.89zm0 0" fill="#d4d7f5" stroke="#000" stroke-width=".598" stroke-miterlimit="10"/><path d="M100.729 49.734h-19.84v19.84h19.84zm0 0" fill="#d4d7f5" stroke="#000" stroke-width=".598" stroke-miterlimit="10"/><path d="M120.573 49.734h-19.844v19.84h19.844zm0 0" fill="#d4d7f5" stroke="#000" stroke-width=".598" stroke-miterlimit="10"/><path d="M41.202 71.558H21.358v19.844h19.844zm19.843 0H41.202v19.844h19.843zm0 0" fill="#cae8e6" stroke="#000" stroke-width=".598" stroke-miterlimit="10"/><path d="M80.89 71.558H61.044v19.844H80.89zm0 0" fill="#cae8e6" stroke="#000" stroke-width=".598" stroke-miterlimit="10"/><path d="M100.729 71.558h-19.84v19.844h19.84zm0 0" fill="#cae8e6" stroke="#000" stroke-width=".598" stroke-miterlimit="10"/><path d="M120.573 71.558h-19.844v19.844h19.844zm0 0" fill="#cae8e6" stroke="#000" stroke-width=".598" stroke-miterlimit="10"/><path d="M41.202 113.23H21.358v19.84h19.844zm0 0" fill="#f3cfcf" stroke="#000" stroke-width=".598" stroke-miterlimit="10"/><path d="M31.28 59.652v52.57" fill="none" stroke="#000" stroke-width=".797" stroke-miterlimit="10"/><path d="M34.393 110.07c-1.867.469-2.75 1.508-3.113 2.55-.364-1.042-1.242-2.081-3.11-2.55" fill="none" stroke="#000" stroke-width=".797" stroke-linecap="round" stroke-linejoin="round" stroke-miterlimit="10"/><path d="M33.393 59.652a2.115 2.115 0 00-2.113-2.113 2.112 2.112 0 102.113 2.113zm0 21.828a2.112 2.112 0 10-4.227 0 2.112 2.112 0 104.227 0zm0 0"/><path d="M36.288 101.324a5.008 5.008 0 10-10.016 0 5.008 5.008 0 0010.016 0zm0 0" fill="#fff" stroke="#000" stroke-width=".399" stroke-miterlimit="10"/><use transform="translate(-6.35 -3.664)" height="100%" width="100%" y="107.924" x="34.49" xlink:href="#e"/><path d="M61.045 113.23H41.202v19.84h19.843zm0 0" fill="#f3cfcf" stroke="#000" stroke-width=".598" stroke-miterlimit="10"/><path d="M51.124 59.652v52.57" fill="none" stroke="#000" stroke-width=".797" stroke-miterlimit="10"/><path d="M54.233 110.07c-1.863.469-2.746 1.508-3.11 2.55-.363-1.042-1.242-2.081-3.109-2.55" fill="none" stroke="#000" stroke-width=".797" stroke-linecap="round" stroke-linejoin="round" stroke-miterlimit="10"/><path d="M53.237 59.652a2.115 2.115 0 00-2.113-2.113 2.112 2.112 0 102.113 2.113zm0 21.828a2.112 2.112 0 10-4.227 0 2.112 2.112 0 104.227 0zm0 0"/><path d="M56.131 101.324a5.008 5.008 0 10-10.016 0 5.008 5.008 0 0010.016 0zm0 0" fill="#fff" stroke="#000" stroke-width=".399" stroke-miterlimit="10"/><use transform="translate(-6.35 -3.664)" height="100%" width="100%" y="107.924" x="54.333" xlink:href="#e"/><path d="M80.89 113.23H61.044v19.84H80.89zm0 0" fill="#f3cfcf" stroke="#000" stroke-width=".598" stroke-miterlimit="10"/><path d="M70.967 59.652v52.57" fill="none" stroke="#000" stroke-width=".797" stroke-miterlimit="10"/><path d="M74.077 110.07c-1.868.469-2.746 1.508-3.11 2.55-.363-1.042-1.246-2.081-3.113-2.55" fill="none" stroke="#000" stroke-width=".797" stroke-linecap="round" stroke-linejoin="round" stroke-miterlimit="10"/><path d="M73.08 59.652a2.115 2.115 0 00-2.113-2.113 2.112 2.112 0 102.113 2.113zm0 21.828a2.112 2.112 0 10-4.226 0 2.112 2.112 0 104.227 0zm0 0"/><path d="M75.975 101.324a5.008 5.008 0 10-10.016 0 5.008 5.008 0 0010.016 0zm0 0" fill="#fff" stroke="#000" stroke-width=".399" stroke-miterlimit="10"/><use transform="translate(-6.35 -3.664)" height="100%" width="100%" y="107.924" x="74.175" xlink:href="#e"/><path d="M100.729 113.23h-19.84v19.84h19.84zm0 0" fill="#f3cfcf" stroke="#000" stroke-width=".598" stroke-miterlimit="10"/><path d="M90.811 59.652V81.48l-.004 19.844.004 10.898" fill="none" stroke="#000" stroke-width=".797" stroke-miterlimit="10"/><path d="M93.92 110.07c-1.867.469-2.746 1.508-3.109 2.55-.363-1.042-1.246-2.081-3.113-2.55" fill="none" stroke="#000" stroke-width=".797" stroke-linecap="round" stroke-linejoin="round" stroke-miterlimit="10"/><path d="M92.924 59.652a2.115 2.115 0 00-2.113-2.113 2.112 2.112 0 102.113 2.113zm0 21.828a2.112 2.112 0 10-4.226 0 2.112 2.112 0 104.226 0zm0 0"/><path d="M95.815 101.324a5.008 5.008 0 00-5.008-5.008 5.005 5.005 0 00-5.004 5.008 5.005 5.005 0 005.004 5.008 5.008 5.008 0 005.008-5.008zm0 0" fill="#fff" stroke="#000" stroke-width=".399" stroke-miterlimit="10"/><use transform="translate(-6.35 -3.664)" height="100%" width="100%" y="107.924" x="94.018" xlink:href="#e"/><path d="M120.573 113.23h-19.844v19.84h19.844zm0 0" fill="#f3cfcf" stroke="#000" stroke-width=".598" stroke-miterlimit="10"/><path d="M110.655 59.652V81.48l-.004 19.844.004 10.898" fill="none" stroke="#000" stroke-width=".797" stroke-miterlimit="10"/><path d="M113.764 110.07c-1.867.469-2.75 1.508-3.11 2.55-.362-1.042-1.245-2.081-3.112-2.546" fill="none" stroke="#000" stroke-width=".797" stroke-linecap="round" stroke-linejoin="round" stroke-miterlimit="10"/><path d="M112.768 59.652c0-1.164-.95-2.113-2.113-2.113a2.112 2.112 0 102.113 2.113zm0 21.828a2.112 2.112 0 10-2.113 2.113 2.115 2.115 0 002.113-2.113zm0 0"/><path d="M115.659 101.324a5.008 5.008 0 10-10.016 0 5.008 5.008 0 0010.016 0zm0 0" fill="#fff" stroke="#000" stroke-width=".399" stroke-miterlimit="10"/><use transform="translate(-6.35 -3.664)" height="100%" width="100%" y="107.924" x="113.86" xlink:href="#e"/></svg>