<svg xmlns="http://www.w3.org/2000/svg" xmlns:xlink="http://www.w3.org/1999/xlink" version="1.2" viewBox="0 0 145.649 38.906" height="51.875" width="194.199"><defs><symbol id="t" overflow="visible"><path d="M8.469-5.531c-.031-.657-.14-1.063-.344-1.438-.453-.781-1.234-1.187-2.266-1.187-1.296 0-2.359.515-3.218 1.562-.875 1.032-1.407 2.563-1.407 3.938 0 .765.22 1.453.625 1.969.5.64 1.204.937 2.172.937C5.203.25 6.22-.172 6.938-.953c.421-.485.78-1.078 1.14-1.969H7c-.266.625-.438.953-.64 1.219-.47.656-1.298 1.062-2.173 1.062-1.14 0-1.906-.89-1.906-2.218 0-1 .344-2.11.89-2.938.673-.984 1.485-1.469 2.5-1.469 1.11 0 1.657.547 1.735 1.735zm0 0"/></symbol><symbol id="a" overflow="visible"><path d="M6.36-8.016H.327v1.375h4.11L.327-1.375V0H6.36v-1.375H2.266l4.093-5.266zm0 0"/></symbol><symbol id="c" overflow="visible"><path d="M2.172-5.938H.64v8.329h1.53V-.703c.376.656.907.969 1.657.969 1.438 0 2.485-1.344 2.485-3.141 0-.844-.235-1.672-.641-2.234-.39-.563-1.125-.922-1.844-.922-.75 0-1.281.312-1.656.968zM3.469-4.75c.781 0 1.312.75 1.312 1.89 0 1.079-.547 1.844-1.312 1.844-.766 0-1.297-.75-1.297-1.859 0-1.125.531-1.875 1.297-1.875zm0 0"/></symbol><symbol id="d" overflow="visible"><path d="M8.031 0l2.219-8.016H8.5L7.297-2 6-8.016H4.375l-1.234 6-1.25-6H.14L2.406 0h1.485l1.312-6.266L6.547 0zm0 0"/></symbol><symbol id="h" overflow="visible"><path d="M.688-5.938V0h1.546v-3.563c0-.703.5-1.171 1.235-1.171.672 0 1 .375 1 1.078V0H6v-3.984c0-1.313-.719-2.047-1.984-2.047-.797 0-1.344.297-1.782.953v-.86zm0 0"/></symbol><symbol id="i" overflow="visible"><path d="M4.453 0H6v-8.016H4.453v2.844c-.39-.594-.906-.86-1.64-.86-1.422 0-2.5 1.36-2.5 3.157 0 .797.25 1.61.64 2.188.406.562 1.14.937 1.86.937.734 0 1.25-.266 1.64-.86zM3.156-4.75c.781 0 1.297.75 1.297 1.89 0 1.079-.531 1.829-1.297 1.829-.765 0-1.297-.766-1.297-1.844 0-1.11.532-1.875 1.297-1.875zm0 0"/></symbol><symbol id="e" overflow="visible"><path d="M3.313-5.813h-.86v-1.593H.906v1.593h-.75v1.016h.75v3.656c0 .938.5 1.391 1.516 1.391.344 0 .61-.031.89-.125V-.953c-.156.031-.25.047-.359.047-.406 0-.5-.125-.5-.656v-3.235h.86zm0 0"/></symbol><symbol id="f" overflow="visible"><path d="M.734-8.016V0h1.547v-3.563c0-.687.485-1.171 1.188-1.171.328 0 .594.125.765.375.125.187.172.343.172.734V0h1.547v-3.984c0-.735-.203-1.266-.61-1.61C5-5.875 4.517-6.03 4.017-6.03c-.766 0-1.313.297-1.735.953v-2.938zm0 0"/></symbol><symbol id="g" overflow="visible"><path d="M2.344-8.016H.688V0h1.656zm0 0"/></symbol><symbol id="j" overflow="visible"><path d="M5.766-2.484c.015-.141.015-.188.015-.266a5.06 5.06 0 00-.234-1.563C5.14-5.39 4.187-6.03 2.984-6.03c-1.703 0-2.75 1.218-2.75 3.218C.234-.905 1.281.25 2.954.25c1.343 0 2.421-.75 2.75-1.922H4.187c-.188.469-.61.75-1.172.75-.438 0-.797-.187-1.016-.515-.14-.22-.203-.485-.219-1.047zm-3.97-1.032c.11-.89.485-1.343 1.173-1.343.39 0 .734.187.953.5.14.218.219.437.25.843zm0 0"/></symbol><symbol id="k" overflow="visible"><path d="M3.906-2.984l1.938-2.954H4L3.031-4.14l-.969-1.796H.22l1.937 2.953L.172 0h1.86l1-1.844 1 1.844H5.89zm0 0"/></symbol><symbol id="l" overflow="visible"><path d="M3.172-8.969C1.39-7.359.937-4.938.937-2.984c0 2.093.516 4.437 2.235 5.984h.719C3.437 2.562 2.703 1.64 2.28.281c-.328-1.062-.437-2.172-.437-3.25 0-3.531 1.25-5.25 2.047-6zm0 0"/></symbol><symbol id="n" overflow="visible"><path d="M1.36 3c1.796-1.594 2.25-4.031 2.25-5.969 0-2.11-.516-4.453-2.25-6H.64c.47.438 1.204 1.36 1.626 2.719.312 1.063.437 2.172.437 3.266C2.703.53 1.453 2.266.641 3zm0 0"/></symbol><symbol id="o" overflow="visible"><path d="M2.11-5.313h-.97v.97h.97zM1.14-.968V0h.97v-.969zm0 0"/></symbol><symbol id="m" overflow="visible"><path d="M6.125-5.766H1.812l-.156.797h3.235L.53-.812.344 0H5.03l.172-.797H1.61l4.313-4.14zm0 0"/></symbol><symbol id="q" overflow="visible"><path d="M5.766-2.406L6.062 0h1.125L6.079-8.016H4.75L.187 0h1.094l1.344-2.406zm-.11-.86H3.11l2.11-3.671zm0 0"/></symbol><symbol id="b" overflow="visible"><path d="M2.281-5.938H.734V0h1.547zm0-2.078H.734v1.375h1.547zm0 0"/></symbol><symbol id="p" overflow="visible"><path d="M3.969 2.75s0-.078-.063-.219L1.812-2.984l2.094-5.532c.063-.14.063-.203.063-.203 0-.14-.11-.25-.235-.25-.156 0-.203.11-.25.25L1.375-3.203c-.063.14-.063.219-.063.219s0 .062.063.218L3.469 2.72c.062.156.094.265.265.265a.24.24 0 00.235-.234zm0 0"/></symbol><symbol id="r" overflow="visible"><path d="M3.328-2.984s0-.079-.062-.22l-2.094-5.5c-.063-.14-.094-.265-.266-.265-.125 0-.234.11-.234.25 0 0 0 .063.062.203l2.094 5.532L.734 2.53c-.062.14-.062.219-.062.219 0 .125.11.234.234.234.156 0 .203-.109.25-.234l2.11-5.516c.062-.156.062-.218.062-.218zm0 0"/></symbol><symbol id="u" overflow="visible"><path d="M7.531-.344c0-.094-.031-.125-.156-.25L5-2.984l2.375-2.391c.125-.14.156-.156.156-.25 0-.14-.11-.25-.234-.25-.094 0-.156.047-.25.156l-2.39 2.39-2.407-2.39c-.14-.125-.156-.156-.25-.156-.125 0-.25.11-.25.25 0 .094.063.14.156.25l2.39 2.39-2.39 2.376c-.11.125-.156.187-.156.265 0 .125.125.235.25.235.094 0 .11-.016.25-.157l2.39-2.39 2.391 2.39c.11.125.188.157.266.157a.23.23 0 00.234-.235zm0 0"/></symbol><symbol id="s" overflow="visible"><path d="M11.266-2.984a.136.136 0 00-.094-.125A3.744 3.744 0 018.719-6c0-.063-.063-.11-.125-.11h-.219c-.063 0-.125.063-.125.157a4.259 4.259 0 001.703 2.719H.906c-.172 0-.25.125-.25.25 0 .109.078.234.25.234h9.047A4.259 4.259 0 008.25-.031c0 .11.063.156.125.156h.219c.062 0 .125-.047.125-.094a3.766 3.766 0 012.453-2.906c.047 0 .094-.047.094-.11zm0 0"/></symbol><symbol id="x" overflow="visible"><path d="M4.875-5.766H.578v.797h3.203L.344-.829V0H5.03v-.797H1.453l3.422-4.156zm0 0"/></symbol><symbol id="y" overflow="visible"><path d="M1.656-5.766H.734V0h.922zm0-2.25H.72v1.157h.937zm0 0"/></symbol><symbol id="z" overflow="visible"><path d="M.594 2.39h.922v-3C2-.015 2.546.25 3.28.25c1.5 0 2.469-1.203 2.469-3.031 0-1.938-.938-3.14-2.469-3.14-.781 0-1.406.343-1.844 1.03v-.875H.595zm2.531-7.468c1.016 0 1.672.89 1.672 2.266C4.797-1.5 4.125-.61 3.125-.61c-.969 0-1.61-.875-1.61-2.235 0-1.344.641-2.234 1.61-2.234zm0 0"/></symbol><symbol id="A" overflow="visible"><path d="M2.844-5.766h-.969v-.906c0-.375.219-.578.64-.578.079 0 .11 0 .329.016V-8c-.219-.047-.328-.047-.516-.047-.86 0-1.36.485-1.36 1.297v.984H.204v.75H.97V0h.906v-5.016h.969zm0 0"/></symbol><symbol id="B" overflow="visible"><path d="M5.297 0v-5.766H4.39V-2.5c0 1.188-.625 1.953-1.579 1.953-.718 0-1.187-.437-1.187-1.14v-4.079H.719v4.454C.719-.36 1.438.25 2.547.25c.86 0 1.39-.297 1.937-1.047V0zm0 0"/></symbol><symbol id="C" overflow="visible"><path d="M.766-5.766V0h.921v-3.172c0-1.187.625-1.953 1.563-1.953.734 0 1.188.438 1.188 1.125v4h.921v-4.36c0-.952-.718-1.562-1.828-1.562-.86 0-1.406.328-1.922 1.125v-.969zm0 0"/></symbol><symbol id="D" overflow="visible"><path d="M5.188-3.828c-.047-.563-.172-.922-.391-1.25-.39-.531-1.094-.844-1.89-.844-1.548 0-2.563 1.219-2.563 3.14C.344-.921 1.328.25 2.89.25c1.375 0 2.25-.828 2.359-2.234h-.922c-.156.921-.625 1.39-1.406 1.39-1.016 0-1.625-.828-1.625-2.187 0-1.438.594-2.297 1.594-2.297.765 0 1.25.453 1.359 1.25zm0 0"/></symbol><symbol id="E" overflow="visible"><path d="M2.797-5.766h-.953v-1.578H.937v1.578h-.78v.75h.78v4.36c0 .578.391.906 1.11.906.219 0 .437-.016.75-.078v-.766a1.786 1.786 0 01-.438.047c-.406 0-.515-.11-.515-.515v-3.954h.953zm0 0"/></symbol><symbol id="F" overflow="visible"><path d="M2.984-5.922c-1.609 0-2.593 1.14-2.593 3.078S1.359.25 3 .25c1.625 0 2.61-1.156 2.61-3.047 0-1.984-.954-3.125-2.626-3.125zM3-5.078c1.031 0 1.656.844 1.656 2.266 0 1.359-.64 2.218-1.656 2.218s-1.64-.844-1.64-2.25c0-1.375.624-2.234 1.64-2.234zm0 0"/></symbol><symbol id="v" overflow="visible"><path d="M1.344-7.11v5.829c0 .64-.094.843-.703.86-.141 0-.344.015-.344.202C.297 0 .484 0 .703 0h1.86c.203 0 .39 0 .39-.219 0-.187-.187-.203-.36-.203-.655-.016-.75-.266-.75-.875V-6.78L7 .047c.11.14.172.187.25.187.203 0 .203-.203.203-.406v-6.75c0-.672.11-.828.656-.844.079 0 .282-.015.282-.203 0-.218-.172-.218-.391-.218H6.25c-.219 0-.406 0-.406.218 0 .203.218.203.343.203.672.016.766.25.766.875v3.75l-3.61-4.875c-.109-.171-.155-.171-.421-.171H.844c-.219 0-.406 0-.406.218 0 .172.187.203.25.203a.99.99 0 01.671.36c-.015.11-.015.125-.015.297zm5.703 6.5L1.844-7.483c-.125-.141-.125-.172-.25-.282h1.422l4.03 5.438zm0 0"/></symbol><symbol id="w" overflow="visible"><path d="M2.016-5.203c-.485 0-.922.219-1.188.578-.344.453-.515 1.156-.515 2.11C.313-.766.905.171 2.016.171c1.093 0 1.703-.938 1.703-2.64 0-1.016-.172-1.688-.516-2.157a1.466 1.466 0 00-1.187-.578zm0 .578c.703 0 1.046.703 1.046 2.094C3.063-1.062 2.72-.36 2-.36 1.312-.36.969-1.08.969-2.5c0-1.422.344-2.125 1.047-2.125zm0 0"/></symbol></defs><use transform="translate(-3.994 -152.482)" height="100%" width="100%" y="161.451" x="3.666" xlink:href="#a"/><use transform="translate(-3.994 -152.482)" height="100%" width="100%" y="161.451" x="10.386" xlink:href="#b"/><use transform="translate(-3.994 -152.482)" height="100%" width="100%" y="161.451" x="13.444" xlink:href="#c"/><use transform="translate(-3.994 -152.482)" height="100%" width="100%" y="161.451" x="20.164" xlink:href="#d"/><use transform="translate(-3.994 -152.482)" height="100%" width="100%" y="161.451" x="30.547" xlink:href="#b"/><use transform="translate(-3.994 -152.482)" height="100%" width="100%" y="161.451" x="33.604" xlink:href="#e"/><use transform="translate(-3.994 -152.482)" height="100%" width="100%" y="161.451" x="37.267" xlink:href="#f"/><use transform="translate(-3.994 -152.482)" height="100%" width="100%" y="161.451" x="43.987" xlink:href="#g"/><use transform="translate(-3.994 -152.482)" height="100%" width="100%" y="161.451" x="47.045" xlink:href="#h"/><use transform="translate(-3.994 -152.482)" height="100%" width="100%" y="161.451" x="53.765" xlink:href="#i"/><use transform="translate(-3.994 -152.482)" height="100%" width="100%" y="161.451" x="60.485" xlink:href="#j"/><use transform="translate(-3.994 -152.482)" height="100%" width="100%" y="161.451" x="66.436" xlink:href="#k"/><use transform="translate(-3.994 -152.482)" height="100%" width="100%" y="161.451" x="72.55" xlink:href="#l"/><use transform="translate(-3.994 -152.482)" height="100%" width="100%" y="161.451" x="77.103" xlink:href="#m"/><use transform="translate(-3.994 -152.482)" height="100%" width="100%" y="161.451" x="83.383" xlink:href="#n"/><use transform="translate(-3.994 -152.482)" height="100%" width="100%" y="161.451" x="91.259" xlink:href="#o"/><use transform="translate(-3.994 -152.482)" height="100%" width="100%" y="161.451" x="97.828" xlink:href="#p"/><use transform="translate(-3.994 -152.482)" height="100%" width="100%" y="161.451" x="102.478" xlink:href="#q" fill="#283acc"/><use transform="translate(-3.994 -152.482)" height="100%" width="100%" y="161.451" x="109.814" xlink:href="#r"/><use transform="translate(-3.994 -152.482)" height="100%" width="100%" y="161.451" x="117.787" xlink:href="#s"/><use transform="translate(-3.994 -152.482)" height="100%" width="100%" y="161.451" x="133.066" xlink:href="#p"/><use transform="translate(-3.994 -152.482)" height="100%" width="100%" y="161.451" x="137.709" xlink:href="#t" fill="red"/><use transform="translate(-3.994 -152.482)" height="100%" width="100%" y="161.451" x="146.315" xlink:href="#r"/><use transform="translate(-3.994 -152.482)" height="100%" width="100%" y="175.548" x="38.048" xlink:href="#m"/><use transform="translate(-3.994 -152.482)" height="100%" width="100%" y="175.548" x="47.649" xlink:href="#o"/><use transform="translate(-3.994 -152.482)" height="100%" width="100%" y="175.548" x="54.222" xlink:href="#q" fill="#283acc"/><use transform="translate(-3.994 -152.482)" height="100%" width="100%" y="175.548" x="64.214" xlink:href="#u"/><use transform="translate(-3.994 -152.482)" height="100%" width="100%" y="175.548" x="76.17" xlink:href="#v"/><use transform="translate(-3.994 -152.482)" height="100%" width="100%" y="177.341" x="84.804" xlink:href="#w"/><use transform="translate(-3.994 -152.482)" height="100%" width="100%" y="175.548" x="92.7" xlink:href="#s"/><use transform="translate(-3.994 -152.482)" height="100%" width="100%" y="175.548" x="107.976" xlink:href="#t" fill="red"/><use transform="translate(-3.994 -152.482)" height="100%" width="100%" y="188.998" x="60.951" xlink:href="#x"/><use transform="translate(-3.994 -152.482)" height="100%" width="100%" y="188.998" x="66.45" xlink:href="#y"/><use transform="translate(-3.994 -152.482)" height="100%" width="100%" y="188.998" x="68.892" xlink:href="#z"/><use transform="translate(-3.994 -152.482)" height="100%" width="100%" y="188.998" x="78.065" xlink:href="#A"/><use transform="translate(-3.994 -152.482)" height="100%" width="100%" y="188.998" x="81.123" xlink:href="#B"/><use transform="translate(-3.994 -152.482)" height="100%" width="100%" y="188.998" x="87.238" xlink:href="#C"/><use transform="translate(-3.994 -152.482)" height="100%" width="100%" y="188.998" x="93.353" xlink:href="#D"/><use transform="translate(-3.994 -152.482)" height="100%" width="100%" y="188.998" x="98.853" xlink:href="#E"/><use transform="translate(-3.994 -152.482)" height="100%" width="100%" y="188.998" x="101.91" xlink:href="#y"/><use transform="translate(-3.994 -152.482)" height="100%" width="100%" y="188.998" x="104.352" xlink:href="#F"/><use transform="translate(-3.994 -152.482)" height="100%" width="100%" y="188.998" x="110.467" xlink:href="#C"/></svg>