<?xml version="1.0" encoding="UTF-8" standalone="no"?>
<!DOCTYPE svg PUBLIC "-//W3C//DTD SVG 1.1//EN"
 "http://www.w3.org/Graphics/SVG/1.1/DTD/svg11.dtd">
<!-- Generated by graphviz version 2.38.0 (20140413.2041)
 -->
<!-- Title: %3 Pages: 1 -->
<svg width="704pt" height="1412pt"
 viewBox="0.00 0.00 704.49 1412.00" xmlns="http://www.w3.org/2000/svg" xmlns:xlink="http://www.w3.org/1999/xlink">
<g id="graph0" class="graph" transform="scale(1 1) rotate(0) translate(4 1408)">
<title>%3</title>
<polygon fill="white" stroke="none" points="-4,4 -4,-1408 700.493,-1408 700.493,4 -4,4"/>
<!-- 1 -->
<g id="node1" class="node"><title>1</title>
<ellipse fill="none" stroke="black" cx="435.246" cy="-1386" rx="64.189" ry="18"/>
<text text-anchor="middle" x="435.246" y="-1382.3" font-family="Times,serif" font-size="14.00">EqualToDIA.1</text>
</g>
<!-- 2 -->
<g id="node2" class="node"><title>2</title>
<ellipse fill="none" stroke="black" cx="388.246" cy="-1314" rx="62.2891" ry="18"/>
<text text-anchor="middle" x="388.246" y="-1310.3" font-family="Times,serif" font-size="14.00">FlatWindow.2</text>
</g>
<!-- 1&#45;&gt;2 -->
<g id="edge1" class="edge"><title>1&#45;&gt;2</title>
<path fill="none" stroke="black" d="M423.869,-1368.05C418.269,-1359.71 411.404,-1349.49 405.201,-1340.25"/>
<polygon fill="black" stroke="black" points="407.999,-1338.14 399.519,-1331.79 402.187,-1342.04 407.999,-1338.14"/>
</g>
<!-- 21 -->
<g id="node21" class="node"><title>21</title>
<ellipse fill="none" stroke="black" cx="489.246" cy="-1242" rx="66.8882" ry="18"/>
<text text-anchor="middle" x="489.246" y="-1238.3" font-family="Times,serif" font-size="14.00">FlatWindow.21</text>
</g>
<!-- 1&#45;&gt;21 -->
<g id="edge20" class="edge"><title>1&#45;&gt;21</title>
<path fill="none" stroke="black" d="M443.468,-1368C448.321,-1357.69 454.435,-1344.22 459.246,-1332 467.337,-1311.45 475.263,-1287.74 480.934,-1269.96"/>
<polygon fill="black" stroke="black" points="484.328,-1270.83 483.997,-1260.25 477.652,-1268.73 484.328,-1270.83"/>
</g>
<!-- 3 -->
<g id="node3" class="node"><title>3</title>
<polygon fill="#beaed4" stroke="#beaed4" points="404.246,-1260 350.246,-1260 350.246,-1224 404.246,-1224 404.246,-1260"/>
<text text-anchor="middle" x="377.246" y="-1238.3" font-family="Times,serif" font-size="14.00">Sort.3</text>
</g>
<!-- 2&#45;&gt;3 -->
<g id="edge2" class="edge"><title>2&#45;&gt;3</title>
<path fill="none" stroke="black" d="M385.527,-1295.7C384.315,-1287.98 382.858,-1278.71 381.507,-1270.11"/>
<polygon fill="black" stroke="black" points="384.944,-1269.44 379.934,-1260.1 378.029,-1270.53 384.944,-1269.44"/>
</g>
<!-- 4 -->
<g id="node4" class="node"><title>4</title>
<ellipse fill="none" stroke="black" cx="285.246" cy="-1170" rx="33.2948" ry="18"/>
<text text-anchor="middle" x="285.246" y="-1166.3" font-family="Times,serif" font-size="14.00">Map.4</text>
</g>
<!-- 3&#45;&gt;4 -->
<g id="edge3" class="edge"><title>3&#45;&gt;4</title>
<path fill="none" stroke="black" d="M354.505,-1223.7C341.55,-1213.84 325.254,-1201.44 311.725,-1191.15"/>
<polygon fill="black" stroke="black" points="313.791,-1188.32 303.713,-1185.05 309.552,-1193.89 313.791,-1188.32"/>
</g>
<!-- 6 -->
<g id="node6" class="node"><title>6</title>
<ellipse fill="none" stroke="black" cx="399.246" cy="-1170" rx="62.2891" ry="18"/>
<text text-anchor="middle" x="399.246" y="-1166.3" font-family="Times,serif" font-size="14.00">FlatWindow.6</text>
</g>
<!-- 3&#45;&gt;6 -->
<g id="edge5" class="edge"><title>3&#45;&gt;6</title>
<path fill="none" stroke="black" d="M382.684,-1223.7C385.135,-1215.9 388.086,-1206.51 390.814,-1197.83"/>
<polygon fill="black" stroke="black" points="394.211,-1198.69 393.871,-1188.1 387.533,-1196.59 394.211,-1198.69"/>
</g>
<!-- 5 -->
<g id="node5" class="node"><title>5</title>
<ellipse fill="#ffff99" stroke="#ffff99" cx="285.246" cy="-1098" rx="39.7935" ry="18"/>
<text text-anchor="middle" x="285.246" y="-1094.3" font-family="Times,serif" font-size="14.00">Cache.5</text>
</g>
<!-- 4&#45;&gt;5 -->
<g id="edge4" class="edge"><title>4&#45;&gt;5</title>
<path fill="none" stroke="black" d="M285.246,-1151.7C285.246,-1143.98 285.246,-1134.71 285.246,-1126.11"/>
<polygon fill="black" stroke="black" points="288.746,-1126.1 285.246,-1116.1 281.746,-1126.1 288.746,-1126.1"/>
</g>
<!-- 9 -->
<g id="node9" class="node"><title>9</title>
<polygon fill="#fdc086" stroke="#fdc086" points="194.584,-1031.56 154.246,-1044 113.908,-1031.56 113.946,-1011.44 194.547,-1011.44 194.584,-1031.56"/>
<text text-anchor="middle" x="154.246" y="-1022.3" font-family="Times,serif" font-size="14.00">Size.9</text>
</g>
<!-- 5&#45;&gt;9 -->
<g id="edge8" class="edge"><title>5&#45;&gt;9</title>
<path fill="none" stroke="black" d="M260.606,-1083.83C238.719,-1072.14 206.696,-1055.03 183.512,-1042.64"/>
<polygon fill="black" stroke="black" points="184.951,-1039.44 174.482,-1037.81 181.652,-1045.61 184.951,-1039.44"/>
</g>
<!-- 10 -->
<g id="node10" class="node"><title>10</title>
<ellipse fill="none" stroke="black" cx="286.246" cy="-1026" rx="73.387" ry="18"/>
<text text-anchor="middle" x="286.246" y="-1022.3" font-family="Times,serif" font-size="14.00">ZipWithIndex.10</text>
</g>
<!-- 5&#45;&gt;10 -->
<g id="edge9" class="edge"><title>5&#45;&gt;10</title>
<path fill="none" stroke="black" d="M285.493,-1079.7C285.604,-1071.98 285.736,-1062.71 285.859,-1054.11"/>
<polygon fill="black" stroke="black" points="289.359,-1054.15 286.002,-1044.1 282.359,-1054.05 289.359,-1054.15"/>
</g>
<!-- 7 -->
<g id="node7" class="node"><title>7</title>
<polygon fill="#beaed4" stroke="#beaed4" points="451.246,-1116 365.246,-1116 365.246,-1080 451.246,-1080 451.246,-1116"/>
<text text-anchor="middle" x="408.246" y="-1094.3" font-family="Times,serif" font-size="14.00">PrefixSum.7</text>
</g>
<!-- 6&#45;&gt;7 -->
<g id="edge6" class="edge"><title>6&#45;&gt;7</title>
<path fill="none" stroke="black" d="M401.471,-1151.7C402.463,-1143.98 403.655,-1134.71 404.76,-1126.11"/>
<polygon fill="black" stroke="black" points="408.243,-1126.47 406.047,-1116.1 401.3,-1125.58 408.243,-1126.47"/>
</g>
<!-- 8 -->
<g id="node8" class="node"><title>8</title>
<polygon fill="#fdc086" stroke="#fdc086" points="459.19,-1031.56 418.246,-1044 377.302,-1031.56 377.34,-1011.44 459.152,-1011.44 459.19,-1031.56"/>
<text text-anchor="middle" x="418.246" y="-1022.3" font-family="Times,serif" font-size="14.00">Max.8</text>
</g>
<!-- 7&#45;&gt;8 -->
<g id="edge7" class="edge"><title>7&#45;&gt;8</title>
<path fill="none" stroke="black" d="M410.718,-1079.7C411.837,-1071.87 413.184,-1062.44 414.428,-1053.73"/>
<polygon fill="black" stroke="black" points="417.922,-1054.02 415.872,-1043.62 410.993,-1053.03 417.922,-1054.02"/>
</g>
<!-- 11 -->
<g id="node11" class="node"><title>11</title>
<polygon fill="#beaed4" stroke="#beaed4" points="314.746,-972 257.746,-972 257.746,-936 314.746,-936 314.746,-972"/>
<text text-anchor="middle" x="286.246" y="-950.3" font-family="Times,serif" font-size="14.00">Sort.11</text>
</g>
<!-- 10&#45;&gt;11 -->
<g id="edge10" class="edge"><title>10&#45;&gt;11</title>
<path fill="none" stroke="black" d="M286.246,-1007.7C286.246,-999.983 286.246,-990.712 286.246,-982.112"/>
<polygon fill="black" stroke="black" points="289.746,-982.104 286.246,-972.104 282.746,-982.104 289.746,-982.104"/>
</g>
<!-- 12 -->
<g id="node12" class="node"><title>12</title>
<ellipse fill="none" stroke="black" cx="180.246" cy="-882" rx="42.4939" ry="18"/>
<text text-anchor="middle" x="180.246" y="-878.3" font-family="Times,serif" font-size="14.00">Filter.12</text>
</g>
<!-- 11&#45;&gt;12 -->
<g id="edge11" class="edge"><title>11&#45;&gt;12</title>
<path fill="none" stroke="black" d="M260.316,-935.876C245.457,-926.064 226.719,-913.69 211.106,-903.379"/>
<polygon fill="black" stroke="black" points="212.601,-900.172 202.327,-897.582 208.743,-906.013 212.601,-900.172"/>
</g>
<!-- 15 -->
<g id="node15" class="node"><title>15</title>
<ellipse fill="none" stroke="black" cx="287.246" cy="-882" rx="42.4939" ry="18"/>
<text text-anchor="middle" x="287.246" y="-878.3" font-family="Times,serif" font-size="14.00">Filter.15</text>
</g>
<!-- 11&#45;&gt;15 -->
<g id="edge14" class="edge"><title>11&#45;&gt;15</title>
<path fill="none" stroke="black" d="M286.493,-935.697C286.604,-927.983 286.736,-918.712 286.859,-910.112"/>
<polygon fill="black" stroke="black" points="290.359,-910.153 287.002,-900.104 283.359,-910.053 290.359,-910.153"/>
</g>
<!-- 18 -->
<g id="node18" class="node"><title>18</title>
<ellipse fill="none" stroke="black" cx="394.246" cy="-882" rx="42.4939" ry="18"/>
<text text-anchor="middle" x="394.246" y="-878.3" font-family="Times,serif" font-size="14.00">Filter.18</text>
</g>
<!-- 11&#45;&gt;18 -->
<g id="edge17" class="edge"><title>11&#45;&gt;18</title>
<path fill="none" stroke="black" d="M312.666,-935.876C328.052,-925.904 347.52,-913.285 363.58,-902.876"/>
<polygon fill="black" stroke="black" points="365.616,-905.728 372.104,-897.352 361.809,-899.854 365.616,-905.728"/>
</g>
<!-- 13 -->
<g id="node13" class="node"><title>13</title>
<ellipse fill="none" stroke="black" cx="170.246" cy="-810" rx="37.8943" ry="18"/>
<text text-anchor="middle" x="170.246" y="-806.3" font-family="Times,serif" font-size="14.00">Map.13</text>
</g>
<!-- 12&#45;&gt;13 -->
<g id="edge12" class="edge"><title>12&#45;&gt;13</title>
<path fill="none" stroke="black" d="M177.774,-863.697C176.672,-855.983 175.348,-846.712 174.119,-838.112"/>
<polygon fill="black" stroke="black" points="177.569,-837.509 172.69,-828.104 170.639,-838.499 177.569,-837.509"/>
</g>
<!-- 14 -->
<g id="node14" class="node"><title>14</title>
<ellipse fill="#386cb0" stroke="#386cb0" cx="165.246" cy="-738" rx="51.9908" ry="18"/>
<text text-anchor="middle" x="165.246" y="-734.3" font-family="Times,serif" font-size="14.00">Collapse.14</text>
</g>
<!-- 13&#45;&gt;14 -->
<g id="edge13" class="edge"><title>13&#45;&gt;14</title>
<path fill="none" stroke="black" d="M169.01,-791.697C168.459,-783.983 167.797,-774.712 167.183,-766.112"/>
<polygon fill="black" stroke="black" points="170.672,-765.83 166.468,-756.104 163.689,-766.328 170.672,-765.83"/>
</g>
<!-- 22 -->
<g id="node22" class="node"><title>22</title>
<polygon fill="#beaed4" stroke="#beaed4" points="375.246,-684 321.246,-684 321.246,-648 375.246,-648 375.246,-684"/>
<text text-anchor="middle" x="348.246" y="-662.3" font-family="Times,serif" font-size="14.00">Zip.22</text>
</g>
<!-- 14&#45;&gt;22 -->
<g id="edge22" class="edge"><title>14&#45;&gt;22</title>
<path fill="none" stroke="black" d="M198.811,-724.161C230.699,-711.964 278.533,-693.666 311.447,-681.076"/>
<polygon fill="black" stroke="black" points="313.059,-684.207 321.149,-677.365 310.558,-677.669 313.059,-684.207"/>
</g>
<!-- 16 -->
<g id="node16" class="node"><title>16</title>
<ellipse fill="none" stroke="black" cx="287.246" cy="-810" rx="37.8943" ry="18"/>
<text text-anchor="middle" x="287.246" y="-806.3" font-family="Times,serif" font-size="14.00">Map.16</text>
</g>
<!-- 15&#45;&gt;16 -->
<g id="edge15" class="edge"><title>15&#45;&gt;16</title>
<path fill="none" stroke="black" d="M287.246,-863.697C287.246,-855.983 287.246,-846.712 287.246,-838.112"/>
<polygon fill="black" stroke="black" points="290.746,-838.104 287.246,-828.104 283.746,-838.104 290.746,-838.104"/>
</g>
<!-- 17 -->
<g id="node17" class="node"><title>17</title>
<ellipse fill="#386cb0" stroke="#386cb0" cx="287.246" cy="-738" rx="51.9908" ry="18"/>
<text text-anchor="middle" x="287.246" y="-734.3" font-family="Times,serif" font-size="14.00">Collapse.17</text>
</g>
<!-- 16&#45;&gt;17 -->
<g id="edge16" class="edge"><title>16&#45;&gt;17</title>
<path fill="none" stroke="black" d="M287.246,-791.697C287.246,-783.983 287.246,-774.712 287.246,-766.112"/>
<polygon fill="black" stroke="black" points="290.746,-766.104 287.246,-756.104 283.746,-766.104 290.746,-766.104"/>
</g>
<!-- 17&#45;&gt;22 -->
<g id="edge23" class="edge"><title>17&#45;&gt;22</title>
<path fill="none" stroke="black" d="M301.702,-720.411C309.079,-711.946 318.206,-701.472 326.418,-692.049"/>
<polygon fill="black" stroke="black" points="329.112,-694.285 333.043,-684.447 323.834,-689.686 329.112,-694.285"/>
</g>
<!-- 19 -->
<g id="node19" class="node"><title>19</title>
<ellipse fill="none" stroke="black" cx="399.246" cy="-810" rx="37.8943" ry="18"/>
<text text-anchor="middle" x="399.246" y="-806.3" font-family="Times,serif" font-size="14.00">Map.19</text>
</g>
<!-- 18&#45;&gt;19 -->
<g id="edge18" class="edge"><title>18&#45;&gt;19</title>
<path fill="none" stroke="black" d="M395.482,-863.697C396.033,-855.983 396.695,-846.712 397.31,-838.112"/>
<polygon fill="black" stroke="black" points="400.803,-838.328 398.025,-828.104 393.821,-837.83 400.803,-838.328"/>
</g>
<!-- 20 -->
<g id="node20" class="node"><title>20</title>
<ellipse fill="#386cb0" stroke="#386cb0" cx="409.246" cy="-738" rx="51.9908" ry="18"/>
<text text-anchor="middle" x="409.246" y="-734.3" font-family="Times,serif" font-size="14.00">Collapse.20</text>
</g>
<!-- 19&#45;&gt;20 -->
<g id="edge19" class="edge"><title>19&#45;&gt;20</title>
<path fill="none" stroke="black" d="M401.718,-791.697C402.82,-783.983 404.144,-774.712 405.373,-766.112"/>
<polygon fill="black" stroke="black" points="408.853,-766.499 406.803,-756.104 401.924,-765.509 408.853,-766.499"/>
</g>
<!-- 20&#45;&gt;22 -->
<g id="edge24" class="edge"><title>20&#45;&gt;22</title>
<path fill="none" stroke="black" d="M394.79,-720.411C387.414,-711.946 378.287,-701.472 370.074,-692.049"/>
<polygon fill="black" stroke="black" points="372.658,-689.686 363.45,-684.447 367.381,-694.285 372.658,-689.686"/>
</g>
<!-- 21&#45;&gt;22 -->
<g id="edge21" class="edge"><title>21&#45;&gt;22</title>
<path fill="none" stroke="black" d="M489.246,-1223.95C489.246,-1197.29 489.246,-1144.11 489.246,-1099 489.246,-1099 489.246,-1099 489.246,-809 489.246,-768.553 495.856,-751.306 470.246,-720 449.113,-694.166 412.954,-680.609 385.472,-673.7"/>
<polygon fill="black" stroke="black" points="385.946,-670.218 375.414,-671.367 384.364,-677.036 385.946,-670.218"/>
</g>
<!-- 23 -->
<g id="node23" class="node"><title>23</title>
<ellipse fill="none" stroke="black" cx="348.246" cy="-594" rx="66.8882" ry="18"/>
<text text-anchor="middle" x="348.246" y="-590.3" font-family="Times,serif" font-size="14.00">FlatWindow.23</text>
</g>
<!-- 22&#45;&gt;23 -->
<g id="edge25" class="edge"><title>22&#45;&gt;23</title>
<path fill="none" stroke="black" d="M348.246,-647.697C348.246,-639.983 348.246,-630.712 348.246,-622.112"/>
<polygon fill="black" stroke="black" points="351.746,-622.104 348.246,-612.104 344.746,-622.104 351.746,-622.104"/>
</g>
<!-- 24 -->
<g id="node24" class="node"><title>24</title>
<ellipse fill="none" stroke="black" cx="49.2463" cy="-522" rx="37.8943" ry="18"/>
<text text-anchor="middle" x="49.2463" y="-518.3" font-family="Times,serif" font-size="14.00">Map.24</text>
</g>
<!-- 23&#45;&gt;24 -->
<g id="edge26" class="edge"><title>23&#45;&gt;24</title>
<path fill="none" stroke="black" d="M294.619,-583.023C244.54,-573.334 167.876,-557.55 102.246,-540 97.8748,-538.831 93.3292,-537.521 88.8194,-536.16"/>
<polygon fill="black" stroke="black" points="89.6737,-532.761 79.0856,-533.137 87.5971,-539.446 89.6737,-532.761"/>
</g>
<!-- 26 -->
<g id="node26" class="node"><title>26</title>
<ellipse fill="none" stroke="black" cx="149.246" cy="-522" rx="37.8943" ry="18"/>
<text text-anchor="middle" x="149.246" y="-518.3" font-family="Times,serif" font-size="14.00">Map.26</text>
</g>
<!-- 23&#45;&gt;26 -->
<g id="edge28" class="edge"><title>23&#45;&gt;26</title>
<path fill="none" stroke="black" d="M309.405,-579.337C274.505,-567.061 223.506,-549.121 188.485,-536.803"/>
<polygon fill="black" stroke="black" points="189.207,-533.346 178.612,-533.33 186.884,-539.95 189.207,-533.346"/>
</g>
<!-- 28 -->
<g id="node28" class="node"><title>28</title>
<ellipse fill="none" stroke="black" cx="251.246" cy="-522" rx="37.8943" ry="18"/>
<text text-anchor="middle" x="251.246" y="-518.3" font-family="Times,serif" font-size="14.00">Map.28</text>
</g>
<!-- 23&#45;&gt;28 -->
<g id="edge30" class="edge"><title>23&#45;&gt;28</title>
<path fill="none" stroke="black" d="M325.749,-576.765C311.994,-566.839 294.278,-554.054 279.573,-543.442"/>
<polygon fill="black" stroke="black" points="281.472,-540.497 271.315,-537.483 277.376,-546.173 281.472,-540.497"/>
</g>
<!-- 30 -->
<g id="node30" class="node"><title>30</title>
<ellipse fill="none" stroke="black" cx="348.246" cy="-522" rx="37.8943" ry="18"/>
<text text-anchor="middle" x="348.246" y="-518.3" font-family="Times,serif" font-size="14.00">Map.30</text>
</g>
<!-- 23&#45;&gt;30 -->
<g id="edge32" class="edge"><title>23&#45;&gt;30</title>
<path fill="none" stroke="black" d="M348.246,-575.697C348.246,-567.983 348.246,-558.712 348.246,-550.112"/>
<polygon fill="black" stroke="black" points="351.746,-550.104 348.246,-540.104 344.746,-550.104 351.746,-550.104"/>
</g>
<!-- 32 -->
<g id="node32" class="node"><title>32</title>
<ellipse fill="none" stroke="black" cx="445.246" cy="-522" rx="37.8943" ry="18"/>
<text text-anchor="middle" x="445.246" y="-518.3" font-family="Times,serif" font-size="14.00">Map.32</text>
</g>
<!-- 23&#45;&gt;32 -->
<g id="edge34" class="edge"><title>23&#45;&gt;32</title>
<path fill="none" stroke="black" d="M370.744,-576.765C384.498,-566.839 402.214,-554.054 416.92,-543.442"/>
<polygon fill="black" stroke="black" points="419.116,-546.173 425.177,-537.483 415.02,-540.497 419.116,-546.173"/>
</g>
<!-- 34 -->
<g id="node34" class="node"><title>34</title>
<ellipse fill="none" stroke="black" cx="545.246" cy="-522" rx="37.8943" ry="18"/>
<text text-anchor="middle" x="545.246" y="-518.3" font-family="Times,serif" font-size="14.00">Map.34</text>
</g>
<!-- 23&#45;&gt;34 -->
<g id="edge36" class="edge"><title>23&#45;&gt;34</title>
<path fill="none" stroke="black" d="M387.167,-579.17C421.663,-566.913 471.774,-549.107 506.283,-536.845"/>
<polygon fill="black" stroke="black" points="507.765,-540.033 516.016,-533.386 505.421,-533.437 507.765,-540.033"/>
</g>
<!-- 36 -->
<g id="node36" class="node"><title>36</title>
<ellipse fill="none" stroke="black" cx="646.246" cy="-522" rx="37.8943" ry="18"/>
<text text-anchor="middle" x="646.246" y="-518.3" font-family="Times,serif" font-size="14.00">Map.36</text>
</g>
<!-- 23&#45;&gt;36 -->
<g id="edge38" class="edge"><title>23&#45;&gt;36</title>
<path fill="none" stroke="black" d="M401.412,-582.904C451.065,-573.132 527.095,-557.293 592.246,-540 596.871,-538.772 601.69,-537.397 606.462,-535.974"/>
<polygon fill="black" stroke="black" points="607.577,-539.293 616.114,-533.019 605.528,-532.6 607.577,-539.293"/>
</g>
<!-- 25 -->
<g id="node25" class="node"><title>25</title>
<ellipse fill="none" stroke="black" cx="42.2463" cy="-450" rx="42.4939" ry="18"/>
<text text-anchor="middle" x="42.2463" y="-446.3" font-family="Times,serif" font-size="14.00">Filter.25</text>
</g>
<!-- 24&#45;&gt;25 -->
<g id="edge27" class="edge"><title>24&#45;&gt;25</title>
<path fill="none" stroke="black" d="M47.5159,-503.697C46.7445,-495.983 45.8175,-486.712 44.9575,-478.112"/>
<polygon fill="black" stroke="black" points="48.4344,-477.706 43.9567,-468.104 41.4692,-478.403 48.4344,-477.706"/>
</g>
<!-- 38 -->
<g id="node38" class="node"><title>38</title>
<polygon fill="#beaed4" stroke="#beaed4" points="72.7463,-396 15.7463,-396 15.7463,-360 72.7463,-360 72.7463,-396"/>
<text text-anchor="middle" x="44.2463" y="-374.3" font-family="Times,serif" font-size="14.00">Sort.38</text>
</g>
<!-- 25&#45;&gt;38 -->
<g id="edge40" class="edge"><title>25&#45;&gt;38</title>
<path fill="none" stroke="black" d="M42.7406,-431.697C42.961,-423.983 43.2259,-414.712 43.4716,-406.112"/>
<polygon fill="black" stroke="black" points="46.9704,-406.2 43.7576,-396.104 39.9733,-406 46.9704,-406.2"/>
</g>
<!-- 27 -->
<g id="node27" class="node"><title>27</title>
<ellipse fill="none" stroke="black" cx="144.246" cy="-450" rx="42.4939" ry="18"/>
<text text-anchor="middle" x="144.246" y="-446.3" font-family="Times,serif" font-size="14.00">Filter.27</text>
</g>
<!-- 26&#45;&gt;27 -->
<g id="edge29" class="edge"><title>26&#45;&gt;27</title>
<path fill="none" stroke="black" d="M148.01,-503.697C147.459,-495.983 146.797,-486.712 146.183,-478.112"/>
<polygon fill="black" stroke="black" points="149.672,-477.83 145.468,-468.104 142.689,-478.328 149.672,-477.83"/>
</g>
<!-- 39 -->
<g id="node39" class="node"><title>39</title>
<polygon fill="#beaed4" stroke="#beaed4" points="181.746,-396 124.746,-396 124.746,-360 181.746,-360 181.746,-396"/>
<text text-anchor="middle" x="153.246" y="-374.3" font-family="Times,serif" font-size="14.00">Sort.39</text>
</g>
<!-- 27&#45;&gt;39 -->
<g id="edge41" class="edge"><title>27&#45;&gt;39</title>
<path fill="none" stroke="black" d="M146.471,-431.697C147.463,-423.983 148.655,-414.712 149.76,-406.112"/>
<polygon fill="black" stroke="black" points="153.243,-406.469 151.047,-396.104 146.3,-405.576 153.243,-406.469"/>
</g>
<!-- 29 -->
<g id="node29" class="node"><title>29</title>
<ellipse fill="none" stroke="black" cx="246.246" cy="-450" rx="42.4939" ry="18"/>
<text text-anchor="middle" x="246.246" y="-446.3" font-family="Times,serif" font-size="14.00">Filter.29</text>
</g>
<!-- 28&#45;&gt;29 -->
<g id="edge31" class="edge"><title>28&#45;&gt;29</title>
<path fill="none" stroke="black" d="M250.01,-503.697C249.459,-495.983 248.797,-486.712 248.183,-478.112"/>
<polygon fill="black" stroke="black" points="251.672,-477.83 247.468,-468.104 244.689,-478.328 251.672,-477.83"/>
</g>
<!-- 40 -->
<g id="node40" class="node"><title>40</title>
<polygon fill="#beaed4" stroke="#beaed4" points="278.746,-396 221.746,-396 221.746,-360 278.746,-360 278.746,-396"/>
<text text-anchor="middle" x="250.246" y="-374.3" font-family="Times,serif" font-size="14.00">Sort.40</text>
</g>
<!-- 29&#45;&gt;40 -->
<g id="edge42" class="edge"><title>29&#45;&gt;40</title>
<path fill="none" stroke="black" d="M247.235,-431.697C247.676,-423.983 248.206,-414.712 248.697,-406.112"/>
<polygon fill="black" stroke="black" points="252.193,-406.288 249.269,-396.104 245.204,-405.888 252.193,-406.288"/>
</g>
<!-- 31 -->
<g id="node31" class="node"><title>31</title>
<ellipse fill="none" stroke="black" cx="348.246" cy="-450" rx="42.4939" ry="18"/>
<text text-anchor="middle" x="348.246" y="-446.3" font-family="Times,serif" font-size="14.00">Filter.31</text>
</g>
<!-- 30&#45;&gt;31 -->
<g id="edge33" class="edge"><title>30&#45;&gt;31</title>
<path fill="none" stroke="black" d="M348.246,-503.697C348.246,-495.983 348.246,-486.712 348.246,-478.112"/>
<polygon fill="black" stroke="black" points="351.746,-478.104 348.246,-468.104 344.746,-478.104 351.746,-478.104"/>
</g>
<!-- 41 -->
<g id="node41" class="node"><title>41</title>
<polygon fill="#beaed4" stroke="#beaed4" points="376.746,-396 319.746,-396 319.746,-360 376.746,-360 376.746,-396"/>
<text text-anchor="middle" x="348.246" y="-374.3" font-family="Times,serif" font-size="14.00">Sort.41</text>
</g>
<!-- 31&#45;&gt;41 -->
<g id="edge43" class="edge"><title>31&#45;&gt;41</title>
<path fill="none" stroke="black" d="M348.246,-431.697C348.246,-423.983 348.246,-414.712 348.246,-406.112"/>
<polygon fill="black" stroke="black" points="351.746,-406.104 348.246,-396.104 344.746,-406.104 351.746,-406.104"/>
</g>
<!-- 33 -->
<g id="node33" class="node"><title>33</title>
<ellipse fill="none" stroke="black" cx="450.246" cy="-450" rx="42.4939" ry="18"/>
<text text-anchor="middle" x="450.246" y="-446.3" font-family="Times,serif" font-size="14.00">Filter.33</text>
</g>
<!-- 32&#45;&gt;33 -->
<g id="edge35" class="edge"><title>32&#45;&gt;33</title>
<path fill="none" stroke="black" d="M446.482,-503.697C447.033,-495.983 447.695,-486.712 448.31,-478.112"/>
<polygon fill="black" stroke="black" points="451.803,-478.328 449.025,-468.104 444.821,-477.83 451.803,-478.328"/>
</g>
<!-- 42 -->
<g id="node42" class="node"><title>42</title>
<polygon fill="#beaed4" stroke="#beaed4" points="475.746,-396 418.746,-396 418.746,-360 475.746,-360 475.746,-396"/>
<text text-anchor="middle" x="447.246" y="-374.3" font-family="Times,serif" font-size="14.00">Sort.42</text>
</g>
<!-- 33&#45;&gt;42 -->
<g id="edge44" class="edge"><title>33&#45;&gt;42</title>
<path fill="none" stroke="black" d="M449.505,-431.697C449.174,-423.983 448.777,-414.712 448.408,-406.112"/>
<polygon fill="black" stroke="black" points="451.904,-405.945 447.979,-396.104 444.911,-406.245 451.904,-405.945"/>
</g>
<!-- 35 -->
<g id="node35" class="node"><title>35</title>
<ellipse fill="none" stroke="black" cx="552.246" cy="-450" rx="42.4939" ry="18"/>
<text text-anchor="middle" x="552.246" y="-446.3" font-family="Times,serif" font-size="14.00">Filter.35</text>
</g>
<!-- 34&#45;&gt;35 -->
<g id="edge37" class="edge"><title>34&#45;&gt;35</title>
<path fill="none" stroke="black" d="M546.977,-503.697C547.748,-495.983 548.675,-486.712 549.535,-478.112"/>
<polygon fill="black" stroke="black" points="553.023,-478.403 550.536,-468.104 546.058,-477.706 553.023,-478.403"/>
</g>
<!-- 43 -->
<g id="node43" class="node"><title>43</title>
<polygon fill="#beaed4" stroke="#beaed4" points="576.746,-396 519.746,-396 519.746,-360 576.746,-360 576.746,-396"/>
<text text-anchor="middle" x="548.246" y="-374.3" font-family="Times,serif" font-size="14.00">Sort.43</text>
</g>
<!-- 35&#45;&gt;43 -->
<g id="edge45" class="edge"><title>35&#45;&gt;43</title>
<path fill="none" stroke="black" d="M551.257,-431.697C550.817,-423.983 550.287,-414.712 549.796,-406.112"/>
<polygon fill="black" stroke="black" points="553.289,-405.888 549.224,-396.104 546.3,-406.288 553.289,-405.888"/>
</g>
<!-- 37 -->
<g id="node37" class="node"><title>37</title>
<ellipse fill="none" stroke="black" cx="654.246" cy="-450" rx="42.4939" ry="18"/>
<text text-anchor="middle" x="654.246" y="-446.3" font-family="Times,serif" font-size="14.00">Filter.37</text>
</g>
<!-- 36&#45;&gt;37 -->
<g id="edge39" class="edge"><title>36&#45;&gt;37</title>
<path fill="none" stroke="black" d="M648.224,-503.697C649.105,-495.983 650.165,-486.712 651.148,-478.112"/>
<polygon fill="black" stroke="black" points="654.633,-478.437 652.291,-468.104 647.679,-477.642 654.633,-478.437"/>
</g>
<!-- 44 -->
<g id="node44" class="node"><title>44</title>
<polygon fill="#beaed4" stroke="#beaed4" points="677.746,-396 620.746,-396 620.746,-360 677.746,-360 677.746,-396"/>
<text text-anchor="middle" x="649.246" y="-374.3" font-family="Times,serif" font-size="14.00">Sort.44</text>
</g>
<!-- 37&#45;&gt;44 -->
<g id="edge46" class="edge"><title>37&#45;&gt;44</title>
<path fill="none" stroke="black" d="M653.01,-431.697C652.459,-423.983 651.797,-414.712 651.183,-406.112"/>
<polygon fill="black" stroke="black" points="654.672,-405.83 650.468,-396.104 647.689,-406.328 654.672,-405.83"/>
</g>
<!-- 45 -->
<g id="node45" class="node"><title>45</title>
<ellipse fill="none" stroke="black" cx="57.2463" cy="-306" rx="37.8943" ry="18"/>
<text text-anchor="middle" x="57.2463" y="-302.3" font-family="Times,serif" font-size="14.00">Map.45</text>
</g>
<!-- 38&#45;&gt;45 -->
<g id="edge47" class="edge"><title>38&#45;&gt;45</title>
<path fill="none" stroke="black" d="M47.4597,-359.697C48.8923,-351.983 50.6139,-342.712 52.2111,-334.112"/>
<polygon fill="black" stroke="black" points="55.6849,-334.575 54.0697,-324.104 48.8026,-333.297 55.6849,-334.575"/>
</g>
<!-- 46 -->
<g id="node46" class="node"><title>46</title>
<ellipse fill="none" stroke="black" cx="157.246" cy="-306" rx="37.8943" ry="18"/>
<text text-anchor="middle" x="157.246" y="-302.3" font-family="Times,serif" font-size="14.00">Map.46</text>
</g>
<!-- 39&#45;&gt;46 -->
<g id="edge48" class="edge"><title>39&#45;&gt;46</title>
<path fill="none" stroke="black" d="M154.235,-359.697C154.676,-351.983 155.206,-342.712 155.697,-334.112"/>
<polygon fill="black" stroke="black" points="159.193,-334.288 156.269,-324.104 152.204,-333.888 159.193,-334.288"/>
</g>
<!-- 47 -->
<g id="node47" class="node"><title>47</title>
<ellipse fill="none" stroke="black" cx="253.246" cy="-306" rx="37.8943" ry="18"/>
<text text-anchor="middle" x="253.246" y="-302.3" font-family="Times,serif" font-size="14.00">Map.47</text>
</g>
<!-- 40&#45;&gt;47 -->
<g id="edge49" class="edge"><title>40&#45;&gt;47</title>
<path fill="none" stroke="black" d="M250.988,-359.697C251.318,-351.983 251.716,-342.712 252.084,-334.112"/>
<polygon fill="black" stroke="black" points="255.582,-334.245 252.513,-324.104 248.588,-333.945 255.582,-334.245"/>
</g>
<!-- 48 -->
<g id="node48" class="node"><title>48</title>
<ellipse fill="none" stroke="black" cx="348.246" cy="-306" rx="37.8943" ry="18"/>
<text text-anchor="middle" x="348.246" y="-302.3" font-family="Times,serif" font-size="14.00">Map.48</text>
</g>
<!-- 41&#45;&gt;48 -->
<g id="edge50" class="edge"><title>41&#45;&gt;48</title>
<path fill="none" stroke="black" d="M348.246,-359.697C348.246,-351.983 348.246,-342.712 348.246,-334.112"/>
<polygon fill="black" stroke="black" points="351.746,-334.104 348.246,-324.104 344.746,-334.104 351.746,-334.104"/>
</g>
<!-- 49 -->
<g id="node49" class="node"><title>49</title>
<ellipse fill="none" stroke="black" cx="443.246" cy="-306" rx="37.8943" ry="18"/>
<text text-anchor="middle" x="443.246" y="-302.3" font-family="Times,serif" font-size="14.00">Map.49</text>
</g>
<!-- 42&#45;&gt;49 -->
<g id="edge51" class="edge"><title>42&#45;&gt;49</title>
<path fill="none" stroke="black" d="M446.257,-359.697C445.817,-351.983 445.287,-342.712 444.796,-334.112"/>
<polygon fill="black" stroke="black" points="448.289,-333.888 444.224,-324.104 441.3,-334.288 448.289,-333.888"/>
</g>
<!-- 50 -->
<g id="node50" class="node"><title>50</title>
<ellipse fill="none" stroke="black" cx="539.246" cy="-306" rx="37.8943" ry="18"/>
<text text-anchor="middle" x="539.246" y="-302.3" font-family="Times,serif" font-size="14.00">Map.50</text>
</g>
<!-- 43&#45;&gt;50 -->
<g id="edge52" class="edge"><title>43&#45;&gt;50</title>
<path fill="none" stroke="black" d="M546.022,-359.697C545.03,-351.983 543.838,-342.712 542.732,-334.112"/>
<polygon fill="black" stroke="black" points="546.192,-333.576 541.445,-324.104 539.249,-334.469 546.192,-333.576"/>
</g>
<!-- 51 -->
<g id="node51" class="node"><title>51</title>
<ellipse fill="none" stroke="black" cx="636.246" cy="-306" rx="37.8943" ry="18"/>
<text text-anchor="middle" x="636.246" y="-302.3" font-family="Times,serif" font-size="14.00">Map.51</text>
</g>
<!-- 44&#45;&gt;51 -->
<g id="edge53" class="edge"><title>44&#45;&gt;51</title>
<path fill="none" stroke="black" d="M646.033,-359.697C644.6,-351.983 642.879,-342.712 641.281,-334.112"/>
<polygon fill="black" stroke="black" points="644.69,-333.297 639.423,-324.104 637.808,-334.575 644.69,-333.297"/>
</g>
<!-- 52 -->
<g id="node52" class="node"><title>52</title>
<ellipse fill="none" stroke="black" cx="348.246" cy="-234" rx="44.393" ry="18"/>
<text text-anchor="middle" x="348.246" y="-230.3" font-family="Times,serif" font-size="14.00">Union.52</text>
</g>
<!-- 45&#45;&gt;52 -->
<g id="edge54" class="edge"><title>45&#45;&gt;52</title>
<path fill="none" stroke="black" d="M87.0954,-294.9C94.6119,-292.502 102.692,-290.048 110.246,-288 175.09,-270.42 251.009,-254.267 299.347,-244.529"/>
<polygon fill="black" stroke="black" points="300.112,-247.945 309.23,-242.55 298.737,-241.081 300.112,-247.945"/>
</g>
<!-- 46&#45;&gt;52 -->
<g id="edge55" class="edge"><title>46&#45;&gt;52</title>
<path fill="none" stroke="black" d="M186.255,-294.369C218.306,-282.622 270.194,-263.606 306.587,-250.268"/>
<polygon fill="black" stroke="black" points="308.227,-253.395 316.412,-246.667 305.818,-246.822 308.227,-253.395"/>
</g>
<!-- 47&#45;&gt;52 -->
<g id="edge56" class="edge"><title>47&#45;&gt;52</title>
<path fill="none" stroke="black" d="M272.93,-290.496C286.287,-280.654 304.175,-267.474 319.166,-256.428"/>
<polygon fill="black" stroke="black" points="321.627,-258.962 327.602,-250.212 317.475,-253.326 321.627,-258.962"/>
</g>
<!-- 48&#45;&gt;52 -->
<g id="edge57" class="edge"><title>48&#45;&gt;52</title>
<path fill="none" stroke="black" d="M348.246,-287.697C348.246,-279.983 348.246,-270.712 348.246,-262.112"/>
<polygon fill="black" stroke="black" points="351.746,-262.104 348.246,-252.104 344.746,-262.104 351.746,-262.104"/>
</g>
<!-- 49&#45;&gt;52 -->
<g id="edge58" class="edge"><title>49&#45;&gt;52</title>
<path fill="none" stroke="black" d="M423.562,-290.496C410.205,-280.654 392.318,-267.474 377.327,-256.428"/>
<polygon fill="black" stroke="black" points="379.018,-253.326 368.891,-250.212 374.865,-258.962 379.018,-253.326"/>
</g>
<!-- 50&#45;&gt;52 -->
<g id="edge59" class="edge"><title>50&#45;&gt;52</title>
<path fill="none" stroke="black" d="M510.237,-294.369C478.186,-282.622 426.299,-263.606 389.905,-250.268"/>
<polygon fill="black" stroke="black" points="390.675,-246.822 380.081,-246.667 388.266,-253.395 390.675,-246.822"/>
</g>
<!-- 51&#45;&gt;52 -->
<g id="edge60" class="edge"><title>51&#45;&gt;52</title>
<path fill="none" stroke="black" d="M607.066,-294.485C600.276,-292.204 593.044,-289.906 586.246,-288 521.748,-269.911 446.048,-253.934 397.64,-244.37"/>
<polygon fill="black" stroke="black" points="398.225,-240.918 387.738,-242.428 396.878,-247.787 398.225,-240.918"/>
</g>
<!-- 53 -->
<g id="node53" class="node"><title>53</title>
<polygon fill="#beaed4" stroke="#beaed4" points="376.746,-180 319.746,-180 319.746,-144 376.746,-144 376.746,-180"/>
<text text-anchor="middle" x="348.246" y="-158.3" font-family="Times,serif" font-size="14.00">Sort.53</text>
</g>
<!-- 52&#45;&gt;53 -->
<g id="edge61" class="edge"><title>52&#45;&gt;53</title>
<path fill="none" stroke="black" d="M348.246,-215.697C348.246,-207.983 348.246,-198.712 348.246,-190.112"/>
<polygon fill="black" stroke="black" points="351.746,-190.104 348.246,-180.104 344.746,-190.104 351.746,-190.104"/>
</g>
<!-- 54 -->
<g id="node54" class="node"><title>54</title>
<ellipse fill="none" stroke="black" cx="348.246" cy="-90" rx="37.8943" ry="18"/>
<text text-anchor="middle" x="348.246" y="-86.3" font-family="Times,serif" font-size="14.00">Map.54</text>
</g>
<!-- 53&#45;&gt;54 -->
<g id="edge62" class="edge"><title>53&#45;&gt;54</title>
<path fill="none" stroke="black" d="M348.246,-143.697C348.246,-135.983 348.246,-126.712 348.246,-118.112"/>
<polygon fill="black" stroke="black" points="351.746,-118.104 348.246,-108.104 344.746,-118.104 351.746,-118.104"/>
</g>
<!-- 55 -->
<g id="node55" class="node"><title>55</title>
<ellipse fill="#386cb0" stroke="#386cb0" cx="348.246" cy="-18" rx="51.9908" ry="18"/>
<text text-anchor="middle" x="348.246" y="-14.3" font-family="Times,serif" font-size="14.00">Collapse.55</text>
</g>
<!-- 54&#45;&gt;55 -->
<g id="edge63" class="edge"><title>54&#45;&gt;55</title>
<path fill="none" stroke="black" d="M348.246,-71.6966C348.246,-63.9827 348.246,-54.7125 348.246,-46.1124"/>
<polygon fill="black" stroke="black" points="351.746,-46.1043 348.246,-36.1043 344.746,-46.1044 351.746,-46.1043"/>
</g>
</g>
</svg>
